<?xml version="1.0" encoding="utf-8"?>
<!-- Generator: Adobe Illustrator 19.2.1, SVG Export Plug-In . SVG Version: 6.00 Build 0)  -->
<svg version="1.1" id="Layer_1" xmlns="http://www.w3.org/2000/svg" xmlns:xlink="http://www.w3.org/1999/xlink" x="0px" y="0px"
	 viewBox="0 0 207 155.6" style="enable-background:new 0 0 207 155.6;" xml:space="preserve">
<style type="text/css">
	.st0{fill:none;stroke:#7358FF;stroke-width:3;stroke-linecap:round;stroke-miterlimit:10;}
	.st1{fill:#7358FF;}
</style>
<g>
	<line class="st0" x1="20.2" y1="99.6" x2="68.7" y2="99.6"/>
	<line class="st0" x1="76.6" y1="99.6" x2="125.1" y2="99.6"/>
	<line class="st0" x1="86.1" y1="55.3" x2="115.7" y2="55.3"/>
	<line class="st0" x1="76.6" y1="47.3" x2="125.1" y2="47.3"/>
	<line class="st0" x1="133.1" y1="99.6" x2="181.6" y2="99.6"/>
	<line class="st0" x1="20.2" y1="141.9" x2="68.7" y2="141.9"/>
	<line class="st0" x1="20.3" y1="113.7" x2="68.8" y2="113.7"/>
	<line class="st0" x1="20.3" y1="127.8" x2="68.8" y2="127.8"/>
	<line class="st0" x1="76.6" y1="141.9" x2="125.1" y2="141.9"/>
	<line class="st0" x1="76.8" y1="113.7" x2="125.3" y2="113.7"/>
	<line class="st0" x1="76.8" y1="127.8" x2="125.3" y2="127.8"/>
	<line class="st0" x1="133.1" y1="141.9" x2="181.6" y2="141.9"/>
	<line class="st0" x1="133.2" y1="113.7" x2="181.8" y2="113.7"/>
	<line class="st0" x1="133.2" y1="127.8" x2="181.8" y2="127.8"/>
	<g>
		<path class="st1" d="M178.7,20.1v63.7H22V20.1H178.7 M181.7,17.1H19v69.7h162.7V17.1L181.7,17.1z"/>
	</g>
	<g>
		<path class="st1" d="M189.5,3c4.3,0,7.8,4.2,7.8,9.3v130.9c0,2.6-0.9,5-2.4,6.8c-1.5,1.7-3.4,2.6-5.4,2.6H17.4
			c-4.3,0-7.8-4.2-7.8-9.3v-131c0-5.1,3.5-9.3,7.8-9.3H189.5 M189.5,0H17.4c-6,0-10.8,5.5-10.8,12.3v130.9c0,6.8,4.8,12.3,10.8,12.3
			h172.1c6,0,10.8-5.5,10.8-12.3V12.3C200.3,5.5,195.5,0,189.5,0L189.5,0z"/>
	</g>
</g>
</svg>
