<?xml version="1.0" encoding="utf-8"?>
<!-- Generator: Adobe Illustrator 19.2.0, SVG Export Plug-In . SVG Version: 6.00 Build 0)  -->
<svg version="1.1" id="Layer_1" xmlns="http://www.w3.org/2000/svg" xmlns:xlink="http://www.w3.org/1999/xlink" x="0px" y="0px"
	 viewBox="0 0 207 155.6" style="enable-background:new 0 0 207 155.6;" xml:space="preserve">
<style type="text/css">
	.st0{opacity:0.5;fill:none;stroke:#FFFFFF;stroke-width:4;stroke-miterlimit:10;}
</style>
<path class="st0" d="M206.4,107.1c-0.5-4.9-2.4-9.7-5.5-13.8c-1.8-2.4-3.9-4.5-6.3-6.2c-6.5-4.8-14.8-7.3-23.5-7c0,0,0,0-0.1,0
	l-1.9,0.1c-4.7,0.4-9.5,1.6-13.7,3.6c0,0,0,0-0.1,0c-1.5,0.7-1.9,1-2.1,1.1C139.9,92.1,130,95,123.3,96.1
	c2.9-6.1,8.5-14.8,19.1-25.6c0.2-0.1,0.5-0.5,1.6-1.7c0,0,0,0,0,0c3.1-3.5,5.6-7.8,7.3-12.2l0.6-1.8c0,0,0,0,0-0.1
	c3.7-11.4,2-23.8-4.5-32.4l0,0c-2.2-2.9-4.8-5.3-7.9-7.1c-5.3-3.1-11.6-4.4-17.8-3.5c-5.7,0.8-11.3,3.3-16.2,7.2
	c-2.8,2.3-5.3,5-7.4,8c-2.8,4.4-4.2,7.5-4.9,9.6c-4.1,11.7-2.6,24.6,4,33.4c1.1,1.5,2.4,2.9,3.8,4.1c0.8,0.7,1.6,1.3,2.4,1.9
	l-9.6,22.2L21.4,111c-0.3,0-0.5,0.1-0.8,0.1c-1.6,0.2-3.3,0.5-5.1,1.1c-6.4,2.4-10,8.2-12,12.6c-0.9,2.1-1.6,3.9-1.9,5.6l-1,4.4
	c-0.2,0.7,0,1.4,0.5,2c0.5,0.5,1.2,0.8,1.9,0.7l79.2-9.9l-11.6,28h28.1l15.2-32.1l23.2-2.9c0.9,2.7,2.3,5.2,4,7.6
	c6.3,8.4,17.5,13.5,29.3,13.3c13.5-0.2,25.8-6.9,32-17.6C205.6,118.7,206.9,112.8,206.4,107.1z M114.3,61.3
	c-0.9-0.6-1.7-1.4-2.4-2.3c-2.9-3.8-3.1-9.4-2.3-13.3c1.1-5.5,4.1-10.3,8.3-13.4c3.8-2.8,8.2-3.7,11.7-2.2l0,0h0
	c1.5,0.6,2.8,1.7,3.8,3c2.2,2.9,3.2,7.6,2.5,12.1c-0.8,6-4.1,11.6-8.7,14.9C123.8,62.5,118.5,64.2,114.3,61.3z M188.4,110.7
	c-0.2,2-1.1,4.1-2.6,5.9c-3.3,4-8.9,6.6-15,6.8c-4.9,0.2-11.5-1.2-15.1-6c-0.1-0.2-0.2-0.3-0.4-0.5c-2.3-3.5-2-8.1,0.9-11.8
	c2.8-3.6,7.6-6.1,13-6.9l0.6-0.1c5.1-0.6,11.9,0.5,16.1,5.2c0.2,0.2,0.4,0.4,0.6,0.7C188,106,188.7,108.4,188.4,110.7z"/>
</svg>
