<?xml version="1.0" encoding="utf-8"?>
<!-- Generator: Adobe Illustrator 16.0.0, SVG Export Plug-In . SVG Version: 6.00 Build 0)  -->
<!DOCTYPE svg PUBLIC "-//W3C//DTD SVG 1.1//EN" "http://www.w3.org/Graphics/SVG/1.1/DTD/svg11.dtd">
<svg version="1.1" id="Layer_1" xmlns="http://www.w3.org/2000/svg" xmlns:xlink="http://www.w3.org/1999/xlink" x="0px" y="0px"
	 width="114.018px" height="161.644px" viewBox="0 0 114.018 161.644" enable-background="new 0 0 114.018 161.644"
	 xml:space="preserve">
<g>
	<g>
		<path fill="#FFFFFF" d="M8.394,41.347c-0.148-0.408-0.296-0.815-0.444-1.222c-0.459,1.129-0.919,2.258-1.378,3.388
			c0.148-0.093,0.296-0.185,0.444-0.278c-1.009,0-2.019,0-3.028,0c6.464,2.947,13.003,5.648,19,9.5
			c2.939,1.888,5.945-2.302,3.635-4.711c-4.9-5.115-11.16-8.269-17.107-11.969c0.203,1.57,0.405,3.141,0.607,4.711
			c2.11-1.743,3.942-3.753,6.393-5.031c-1.505-0.863-3.009-1.727-4.514-2.59c0.501,3.998,0.556,7.577,2.91,11.014
			c1.754,2.561,5.293,1.47,5.59-1.514c0.337-3.388-0.578-6.594-1.607-9.797c-1.671,0.973-3.342,1.946-5.014,2.918
			c3.846,4.151,6.059,9.375,8.531,14.393c1.275,2.589,5.92,1.453,5.59-1.514c-0.732-6.58-2.898-12.812-4.107-19.297
			c-1.828,0.771-3.655,1.541-5.483,2.312c2.415,5.063,4.084,10.434,6.5,15.5c1.065,2.234,5.095,1.818,5.483-0.717
			c0.958-6.256,0.653-12.493,0.607-18.797c-1.964,0.266-3.929,0.532-5.893,0.797c1.418,6.693,1.742,13.485,4.802,19.717
			c1.219,2.482,4.73,1.565,5.483-0.717c2.455-7.439,0.749-15.164,0.607-22.797c-1.964,0.266-3.929,0.532-5.893,0.797
			c1.045,6.071,1.735,12.053,4.302,17.717c1.118,2.466,4.837,1.595,5.483-0.717c2.042-7.307,0.246-14.87,0.107-22.297
			c-1.964,0.266-3.929,0.532-5.893,0.797c1.324,6.007,1.185,12.229,3.5,18c1.13,2.818,4.672,2.87,5.785,0
			c2.485-6.402,1.213-13.373,2.5-20c-1.928,0-3.857,0-5.785,0c0.838,5.836,0.637,11.735,2,17.5c0.659,2.79,5.24,2.954,5.785,0
			c1.417-7.671,1.698-15.505,4-23c-1.964-0.266-3.928-0.532-5.893-0.797c-0.189,6.964-2.365,13.855-0.893,20.797
			c0.599,2.828,5.255,2.92,5.785,0c0.992-5.467,1.971-10.871,4.698-15.783c-1.863-0.505-3.727-1.009-5.59-1.514
			c0.236,5.435-1.311,10.646-2,16c-0.424,3.299,4.064,3.606,5.59,1.514c4.006-5.493,5.227-12.367,9-18
			c-1.864-0.505-3.728-1.009-5.591-1.514c-0.651,6.905-2.802,13.535-3,20.5c-0.086,3.033,4.102,4.031,5.591,1.514
			c4.841-8.179,6.545-17.655,11-26c-1.828-0.771-3.656-1.541-5.483-2.312c-1.222,8.876-4.364,17.337-5.107,26.297
			c-0.3,3.611,4.776,3.742,5.893,0.797c3.21-8.464,3.463-20.962,10.729-27.176c-1.671-0.973-3.343-1.946-5.014-2.918
			c-1.719,12.151-6.818,23.45-9,35.5c-0.701,3.873,4.32,5.132,5.785,1.595c4.358-10.523,5.931-22.923,13.729-31.676
			c-1.671-0.973-3.343-1.946-5.014-2.918c-2.727,13.764-8.866,26.491-12.5,40c-0.859,3.193,4.078,5.494,5.483,2.312
			c5.901-13.367,11.021-27.562,20.53-38.893c-1.707-0.707-3.414-1.414-5.121-2.121c-1.96,14.678-12.999,26.381-16.393,40.703
			c-0.786,3.317,3.676,5.241,5.483,2.312c6.772-10.979,9.985-24.011,18.53-33.893c-1.707-0.707-3.414-1.414-5.121-2.121
			c-0.441,16.804-13.599,31.26-19.893,46.203c-1.326,3.147,3.955,5.307,5.483,2.312c6.535-12.815,10.567-27.525,21.03-37.893
			c-1.671-0.441-3.343-0.882-5.014-1.324c1.188,8.198-2.944,16.667-6.351,23.851c-3.308,6.975-7.103,13.745-9.649,21.054
			c-1.182,3.389,3.663,4.973,5.483,2.312c8.59-12.564,10.691-29.61,22.53-39.893c-1.671-0.973-3.343-1.946-5.014-2.918
			c-2.406,15.211-11.661,28.077-16.5,42.5c-1.077,3.21,3.996,5.375,5.483,2.312c3.253-6.702,5.438-13.89,8.153-20.815
			c2.822-7.194,6.449-16.428,13.77-20.109c-1.504-0.863-3.009-1.727-4.514-2.59c-1.294,12.923-8.703,24.138-12.893,36.203
			c-1.113,3.206,3.993,5.364,5.483,2.312c4.027-8.252,6.94-17.088,12.5-24.5c-1.864-0.505-3.728-1.009-5.591-1.514
			c0.702,7.092-2.867,13.779-5.393,20.203c-1.278,3.25,3.791,5.14,5.483,2.312c5.282-8.832,8.157-19.879,8.314-30.136
			c0.153-9.983-6.956-16-14.113-21.907c-3.759-3.102-7.721-5.932-11.434-9.085c-3.054-2.595-6.255-3.893-10.215-2.908
			c-5.339,1.327-10.392,4.215-15.698,5.801c-6.736,2.014-13.479,3.628-19.913,6.535C28.298,19.035-1.278,31.181,11.995,47.821
			c9.969,12.497,29.331-7.526,37.194-13.526c2.891-2.206,6.057-4.749,9.61-5.758c-1.13-1.469-2.259-2.938-3.388-4.407
			c-3.377,7.517,0.393,12.807,5.18,18.575c1.658,1.997,5.933,6.636,5.298,9.495c-0.575,2.586-5.199,4.89-7.243,6.223
			c-4.843,3.159-9.701,6.28-14.758,9.09c-1.506,0.837-12.367,7.04-13.796,5.117c-1.576-2.12-5.885-1.788-5.59,1.514
			c0.955,10.694-9.977,17.852-14.59,26.486c-0.637,1.191-0.515,2.66,0.469,3.635c6.743,6.681,17.984,8.061,27.027,7.201
			c11.09-1.054,15.392-11.245,24.608-15.731c-1.469-0.598-2.938-1.195-4.406-1.793c0.37,1.312,0.37,2.613,0,3.904
			c1.929,0,3.856,0,5.785,0c-0.92-6.844-0.429-13.822-0.393-20.702c0.018-3.332-5.185-4.163-5.893-0.797
			c-0.106,0.682-0.273,1.349-0.5,2c-0.378,1.228,0.217,2.791,1.379,3.388c4.292,2.207,10.405,0.699,14.874-0.135
			c4.173-0.779,10.828-1.917,13.23-5.941c1.013-1.698,0.043-3.854-1.793-4.407c-3.517-1.06-6.822,0.364-10.325-0.122
			c-2.624-0.363,2.084-9.773,2.618-10.971c1.559-3.5-2.978-6.28-5.182-3.028c-5.249,7.747-9.758,16.007-15.53,23.393
			c1.671,0.973,3.343,1.945,5.014,2.919c3.172-8.346,9.164-15.212,12.5-23.5c0.946-2.351-2.374-4.943-4.406-3.388
			c-10.54,8.063-15.9,21.008-19.879,33.292c-1.036,3.198,4.126,5.451,5.483,2.312c3.909-9.044,7.157-18.199,8.41-28.014
			c0.37-2.902-3.384-3.547-5.121-2.121c-9.657,7.925-12.045,21.455-17.469,32.107c1.828,0.771,3.655,1.541,5.483,2.312
			c1.723-7.36,4.834-14.273,7-21.5c1.009-3.365-3.68-5.098-5.483-2.312c-5.787,8.946-9.331,18.978-14,28.5
			c1.828,0.771,3.655,1.541,5.483,2.312c1.313-8.228,4.819-15.887,5.107-24.298c0.099-2.889-3.223-3.603-5.121-2.121
			c-7.365,5.746-9.594,15.053-13.469,23.107c1.863,0.504,3.727,1.009,5.59,1.514c0.684-7.756,3.703-15.033,4.893-22.703
			c0.528-3.401-3.424-5.132-5.483-2.312c-4.984,6.828-7.534,14.877-11,22.5c1.828,0.771,3.655,1.541,5.483,2.312
			c1.21-6.917,3.797-13.419,6.698-19.784c-1.828-0.771-3.655-1.541-5.483-2.312c-2.115,6.695-4.734,13.167-8.198,19.284
			c1.828,0.771,3.655,1.541,5.483,2.312c0.5-1.5,1-3,1.5-4.5c-1.964-0.267-3.928-0.532-5.893-0.798
			c-0.217,4.701,2.717,7.217,7.227,7.432c2.848,0.137,11.729-3.06,13.683-0.418c0.745,1.008,2.057,1.899,3.388,1.379
			c4.41-1.723,6.758-5.031,9.293-8.879c-1.727-1.009-3.454-2.019-5.181-3.027c-1.396,2.468-2.604,5.031-4,7.5
			c1.727,1.009,3.454,2.019,5.181,3.027c3.258-6.355,7.026-12.407,9.302-19.216c0.916-2.739-3.124-5.292-5.014-2.919
			c-2.195,2.755-4.29,5.499-5.969,8.607c1.727,1.009,3.454,2.019,5.181,3.027c1-2,2-4,3-6c0.834-1.668,0.193-3.934-1.793-4.407
			c-1.303-0.31-2.865,0.423-3.095,0.5c-3.652,1.217-2.086,7.013,1.595,5.785c0.979-0.326,1.668-0.67,2.435-1.364
			c-0.973,0.258-1.946,0.515-2.919,0.771c0.13,0.031,0.259,0.062,0.389,0.093c-0.598-1.469-1.195-2.938-1.793-4.406c-1,2-2,4-3,6
			c-1.718,3.436,3.331,6.451,5.181,3.027c1.437-2.657,3.149-5.03,5.031-7.393c-1.671-0.973-3.343-1.945-5.014-2.918
			c-2.107,6.302-5.682,11.9-8.698,17.784c-1.756,3.425,3.267,6.414,5.181,3.027c1.396-2.468,2.604-5.031,4-7.5
			c1.919-3.394-3.065-6.238-5.181-3.027c-1.527,2.317-2.963,5.049-5.707,6.121c1.129,0.459,2.258,0.919,3.388,1.379
			c-2.527-3.418-6.17-3.908-10.201-3.55c-2.266,0.201-10.032,2.66-9.889-0.437c0.163-3.522-4.861-3.893-5.893-0.798
			c-0.5,1.5-1,3-1.5,4.5c-1.089,3.269,3.827,5.236,5.483,2.312c3.711-6.553,6.537-13.542,8.802-20.716
			c1.012-3.204-4.062-5.43-5.483-2.312c-3.111,6.825-6.004,13.793-7.302,21.216c-0.543,3.104,3.976,5.627,5.483,2.312
			c3.465-7.619,6.02-15.677,11-22.5c-1.828-0.771-3.655-1.541-5.483-2.312c-1.275,8.213-4.374,15.977-5.107,24.297
			c-0.259,2.938,4.32,4.153,5.59,1.514c3.635-7.556,5.634-16.511,12.531-21.893c-1.707-0.707-3.414-1.414-5.121-2.121
			c-0.268,7.831-3.668,15.028-4.893,22.702c-0.496,3.105,3.868,5.606,5.483,2.312c4.669-9.521,8.213-19.554,14-28.5
			c-1.828-0.771-3.655-1.541-5.483-2.312c-2.166,7.227-5.277,14.139-7,21.5c-0.751,3.208,3.886,5.448,5.483,2.312
			c5.163-10.139,7.377-23.379,16.531-30.893c-1.707-0.707-3.414-1.414-5.121-2.121c-1.108,8.675-4.138,16.998-7.59,24.986
			c1.828,0.771,3.655,1.541,5.483,2.312c3.418-10.551,8.001-22.729,17.121-29.708c-1.469-1.129-2.938-2.258-4.406-3.388
			c-3.332,8.276-9.314,15.117-12.5,23.5c-1.039,2.732,3.18,5.265,5.014,2.918c6.099-7.802,10.925-16.424,16.47-24.607
			c-1.728-1.009-3.454-2.019-5.182-3.028c-2.004,4.499-5.977,10.937-3.542,15.964c3.144,6.493,9.616,2.37,14.835,3.943
			c-0.598-1.469-1.195-2.938-1.793-4.407c-1.265,2.12-7.495,2.745-9.645,3.184c-2.45,0.501-7.827,1.986-10.251,0.74
			c0.46,1.129,0.92,2.258,1.379,3.388c0.228-0.651,0.395-1.317,0.5-2c-1.964-0.266-3.929-0.532-5.893-0.797
			c-0.039,7.459-0.39,14.882,0.607,22.298c0.407,3.032,5.119,2.702,5.785,0c0.604-2.45,0.408-4.628,0-7.096
			c-0.338-2.046-2.831-2.56-4.406-1.793c-7.549,3.676-11.947,12.778-20.284,14.698c-7.352,1.692-18.57,0.23-24.082-5.229
			c0.157,1.212,0.313,2.424,0.469,3.635c5.247-9.819,16.511-17.177,15.41-29.514c-1.863,0.505-3.727,1.009-5.59,1.514
			c3.588,4.826,9.929,2.625,14.568,0.679c6.969-2.924,13.418-7.024,19.739-11.128c4.966-3.225,12.445-7.007,12.756-13.655
			c0.419-8.979-15.304-15.667-11.382-24.396c1.022-2.277-0.64-5.188-3.388-4.407c-12.841,3.647-21.009,16.979-33.29,22.026
			c-2.019,0.83-4.295,1.425-6.282,0.268c-2.855-1.664-3.395-6.226-2.046-8.874c3.537-6.941,14.073-10.503,20.622-13.725
			c4.49-2.208,8.761-4.477,13.552-6.031c5.811-1.885,11.785-3.159,17.527-5.271c3.082-1.134,8.268-4.69,11.658-3.756
			c1.967,0.542,3.476,2.671,5.043,3.846c1.842,1.381,3.682,2.763,5.499,4.176c6.157,4.787,14.853,10.456,15.394,18.917
			c0.598,9.333-2.704,20.337-7.47,28.303c1.828,0.771,3.656,1.541,5.483,2.312c2.736-6.958,6.368-14.112,5.607-21.797
			c-0.306-3.083-3.765-3.948-5.591-1.514c-5.559,7.412-8.472,16.248-12.5,24.5c1.828,0.771,3.656,1.541,5.483,2.312
			c4.412-12.704,11.742-24.167,13.107-37.797c0.243-2.433-2.683-3.511-4.514-2.59c-7.132,3.586-11.121,11.29-14.257,18.259
			c-3.649,8.114-5.936,16.816-9.82,24.817c1.828,0.771,3.656,1.541,5.483,2.312c4.842-14.43,14.09-27.26,16.5-42.5
			c0.469-2.959-2.632-4.988-5.014-2.918C85.042,38.739,82.833,56.08,73.911,69.13c1.828,0.771,3.656,1.541,5.483,2.312
			c5.431-15.582,18.522-30.686,16-48.095c-0.336-2.323-3.565-2.759-5.014-1.324c-10.9,10.802-15.164,25.763-21.97,39.107
			c1.828,0.771,3.656,1.541,5.483,2.312c6.619-15.715,19.64-30.016,20.107-47.797c0.066-2.508-3.393-4.121-5.121-2.121
			C79.933,23.869,76.49,37.155,69.411,48.63c1.828,0.771,3.656,1.541,5.483,2.312c3.538-14.929,14.548-26.869,16.607-42.297
			c0.344-2.572-3.533-4.014-5.121-2.121c-9.902,11.798-15.32,26.18-21.47,40.107c1.828,0.771,3.656,1.541,5.483,2.312
			c3.635-13.509,9.774-26.235,12.5-40c0.541-2.731-2.865-5.33-5.014-2.918c-8.615,9.67-10.463,22.713-15.271,34.324
			c1.929,0.532,3.856,1.063,5.785,1.595c2.183-12.05,7.281-23.349,9-35.5c0.419-2.96-2.595-4.988-5.014-2.918
			c-8.272,7.075-8.647,20.265-12.271,29.824c1.964,0.266,3.929,0.532,5.893,0.797c0.697-8.402,3.746-16.367,4.893-24.703
			c0.429-3.112-3.74-5.577-5.483-2.312c-4.456,8.347-6.17,17.84-11,26c1.863,0.505,3.727,1.009,5.59,1.514
			c0.197-6.935,2.35-13.606,3-20.5c0.302-3.201-4.077-3.773-5.59-1.514c-3.774,5.635-4.999,12.515-9,18
			c1.863,0.505,3.727,1.009,5.59,1.514c0.694-5.396,2.238-10.511,2-16c-0.125-2.879-4.084-4.228-5.59-1.514
			c-2.988,5.383-4.213,11.212-5.302,17.217c1.928,0,3.857,0,5.785,0c-1.327-6.261,0.936-12.892,1.107-19.203
			c0.094-3.47-4.917-3.973-5.893-0.797c-2.306,7.503-2.582,15.322-4,23c1.928,0,3.857,0,5.785,0c-1.354-5.728-1.165-11.686-2-17.5
			c-0.422-2.942-5.24-2.807-5.785,0c-1.278,6.582-0.053,13.693-2.5,20c1.928,0,3.857,0,5.785,0c-2.309-5.756-2.178-12.003-3.5-18
			c-0.735-3.336-5.955-2.557-5.893,0.797c0.127,6.808,1.974,14.021,0.107,20.703c1.828-0.239,3.655-0.478,5.483-0.717
			c-2.314-5.105-2.757-10.821-3.698-16.283c-0.583-3.384-5.954-2.523-5.893,0.797c0.131,7.042,1.868,14.349-0.393,21.203
			c1.828-0.239,3.655-0.478,5.483-0.717c-2.781-5.663-2.908-12.199-4.198-18.283c-0.712-3.361-5.917-2.538-5.893,0.797
			c0.041,5.724,0.478,11.518-0.393,17.203c1.828-0.239,3.655-0.478,5.483-0.717c-2.415-5.063-4.084-10.434-6.5-15.5
			c-1.556-3.264-6.068-0.823-5.483,2.312c1.107,5.94,3.223,11.683,3.893,17.703c1.863-0.505,3.727-1.009,5.59-1.514
			c-2.72-5.522-5.242-11.046-9.469-15.607c-2.022-2.183-5.929,0.071-5.014,2.918c0.874,2.722,1.68,5.311,1.393,8.203
			c1.863-0.505,3.727-1.009,5.59-1.514c-1.715-2.504-1.726-5.08-2.09-7.986c-0.284-2.261-2.326-3.731-4.514-2.59
			c-2.915,1.52-5.097,3.895-7.607,5.969c-1.543,1.275-0.91,3.768,0.607,4.711c5.51,3.429,11.351,6.29,15.893,11.031
			c1.211-1.57,2.423-3.141,3.635-4.711c-3.994-2.565-8.198-4.639-12.519-6.593c-2.755-1.246-6.953-4.505-9.954-2.629
			c-1.075,0.671-1.843,2.11-1.379,3.388c0.148,0.408,0.296,0.815,0.445,1.222C3.92,46.548,9.72,44.991,8.394,41.347L8.394,41.347z"
			/>
	</g>
</g>
<g>
	<g>
		<path fill="#FFFFFF" d="M93.123,25.265c0.541-0.555,0.181-0.099-0.522-0.208c-0.204-0.032,0.276,0.133,0.459,0.292
			c0.988,0.865,1.716,2.011,2.444,3.089c1.45,2.148,2.795,4.716,4.877,6.327c1.357,1.052,3.849,1.349,4.712-0.607
			c0.674-1.529,1.312-3.172,0.644-4.825c-0.646-1.599-1.907-2.22-3.113-3.311c-2.861-2.587-7.118,1.643-4.242,4.242
			c0.44,0.398,0.909,0.753,1.38,1.115c1.388,1.065,0.294-0.576,0.15-0.25c1.571-0.202,3.142-0.405,4.712-0.607
			c-4.143-3.208-8.746-16.681-15.742-9.5C86.179,23.794,90.418,28.041,93.123,25.265L93.123,25.265z"/>
	</g>
</g>
<g>
	<g>
		<path fill="#FFFFFF" d="M30.501,108.644c0.333,0,0.667,0,1,0c1.635,0,3-1.364,3-3s-1.365-3-3-3c-0.333,0-0.667,0-1,0
			c-1.635,0-3,1.364-3,3S28.866,108.644,30.501,108.644L30.501,108.644z"/>
	</g>
</g>
<g>
	<g>
		<path fill="#FFFFFF" d="M37.501,75.644c0.03,0.554,0.124,1.077,0.292,1.6c0.117,0.364,0.258,0.724,0.311,1.104
			c-0.036-0.266-0.071-0.531-0.107-0.797c0.001,0.031,0.003,0.062,0.005,0.093c0.087,1.632,1.298,3,3,3c1.569,0,3.087-1.366,3-3
			c-0.03-0.554-0.124-1.077-0.292-1.6c-0.117-0.364-0.258-0.724-0.311-1.104c0.036,0.266,0.071,0.531,0.107,0.797
			c-0.001-0.031-0.003-0.062-0.005-0.093c-0.087-1.632-1.298-3-3-3C38.932,72.644,37.414,74.01,37.501,75.644L37.501,75.644z"/>
	</g>
</g>
<g>
	<g>
		<path fill="#FFFFFF" d="M24.109,136.846c-8.034,24.293,25.809,30.187,38.995,15.081c7.157-8.198,5.231-25.976-6.259-29.563
			c-11.319-3.535-29.045,5.489-32.236,16.982c-0.643,2.315,2.214,5.062,4.407,3.389c2.469-1.886,4.859-3.822,7.107-5.97
			c-1.707-0.707-3.414-1.414-5.121-2.121c0.103,5.269-3.081,9.591-5.59,13.986c-1.681,2.943,2.31,6.112,4.711,3.635
			c5.437-5.607,9.826-12.11,15.5-17.5c-1.671-0.973-3.343-1.945-5.014-2.919c-1.022,7.547-6.925,13.62-10.198,20.284
			c-1.745,3.553,2.865,6.046,5.181,3.027c5.552-7.235,9.948-15.264,15.5-22.5c-1.828-0.771-3.655-1.541-5.483-2.312
			c-3.119,8.412-7.879,16.082-11,24.5c-1.088,2.936,2.99,4.898,5.014,2.919c7.56-7.395,11.539-17.276,18-25.5
			c-1.671-0.973-3.343-1.945-5.014-2.919c-1.267,8.132-5.301,15.313-8,23c-0.975,2.774,3.096,5.209,5.014,2.919
			c4.373-5.22,6.404-12.005,11-17c-1.671-0.973-3.343-1.945-5.014-2.919c-1.16,5.598-3.34,10.903-4.5,16.5
			c-0.726,3.502,3.453,4.961,5.483,2.312c2.174-2.836,3.813-6.11,6.031-8.893c2.387-2.992-1.83-7.268-4.242-4.242
			c-2.55,3.197-4.479,6.857-6.969,10.107c1.828,0.771,3.655,1.541,5.483,2.312c1.16-5.598,3.34-10.903,4.5-16.5
			c0.574-2.771-2.852-5.269-5.014-2.919c-4.652,5.055-6.625,11.775-11,17c1.671,0.973,3.343,1.945,5.014,2.919
			c2.7-7.69,6.733-14.864,8-23c0.4-2.567-2.929-5.573-5.014-2.919c-6.435,8.189-10.501,18.164-18,25.5
			c1.671,0.973,3.343,1.945,5.014,2.919c3.119-8.412,7.879-16.082,11-24.5c1.291-3.48-3.601-4.765-5.483-2.312
			c-5.552,7.235-9.948,15.264-15.5,22.5c1.727,1.009,3.454,2.019,5.181,3.027c3.508-7.144,9.703-13.597,10.802-21.716
			c0.384-2.834-2.645-5.169-5.014-2.919c-5.675,5.389-10.063,11.893-15.5,17.5c1.57,1.212,3.141,2.424,4.711,3.635
			c3.076-5.387,6.535-10.582,6.41-17.014c-0.052-2.641-3.218-3.939-5.121-2.121c-1.877,1.793-3.828,3.454-5.893,5.03
			c1.469,1.13,2.938,2.259,4.407,3.389c2.273-8.188,15.799-14.735,23.889-13.095c9.405,1.907,8.167,16.651,2.816,21.661
			c-4.968,4.651-13.229,5.769-19.629,4.303c-7.864-1.801-9.944-8.204-7.575-15.369C31.113,134.757,25.317,133.191,24.109,136.846
			L24.109,136.846z"/>
	</g>
</g>
<g>
	<g>
		<path fill="#F7A51F" d="M46.206,88.901c1.466,2.274-0.974,7.022-1.784,9.247c-1.081,2.967-2.428,5.948-2.867,9.098
			c-0.238,1.707,1.688,2.557,2.742,1.155c4.045-5.382,5.62-12.008,8.5-18c-0.914-0.385-1.828-0.771-2.742-1.155
			c-1.672,5.344-3.879,10.494-5,16c-0.322,1.58,1.959,2.767,2.742,1.155c2.933-6.04,4.905-12.593,9-18
			c-0.932-0.252-1.864-0.505-2.795-0.757c0.241,5.011-1.959,9.434-3.446,14.102c-0.513,1.609,1.987,2.688,2.742,1.155
			c2.406-4.892,4.549-9.898,7.5-14.5c-0.932-0.252-1.863-0.505-2.795-0.757c-0.163,4.16-1.412,8.1-2.446,12.102
			c-0.415,1.603,1.983,2.727,2.741,1.155c1.98-4.103,3.52-8.396,5.5-12.5c-0.914-0.385-1.827-0.771-2.741-1.155
			c-0.985,4.174-2.357,8.25-3,12.5c-0.286,1.892,2.604,2.705,2.893,0.797c0.643-4.249,2.015-8.325,3-12.5
			c0.377-1.595-1.976-2.742-2.741-1.155c-1.98,4.103-3.52,8.396-5.5,12.5c0.914,0.385,1.828,0.771,2.742,1.155
			c1.104-4.27,2.38-8.465,2.554-12.898c0.061-1.558-2.025-1.957-2.795-0.757c-2.95,4.602-5.094,9.607-7.5,14.5
			c0.914,0.385,1.828,0.771,2.742,1.155c1.574-4.938,3.808-9.605,3.554-14.898c-0.076-1.588-1.915-1.92-2.795-0.757
			c-4.095,5.406-6.067,11.96-9,18c0.914,0.385,1.828,0.771,2.742,1.155c1.121-5.505,3.328-10.656,5-16
			c0.503-1.606-2-2.699-2.742-1.155c-2.877,5.988-4.461,12.627-8.5,18c0.914,0.385,1.828,0.771,2.742,1.155
			c0.571-4.099,2.525-7.99,3.851-11.881c0.884-2.595,2.14-6.228,0.499-8.774C47.752,85.767,45.155,87.27,46.206,88.901
			L46.206,88.901z"/>
	</g>
</g>
<g>
	<g>
		<path fill="#F7A51F" d="M41.4,34.698c-2.424-0.57-4.4,1.479-5.929,3.076c-2.356,2.46-4.294,5.347-6.266,8.114
			c-0.886,1.244,0.827,2.827,2.052,2.052c5.454-3.449,9.572-8.451,13.804-13.235c-0.785-0.606-1.57-1.212-2.356-1.817
			c-1.953,2.932-3.878,5.868-5.5,9c-0.789,1.523,1.083,2.982,2.356,1.817c1.873-1.713,4.133-2.815,6.196-4.265
			c-0.734-0.565-1.469-1.129-2.203-1.694c-0.278,0.959-0.377,1.862,0,2.798c0.442,1.097,2.083,1.634,2.742,0.358
			c0.319-0.769,0.807-1.422,1.461-1.961c-0.734-0.565-1.469-1.129-2.203-1.694c-0.159,0.407-0.284,0.824-0.375,1.25
			c-0.175,0.73,0.222,1.708,1.047,1.845c0.81,0.135,1.253-0.087,1.834-0.636c1.409-1.331-0.716-3.448-2.121-2.121
			c-0.094,0.088-0.188,0.177-0.281,0.266c0.486-0.129,0.973-0.257,1.459-0.386c-0.031-0.005-0.062-0.011-0.094-0.016
			c0.349,0.615,0.698,1.23,1.047,1.845c0.091-0.426,0.216-0.843,0.375-1.25c0.396-1.208-1.124-2.444-2.203-1.694
			c-1.2,0.833-1.869,1.74-2.539,3.039c0.914,0.119,1.828,0.239,2.742,0.358c-0.143-0.416-0.143-0.816,0-1.202
			c0.347-1.196-1.1-2.47-2.203-1.694c-2.281,1.603-4.734,2.841-6.804,4.735c0.785,0.606,1.57,1.212,2.356,1.817
			c1.622-3.131,3.547-6.067,5.5-9c0.943-1.417-1.229-3.092-2.356-1.817c-4.049,4.576-7.978,9.465-13.196,12.765
			c0.684,0.684,1.368,1.368,2.052,2.052c1.375-1.93,2.748-3.857,4.234-5.704c0.699-0.869,3.212-4.426,4.571-4.107
			C42.484,38.033,43.283,35.14,41.4,34.698L41.4,34.698z"/>
	</g>
</g>
<g>
	<g>
		<path fill="#F7A51F" d="M59.555,9.543c0.772,2.647,1.854,4.772,3.886,6.662c1.009,0.938,2.449,0.232,2.561-1.061
			c0.13-1.505,0.37-2.994,0.5-4.5c-0.982,0.133-1.964,0.266-2.946,0.399c0.652,2.71,1.604,5.045,3.151,7.358
			c0.635,0.95,1.962,0.982,2.59,0c2.103-3.286,2.19-6.958,2.205-10.757c-0.982,0.133-1.964,0.266-2.946,0.399
			c0.507,3.409,1.155,6.501,3.151,9.358c0.759,1.087,2.297,0.911,2.741-0.358c1.363-3.889,1.18-7.995,2-12c-0.964,0-1.929,0-2.893,0
			c0.841,5.71,0.274,11.424,2,17c0.423,1.366,2.537,1.498,2.893,0c1.406-5.917,1.134-12.007,2-18c-0.964,0-1.929,0-2.893,0
			c0.8,5.875,0.229,11.776,2,17.5c0.438,1.415,2.47,1.447,2.893,0c1.479-5.054,1.579-10.338,2.5-15.5
			c-0.982-0.133-1.964-0.266-2.946-0.399c-0.099,8.188-1.305,16.406,1.054,24.399c0.347,1.175,2.14,1.566,2.741,0.358
			c3.027-6.075,3.604-12.747,4.651-19.358c-0.982-0.133-1.964-0.266-2.946-0.399c-0.084,6.693-0.753,13.278,0.554,19.899
			c0.296,1.501,2.515,1.366,2.893,0c1.457-5.271,2.154-10.703,3.5-16c-0.982-0.133-1.964-0.266-2.946-0.399
			c0.345,7.494-0.779,14.962,0.554,22.399c0.275,1.539,2.49,1.324,2.893,0c1.509-4.966,2.215-10.111,4-15c-0.964,0-1.929,0-2.893,0
			c1.238,8.552-0.937,16.957-3,25.202c-0.474,1.892,2.272,2.616,2.893,0.798c2.003-5.87,4.388-11.478,7.849-16.642
			c-0.932-0.252-1.863-0.504-2.795-0.757c0.203,10.577-4.706,20.317-6.446,30.601c-0.262,1.544,2.006,2.828,2.741,1.156
			c4.493-10.206,7.609-20.964,12.5-31c-0.914-0.385-1.827-0.771-2.741-1.156c-1.689,10.948-5.302,21.431-8.5,32
			c0.964,0.266,1.929,0.532,2.893,0.798c2.56-9.054,2.62-19.28,9.614-26.338c-0.854-0.354-1.707-0.707-2.561-1.061
			c-0.754,7.943-0.52,15.798-2.446,23.601c-0.465,1.881,2.337,2.649,2.893,0.798c1.519-5.055,3.084-10.08,5-15
			c-0.964-0.266-1.929-0.532-2.893-0.798c-1.481,5.167-3.312,10.087-6.867,14.196c-3.131,3.619-7.179,6.482-10.747,9.642
			c0.785,0.606,1.57,1.212,2.355,1.817c0.5-0.667,1-1.333,1.5-2c1.005-1.339-0.854-2.6-2.052-2.052
			c-2.635,1.205-4.711,2.753-6.804,4.735c-1.253,1.186,0.354,3.205,1.817,2.356c7.907-4.592,11.876-12.716,15.189-20.896
			c-0.482,0.367-0.964,0.734-1.446,1.101c6.408-0.662,7.344-9.435,7.498-14.474c0.091-2.971-0.315-6.128-1.703-8.783
			c-1.641-3.14-7.173-5.342-9.998-7.098c-7.189-4.468-12.449-11.617-20.115-15.436c-6.961-3.468-17.201,3.429-23.581,5.845
			c0.565,0.734,1.129,1.469,1.694,2.203c0.489-0.752,0.846-1.518,1.151-2.358c-0.836,0.221-1.671,0.441-2.507,0.662
			c9.541,8.379,19.618,16.454,31.662,20.886c1.819,0.67,2.597-2.23,0.797-2.893c-11.533-4.244-21.206-12.095-30.338-20.114
			c-0.886-0.778-2.11-0.429-2.507,0.662c-0.18,0.602-0.462,1.149-0.849,1.642c-0.684,1.053,0.457,2.672,1.694,2.203
			c6.268-2.374,12.858-6.541,19.718-6.555c2.929-0.005,6.629,3.605,8.696,5.26c2.739,2.192,5.338,4.559,7.959,6.888
			c1.893,1.681,3.948,3.036,6.097,4.372c2.532,1.574,7.122,3.401,8.297,6.324c1.404,3.496,1.896,17.19-3.666,17.765
			c-0.737,0.076-1.17,0.419-1.446,1.101c-3.009,7.427-6.621,14.928-13.811,19.104c0.605,0.786,1.212,1.571,1.817,2.356
			c1.899-1.798,3.828-3.183,6.196-4.265c-0.684-0.684-1.368-1.368-2.052-2.052c-0.5,0.667-1,1.333-1.5,2
			c-1.075,1.433,1.151,2.883,2.355,1.817c3.833-3.394,8.011-6.479,11.372-10.364c3.635-4.201,5.508-9.542,7.014-14.797
			c0.544-1.899-2.207-2.56-2.893-0.798c-1.916,4.921-3.481,9.945-5,15c0.964,0.266,1.929,0.532,2.893,0.798
			c1.992-8.069,1.773-16.181,2.554-24.399c0.128-1.347-1.701-1.928-2.561-1.061c-7.462,7.531-7.65,17.988-10.386,27.662
			c-0.528,1.868,2.334,2.644,2.893,0.798c3.198-10.569,6.811-21.053,8.5-32c0.239-1.547-1.936-2.811-2.741-1.156
			c-4.894,10.041-8.007,20.792-12.5,31c0.914,0.385,1.827,0.771,2.741,1.156c1.788-10.564,6.763-20.526,6.554-31.399
			c-0.029-1.544-1.977-1.978-2.795-0.757c-3.604,5.376-6.068,11.255-8.151,17.358c0.964,0.266,1.929,0.532,2.893,0.798
			c2.213-8.838,4.325-17.65,3-26.798c-0.233-1.616-2.443-1.23-2.893,0c-1.785,4.889-2.491,10.034-4,15c0.964,0,1.929,0,2.893,0
			c-1.28-7.147-0.115-14.396-0.446-21.601c-0.076-1.653-2.517-2.091-2.946-0.399c-1.347,5.298-2.043,10.73-3.5,16
			c0.964,0,1.929,0,2.893,0c-1.251-6.342-0.526-12.697-0.446-19.101c0.021-1.654-2.677-2.099-2.946-0.399
			c-0.999,6.309-1.458,12.84-4.349,18.642c0.914,0.119,1.827,0.239,2.741,0.358c-2.278-7.721-1.042-15.695-0.946-23.601
			c0.021-1.658-2.645-2.093-2.946-0.399c-0.92,5.158-1.023,10.454-2.5,15.5c0.964,0,1.929,0,2.893,0
			c-1.755-5.671-1.206-11.666-2-17.5c-0.196-1.443-2.686-1.434-2.893,0c-0.864,5.981-0.599,12.103-2,18c0.964,0,1.929,0,2.893,0
			c-1.711-5.528-1.165-11.327-2-17c-0.218-1.477-2.606-1.396-2.893,0c-0.816,3.987-0.646,8.139-2,12
			c0.914-0.119,1.827-0.239,2.741-0.358c-1.861-2.666-2.38-5.496-2.849-8.642c-0.255-1.712-2.94-1.244-2.946,0.399
			c-0.013,3.271,0.028,6.393-1.795,9.243c0.863,0,1.727,0,2.59,0c-1.402-2.098-2.263-4.208-2.849-6.642
			c-0.419-1.741-2.808-1.207-2.946,0.399c-0.13,1.505-0.37,2.994-0.5,4.5c0.854-0.354,1.707-0.707,2.561-1.061
			c-1.698-1.579-2.479-3.161-3.114-5.338C61.908,6.892,59.012,7.681,59.555,9.543L59.555,9.543z"/>
	</g>
</g>
<g>
	<g>
		<path fill="#F7A51F" d="M49.555,132.042c0.84,6.001-0.316,12.038,1,18c0.333,1.511,2.477,1.354,2.893,0
			c1.999-6.507,2.519-13.294,3.5-20c-0.982-0.133-1.964-0.266-2.946-0.398c0.039,8.034,0.542,16.023,1.5,24
			c0.225,1.867,2.999,1.985,3,0c0.005-7.286,0.094-14.506,1.946-21.602c-0.982-0.133-1.964-0.266-2.946-0.398
			c0.87,7.66,0.068,15.321,0,23c-0.015,1.68,2.554,2.062,2.946,0.398c1.934-8.19,2.55-16.563,3.554-24.898c-1,0-2,0-3,0
			c-0.071,8.016-0.852,16.001,0,24c0.173,1.625,2.44,2.113,2.946,0.398c2.396-8.113,1.185-16.59,2.054-24.898c-1,0-2,0-3,0
			c0,7.667,0,15.333,0,23c0,1.767,2.39,1.945,2.946,0.398c0.945-2.625,1.442-5.117,1.554-7.898c-1,0-2,0-3,0
			c0.083,5.719-3.988,9.286-9.399,10.054c0.565,0.734,1.129,1.469,1.694,2.203c2.637-3.55,2.548-8.453,2.512-12.672
			c-0.026-3.112-1.944-14.376,2.091-15.639c1.84-0.575,1.055-3.472-0.797-2.893c-4.158,1.301-4.377,6.134-4.472,9.818
			c-0.156,6.058,1.956,14.649-1.925,19.871c-0.894,1.202,0.578,2.361,1.694,2.203c6.743-0.957,11.702-6.006,11.601-12.946
			c-0.028-1.94-2.923-1.927-3,0c-0.1,2.501-0.604,4.76-1.446,7.102c0.982,0.133,1.964,0.266,2.946,0.398c0-7.667,0-15.333,0-23
			c0-1.974-2.803-1.883-3,0c-0.84,8.033,0.369,16.26-1.946,24.102c0.982,0.133,1.964,0.266,2.946,0.398
			c-0.852-7.999-0.071-15.984,0-24c0.018-1.984-2.775-1.865-3,0c-0.972,8.068-1.575,16.173-3.446,24.102
			c0.982,0.133,1.964,0.266,2.946,0.398c0.068-7.679,0.87-15.34,0-23c-0.181-1.59-2.489-2.151-2.946-0.398
			c-1.92,7.354-2.049,14.838-2.054,22.398c1,0,2,0,3,0c-0.959-7.977-1.461-15.966-1.5-24c-0.008-1.642-2.695-2.112-2.946-0.398
			c-0.982,6.705-1.502,13.494-3.5,20c0.964,0,1.928,0,2.893,0c-1.306-5.919-0.163-12.019-1-18
			C52.181,129.336,49.291,130.152,49.555,132.042L49.555,132.042z"/>
	</g>
</g>
<g>
	<g>
		<path d="M0.207,40.235c4.542,8.052,14.262,12.046,21.872,16.538c0.647,0.382,1.717,0.206,2.052-0.538
			c3.527-7.826,9.434-17.635,16.483-22.672c7.24-5.175,19.988,13.541,24.495,17.642c-0.078-0.606-0.156-1.212-0.234-1.817
			c-3.516,6.347-11.961,9.931-18.213,12.878c-6.674,3.146-13.736,5.915-20.892,7.766c-1.872,0.484-1.077,3.377,0.798,2.893
			c7.429-1.921,14.648-4.87,21.608-8.068c6.748-3.1,15.511-7.132,19.289-13.955c0.316-0.57,0.27-1.359-0.234-1.817
			c-6.812-6.201-15.249-20.945-26.127-19.052c-4.17,0.726-7.746,6.466-10.058,9.497c-3.566,4.678-7.08,9.81-9.505,15.192
			c0.684-0.179,1.369-0.358,2.052-0.538C16.468,49.977,7.038,46.238,2.797,38.72C1.847,37.036-0.745,38.547,0.207,40.235
			L0.207,40.235z"/>
	</g>
</g>
<g>
	<g>
		<path d="M23.389,71.079c-1.75,12.86-12.116,21.935-16,34.001c-0.264,0.818,0.303,1.582,1.047,1.845
			c9.98,3.521,20.172,6.496,30.667,8c0.786,0.112,1.638-0.18,1.845-1.048c2.154-9.007,5.162-17.805,6.054-27.066
			c-0.367,0.482-0.734,0.964-1.101,1.446c11.042-2.216,22.046-4.264,33.195-5.856c6.674-0.953,8.549-3.611,11.361-9.518
			c3.104-6.523,4.658-14.246,5.515-21.369c0.841-6.999,1.145-13.756-4.445-18.825c-2.923-2.649-6.721-4.357-10.112-6.299
			c-4.649-2.661-9.088-5.658-13.481-8.716c-6.785-4.723-13.559-8.783-22.092-7.311c-4.414,0.761-8.143,3.493-11.906,5.715
			c-4.083,2.411-8.297,4.6-12.443,6.899c-6.909,3.831-14.488,7.94-19.286,14.412c-1.153,1.556,1.452,3.049,2.591,1.514
			c4.457-6.012,11.819-9.753,18.209-13.335c6.75-3.784,13.641-8.609,20.803-11.494c8.403-3.385,15.924,1.572,22.61,6.19
			c6.85,4.731,14.09,8.673,21.086,13.146c7.373,4.715,6.312,12.727,5.142,20.293c-0.953,6.165-2.412,12.691-5.106,18.351
			c-1.184,2.486-2.039,5.441-4.822,6.561c-2.549,1.025-5.585,1.042-8.281,1.417c-9.854,1.367-19.584,3.375-29.334,5.333
			c-0.693,0.139-1.04,0.811-1.101,1.446c-0.864,8.979-3.858,17.538-5.946,26.27c0.615-0.35,1.23-0.699,1.845-1.048
			c-10.495-1.504-20.686-4.479-30.667-8c0.349,0.615,0.698,1.23,1.047,1.845c3.89-12.085,14.241-21.066,16-34
			C26.539,69.985,23.649,69.169,23.389,71.079L23.389,71.079z"/>
	</g>
</g>
<g>
	<g>
		<path d="M41.108,110.417c-0.691,0.87-1.311,1.798-2,2.666c-1.192,1.501,0.627,3.397,2.121,2.121
			c6.088-5.2,13.417-9.937,21.338-11.614c1.893-0.4,1.09-3.292-0.797-2.893c-8.449,1.789-16.177,6.846-22.663,12.386
			c0.707,0.707,1.414,1.414,2.121,2.121c0.691-0.87,1.311-1.798,2-2.666C44.42,111.041,42.312,108.903,41.108,110.417
			L41.108,110.417z"/>
	</g>
</g>
<g>
	<g>
		<path d="M63.669,102.144c0.002-5.812-0.188-11.938,1.278-17.602c0.485-1.874-2.408-2.669-2.893-0.797
			c-1.536,5.933-1.384,12.313-1.386,18.398C60.668,104.079,63.668,104.079,63.669,102.144L63.669,102.144z"/>
	</g>
</g>
<g>
	<g>
		<path d="M87.23,80.538c5.704-5.619,12.488-11.893,20.004-14.948c1.768-0.718,0.996-3.622-0.797-2.893
			c-8.006,3.254-15.242,9.723-21.328,15.719C83.729,79.776,85.851,81.896,87.23,80.538L87.23,80.538z"/>
	</g>
</g>
<g>
	<g>
		<path d="M48.568,12.924c11.486-2.84,22.353-7.77,34-10c1.899-0.363,1.093-3.254-0.797-2.893c-11.647,2.23-22.515,7.16-34.001,10
			C45.893,10.495,46.689,13.388,48.568,12.924L48.568,12.924z"/>
	</g>
</g>
<g>
	<g>
		<path d="M81.541,2.235c8.564,11.907,19.326,21.917,28.9,32.97c1.269,1.465,3.381-0.667,2.121-2.121
			C103.16,22.228,92.542,12.414,84.13,0.72C83.012-0.834,80.408,0.661,81.541,2.235L81.541,2.235z"/>
	</g>
</g>
<g>
	<g>
		<path d="M110.055,33.209c2.239,10.87-4.359,20.962-5.386,31.601c-0.186,1.926,2.816,1.908,3,0
			c1.069-11.085,7.629-20.993,5.278-32.399C112.557,30.518,109.666,31.321,110.055,33.209L110.055,33.209z"/>
	</g>
</g>
<g>
	<g>
		<path d="M23.592,56.106c9.005-5.037,17.256-11.5,26.976-15.182c1.785-0.676,1.116-3.334-0.798-2.893
			c-0.385,0.074-0.764,0.173-1.136,0.296c0.564,0.23,1.129,0.46,1.694,0.689c0.396,0.594,1.217-2.699,1.287-3.14
			c0.302-1.892-2.588-2.704-2.893-0.798c-0.281,1.761-2.099,3.781-0.985,5.452c0.369,0.554,1.023,0.891,1.694,0.689
			c0.372-0.123,0.751-0.222,1.136-0.296c-0.266-0.964-0.532-1.928-0.798-2.893c-9.982,3.781-18.443,10.312-27.691,15.484
			C20.39,54.459,21.902,57.051,23.592,56.106L23.592,56.106z"/>
	</g>
</g>
<g>
	<g>
		<path d="M22.522,137.595c0.491,4.13,0.875,8.267,1.498,12.38c0.485,3.201,0.854,7.844,3.593,10.039
			c2.435,1.951,7.023,1.366,9.842,1.224c5.036-0.254,10.023-1.262,15.064-1.37c0.434-0.01,0.717-0.336,0.75-0.75
			c0.494-6.203-0.211-12.115-1.414-18.186c-0.352-1.776,0.033-4.865-1.819-5.967c-2.465-1.465-7.155-1.202-9.781-0.845
			c-6.062,0.827-11.952,3.054-18.086,3.277c0.216,0.376,0.432,0.752,0.647,1.129c9.496-13.792,26.979-15.583,42.396-15.633
			c-0.126-0.466-0.252-0.932-0.379-1.397c-5.646,3.632-12.159,6.336-16.272,11.856c-0.579,0.777,0.724,1.523,1.295,0.758
			c3.923-5.266,10.354-7.858,15.735-11.319c0.613-0.395,0.391-1.4-0.379-1.397c-16.02,0.052-33.869,2.109-43.691,16.375
			c-0.321,0.467,0.104,1.148,0.647,1.129c9.018-0.329,17.117-4.554,26.275-2.853c2.103,0.391,2.223,6.588,2.563,8.237
			c0.663,3.213,0.889,6.492,0.976,9.764c0.066,2.468,0.726,4.25-1.863,4.447c-3.417,0.26-6.818,0.75-10.231,1.063
			c-3.274,0.302-8.88,1.269-11.672-0.97c-2.33-1.867-2.524-7.52-2.93-10.198c-0.543-3.583-0.837-7.197-1.265-10.794
			C23.91,136.647,22.409,136.636,22.522,137.595L22.522,137.595z"/>
	</g>
</g>
<g>
	<g>
		<path d="M64.816,122.144c-1.069,8.911,0.304,18.475,3.364,26.887c0.349-0.614,0.698-1.229,1.048-1.845
			c-2.457,0.693-4.417,2.117-6.385,3.696c-1.811,1.454-5.763,6.604-8.269,6.236c-1.892-0.277-2.706,2.613-0.798,2.893
			c6.243,0.914,10.582-8.333,16.249-9.933c0.739-0.208,1.329-1.072,1.048-1.845c-2.99-8.222-4.302-17.382-3.257-26.09
			C68.046,120.226,65.043,120.248,64.816,122.144L64.816,122.144z"/>
	</g>
</g>
<g>
	<g>
		<path d="M28.001,161.644c8.924-0.198,17.855,0.16,26.75-0.75c1.905-0.195,1.924-3.197,0-3c-8.895,0.91-17.826,0.552-26.75,0.75
			C26.07,158.687,26.066,161.687,28.001,161.644L28.001,161.644z"/>
	</g>
</g>
<g>
	<g>
		<path d="M21.001,137.394c-0.198,7.048,1.325,15.899,4.955,22.007c0.987,1.661,3.582,0.153,2.591-1.514
			c-3.355-5.646-4.728-14.003-4.545-20.493C24.056,135.458,21.056,135.463,21.001,137.394L21.001,137.394z"/>
	</g>
</g>
<g>
	<g>
		<path d="M23.562,137.955c4.16-5.062,10.941-10.83,17.334-12.701c7.446-2.18,16.791-2.737,24.457-1.663
			c1.891,0.266,2.706-2.625,0.797-2.893c-8.371-1.174-16.57,0.158-24.844,1.419c-7.221,1.101-15.383,8.262-19.865,13.717
			C20.223,137.315,22.333,139.451,23.562,137.955L23.562,137.955z"/>
	</g>
</g>
</svg>
