<?xml version="1.0" encoding="utf-8"?>
<!-- Generator: Adobe Illustrator 19.2.0, SVG Export Plug-In . SVG Version: 6.00 Build 0)  -->
<svg version="1.1" xmlns="http://www.w3.org/2000/svg" xmlns:xlink="http://www.w3.org/1999/xlink" x="0px" y="0px"
	 viewBox="0 0 346 252" style="enable-background:new 0 0 346 252;" xml:space="preserve">
<style type="text/css">
	.st0{fill:none;stroke:#0000FF;stroke-width:3;stroke-miterlimit:10;}
</style>
<g id="brushes">
	<line class="st0" x1="84.5" y1="164.7" x2="69.4" y2="250"/>
	<line class="st0" x1="98.9" y1="164.7" x2="83.8" y2="250"/>
	<line class="st0" x1="113.3" y1="164.7" x2="98.2" y2="250"/>
	<line class="st0" x1="127.7" y1="164.7" x2="112.6" y2="250"/>
	<line class="st0" x1="142.1" y1="164.7" x2="127" y2="250"/>
	<line class="st0" x1="156.5" y1="164.7" x2="141.4" y2="250"/>
	<line class="st0" x1="170.9" y1="164.7" x2="155.8" y2="250"/>
	<line class="st0" x1="185.3" y1="164.7" x2="170.2" y2="250"/>
	<line class="st0" x1="199.7" y1="164.7" x2="184.6" y2="250"/>
	<line class="st0" x1="214" y1="164.7" x2="199" y2="250"/>
	<line class="st0" x1="228.4" y1="164.7" x2="213.3" y2="250"/>
	<line class="st0" x1="242.8" y1="164.7" x2="227.7" y2="250"/>
	<line class="st0" x1="257.2" y1="164.7" x2="242.1" y2="250"/>
	<line class="st0" x1="271.6" y1="164.7" x2="256.5" y2="250"/>
</g>
<g id="body">
	<g>
		<path class="st0" d="M159.8,130.9H93.4c-1.1,0-2-0.9-2-2V98.8c0-1.1,0.9-2,2-2h66.4c1.1,0,2,0.9,2,2v30.2
			C161.8,130,160.9,130.9,159.8,130.9z"/>
		<path class="st0" d="M308.7,130.9H172.7c-1.1,0-2-0.9-2-2v-19.2c0-1.1,0.9-2,2-2h136.1c1.1,0,2,0.9,2,2v19.2
			C310.7,130,309.8,130.9,308.7,130.9z"/>
		<path class="st0" d="M272.3,165.1H70.4c-2.2,0-4-1.8-4-4v-26.2c0-2.2,1.8-4,4-4h201.9c2.2,0,4,1.8,4,4v26.2
			C276.3,163.3,274.5,165.1,272.3,165.1z"/>
		<path class="st0" d="M270.9,130.9H340c2.2,0,4,1.8,4,4v39.7l-73.1-9.6"/>
		<line class="st0" x1="82.5" y1="130.5" x2="38.2" y2="48.5"/>
		<ellipse class="st0" cx="26.5" cy="26.6" rx="24.5" ry="24.6"/>
		<ellipse class="st0" cx="26.5" cy="26.6" rx="10.6" ry="10.6"/>
	</g>
</g>
</svg>
