<?xml version="1.0" encoding="utf-8"?>
<!-- Generator: Adobe Illustrator 16.0.0, SVG Export Plug-In . SVG Version: 6.00 Build 0)  -->
<!DOCTYPE svg PUBLIC "-//W3C//DTD SVG 1.1//EN" "http://www.w3.org/Graphics/SVG/1.1/DTD/svg11.dtd">
<svg version="1.1" id="Layer_1" xmlns="http://www.w3.org/2000/svg" xmlns:xlink="http://www.w3.org/1999/xlink" x="0px" y="0px"
	 width="140.812px" height="136.227px" viewBox="0 0 140.812 136.227" enable-background="new 0 0 140.812 136.227"
	 xml:space="preserve">
<g>
	<g>
		<path fill="#FFFFFF" d="M5.058,7.331C5.703,12.05,3.21,17.302,2.95,22.033c-0.377,6.858-0.54,13.718-0.404,20.586
			C2.818,56.304,4.33,70.405,9.86,83.047c1.182,2.703,5.873,1.382,5.59-1.514c-1.567-16.049-5.694-32.134-2.107-48.203
			c-1.964-0.266-3.928-0.532-5.893-0.797c0.454,19.025-0.251,38.13,4.107,56.798c0.779,3.34,5.9,2.552,5.893-0.798
			c-0.052-23.098-1.871-46.414,2.893-69.203c-1.964-0.266-3.928-0.532-5.893-0.797c-0.616,22.155-4.58,45.275,2.607,66.798
			c1.134,3.397,5.47,2.47,5.893-0.798c2.355-18.209-0.441-37.26,6.393-54.703c-1.928,0-3.857,0-5.785,0
			c3.749,18.581-3.744,37.434,1,56c0.718,2.812,5.137,2.928,5.785,0c3.739-16.878,1.041-35.212,8.198-51.284
			c-1.863-0.505-3.727-1.009-5.59-1.514c0.356,17.735-4.447,36.056,1.607,53.298c0.934,2.66,5.032,3.056,5.785,0
			c3.933-15.941,3.681-32.538,7.5-48.5c-1.964-0.266-3.928-0.532-5.893-0.797c-0.667,15.333-4.714,30.649-0.393,45.798
			c0.854,2.996,4.814,2.717,5.785,0c5.572-15.593,3.116-32.496,6.5-48.5c-1.964-0.266-3.928-0.532-5.893-0.797
			c-1.537,13.148-3.263,26.282,0.107,39.298c0.72,2.78,5.175,2.959,5.785,0c1.32-6.402,1.953-12.992,2.327-19.509
			c0.361-6.291,0.68-13.441-1.995-19.308c-1.065-2.336-3.46-4.795-6.072-5.14c-2.688-0.355-5.416,1.598-8.188,1.696
			c-9.043,0.322-19.835-3.451-27.451-8.127c0,1.727,0,3.454,0,5.181c9.945-4.855,23.127-3.186,33.821-2.505
			c11.568,0.736,23.625,5.377,34.962,0.808c-0.771-1.828-1.541-3.656-2.312-5.483c-0.429,0.232-0.856,0.465-1.284,0.697
			c-3.3,1.031-2.572,5.694,0.798,5.893c16.336,0.964,32.645,2.072,48.702,5.393c-0.733-0.964-1.468-1.929-2.202-2.893
			c0,1.333,0,2.667,0,4c0,2.475,3.362,4.163,5.121,2.121c1.742-2.021,3.952-3.358,5.47-5.607c-1.728,0-3.454,0-5.182,0
			c0.438,0.821,0.857,1.418,1.47,2.107c2.032,2.286,5.817-0.118,5.014-2.918c-3.346-11.667-11.853-15.486-23.251-16.232
			c-7.64-0.5-15.145-0.888-22.72-2.16c-9.115-1.531-18.102-3.274-27.316-4.134C54.369,5.853,45.14,5.486,35.924,5.112
			C30.481,4.892,25.121,3.918,19.686,3.66C15.911,3.48,12.221,4.117,9.3,6.625c-3.671,3.153-2.979,9.042-2.243,13.206
			c0.34,1.924,2.859,2.72,4.407,1.793c3.094-1.854,5.419-4.655,8.5-6.5c-1.505-0.863-3.009-1.727-4.514-2.59
			c-0.257,3.396-1.866,6.5-2.893,9.703c-0.932,2.906,2.951,5.003,5.014,2.918c3.195-3.228,6.362-6.996,10.676-8.728
			c-1.23-0.699-2.46-1.397-3.69-2.096c1.119,4.876-2.675,11.103-3.781,15.8c-1.141,4.844-0.264,9.285,4.101,12.046
			c4.045,2.559,9.052,0.252,12.646-1.927c3.465-2.101,9.482-8.227,13.913-6.126c-0.495-0.863-0.991-1.727-1.486-2.59
			c0.037,8.099-7.554,14.84-12.621,20.379c1.57,1.211,3.141,2.423,4.711,3.635c6.562-8.556,13.476-17.24,22.424-23.424
			c-1.469-1.129-2.938-2.258-4.407-3.388c-4.32,11.49-14.487,19.552-22.229,28.676c-2.469,2.91,1.542,7.082,4.242,4.242
			c13.063-13.73,24.188-31.07,41.393-40.031c-1.368-1.368-2.736-2.736-4.104-4.104c-10.53,16.296-24.392,30.014-36,45.5
			c-2.047,2.731,2.499,6.195,4.711,3.635c10.066-11.643,19.401-24.313,31.893-33.531c-1.368-1.368-2.736-2.736-4.104-4.104
			c-10.84,16.303-24.498,30.424-37.03,45.393c-2.449,2.925,1.622,7.146,4.242,4.242c15.825-17.531,29.74-39.119,51.393-50.031
			c-1.504-0.863-3.009-1.727-4.514-2.59c0.008,4.252-3.982,8.403-6.526,11.451c-2.734,3.277-5.491,6.561-8.271,9.797
			C66.238,57.659,57.216,67.943,49.86,79.52c-1.851,2.912,2.336,6.035,4.711,3.635c10.202-10.307,19.739-21.298,29.761-31.783
			c7.17-7.502,15.264-18.98,25.916-21.445c-1.13-1.469-2.259-2.938-3.389-4.407C101.673,37.04,91.332,45.885,83.138,55.28
			C73.847,65.931,64.767,76.785,56.86,88.52c-1.92,2.849,2.399,6.097,4.711,3.635c9.295-9.896,18.502-19.908,27.688-29.902
			c7.666-8.34,15.896-18.594,26.989-22.326c-1.13-1.469-2.259-2.938-3.389-4.407c-10.078,20.646-27.91,35.913-41,54.5
			c-1.971,2.799,2.447,6.146,4.712,3.635c15.867-17.588,28.124-39.538,48.893-52.031c-1.504-0.863-3.009-1.727-4.514-2.59
			c-0.572,4.615-4.555,9.036-7.356,12.486c-2.871,3.535-5.996,6.856-8.734,10.5c-7.243,9.638-16.433,18.251-20.802,29.716
			c-1.105,2.901,3.018,4.943,5.014,2.919c11.973-12.138,21.692-26.205,31.47-40.107c2.263-3.218-2.889-6.018-5.182-3.028
			c-5.991,7.814-14.456,18.886-10.302,29.312c0.574,1.441,2.019,2.668,3.69,2.095c7.19-2.466,10.331-11.312,12.87-17.745
			c4.098-10.384,7.665-20.701,12.923-30.634c-1.828-0.239-3.656-0.478-5.483-0.717c2.479,8.962-2.757,19.173-3.868,28.109
			c-1.637,13.172-1.642,26.365-0.739,39.594c2,0,4,0,6,0c-1.321-12.507,0.399-24.98,0.5-37.5c-2,0-4,0-6,0
			c0.035,19.046,1.074,38.137,5.107,56.798c1.929-0.532,3.856-1.063,5.785-1.596c-0.166-0.5-0.333-1-0.5-1.5
			c-1.218-3.653-6.7-2.187-5.785,1.596c0.309,1.277,0.382,2.406,0.393,3.702c1.505-0.863,3.01-1.727,4.514-2.591
			c-6.971-3.446-15.153-0.935-22.343,0.514c-11.05,2.226-23.094,2.289-34.338,2.541c-23.477,0.527-46.985,1.337-70.13,5.644
			c0.532,1.929,1.063,3.856,1.595,5.785c8.179-3.138,6.412-13.793,6.815-20.87c0.894-15.663,0.317-31.376-0.613-47.022
			c-0.235-3.96-5.51-3.754-6,0c-2.751,21.083-2.969,44.497,4.107,64.798c1.064,3.055,6.068,2.752,5.893-0.798
			c-0.54-10.893-4.302-21.125-7.061-31.578C9.07,86.876,10.448,74.381,10.45,61.533c-1.964,0.266-3.929,0.532-5.893,0.797
			c3.87,20.858,4.629,42.14,8.5,63c0.664,3.579,5.573,2.316,5.893-0.798c1.945-18.946,2.506-38.096,6.893-56.703
			c-1.964-0.266-3.928-0.532-5.893-0.797c-0.225,18.081-6.872,36.614-0.393,54.298c0.775,2.117,4.363,3.364,5.483,0.716
			c2.897-6.85,2.255-15.026,2.894-22.332c0.917-10.506,2.263-20.969,3.909-31.384c-1.964-0.266-3.928-0.532-5.893-0.797
			c0.296,17.638-6.554,36.272,0.607,53.298c1.156,2.75,4.688,2.935,5.785,0c5.473-14.635,2.673-31.053,3.107-46.298
			c0.095-3.325-5.355-4.179-5.893-0.798c-2.332,14.65-5.722,32.8,2.302,46.312c1.28,2.156,4.889,1.872,5.483-0.716
			c3.292-14.335,0.283-29.343,4.5-43.5c-1.928,0-3.857,0-5.785,0c2.701,16.32-4.36,33.107,2,49c1.069,2.671,4.849,3.028,5.785,0
			c4.385-14.171,1.653-29.055,4-43.5c-1.964-0.267-3.928-0.532-5.893-0.798c-0.117,13.488-3.095,27.876,2.107,40.798
			c0.971,2.413,5.232,3.271,5.785,0c2.324-13.747,0.207-27.83,3-41.5c-1.964-0.267-3.928-0.532-5.893-0.798
			c-0.079,15.694-1.718,31.474,2.607,46.798c0.756,2.681,5.264,3.05,5.785,0c2.771-16.195-1.349-33.352,4.5-49
			c-1.964-0.267-3.928-0.532-5.893-0.798c1.379,16.476-2.167,32.984,1.607,49.298c0.645,2.787,5.261,2.956,5.785,0
			c1.492-8.413,1.988-16.973,3.372-25.405c1.365-8.317,3.319-19.598,10.749-24.802c-1.504-0.864-3.009-1.728-4.514-2.591
			c1.16,17.898-9.62,34.235-6.393,52.298c0.382,2.142,3.624,2.985,5.014,1.323c10.009-11.967,7.056-28.941,12.97-42.607
			c-1.864-0.504-3.728-1.009-5.591-1.514c-1.409,14.679-9.165,30.07-2.591,44.514c1.043,2.29,3.977,1.578,5.182,0
			c10.831-14.184,6.729-34.062,17-48.5c-1.864-0.504-3.728-1.009-5.591-1.514c-1.388,12.482-9.427,24.522-5.393,37.298
			c0.723,2.288,4.295,3.196,5.483,0.716c6.04-12.607,7.163-26.835,13-39.5c-1.828-0.771-3.656-1.541-5.483-2.312
			c-2.205,8.265-6.207,15.979-8.666,24.18c-2.064,6.885-3.593,15.29,1.438,21.239c1.035,1.226,3.188,1.116,4.242,0
			c12.325-13.042,8.52-32.718,17.97-47.107c-1.864-0.504-3.728-1.009-5.591-1.514c-1.519,16.214-14.28,32.05-7.091,48.514
			c0.903,2.068,4.21,1.851,5.182,0c3.982-7.587,4.27-15.952,5.802-24.216c1.81-9.757,4.589-19.381,7-29
			c0.944-3.767-4.619-5.271-5.785-1.595c-5.517,17.389-13.391,34.953-10.5,53.595c0.441,2.847,4.163,2.56,5.483,0.716
			c10.518-14.688,10.425-34.791,14.802-51.716c0.989-3.824-4.411-5.126-5.785-1.595c-6.273,16.119-13.517,36.908-7.5,54.095
			c1.138,3.251,5.633,2.607,5.893-0.798c0.947-12.399,1.176-24.859,5.393-36.702c-1.964-0.267-3.929-0.532-5.893-0.798
			c-1.37,13.489-7.567,30.696,0.909,43.014c1.791,2.604,5.223,1.431,5.591-1.514c0.844-6.754,0.703-13.57,2.393-20.202
			c-1.964-0.267-3.929-0.532-5.893-0.798c0.391,6.296-0.318,12.595,1.107,18.798c0.659,2.87,5.127,2.872,5.785,0
			c1.043-4.551,1.589-9.164,2.107-13.798c-1.964,0.266-3.929,0.531-5.893,0.798c0.586,1.836,1.957,4.862,1.041,6.787
			c-0.858,1.804-5.646,1.394-7.148,1.415c-8.072,0.116-15.766-2.456-23.844-1.684c-7.193,0.687-14.172,2.902-21.408,3.222
			c-3.41,0.15-6.835,0.084-10.248,0.134c-8.533,0.123-42.534-1.23-38.893,14.626c0.642,2.797,4.047,2.613,5.483,0.716
			c2.186-2.888,4.885-5.492,7.883-7.521c0.936-0.633,2.581-1.799,3.803-1.581c0.877,0.156,0.276,5.046,0.224,5.589
			c-0.175,1.8,2.08,3.608,3.797,2.893c2.003-0.834,3.875-1.887,5.792-2.898c1.153-0.607,2.32-1.132,3.558-1.544
			c1.777-0.592,1.354-0.016,1.353,1.55c-0.003,2.415,2.515,3.551,4.514,2.591c3.475-1.669,19.929-13.471,22.093-7.293
			c0.628,1.793,2.655,2.844,4.406,1.793c3.146-1.889,6.339-3.694,9.617-5.342c1.783-0.896,3.598-1.707,5.514-2.272
			c2.031-0.598-1.189,0.629-0.687-2.401c-0.199,1.198-1.369,2.463-2.049,3.411c-1.788,2.494,1.656,5.629,4.104,4.104
			c3.564-2.22,6.524-5.394,10.784-6.198c-1.267-0.964-2.532-1.929-3.798-2.893c0.309,2.6-0.048,4.757-0.893,7.202
			c-1.095,3.17,2.898,4.557,5.014,2.919c7.41-5.735,14.422-12.333,17.162-21.568c1.492-5.027,0.73-10.875,0.833-16.044
			c0.139-7.003,0.363-14.003,0.384-21.009c0.007-2.388-2.523-3.586-4.514-2.59c-1.748,0.874-3.41,1.333-5,2.5
			c1.469,1.129,2.938,2.258,4.406,3.388c1.092-3.388,1.925-6.734,2.107-10.297c0.095-1.845-2.008-3.551-3.798-2.893
			c-8.903,3.276-12.903,13.027-21.5,16.5c1.267,0.964,2.532,1.929,3.798,2.893c-0.154-5.271,2.086-10.086,0.393-15.297
			c-0.521-1.607-2.04-2.471-3.69-2.096C87.012,60.476,80.14,75.664,67.936,82.942c1.505,0.864,3.009,1.728,4.514,2.591
			c-0.015-6.234,4.146-11.831,7.599-16.708c3.488-4.928,7.461-9.539,10.492-14.778c1.796-3.104-2.183-5.737-4.712-3.635
			c-10.259,8.522-16.503,20.707-26.5,29.5c1.57,1.212,3.141,2.424,4.711,3.635c6.711-12.316,19.976-22.302,22.302-36.716
			c0.376-2.325-1.996-5.047-4.406-3.388c-13.376,9.206-22.095,23.298-35,33c1.469,1.13,2.938,2.259,4.407,3.389
			c2.588-14.61,14.983-25.881,24.229-36.677c2.503-2.922-1.355-6.869-4.242-4.242c-9.453,8.599-17.326,21.519-29.676,26.228
			c1.266,0.964,2.532,1.929,3.797,2.893c-0.523-13.767,12.87-24.169,16.893-36.703c0.632-1.968-1.034-3.667-2.893-3.797
			c-5.318-0.373-9.501,3.979-13.569,6.755c-1.43,0.976-7.125,3.899-6.357-0.08c0.554-2.873,2.3-5.534,3.517-8.162
			c1.062-2.293-0.663-5.157-3.388-4.407c-5.404,1.488-8.854,6.104-14,8c1.23,1.23,2.46,2.46,3.69,3.69
			c1.229-5.308,4.481-9.512,7.698-13.783c2.092-2.778-2.374-5.993-4.711-3.635c-4.815,4.855-9.457,9.877-14.5,14.5
			c1.57,1.211,3.141,2.423,4.711,3.635c1.987-3.292,4.352-6.146,7.031-8.893c-1.414-1.414-2.828-2.828-4.242-4.242
			c-2.624,3.062-5.438,5.876-8.5,8.5c1.671,0.973,3.343,1.946,5.014,2.918c1.184-5.131,2.518-11.633,6.117-15.655
			c-1.443,1.612,2.88,2.094,4.288,1.75c4.413-1.079,8.681-2.793,13.203-3.393c-0.964-0.734-1.929-1.468-2.893-2.203
			c0.529,2.313-0.635,4.283-1.698,6.188c-1.386,2.486,1.515,5.884,4.104,4.104c4.549-3.125,8.797-6.886,14.283-8.197
			c-1.23-1.23-2.46-2.46-3.69-3.69c-1.939,6.584-8.623,11-12.698,16.283c-1.951,2.528,1.695,5.441,4.104,4.104
			c5.152-2.859,9.7-6.75,14.54-10.09c4.574-3.157,10.841-7.564,16.648-5.607c-0.733-0.964-1.468-1.929-2.202-2.893
			c-0.012,8.37-9.215,14.575-14.621,19.879c-2.382,2.337,0.812,6.729,3.635,4.711c10.416-7.441,19.938-18.133,32.784-21.197
			c-1.23-0.699-2.461-1.397-3.69-2.096c0.751,4.124-6.278,9.231-8.876,11.547c-3.647,3.252-7.787,6.193-10.853,10.035
			c-2.102,2.632,0.458,6.303,3.635,4.711c10.844-5.431,19.925-16.66,32.486-18.09c-1-1-2-2-3-3
			c-0.491,6.661-8.822,11.482-12.621,16.379c-1.933,2.49,0.52,6.707,3.635,4.711c8.085-5.178,15.398-11.952,24.784-14.697
			c-1.13-1.469-2.259-2.938-3.389-4.407c-4.695,7.432-11.558,13.043-17.53,19.393c-2.239,2.379,0.834,6.854,3.635,4.711
			c8.052-6.158,15.233-13.633,24.5-18c-1.368-1.368-2.736-2.736-4.104-4.104c-4.516,8.869-13.259,14.582-18.5,23
			c-1.733,2.786,1.561,5.243,4.104,4.104c5.432-2.431,9.704-6.571,14.107-10.469c2.553-2.259-0.793-6.581-3.635-4.711
			c-7.551,4.965-13.331,11.885-20.469,17.341c-5.708,4.363-12.593,7.342-18.832,10.857c-11.23,6.327-24.646,14.863-27.078,28.595
			c-0.412,2.322,2.027,5.054,4.407,3.389c10.303-7.213,21.84-21.142,35.486-20.591c-1-1-2-2-3-3
			c-0.025,7.363-6.077,13.518-10.826,18.507c-5.219,5.483-11.143,10.371-15.795,16.372c-1.995,2.572,0.451,6.481,3.635,4.712
			c12.83-7.132,24.345-20.59,39.486-22.591c-0.964-1.266-1.929-2.531-2.893-3.798c-0.97,6.09-6.668,10.116-11.229,13.677
			c1.414,1.414,2.828,2.828,4.242,4.242c6.757-8.094,15.024-14.697,24.393-19.53c-1.368-1.368-2.736-2.736-4.104-4.104
			c-2.562,3.369-5.727,6.231-8.53,9.393c-2.136,2.407,0.771,6.859,3.635,4.712c0.667-0.5,1.334-1,2-1.5
			c3.056-2.292,0.07-7.505-3.027-5.182c-0.667,0.5-1.334,1-2,1.5c1.211,1.571,2.423,3.142,3.635,4.712
			c3.156-3.557,6.586-6.813,9.47-10.607c1.967-2.587-1.694-5.348-4.104-4.104c-9.771,5.042-18.56,12.027-25.607,20.47
			c-2.521,3.019,1.218,6.604,4.242,4.242c5.396-4.212,11.629-9.144,12.771-16.323c0.269-1.685-0.769-4.078-2.893-3.798
			c-16.709,2.208-28.389,15.559-42.514,23.409c1.212,1.571,2.424,3.142,3.635,4.712c9.146-11.797,28.321-22.421,28.379-39.121
			c0.006-1.686-1.371-2.934-3-3c-15.197-0.614-27.086,13.41-38.514,21.409c1.469,1.13,2.938,2.259,4.407,3.389
			c2.38-13.439,16.874-20.926,27.731-26.909c5.668-3.124,11.515-5.971,16.674-9.914c6.717-5.134,12.116-11.715,19.216-16.384
			c-1.211-1.57-2.423-3.141-3.635-4.711c-4.044,3.579-7.905,7.298-12.893,9.531c1.368,1.368,2.736,2.736,4.104,4.104
			c5.244-8.424,13.952-14.069,18.5-23c1.417-2.784-1.383-5.387-4.104-4.104c-9.295,4.38-16.435,11.831-24.5,18
			c1.211,1.57,2.423,3.141,3.635,4.711c6.341-6.74,13.482-12.715,18.47-20.607c1.411-2.234-0.907-5.133-3.389-4.407
			c-9.963,2.915-17.638,9.809-26.216,15.303c1.211,1.57,2.423,3.141,3.635,4.711c5.144-6.627,13.706-11.496,14.379-20.621
			c0.11-1.5-1.455-3.176-3-3c-14.116,1.607-23.387,12.835-35.514,18.91c1.211,1.57,2.423,3.141,3.635,4.711
			c6.206-7.776,23.442-15.505,21.271-27.418c-0.3-1.649-2.211-2.448-3.69-2.096c-13.48,3.216-23.307,14.009-34.216,21.803
			c1.212,1.57,2.424,3.141,3.635,4.711c6.779-6.65,16.364-13.656,16.379-24.121c0.002-1.392-0.929-2.464-2.202-2.893
			C66.55,5.695,54.239,20.726,43.936,26.443c1.368,1.368,2.736,2.736,4.104,4.104c4.58-5.937,11.093-10.215,13.302-17.717
			c0.667-2.263-1.52-4.209-3.69-3.69c-6.042,1.445-10.703,5.358-15.717,8.803c1.368,1.368,2.736,2.736,4.104,4.104
			c1.935-3.469,3.212-6.841,2.302-10.812c-0.267-1.168-1.633-2.37-2.893-2.203c-4.582,0.608-8.86,2-13.297,3.24
			c-2.863,0.8-4.974-2.789-7.824-0.361c-5.022,4.277-6.857,12.692-8.271,18.824c-0.7,3.034,2.747,4.861,5.014,2.918
			c3.062-2.624,5.876-5.438,8.5-8.5c2.487-2.901-1.508-7.046-4.242-4.242c-3.035,3.112-5.721,6.382-7.969,10.107
			c-1.813,3.004,2.249,5.893,4.711,3.635c5.043-4.623,9.686-9.645,14.5-14.5c-1.57-1.211-3.141-2.423-4.711-3.635
			c-3.542,4.704-6.954,9.386-8.302,15.217c-0.475,2.051,1.423,4.526,3.69,3.69c5.119-1.887,8.777-6.562,14-8
			c-1.129-1.469-2.258-2.938-3.388-4.407c-2.231,4.816-8.72,15.799-0.233,18.572c3.726,1.217,6.96,0.364,10.3-1.504
			c3.462-1.936,7.274-6.852,11.523-6.553c-0.964-1.266-1.929-2.532-2.893-3.797C52.266,43.107,38.881,53.048,39.45,68.033
			c0.068,1.792,1.895,3.618,3.797,2.893c13.64-5.201,21.902-18.291,32.324-27.771c-1.414-1.414-2.828-2.828-4.242-4.242
			C61.44,50.458,48.328,62.598,45.558,78.235c-0.4,2.256,2.061,5.151,4.407,3.389c12.903-9.7,21.683-23.834,35-33
			c-1.469-1.129-2.938-2.258-4.406-3.388C78.34,58.97,65.286,68.726,58.86,80.52c-1.674,3.071,2.173,5.868,4.711,3.635
			c9.997-8.792,16.242-20.977,26.5-29.5c-1.57-1.211-3.141-2.423-4.712-3.635C79.067,61.896,66.418,72.015,66.45,85.533
			c0.005,2.257,2.55,3.762,4.514,2.591c11.539-6.883,18.672-22.098,32.284-25.198c-1.23-0.699-2.461-1.397-3.69-2.096
			c1.443,4.444-0.741,9.123-0.607,13.703c0.052,1.766,1.915,3.653,3.798,2.893c3.855-1.558,6.896-3.891,9.873-6.771
			c3.585-3.468,6.789-7.949,11.627-9.729c-1.267-0.964-2.532-1.929-3.798-2.893c-0.155,3.033-0.967,5.83-1.893,8.703
			c-0.764,2.368,2.259,4.964,4.406,3.388c1.541-1.131,3.3-1.65,5-2.5c-1.504-0.863-3.009-1.727-4.514-2.59
			c-0.032,10.663-0.563,21.321-0.49,31.984c0.066,9.586-9.289,17.099-16.131,22.395c1.671,0.973,3.343,1.945,5.014,2.919
			c1.01-2.923,1.472-5.722,1.107-8.798c-0.241-2.031-1.723-3.285-3.798-2.893c-4.847,0.915-8.166,4.28-12.216,6.802
			c1.368,1.368,2.736,2.736,4.104,4.104c1.369-1.909,4.158-5.71,2.319-8.2c-1.628-2.204-3.871-2.235-6.36-1.622
			c-5.847,1.439-11.449,5.147-16.563,8.218c1.469,0.598,2.938,1.195,4.406,1.793c-4.981-14.226-23.223,0.019-30.907,3.707
			c1.505,0.864,3.009,1.728,4.514,2.591c0.005-4.26-1.852-7.931-6.587-7.769c-4.318,0.147-7.892,3.285-11.71,4.876
			c1.266,0.964,2.532,1.929,3.797,2.893c0.51-5.251-0.86-13.052-8.021-11.411c-6.222,1.426-11.375,7.015-15.07,11.897
			c1.828,0.238,3.655,0.478,5.483,0.716c-1.791-7.799,37.373-7.032,42.432-7.137c6.034-0.124,11.968-1.516,17.88-2.585
			c4.727-0.854,9.168-1.191,13.917-0.425c4.214,0.68,8.336,1.451,12.617,1.521c4.398,0.072,9.938,0.038,13.245-3.32
			c3.236-3.285,1.608-8.795,0.408-12.555c-1.082-3.392-5.525-2.481-5.893,0.798c-0.46,4.104-0.97,8.174-1.893,12.202
			c1.929,0,3.856,0,5.785,0c-1.295-5.635-0.537-11.475-0.893-17.202c-0.203-3.278-5.023-4.21-5.893-0.798
			c-1.825,7.161-1.696,14.507-2.607,21.798c1.863-0.505,3.727-1.01,5.591-1.514c-7.608-11.056-1.326-27.826-0.091-39.986
			c0.362-3.566-4.828-3.788-5.893-0.798c-4.391,12.33-4.621,25.387-5.607,38.298c1.964-0.266,3.929-0.531,5.893-0.798
			c-5.643-16.122,1.617-35.787,7.5-50.905c-1.929-0.532-3.856-1.063-5.785-1.595c-4.233,16.367-4.042,36.1-14.198,50.284
			c1.828,0.238,3.656,0.478,5.483,0.716c-2.679-17.278,5.398-34.319,10.5-50.405c-1.929-0.532-3.856-1.063-5.785-1.595
			c-2.271,9.057-4.614,18.097-6.619,27.218c-1.801,8.19-1.604,16.992-5.579,24.565c1.728,0,3.454,0,5.182,0
			c-3.305-7.568-0.268-16.388,2.123-23.772c2.315-7.152,5.079-14.17,5.786-21.714c0.298-3.182-4.089-3.8-5.591-1.514
			c-9.076,13.821-5.438,33.626-17.03,45.893c1.414,0,2.828,0,4.242,0c-4.267-5.047-0.179-14.859,1.635-20.146
			c2.233-6.515,5.359-12.772,7.137-19.436c0.854-3.198-4.025-5.474-5.483-2.312c-5.843,12.678-6.977,26.928-13,39.5
			c1.828,0.238,3.656,0.478,5.483,0.716c-3.68-11.652,4.321-24.137,5.607-35.702c0.363-3.269-4.06-3.666-5.591-1.514
			c-10.312,14.495-6.259,34.434-17,48.5c1.728,0,3.454,0,5.182,0c-5.773-12.683,2.162-28.502,3.409-41.486
			c0.277-2.89-4.417-4.226-5.591-1.514c-2.749,6.352-3.82,13.101-4.954,19.888c-1.206,7.224-2.211,15.687-7.076,21.505
			c1.671,0.441,3.343,0.882,5.014,1.323c-3.076-17.216,7.727-33.43,6.607-50.702c-0.135-2.077-2.515-3.991-4.514-2.591
			c-15.942,11.166-13.869,36.82-16.879,53.793c1.928,0,3.857,0,5.785,0c-3.638-15.728-0.061-31.798-1.393-47.702
			c-0.288-3.436-4.692-4.009-5.893-0.798c-5.902,15.788-1.719,32.74-4.5,49c1.928,0,3.857,0,5.785,0
			c-4.173-14.785-2.469-30.062-2.393-45.202c0.017-3.326-5.204-4.17-5.893-0.798c-2.803,13.714-0.677,27.756-3,41.5
			c1.928,0,3.857,0,5.785,0c-4.986-12.387-2.005-26.261-1.893-39.202c0.029-3.306-5.34-4.2-5.893-0.798
			c-2.34,14.403,0.354,29.425-4,43.5c1.928,0,3.857,0,5.785,0c-6.25-15.617,0.682-32.8-2-49c-0.51-3.084-4.999-2.64-5.785,0
			c-4.235,14.216-1.209,29.168-4.5,43.5c1.828-0.238,3.655-0.478,5.483-0.716c-7.085-11.932-3.754-28.768-1.698-41.688
			c-1.964-0.267-3.928-0.532-5.893-0.798c-0.419,14.701,2.38,30.603-2.893,44.702c1.928,0,3.857,0,5.785,0
			c-6.906-16.419-0.106-34.659-0.393-51.702c-0.055-3.269-5.349-4.238-5.893-0.797c-1.429,9.042-2.625,18.114-3.572,27.219
			c-0.446,4.278-0.765,8.567-1.149,12.852c-0.362,4.036,0.14,8.392-1.476,12.213c1.828,0.238,3.655,0.478,5.483,0.716
			C19.094,102.68,25.733,84.5,25.95,67.033c0.042-3.363-5.109-4.121-5.893-0.797c-4.51,19.128-5.108,38.82-7.107,58.297
			c1.964-0.266,3.929-0.531,5.893-0.798c-3.87-20.857-4.629-42.14-8.5-63c-0.63-3.398-5.892-2.509-5.893,0.797
			c-0.002,11.57-1.266,23.078,0.98,34.506c2.313,11.767,7.421,22.902,8.02,34.994c1.964-0.266,3.929-0.531,5.893-0.798
			c-6.911-19.829-6.581-42.604-3.893-63.202c-2,0-4,0-6,0c0.697,11.736,1.146,23.477,1.009,35.235
			c-0.062,5.242-0.416,10.462-0.617,15.696c-0.101,2.613,0.97,9.964-2.189,11.176c-3.603,1.382-2.239,6.499,1.595,5.785
			c21.329-3.968,43.059-4.876,64.703-5.393c11.544-0.275,22.995-1.001,34.5-2c6.943-0.604,16.334-5.198,22.986-1.909
			c1.982,0.98,4.534-0.191,4.514-2.591c-0.016-1.808-0.183-3.54-0.607-5.298c-1.929,0.532-3.856,1.063-5.785,1.596
			c0.166,0.5,0.333,1,0.5,1.5c1.224,3.671,6.604,2.192,5.785-1.596c-3.92-18.141-4.858-36.688-4.893-55.202
			c-0.007-3.87-5.969-3.868-6,0c-0.101,12.52-1.821,24.993-0.5,37.5c0.398,3.774,6.267,3.904,6,0
			c-0.927-13.584-0.953-27.189,0.893-40.703c1.291-9.445,6.167-18.955,3.5-28.595c-0.671-2.426-4.246-3.053-5.483-0.717
			c-4.326,8.174-8.152,16.699-11.135,25.449c-1.328,3.896-2.744,7.76-4.476,11.498c-1.329,2.87-3.332,7.555-6.597,8.674
			c1.23,0.698,2.461,1.396,3.69,2.095c-3.443-8.643,4.755-18.242,9.698-24.688c-1.728-1.009-3.454-2.019-5.182-3.028
			c-9.489,13.494-18.91,27.111-30.53,38.893c1.671,0.973,3.343,1.945,5.014,2.919c2.512-6.59,7.142-12.135,11.58-17.51
			c3.598-4.357,6.976-8.901,10.604-13.227c5.76-6.869,13.765-14.217,14.924-23.562c0.288-2.321-2.739-3.658-4.514-2.59
			C101.129,49.259,88.6,71.377,72.329,89.412c1.57,1.212,3.141,2.424,4.712,3.635c13.097-18.598,30.906-33.825,41-54.5
			c1.067-2.188-0.695-5.313-3.389-4.407C103.316,37.954,94.81,47.359,86.93,55.923c-9.831,10.685-19.659,21.405-29.601,31.989
			c1.57,1.212,3.141,2.424,4.711,3.635C70,79.735,79.206,68.894,88.557,58.174c8.175-9.372,18.3-18.112,23.484-29.626
			c1.068-2.374-0.654-5.04-3.389-4.407c-11.058,2.559-19.516,13.324-26.885,21.206c-10.45,11.176-20.677,22.693-31.438,33.566
			c1.57,1.212,3.141,2.424,4.711,3.635c7.754-12.2,17.702-22.426,26.561-33.751c5.111-6.534,14.364-13.697,14.349-22.762
			c-0.004-2.38-2.517-3.597-4.514-2.59C69.271,34.612,55.022,56.472,38.829,74.412c1.414,1.414,2.828,2.828,4.242,4.242
			c12.862-15.363,26.843-29.875,37.97-46.607c1.607-2.418-1.667-5.903-4.104-4.104c-12.969,9.568-22.656,22.378-33.107,34.469
			c1.57,1.211,3.141,2.423,4.711,3.635c11.613-15.493,25.46-29.189,36-45.5c1.721-2.663-1.575-5.422-4.104-4.104
			c-17.721,9.229-29.162,26.836-42.607,40.969c1.414,1.414,2.828,2.828,4.242,4.242c8.513-10.033,19.022-18.689,23.771-31.324
			c0.913-2.426-2.311-4.836-4.407-3.388c-9.857,6.812-17.347,16.151-24.576,25.576c-2.089,2.723,2.441,6.117,4.711,3.635
			c6.249-6.83,14.424-14.67,14.379-24.621c-0.004-0.987-0.552-2.147-1.486-2.59c-9.16-4.343-15.629,4.942-23.421,7.933
			c-6.648,2.552-4.268-6.317-3.263-9.483c1.497-4.714,3.717-9.629,2.562-14.657c-0.335-1.463-2.216-2.688-3.69-2.096
			c-5.427,2.179-9.274,6.18-13.324,10.272c1.671,0.973,3.343,1.946,5.014,2.918c1.218-3.797,2.803-7.278,3.107-11.297
			c0.174-2.302-2.668-3.696-4.514-2.59c-3.094,1.854-5.419,4.655-8.5,6.5c1.469,0.598,2.938,1.195,4.407,1.793
			c-0.654-3.706-0.997-7.477,3.288-8.434c3.323-0.742,7.271,0.122,10.588,0.529c12.856,1.577,25.905,1.359,38.811,2.562
			c14.085,1.313,27.765,4.952,41.918,5.806c10.356,0.625,20.231,0.351,23.61,12.131c1.671-0.973,3.343-1.946,5.014-2.918
			c-0.177-0.298-0.354-0.595-0.53-0.893c-1.123-2.105-3.983-1.775-5.182,0c-1.191,1.766-3.152,2.793-4.53,4.393
			c1.707,0.707,3.414,1.414,5.121,2.121c0-1.333,0-2.667,0-4c0-1.269-0.907-2.625-2.202-2.893
			c-16.58-3.428-33.429-4.611-50.298-5.607c0.266,1.964,0.531,3.929,0.798,5.893c1.104-0.345,1.754-0.641,2.716-1.303
			c2.623-1.803,1.028-6.829-2.312-5.483c-11.572,4.665-25.229-0.627-37.201-1.233c-10.858-0.55-22.966-1.37-33.015,3.536
			c-2.1,1.025-1.798,4.077,0,5.181c6.729,4.131,14.599,6.58,22.302,8.088c3.476,0.681,6.962,0.95,10.495,0.749
			c1.263-0.072,2.472-0.434,3.641-0.89c0.478-0.195,0.952-0.401,1.42-0.619c0.698-0.314-0.513-0.653,0.679,0.604
			c3.753,3.961,2.432,12.875,2.198,17.766c-0.287,5.984-0.902,12.042-2.112,17.914c1.928,0,3.857,0,5.785,0
			c-3.222-12.446-1.36-25.141,0.107-37.702c0.395-3.375-5.2-4.074-5.893-0.797c-3.381,15.989-0.947,32.96-6.5,48.5
			c1.928,0,3.857,0,5.785,0c-4.144-14.53-0.032-29.486,0.607-44.202c0.147-3.392-5.107-4.08-5.893-0.797
			c-3.821,15.965-3.569,32.564-7.5,48.5c1.928,0,3.857,0,5.785,0c-5.851-16.661-1.048-34.546-1.393-51.702
			c-0.056-2.763-4.311-4.387-5.59-1.514c-7.469,16.771-4.915,35.168-8.802,52.716c1.928,0,3.857,0,5.785,0
			c-4.71-18.438,2.754-37.396-1-56c-0.646-3.205-4.809-2.493-5.785,0c-7.034,17.95-4.185,37.566-6.607,56.297
			c1.964-0.266,3.929-0.531,5.893-0.798C15.84,62.765,19.85,40.126,20.45,18.533c0.093-3.353-5.195-4.137-5.893-0.797
			c-4.88,23.348-3.161,47.131-3.107,70.797c1.964-0.266,3.929-0.531,5.893-0.798C13.11,69.604,13.891,51.01,13.45,32.533
			c-0.079-3.305-5.136-4.19-5.893-0.797C3.827,48.448,7.82,64.842,9.45,81.533c1.863-0.505,3.727-1.01,5.59-1.514
			C9.325,66.951,8.564,51.999,8.487,37.932c-0.032-5.955-0.152-12.169,0.804-18.058c0.739-4.553,2.185-9.51,1.552-14.139
			C10.321,1.917,4.54,3.549,5.058,7.331L5.058,7.331z"/>
	</g>
</g>
<g>
	<g>
		<path fill="#FFFFFF" d="M116.829,94.154c1.585,1.607,2.323,2.93,2.729,5.177c1.929-0.532,3.856-1.063,5.785-1.596
			c-0.674-2.09-0.785-3.36,0-5.404c0.775-2.02-1.643-4.524-3.69-3.69c-2.867,1.167-5.705,2.472-8.216,4.302
			c-1.319,0.962-1.966,2.587-1.077,4.104c0.765,1.305,2.78,2.042,4.104,1.077c2.078-1.515,4.405-2.729,6.784-3.698
			c-1.23-1.229-2.461-2.46-3.69-3.69c-1.117,2.907-0.944,5.664,0,8.596c1.2,3.726,6.465,2.177,5.785-1.596
			c-0.562-3.123-2.062-5.583-4.271-7.823C118.352,87.153,114.111,91.398,116.829,94.154L116.829,94.154z"/>
	</g>
</g>
<g>
	<g>
		<path fill="#FFFFFF" d="M58.936,100.124c3.57,1.599,6.792,4.107,10.717,4.802c3.783,0.67,5.4-5.112,1.595-5.785
			c-3.403-0.603-6.18-2.808-9.283-4.198c-1.492-0.668-3.213-0.445-4.104,1.077C57.101,97.314,57.443,99.455,58.936,100.124
			L58.936,100.124z"/>
	</g>
</g>
<g>
	<g>
		<path fill="#FFFFFF" d="M69.829,42.912c-10.166,12.64-21.066,24.671-31,37.5c-2.342,3.023,1.227,6.785,4.242,4.242
			c13.448-11.34,27.478-22.095,39.5-35c2.225-2.387-0.801-6.828-3.635-4.711C65.106,55.267,50.035,68.287,43.558,84.735
			c-0.792,2.013,1.656,4.529,3.69,3.69c11.05-4.555,19.953-14.05,28.686-21.992c7.41-6.74,17.649-18.407,28.517-18.4
			c-0.964-0.734-1.929-1.468-2.893-2.203c1.8,9.241-8.963,19.726-14.295,26.107C78.695,82.188,70.822,93.28,62.86,104.02
			c-2.071,2.793,2.373,5.997,4.711,3.635C83.5,91.566,96.517,71.684,116.464,60.124c-1.211-1.57-2.423-3.141-3.635-4.711
			c-8.488,10.238-18.173,19.766-27.453,29.297c-6.854,7.039-14.974,15.021-15.926,25.324c-0.228,2.462,2.666,3.474,4.514,2.591
			c13.127-6.274,17.633-26.574,32.784-28.698c-1.13-1.469-2.259-2.938-3.389-4.406c-6.69,12.185-19.548,20.052-23.802,33.716
			c-0.774,2.487,2.201,4.783,4.406,3.389c6.338-4.008,10.473-10.161,15.607-15.47c2.69-2.78-1.497-6.979-4.242-4.242
			c-2.097,2.089-4.223,4.107-6.5,6c1.414,1.414,2.828,2.828,4.242,4.242c4.711-4.195,9.6-8.091,14.893-11.53
			c3.231-2.1,0.228-7.297-3.027-5.182c-5.719,3.716-11.019,7.937-16.107,12.47c-2.921,2.601,1.311,6.679,4.242,4.242
			c2.277-1.893,4.403-3.91,6.5-6c-1.414-1.414-2.828-2.828-4.242-4.242c-4.733,4.893-8.558,10.841-14.393,14.53
			c1.469,1.13,2.938,2.259,4.406,3.389c4.015-12.895,16.824-20.677,23.198-32.284c1.382-2.517-0.869-4.76-3.389-4.406
			c-16.586,2.324-20.394,22.694-34.216,29.302c1.504,0.864,3.009,1.728,4.514,2.591c0.885-9.576,10.698-17.479,16.938-23.934
			c8.33-8.619,17.034-17.218,24.684-26.445c2.097-2.529-0.529-6.512-3.635-4.711c-20.451,11.852-33.784,31.982-50.107,48.469
			c1.57,1.212,3.141,2.424,4.711,3.635c8.855-11.942,17.824-23.901,27.229-35.408c6.063-7.419,14.075-17.126,12.073-27.403
			c-0.252-1.297-1.636-2.202-2.893-2.203c-10.495-0.007-19.73,8.573-27.127,15.07c-4.073,3.578-8.04,7.269-12.152,10.804
			c-6.146,5.284-11.882,11.585-19.519,14.734c1.23,1.229,2.46,2.46,3.69,3.69c5.819-14.778,20.208-26.941,32.621-36.208
			c-1.211-1.57-2.423-3.141-3.635-4.711c-12.022,12.904-26.053,23.66-39.5,35c1.414,1.414,2.828,2.828,4.242,4.242
			c9.935-12.829,20.835-24.859,31-37.5C76.472,44.17,72.254,39.896,69.829,42.912L69.829,42.912z"/>
	</g>
</g>
<g>
	<g>
		<path fill="#F7A51F" d="M29.45,67.033c0.31,18.334-4.813,36.197-5,54.5c-0.02,1.972,2.806,1.883,3,0
			c1.656-16.041,6.843-31.454,8.5-47.5c-1,0-2,0-3,0c1.835,17.022-1.838,33.965-1.5,51c0.039,1.932,3.036,1.936,3,0
			c-0.331-17.8,3.869-35.252,4.5-53c-1,0-2,0-3,0c-0.519,16-1.421,31.997-0.5,48c0.11,1.918,2.986,1.947,3,0
			c0.125-17.279,3.396-34.289,4.5-51.5c-1,0-2,0-3,0c-0.627,17.966-4.341,36.134,0.054,53.898c0.428,1.73,2.816,1.218,2.946-0.398
			c1.444-17.968,1.5-35.985,1.5-54c0-1.957-2.854-1.905-3,0c-0.972,12.676-1.838,25.351-1.562,38.071
			c0.106,4.856,3.785,12.428-1.488,15.612c-2.128,1.285-4.555,1.879-6.019-0.509c-2.623-4.278-1.555-11.299-1.12-16.008
			c0.428-4.625,1.223-9.216,2.134-13.769c-0.982-0.133-1.964-0.266-2.946-0.398c0.395,11.157-1.329,22.311,0.554,33.398
			c0.182,1.072,1.819,1.492,2.507,0.662c0.634-0.766,5.321-7.161,6.493-3.162c0.338,1.154,2.167,1.592,2.742,0.358
			c6.279-13.46,3.804-29.771,3.143-44.104c-0.18-3.891-0.354-8.96-3.62-11.649c-3.518-2.896-9.405-0.98-13.217,0.051
			c-1.666,0.45-1.277,2.895,0.399,2.946c2.691,0.083,5.317,0.332,8,0c-0.432-0.752-0.863-1.505-1.295-2.257
			c-2.305,3.116-4.797,5.992-6.5,9.5c-0.71,1.464,1.138,3.136,2.356,1.817c2.623-2.839,4.625-6.079,6.735-9.304
			c-0.914-0.385-1.828-0.771-2.742-1.156c-0.657,3.448-1.958,6.661-3,10c-0.427,1.366,1.55,2.657,2.507,1.459
			c1.543-1.934,3.205-3.777,5.196-5.266c1.53-1.144,0.038-3.749-1.514-2.59c-2.208,1.649-4.085,3.581-5.804,5.734
			c0.835,0.486,1.671,0.973,2.507,1.459c1.042-3.339,2.343-6.553,3-10c0.317-1.666-1.785-2.618-2.742-1.156
			c-1.966,3.005-3.817,6.046-6.265,8.696c0.785,0.605,1.57,1.212,2.356,1.817c1.696-3.494,4.204-6.396,6.5-9.5
			c0.639-0.864-0.21-2.391-1.295-2.257c-2.683,0.332-5.309,0.083-8,0c0.133,0.982,0.266,1.964,0.399,2.946
			c3.452-0.933,9.409-3.153,11.676,0.834c2.209,3.887,1.451,10.048,1.684,14.357c0.634,11.721,2.058,25.147-3.054,36.105
			c0.914,0.119,1.828,0.238,2.742,0.358c-2.336-7.97-8.226-2.123-11.507,1.838c0.835,0.221,1.671,0.441,2.507,0.662
			c-1.833-10.795-0.062-21.735-0.446-32.602c-0.058-1.633-2.603-2.118-2.946-0.398c-1.137,5.683-2.038,11.415-2.459,17.198
			c-0.354,4.862-1.101,13.695,3.574,17.006c1.988,1.407,4.288,1.19,6.466,0.354c4.2-1.611,6.286-4.515,6.178-8.973
			c-0.066-2.741-0.978-5.477-1.312-8.188c-0.542-4.379-0.149-9.078-0.056-13.481c0.188-8.854,0.879-17.692,1.556-26.519
			c-1,0-2,0-3,0c0,18.015-0.056,36.032-1.5,54c0.982-0.133,1.964-0.266,2.946-0.398c-4.321-17.469-0.562-35.437,0.054-53.102
			c0.068-1.945-2.877-1.914-3,0c-1.104,17.211-4.375,34.221-4.5,51.5c1,0,2,0,3,0c-0.921-16.003-0.019-32,0.5-48
			c0.063-1.937-2.932-1.929-3,0c-0.631,17.748-4.831,35.2-4.5,53c1,0,2,0,3,0c-0.338-17.035,3.335-33.978,1.5-51
			c-0.208-1.927-2.8-1.934-3,0c-1.656,16.041-6.843,31.454-8.5,47.5c1,0,2,0,3,0c0.187-18.303,5.31-36.164,5-54.5
			C32.417,65.101,29.417,65.098,29.45,67.033L29.45,67.033z"/>
	</g>
</g>
<g>
	<g>
		<path fill="#F7A51F" d="M63.504,59.134c-0.935,4.041-0.578,8.479-0.867,12.6c-0.354,5.059-0.511,10.142-0.839,15.209
			c-0.674,10.419-2.232,22.514,1.706,32.488c0.516,1.306,2.473,1.546,2.893,0c5.163-19.014,2.659-39.018,5.054-58.398
			c0.237-1.921-2.756-1.887-3,0c-2.385,18.465-3.358,36.938-1.5,55.5c0.19,1.896,3.151,1.942,3,0
			c-1.481-19.03-0.123-38.289,2.946-57.101c-0.982-0.133-1.964-0.266-2.946-0.399c1.832,18.143-2.764,36.335,0.554,54.398
			c0.261,1.421,2.661,1.455,2.893,0c2.891-18.183,2.096-36.563,2.554-54.898c-0.982,0.133-1.964,0.266-2.946,0.399
			c1.344,9.938-0.08,19.947-0.797,29.876c-0.338,4.685-0.421,9.334,0.054,14.01c0.546,5.387,1.11,10.604-0.757,15.816
			c0.615-0.35,1.229-0.699,1.845-1.048c-2.719-0.533-5.38-1.082-8-2c-1.702-0.597-2.471,1.825-1.156,2.741
			c2.407,1.677,7.759,5.581,10.725,2.617c2.475-2.472,1.935-6.647,1.651-9.806c-1.571-17.518,2.323-35.023,1.881-52.606
			c-0.023-0.948-0.943-1.74-1.898-1.446c-3.862,1.188-7.625,1-11.602,0.946c-1.548-0.021-1.973,2.009-0.757,2.795
			c1.302,0.842,1.279,0.808,2.858,1.151c1.886,0.41,2.688-2.482,0.798-2.893c-0.714-0.283-1.428-0.566-2.142-0.849
			c-0.252,0.932-0.504,1.864-0.757,2.795c4.264,0.058,8.285,0.212,12.398-1.054c-0.633-0.482-1.266-0.964-1.898-1.446
			c0.383,15.223-1.913,30.313-2.5,45.5c-0.123,3.196,0.629,6.459,0.806,9.649c0.084,1.53,0.137,3.252-0.545,4.664
			c-1.102,2.278-6.453-1.877-7.504-2.608c-0.385,0.914-0.771,1.827-1.156,2.741c2.62,0.918,5.281,1.468,8,2
			c0.851,0.167,1.553-0.233,1.845-1.048c3.249-9.067,0.219-19.387,0.697-28.819c0.552-10.874,2.274-21.597,0.803-32.478
			c-0.233-1.729-2.905-1.226-2.946,0.399c-0.451,18.053,0.399,36.197-2.446,54.102c0.964,0,1.929,0,2.893,0
			c-3.263-17.77,1.357-35.741-0.446-53.602c-0.156-1.55-2.653-2.195-2.946-0.399c-3.114,19.083-4.557,38.592-3.054,57.899
			c1,0,2,0,3,0c-1.858-18.562-0.885-37.035,1.5-55.5c-1,0-2,0-3,0c-2.361,19.108,0.142,38.861-4.946,57.602c0.964,0,1.928,0,2.893,0
			c-3.834-9.711-2.248-21.531-1.599-31.691c0.301-4.704,0.19-9.569,0.752-14.239c0.504-4.182-0.104-8.665,0.847-12.772
			C66.833,58.049,63.94,57.25,63.504,59.134L63.504,59.134z"/>
	</g>
</g>
<g>
	<g>
		<path fill="#F7A51F" d="M89.693,59.829c-0.95-0.417-0.221,0.702-0.085,2.008c0.236,2.264,0.366,4.54,0.503,6.811
			c0.37,6.157,0.61,12.323,0.862,18.486c0.395,9.665,0.073,19.715,1.53,29.298c0.964-0.266,1.929-0.531,2.893-0.797
			c-2.852-18.648,1.412-37.415,1.554-56.102c0.015-1.945-2.899-1.919-3,0c-0.957,18.325-0.734,36.567,4.054,54.398
			c0.452,1.684,2.864,1.262,2.946-0.398c0.862-17.535-1.831-35.162,0.946-52.601c-0.982-0.133-1.964-0.266-2.946-0.399
			c1.375,19.022-1.603,38.163,3.054,56.898c0.417,1.678,2.907,1.269,2.946-0.398c0.473-20.176,0.07-40.387,2-60.5c-1,0-2,0-3,0
			c0.876,18.778-3.434,38.48,4.054,56.398c0.613,1.469,2.958,1.426,2.946-0.398c-0.012-1.851-0.122-3.601-0.554-5.398
			c-0.343-1.429-2.558-1.442-2.893,0c-1.218,5.245-7.308,4.513-11.452,5.952c-1.625,0.564-1.306,2.823,0.398,2.946
			c2.447,0.176,4.729,0.896,7.102,1.446c0-0.964,0-1.929,0-2.893c-2.675,0.46-5.339,0.969-8,1.5
			c-1.683,0.336-1.269,2.972,0.398,2.946c4.527-0.068,8.983-0.548,13.398-1.554c1.557-0.354,1.3-2.42,0-2.893
			c-3.859-1.405-7.847-1.605-11.898-2.054c0.252,0.932,0.505,1.863,0.757,2.795c2.95-2.247,6.074-4.21,8.804-6.734
			c1.182-1.093-0.078-2.773-1.459-2.507c-2.373,0.458-4.725,0.642-7,1.5c0.564,0.734,1.129,1.469,1.693,2.203
			c1.062-2.399,2.275-4.429,4.266-6.196c1.387-1.23-0.378-2.971-1.817-2.355c-2.529,1.08-4.944,2.246-7.642,2.849
			c0.633,0.482,1.266,0.964,1.898,1.446c0.279-5.654,3.774-10.799,3.888-16.56c0.134-6.787-7.35-2.719-10.145-0.735
			c0.734,0.564,1.469,1.129,2.203,1.693c1.989-5.812,7.334-9.72,11.114-14.338c1.092-1.333-0.24-3.096-1.817-2.355
			c-2.574,1.208-4.927,2.792-7.5,4c0.684,0.684,1.368,1.368,2.052,2.052c2.309-3.662,5.379-6.707,7.5-10.5
			c0.747-1.335-0.729-2.765-2.052-2.052c-2.13,1.148-4.438,1.704-6.5,3c0.684,0.684,1.368,1.368,2.052,2.052
			c2.544-3.783,5.766-7.007,8-11c0.66-1.179-0.415-2.497-1.693-2.203c-2.744,0.629-5.373,1.491-8,2.5
			c0.486,0.835,0.973,1.671,1.459,2.507c1.797-2.124,3.85-3.762,6.196-5.265c1.374-0.88,0.506-3.349-1.155-2.742
			c-2.479,0.905-5.022,1.595-7.5,2.5c0.385,0.914,0.771,1.828,1.155,2.742c1.703-0.983,3.286-2.145,5.142-2.849
			c1.774-0.672,1.077-3.481-0.797-2.893c-2.369,0.744-4.271,1.776-6.162,3.386c-1.198,1.021,0.089,2.85,1.459,2.507
			c0.667-0.167,1.334-0.333,2-0.5c1.876-0.469,1.08-3.362-0.797-2.893c-0.667,0.167-1.334,0.333-2,0.5
			c0.486,0.835,0.973,1.671,1.459,2.507c1.379-1.305,2.992-2.176,4.838-2.614c-0.266-0.964-0.531-1.928-0.797-2.893
			c-2.126,0.806-3.893,2.017-5.858,3.151c-1.442,0.832-0.473,3.337,1.155,2.742c2.479-0.905,5.022-1.595,7.5-2.5
			c-0.385-0.914-0.771-1.828-1.155-2.742c-2.567,1.645-4.825,3.396-6.804,5.735c-0.869,1.026-0.076,3.097,1.459,2.507
			c2.627-1.009,5.256-1.871,8-2.5c-0.564-0.734-1.129-1.469-1.693-2.203c-2.227,3.979-5.463,7.226-8,11
			c-0.846,1.258,0.808,2.834,2.052,2.052c2.047-1.286,4.385-1.859,6.5-3c-0.684-0.684-1.368-1.368-2.052-2.052
			c-2.116,3.782-5.195,6.844-7.5,10.5c-0.866,1.373,0.782,2.648,2.052,2.052c2.574-1.208,4.927-2.792,7.5-4
			c-0.605-0.785-1.212-1.57-1.817-2.355c-4.165,5.088-9.693,9.255-11.886,15.662c-0.411,1.2,1.137,2.45,2.203,1.693
			c0.967-0.686,5.486-4.366,5.631-1.854c0.115,1.989-0.618,4.109-1.145,6.001c-0.956,3.437-2.565,6.959-2.743,10.559
			c-0.05,1.017,0.991,1.649,1.898,1.446c2.964-0.662,5.582-1.966,8.358-3.151c-0.605-0.785-1.212-1.57-1.817-2.355
			c-2.193,1.947-3.549,4.124-4.734,6.804c-0.468,1.057,0.314,2.724,1.693,2.203c2.276-0.858,4.627-1.041,7-1.5
			c-0.486-0.836-0.973-1.671-1.459-2.507c-2.54,2.35-5.453,4.175-8.196,6.266c-1.217,0.927-0.784,2.624,0.757,2.795
			c3.774,0.418,7.503,0.636,11.102,1.946c0-0.964,0-1.929,0-2.893c-4.16,0.947-8.342,1.382-12.602,1.446
			c0.133,0.982,0.266,1.964,0.398,2.946c2.662-0.531,5.325-1.04,8-1.5c1.482-0.255,1.39-2.57,0-2.893
			c-2.645-0.613-5.183-1.358-7.898-1.554c0.133,0.982,0.266,1.964,0.398,2.946c5.528-1.92,11.945-1.144,13.548-8.048
			c-0.964,0-1.929,0-2.893,0c0.38,1.581,0.436,3.003,0.446,4.602c0.982-0.133,1.964-0.266,2.946-0.398
			c-7.378-17.656-3.083-37.094-3.946-55.602c-0.092-1.959-2.817-1.903-3,0c-1.93,20.113-1.527,40.324-2,60.5
			c0.982-0.133,1.964-0.266,2.946-0.398c-4.588-18.463-1.592-37.355-2.946-56.102c-0.114-1.583-2.665-2.167-2.946-0.399
			c-2.823,17.728-0.178,35.578-1.054,53.399c0.982-0.133,1.964-0.266,2.946-0.398c-4.721-17.58-4.889-35.544-3.946-53.602
			c-1,0-2,0-3,0c-0.145,18.995-4.346,37.938-1.446,56.898c0.292,1.908,3.181,1.094,2.893-0.797
			c-1.621-10.662-1.146-21.935-1.596-32.69c-0.253-6.027-0.507-12.059-0.936-18.076c-0.109-1.532,0.239-6.798-1.658-7.63
			C89.453,56.469,87.925,59.053,89.693,59.829L89.693,59.829z"/>
	</g>
</g>
<g>
	<g>
		<path fill="#F7A51F" d="M46.45,64.533c1.935,0,1.935-3,0-3S44.516,64.533,46.45,64.533L46.45,64.533z"/>
	</g>
</g>
<g>
	<g>
		<path fill="#F7A51F" d="M43.95,57.533c-0.011,1.707-0.05,3.436-0.446,5.101c-0.388,1.626,1.893,2.679,2.742,1.156
			c0.654-1.174,1.345-2.325,2-3.5c0.966-1.733-1.458-3.023-2.591-1.514c-0.5,0.667-1,1.333-1.5,2
			c-0.628,0.837,0.083,1.902,0.896,2.203c5.993,2.22,12.211,0.332,18.399,1.054c-0.133-0.982-0.266-1.964-0.399-2.946
			c-5.442,0.837-10.798,0.422-16.202-0.5c0,0.964,0,1.928,0,2.893c4.331-0.826,8.734-0.081,13.101-0.446
			c1.632-0.137,2.109-2.478,0.399-2.946c-3.274-0.897-6.514-1.043-9.899-1.054c0.133,0.982,0.266,1.964,0.399,2.946
			c13.902-2.346,28.087-0.152,42-2.5c-0.266-0.964-0.531-1.928-0.797-2.893c-5.602,1.777-11.305,1.485-17.102,1.446
			c-1.416-0.009-2.152,2.145-0.757,2.795c5.224,2.437,10.644,1.798,16.257,1.705c-0.133-0.982-0.266-1.964-0.398-2.946
			c-3.575,1.113-7.22,1.167-10.041-1.614c-0.102,0.785-0.202,1.57-0.304,2.356c2.693-1.385,4.899-1.5,7.845-0.849
			c0.133-0.982,0.266-1.964,0.398-2.946c-0.5,0-1,0-1.5,0c0,1,0,2,0,3c10.479-0.048,21.251-1.14,31.602,0.946
			c0.133-0.982,0.266-1.964,0.398-2.946c-3.521,0.005-7.001,0.079-10.5,0.5c-1.516,0.183-2.004,1.873-0.757,2.795
			c2.095,1.549,3.613,2.477,6.257,2.705c-0.133-0.982-0.266-1.964-0.398-2.946c-2.954,0.807-5.978,1.077-9,1.5
			c-1.464,0.205-1.412,2.638,0,2.893c4.951,0.894,9.892,0.606,14.898,0.554c0.881-0.009,1.83-0.971,1.446-1.899
			c-0.545-1.318-0.954-2.682-1.5-4c-0.42-1.014-1.626-1.524-2.507-0.662c-0.63,0.713-1.361,1.301-2.196,1.765
			c-1.059,0.631-0.954,2.471,0.358,2.742c0.659,0.067,1.26,0.302,1.802,0.702c0.486-0.835,0.973-1.671,1.459-2.507
			c-0.154-0.029-0.309-0.059-0.464-0.088c-1.89-0.358-2.696,2.533-0.797,2.893c0.154,0.029,0.309,0.059,0.464,0.088
			c1.4,0.266,2.611-1.395,1.459-2.507c-0.842-0.813-1.999-1.241-3.126-1.474c0.12,0.914,0.239,1.828,0.358,2.742
			c1.074-0.64,1.904-1.354,2.804-2.235c-0.836-0.221-1.671-0.441-2.507-0.662c0.545,1.318,0.954,2.682,1.5,4
			c0.482-0.633,0.964-1.266,1.446-1.899c-4.721,0.049-9.425,0.397-14.102-0.446c0,0.964,0,1.928,0,2.893
			c3.066-0.429,6.013-0.683,9-1.5c1.714-0.468,1.23-2.806-0.398-2.946c-2.146-0.185-3.188-1.146-4.743-2.295
			c-0.252,0.932-0.505,1.864-0.757,2.795c3.499-0.421,6.979-0.495,10.5-0.5c1.658-0.002,2.091-2.605,0.398-2.946
			c-10.639-2.145-21.628-1.103-32.398-1.054c-1.935,0.009-1.935,3,0,3c0.5,0,1,0,1.5,0c1.667,0,2.079-2.575,0.398-2.946
			c-3.695-0.816-6.771-0.589-10.155,1.151c-0.863,0.444-0.966,1.704-0.304,2.356c3.567,3.517,8.343,3.823,12.959,2.386
			c1.59-0.495,1.335-2.975-0.398-2.946c-4.952,0.083-10.094,0.873-14.743-1.295c-0.252,0.932-0.505,1.864-0.757,2.795
			c6.075,0.041,12.041,0.305,17.898-1.554c1.874-0.594,1.083-3.21-0.797-2.893c-13.902,2.346-28.088,0.152-42,2.5
			c-1.707,0.288-1.248,2.941,0.399,2.946c3.104,0.009,6.083,0.119,9.101,0.946c0.133-0.982,0.266-1.964,0.399-2.946
			c-4.648,0.389-9.286-0.326-13.899,0.554c-1.423,0.271-1.452,2.645,0,2.893c5.951,1.016,11.806,1.422,17.798,0.5
			c1.815-0.279,1.128-2.768-0.399-2.946c-5.9-0.689-11.895,1.167-17.601-0.946c0.299,0.734,0.598,1.469,0.896,2.203
			c0.5-0.667,1-1.333,1.5-2c-0.864-0.504-1.727-1.009-2.591-1.514c-0.654,1.174-1.345,2.325-2,3.5
			c0.914,0.385,1.828,0.771,2.742,1.156c0.459-1.928,0.541-3.922,0.554-5.899C46.963,55.598,43.963,55.599,43.95,57.533
			L43.95,57.533z"/>
	</g>
</g>
<g>
	<g>
		<path d="M5.075,0.533C5.011,23.146,2.846,45.69,2.874,68.305c0.027,21.717,3.311,43.353,6.214,64.828
			c0.044,0.323,0.55,0.361,0.686,0.09c0.346-0.693-0.199-1.004-0.199-0.189c0,0.341,0.402,0.479,0.64,0.266
			c0.903-0.811,1.153-1.547,1.597-2.666c0.178-0.45-0.547-0.644-0.724-0.199c-0.566,2.301-0.82,2.834-0.763,1.6
			c0-0.358-0.527-0.532-0.699-0.189c-0.39,0.916-0.415,0.642-0.073-0.822c-0.172-1.271-0.344-2.543-0.516-3.814
			c-0.423-3.13-0.839-6.26-1.25-9.391c-0.742-5.661-1.431-11.329-2.057-17.004C4.538,90.005,3.703,79.181,3.624,68.305
			C3.459,45.693,5.761,23.143,5.825,0.533C5.827,0.049,5.077,0.05,5.075,0.533L5.075,0.533z"/>
	</g>
</g>
<g>
	<g>
		<path d="M6.261,0.857c7.591,3.944,17.573,3.162,25.898,3.88C44.755,5.826,57.395,6.34,70.002,7.28
			c23.562,1.756,47.712,4.608,70.349,11.615c0.463,0.143,0.66-0.581,0.199-0.724c-20.434-6.325-41.888-8.875-63.1-11.013
			C64.891,5.892,52.252,5.427,39.662,4.562c-5.522-0.379-11.025-1.057-16.548-1.38C17.5,2.854,11.748,2.864,6.64,0.209
			C6.211-0.013,5.832,0.634,6.261,0.857L6.261,0.857z"/>
	</g>
</g>
<g>
	<g>
		<path d="M139.075,19.533c0.732,8.989-2.097,17.78-3.938,26.481c-1.934,9.132-2.679,18.702-3.546,27.985
			c-0.961,10.282-1.24,20.62-0.346,30.916c0.364,4.199,1.062,8.362,1.938,12.482c0.661,3.107-12.175,5.363-14.336,5.894
			c-18.897,4.633-38.525,5.158-57.734,7.818c-9.619,1.332-19.208,2.814-28.917,3.312c-4.229,0.217-8.461,0.122-12.678-0.252
			c-2.442-0.218-4.838-0.671-7.223-1.218c-1.095-0.252-4.183-1.015-2.034,0.406c0.405,0.267,0.78-0.383,0.379-0.648
			c-0.354-0.327-0.704-0.659-1.049-0.996c-0.277-0.268-0.708,0.003-0.627,0.365c0.042,0.185,0.083,0.37,0.125,0.555
			c0.029,0.128,0.141,0.226,0.262,0.262c19.076,5.785,39.876,0.285,59.1-1.986c22.078-2.608,44.595-3.533,65.6-11.514
			c0.197-0.074,0.312-0.247,0.262-0.461c-4.011-17.17-3.143-34.796-1.232-52.184c0.926-8.428,1.91-16.879,3.8-25.15
			c1.655-7.249,3.557-14.571,2.946-22.066C139.786,19.055,139.036,19.051,139.075,19.533L139.075,19.533z"/>
	</g>
</g>
<g>
	<g>
		<path d="M8.088,1.633c1.585,4.71,1.205,9.494,1.013,14.373C8.879,21.64,9.416,27.383,9.736,33.008
			c0.657,11.54,1.735,23.053,2.877,34.553c1.075,10.828,1.936,21.664,2.666,32.52c0.383,5.702,0.692,11.408,0.932,17.118
			c0.107,2.552,0.18,5.104,0.246,7.658c0.031,1.284,0.056,2.569,0.075,3.854c-0.005-0.32,0.411,5.675,0.293,3.322
			c-0.024-0.481-0.774-0.483-0.75,0c0.082,1.645-0.044,1.006,0.513,2.6c0.136,0.39,0.738,0.34,0.737-0.1
			c-0.059-23.002-1.878-45.999-4.15-68.875c-1.143-11.51-2.141-23.034-2.799-34.583c-0.315-5.53-0.681-11.108-0.463-16.646
			C10.089,9.95,10.257,5.73,8.812,1.434C8.658,0.978,7.934,1.173,8.088,1.633L8.088,1.633z"/>
	</g>
</g>
<g>
	<g>
		<path d="M5.575,1.033c0.942,21.348,1.041,42.728,2.372,64.059c1.347,21.589,6.016,42.92,8.128,64.441
			c0.046,0.472,0.757,0.492,0.75,0c-0.02-1.483-0.148-2.679-0.513-4.1c-0.121-0.468-0.844-0.27-0.724,0.199
			c1.464,5.701,0.828-0.139,0.645-1.815c-0.276-2.533-0.593-5.062-0.913-7.59c-0.642-5.079-1.372-10.147-2.1-15.215
			c-1.626-11.307-3.279-22.607-4.396-33.979c-2.146-21.86-1.532-44.067-2.5-66C6.304,0.552,5.554,0.549,5.575,1.033L5.575,1.033z"/>
	</g>
</g>
<g>
	<g>
		<path d="M7.075,5.033c-0.458,43.541,1.51,87.042,4,130.5c0.027,0.479,0.75,0.487,0.75,0c0-1.333,0-2.667,0-4
			c0-0.483-0.75-0.483-0.75,0c0,2.234,0.734,3.729,0.527,0.105c-0.147-2.594-0.292-5.188-0.436-7.781
			c-0.323-5.826-0.629-11.654-0.923-17.482c-0.555-10.993-1.038-21.991-1.44-32.991C7.969,50.61,7.585,27.821,7.825,5.033
			C7.83,4.549,7.08,4.55,7.075,5.033L7.075,5.033z"/>
	</g>
</g>
<g>
	<g>
		<path d="M7.715,4.798c0.476-0.521,0.608-1.074,0.61-1.765c0.001-0.484-0.749-0.483-0.75,0c-0.001,0.482-0.052,0.864-0.39,1.235
			C6.86,4.625,7.389,5.156,7.715,4.798L7.715,4.798z"/>
	</g>
</g>
<g>
	<g>
		<path d="M9.851,23.395c21.291,3.475,42.54,4.028,64.044,4.627c22.052,0.615,43.968,4.276,66.056,3.886
			c0.483-0.009,0.484-0.759,0-0.75c-20.894,0.37-41.685-2.775-62.527-3.752c-22.631-1.061-44.915-1.069-67.373-4.735
			C9.577,22.594,9.374,23.317,9.851,23.395L9.851,23.395z"/>
	</g>
</g>
<g>
	<g>
		<path d="M24.2,37.033c-0.019,1.301-0.123,2.604-0.173,3.903c-0.03,0.778-0.452,2.871,0.383,3.384c0.21,0.129,0.55,0.151,0.757,0
			c0.376-0.273,0.432-0.657,0.506-1.088c0.164-0.946-1.282-1.351-1.446-0.398c-0.097,0.559-0.303,0.544,0.183,0.191
			c0.252,0,0.505,0,0.757,0c0.396,0.244,0.325,0.666,0.312,0.153c-0.006-0.238-0.001-0.477,0.002-0.716
			c0.011-0.718,0.041-1.436,0.07-2.153c0.045-1.091,0.132-2.184,0.147-3.276C25.714,36.065,24.214,36.067,24.2,37.033L24.2,37.033z"
			/>
	</g>
</g>
<g>
	<g>
		<path d="M22.95,38.283c2.317-0.148,4.505-0.847,6.801-0.027c-0.149-0.367-0.299-0.734-0.448-1.102
			c-0.836,1.911-2.53,3.364-3.915,4.875c-0.36,0.393-0.722,0.776-0.622,1.344c0.142,0.803,1.092,0.531,1.562,0.307
			c0.873-0.416,0.111-1.709-0.757-1.295c-0.464,0.221,0.357,1.33,0.652,0.962c0.159-0.199,0.339-0.382,0.512-0.568
			c0.441-0.472,0.89-0.937,1.328-1.412c0.955-1.035,1.963-2.153,2.533-3.456c0.203-0.463,0.045-0.926-0.448-1.102
			c-2.43-0.868-4.743-0.184-7.199-0.027C21.99,36.845,21.984,38.345,22.95,38.283L22.95,38.283z"/>
	</g>
</g>
<g>
	<g>
		<path d="M32.227,36.334c-1.052,3.312-1.492,6.731-1.527,10.199c-0.004,0.398,0.344,0.764,0.75,0.75
			c2.719-0.096,5.197-1.029,7.699-2.027c0.887-0.354,0.5-1.805-0.398-1.446c-2.367,0.944-4.722,1.882-7.301,1.973
			c0.25,0.25,0.5,0.5,0.75,0.75c0.034-3.34,0.46-6.612,1.473-9.801C33.967,35.808,32.519,35.416,32.227,36.334L32.227,36.334z"/>
	</g>
</g>
<g>
	<g>
		<path d="M31.45,43.283c2.345-0.039,4.762-0.597,6.878-1.603c0.874-0.415,0.112-1.708-0.757-1.295
			c-1.869,0.888-4.054,1.363-6.122,1.397C30.484,41.799,30.482,43.299,31.45,43.283L31.45,43.283z"/>
	</g>
</g>
<g>
	<g>
		<path d="M32.48,40.063c1.436-1.358,3.303-1.839,5.169-2.307c0.938-0.235,0.54-1.682-0.398-1.446
			c-2.133,0.535-4.197,1.146-5.831,2.693C30.716,39.669,31.779,40.728,32.48,40.063L32.48,40.063z"/>
	</g>
</g>
<g>
	<g>
		<path d="M40.95,38.283c2.378-0.079,4.889-0.479,7.199-1.027c-0.282-0.367-0.564-0.734-0.847-1.102c-1.952,2.842-4.547,5.156-6.5,8
			c-0.404,0.587,0.257,1.22,0.847,1.102c2.549-0.511,5.068-1.063,7.5-2c0.893-0.344,0.505-1.794-0.398-1.446
			c-2.432,0.936-4.951,1.489-7.5,2c0.282,0.367,0.564,0.734,0.847,1.102c1.952-2.842,4.547-5.156,6.5-8
			c0.394-0.574-0.251-1.243-0.847-1.102c-2.191,0.519-4.546,0.898-6.801,0.973C39.985,36.815,39.982,38.315,40.95,38.283
			L40.95,38.283z"/>
	</g>
</g>
<g>
	<g>
		<path d="M51.727,36.834c-0.601,2.478-1.006,5-1.5,7.5c-0.091,0.462,0.207,0.963,0.723,0.949c1.912-0.052,3.754-0.591,5.378-1.603
			c0.819-0.51,0.067-1.808-0.757-1.295c-1.406,0.875-2.964,1.353-4.622,1.397c0.241,0.316,0.482,0.633,0.723,0.949
			c0.494-2.5,0.899-5.022,1.5-7.5C53.401,36.293,51.955,35.894,51.727,36.834L51.727,36.834z"/>
	</g>
</g>
<g>
	<g>
		<path d="M49.251,42.256c2.525,0.448,4.783,0.035,7.078-1.076c0.871-0.421,0.11-1.714-0.757-1.295
			c-1.903,0.921-3.824,1.297-5.922,0.924C48.704,40.642,48.299,42.087,49.251,42.256L49.251,42.256z"/>
	</g>
</g>
<g>
	<g>
		<path d="M50.829,39.681c2.006-0.972,4.147-1.483,6.321-1.924c0.948-0.192,0.546-1.638-0.398-1.446
			c-2.309,0.468-4.552,1.045-6.679,2.076C49.201,38.807,49.962,40.101,50.829,39.681L50.829,39.681z"/>
	</g>
</g>
<g>
	<g>
		<path d="M66.227,37.834c-0.51,2.043-0.987,4.084-1.027,6.199c-0.018,0.968,1.482,0.966,1.5,0c0.037-1.983,0.496-3.886,0.973-5.801
			C67.908,37.294,66.461,36.896,66.227,37.834L66.227,37.834z"/>
	</g>
</g>
<g>
	<g>
		<path d="M65.303,37.412c1.145,1.92,2.729,3.519,5.085,3.559c2.155,0.037,3.781-1.838,4.71-3.559
			c-0.466-0.126-0.932-0.252-1.397-0.378c-0.059,3.195-0.931,6.309-1,9.5c-0.021,0.968,1.479,0.966,1.5,0
			c0.069-3.19,0.94-6.304,1-9.5c0.014-0.737-1.042-1.037-1.397-0.378c-0.739,1.368-1.759,2.656-3.415,2.816
			c-1.744,0.169-3.013-1.514-3.79-2.816C66.103,35.825,64.806,36.579,65.303,37.412L65.303,37.412z"/>
	</g>
</g>
<g>
	<g>
		<path d="M77.227,37.834c-0.669,2.655-1.808,5.462-2.026,8.199c-0.077,0.965,1.424,0.958,1.5,0
			c0.087-1.094,0.553-2.337,0.835-3.426c0.378-1.458,0.77-2.914,1.139-4.375C78.91,37.294,77.463,36.896,77.227,37.834
			L77.227,37.834z"/>
	</g>
</g>
<g>
	<g>
		<path d="M77.303,37.412c1.864,2.472,2.488,5.432,3.424,8.321c0.297,0.917,1.746,0.524,1.447-0.398
			c-0.976-3.011-1.635-6.105-3.576-8.679C78.023,35.893,76.72,36.639,77.303,37.412L77.303,37.412z"/>
	</g>
</g>
<g>
	<g>
		<path d="M74.95,43.283c2.29-0.03,4.485-0.474,6.699-1.027c0.938-0.234,0.54-1.681-0.398-1.446
			c-2.086,0.521-4.142,0.945-6.301,0.973C73.983,41.796,73.982,43.296,74.95,43.283L74.95,43.283z"/>
	</g>
</g>
<g>
	<g>
		<path d="M84.7,37.033c-0.033,1.425-0.355,2.817-0.726,4.188c-0.329,1.219-0.701,2.808-1.555,3.782
			c-0.635,0.724,0.422,1.789,1.061,1.061c1.912-2.18,2.653-6.225,2.72-9.03C86.223,36.065,84.723,36.067,84.7,37.033L84.7,37.033z"
			/>
	</g>
</g>
<g>
	<g>
		<path d="M84.303,38.412c1.879,2.988,2.382,6.653,4.5,9.5c0.57,0.767,1.873,0.02,1.295-0.757c-2.113-2.841-2.62-6.512-4.5-9.5
			C85.084,36.838,83.786,37.59,84.303,38.412L84.303,38.412z"/>
	</g>
</g>
<g>
	<g>
		<path d="M83.649,44.756c2-0.5,4-1,6-1.5c0.938-0.234,0.54-1.681-0.398-1.446c-2,0.5-4,1-6,1.5
			C82.312,43.544,82.711,44.991,83.649,44.756L83.649,44.756z"/>
	</g>
</g>
<g>
	<g>
		<path d="M92.227,37.834c-0.54,2.831-0.944,5.815-1.026,8.699c-0.027,0.968,1.473,0.965,1.5,0c0.078-2.751,0.458-5.602,0.974-8.301
			C93.854,37.288,92.408,36.884,92.227,37.834L92.227,37.834z"/>
	</g>
</g>
<g>
	<g>
		<path d="M90.803,40.912c2.02,3.052,3.944,6.469,7.269,8.269c0.35,0.189,0.828,0.1,1.026-0.269
			c1.604-2.983,1.103-6.372,0.576-9.578c-0.157-0.953-1.603-0.547-1.447,0.398c0.455,2.77,0.969,5.833-0.424,8.422
			c0.342-0.09,0.684-0.18,1.026-0.269c-3.091-1.674-4.854-4.895-6.731-7.731C91.566,39.352,90.267,40.103,90.803,40.912
			L90.803,40.912z"/>
	</g>
</g>
<g>
	<g>
		<path d="M102.303,40.155c-0.457,1.057-0.462,2.296-0.478,3.43c-0.012,0.939-0.135,2.522,0.478,3.327
			c0.577,0.759,1.881,0.014,1.295-0.757c-0.398-0.524-0.264-1.683-0.272-2.298c-0.012-0.896-0.092-2.102,0.272-2.945
			C103.978,40.034,102.686,39.269,102.303,40.155L102.303,40.155z"/>
	</g>
</g>
<g>
	<g>
		<path d="M101.95,41.283c2.349-0.312,6.727-0.313,6.813,3.005c0.083,3.147-4.088,4.595-6.513,5.022
			c-0.951,0.167-0.547,1.613,0.398,1.446c3.386-0.597,7.714-2.694,7.607-6.728c-0.108-4.107-5.271-4.648-8.307-4.246
			C101.006,39.909,100.993,41.41,101.95,41.283L101.95,41.283z"/>
	</g>
</g>
<g>
	<g>
		<path d="M28.575,64.033c-1.028,20.483-0.326,41.049-2,61.5c-0.04,0.482,0.711,0.479,0.75,0c1.674-20.451,0.972-41.017,2-61.5
			C29.35,63.55,28.599,63.552,28.575,64.033L28.575,64.033z"/>
	</g>
</g>
<g>
	<g>
		<path d="M27.261,125.357c5.934,2.596,12.937-1.243,18.789-2.463c12.21-2.545,25.154-2.479,37.54-3.778
			c7.104-0.745,14.246-0.889,21.36-1.521c6.028-0.535,13.121-1.101,18.189-4.738c0.389-0.279,0.015-0.931-0.379-0.648
			c-5.281,3.791-12.876,4.199-19.114,4.752c-6.679,0.593-13.391,0.66-20.057,1.405c-10.036,1.12-20.126,1.673-30.164,2.795
			c-3.77,0.422-7.517,0.888-11.18,1.895c-4.524,1.243-9.98,3.678-14.607,1.653C27.201,124.518,26.819,125.163,27.261,125.357
			L27.261,125.357z"/>
	</g>
</g>
<g>
	<g>
		<path d="M121.325,61.533c0-0.667,0-1.333,0-2c0-0.484-0.75-0.484-0.75,0c0,0.667,0,1.333,0,2
			C120.575,62.017,121.325,62.017,121.325,61.533L121.325,61.533z"/>
	</g>
</g>
<g>
	<g>
		<path d="M120.575,58.533c0.088,17.701,2.412,35.299,2.5,53c0.002,0.483,0.752,0.483,0.75,0c-0.088-17.701-2.412-35.299-2.5-53
			C121.323,58.05,120.573,58.049,120.575,58.533L120.575,58.533z"/>
	</g>
</g>
<g>
	<g>
		<path d="M30.95,65.408c19.811,0.423,39.594-3.403,59.381-1.508c6.687,0.64,13.362,1.407,20.08,1.633
			c2.955,0.099,8.484,0.731,10.805-1.735c0.33-0.352-0.199-0.883-0.531-0.53c-2.811,2.988-11.094,1.522-14.682,1.304
			c-6.157-0.375-12.285-1.135-18.429-1.676c-18.822-1.659-37.77,2.165-56.624,1.762C30.466,64.648,30.467,65.398,30.95,65.408
			L30.95,65.408z"/>
	</g>
</g>
<g>
	<g>
		<path d="M43.088,57.133c0.384,2.193,0.006,4.47,0.151,6.682c0.06,0.914,0.592,2.066,1.476,0.983
			c0.303-0.371-0.224-0.905-0.53-0.53c-0.305,0.374-0.208-0.627-0.222-0.946c-0.031-0.707-0.01-1.417,0-2.125
			c0.021-1.417,0.094-2.862-0.151-4.264C43.729,56.458,43.006,56.66,43.088,57.133L43.088,57.133z"/>
	</g>
</g>
<g>
	<g>
		<path d="M43.851,56.895c13.937,3.275,28.73-1.068,42.821-1.02c5.714,0.02,11.467,0.312,17.178,0.518
			c4.785,0.172,12.32-0.471,16.411,2.464c0.395,0.283,0.768-0.368,0.379-0.647c-3.102-2.225-8.297-2.073-11.92-2.323
			c-6.123-0.423-12.269-0.408-18.401-0.613c-15.174-0.508-31.328,4.41-46.269,0.898C43.58,56.061,43.38,56.784,43.851,56.895
			L43.851,56.895z"/>
	</g>
</g>
<g>
	<g>
		<path d="M43.575,66.533c0.066,10.146,1.039,20.246,1.601,30.37c0.282,5.078,0.363,10.157,0.206,15.24
			c-0.064,2.088-1.781,8.377-0.478,9.913c0.229,0.27,0.619,0.03,0.64-0.266c0.021-0.562,0.11-1.114,0.268-1.658
			c0.169-0.454-0.556-0.648-0.724-0.199c-0.391,1.048,0.057,3.009,0.475-0.266c0.318-2.496,0.45-5.013,0.569-7.524
			c0.241-5.074,0.042-10.17-0.206-15.24c-0.497-10.13-1.535-20.22-1.601-30.37C44.322,66.05,43.572,66.049,43.575,66.533
			L43.575,66.533z"/>
	</g>
</g>
<g>
	<g>
		<path d="M62.075,59.033c-0.534,21.169-1.934,42.315-1.5,63.5c0.009,0.436,0.6,0.494,0.737,0.1c0.32-0.804,0.641-1.606,0.962-2.41
			c0.205-0.436-0.442-0.816-0.647-0.379c-0.98,2.083-0.344,0.525-0.371-1.214c-0.04-2.593-0.033-5.186-0.023-7.777
			c0.022-5.793,0.183-11.585,0.369-17.375c0.368-11.482,0.934-22.958,1.224-34.444C62.837,58.549,62.087,58.55,62.075,59.033
			L62.075,59.033z"/>
	</g>
</g>
<g>
	<g>
		<path d="M76.089,56.133c1.516,10.926,1.044,21.921,0.522,32.901c-0.481,10.125-0.036,20.084-0.036,30.179
			c0,0.483,0.75,0.483,0.75,0c0-0.727,0-1.453,0-2.18c0-0.483-0.75-0.483-0.75,0c0,0.727,0,1.453,0,2.18c0,0.483,0.75,0.483,0.75,0
			c0-10.724-0.386-21.302,0.125-32.055c0.496-10.428,0.801-20.855-0.639-31.225C76.745,55.456,76.023,55.66,76.089,56.133
			L76.089,56.133z"/>
	</g>
</g>
<g>
	<g>
		<path d="M90.589,57.434c-2.334,8.036-0.672,16.853,0.15,25.005c1.185,11.763,1.302,23.779,1.336,35.595
			c0.001,0.483,0.75,0.483,0.75,0c0-0.667,0-1.333,0-2c0-0.483-0.75-0.483-0.75,0c-0.187,1.098,0.062,1.107,0.744,0.031
			c-0.008-1.312-0.022-2.625-0.044-3.938c-0.045-3.282-0.15-6.563-0.263-9.844c-0.194-5.684-0.39-11.383-0.776-17.058
			c-0.615-9.027-3.011-18.689-0.425-27.593C91.447,57.167,90.724,56.97,90.589,57.434L90.589,57.434z"/>
	</g>
</g>
<g>
	<g>
		<path d="M105.075,56.033c0.041,11.332,0.757,22.628,1.89,33.9c0.401,4.005,0.856,8.001,1.419,11.985
			c0.633,4.486,1.937,10.146,0.205,14.515c-0.179,0.45,0.547,0.644,0.723,0.199c2.629-6.634-0.426-16.154-1.197-22.96
			c-1.416-12.496-2.243-25.062-2.289-37.64C105.823,55.55,105.073,55.549,105.075,56.033L105.075,56.033z"/>
	</g>
</g>
<g>
	<g>
		<path d="M32.851,79.395c5.911,0.846,11.749-0.838,17.6-1.486c8.177-0.906,16.489-0.322,24.686-0.086
			c13.851,0.399,28.21,0.897,41.914-1.428c0.477-0.08,0.273-0.803-0.199-0.723c-13.062,2.216-26.597,1.65-39.795,1.445
			c-7.58-0.117-15.129-0.579-22.711-0.246c-7.076,0.311-14.229,2.812-21.295,1.801C32.577,78.604,32.373,79.326,32.851,79.395
			L32.851,79.395z"/>
	</g>
</g>
<g>
	<g>
		<path d="M36.45,90.908C54.425,89,72.47,88,90.534,87.462c5.334-0.159,10.662,0.345,16,0.233c2.98-0.062,7.476,0.004,9.682-2.396
			c0.326-0.355-0.203-0.888-0.531-0.531c-2.915,3.173-10.152,2.247-14.041,2.181c-5.653-0.097-11.213-0.244-16.874-0.054
			c-16.138,0.545-32.261,1.559-48.319,3.264C35.975,90.209,35.97,90.959,36.45,90.908L36.45,90.908z"/>
	</g>
</g>
<g>
	<g>
		<path d="M36.45,103.408c27.325-1.021,54.649-2.465,82-2.5c0.483-0.001,0.483-0.751,0-0.75c-27.351,0.035-54.675,1.479-82,2.5
			C35.968,102.676,35.966,103.427,36.45,103.408L36.45,103.408z"/>
	</g>
</g>
<g>
	<g>
		<path d="M37.45,115.408c16.326,0.351,32.432-2.65,48.663-3.879c11.638-0.881,23.521-0.942,34.937-3.635
			c0.471-0.11,0.271-0.834-0.199-0.723c-11.937,2.814-24.41,2.825-36.583,3.747c-15.631,1.184-31.089,4.077-46.817,3.739
			C36.966,114.647,36.967,115.397,37.45,115.408L37.45,115.408z"/>
	</g>
</g>
<g>
	<g>
		<path d="M9.95,4.033c0.836,6.962,0.097,14.099,2.054,20.899c0.426,1.482,2.421,1.376,2.893,0
			c1.996-5.823,2.992-11.786,3.554-17.899c-1,0-2,0-3,0c-0.046,4.898-0.37,9.789,1.554,14.399c0.585,1.402,2.318,1.438,2.893,0
			c2.081-5.208,2.501-10.84,2.554-16.399c-1,0-2,0-3,0c-0.04,6.014-0.434,12.128,1.554,17.899c0.472,1.372,2.47,1.487,2.893,0
			c1.575-5.535,2.486-11.179,3.054-16.899c-1,0-2,0-3,0c0.007,5.559,0.012,11.151,2.054,16.399c0.479,1.229,2.604,1.617,2.893,0
			c0.942-5.274,1.05-10.552,1.054-15.899c-1,0-2,0-3,0c0.467,5.672,0.582,11.371,2.054,16.899c0.393,1.475,2.459,1.388,2.893,0
			c1.509-4.83,1.099-9.907,1.054-14.899c-1,0-2,0-3,0c0.541,4.876,1.126,9.688,2.554,14.399c0.399,1.317,2.632,1.544,2.893,0
			c0.896-5.303,0.605-10.701,1.5-16c-0.964,0-1.928,0-2.893,0c1.761,5.533,1.666,11.373,3,17c0.329,1.388,2.631,1.483,2.893,0
			c0.961-5.437,1.05-10.89,1.054-16.399c-0.982,0.133-1.964,0.266-2.946,0.399c1.255,5.102,0.743,10.391,2,15.5
			c0.369,1.498,2.458,1.364,2.893,0c1.765-5.546,1.665-11.366,3-17c-0.964,0-1.928,0-2.893,0c1.901,5.467,1.612,11.333,2.5,17
			c0.227,1.451,2.641,1.424,2.893,0c0.853-4.811,1.069-9.705,2-14.5c-0.964,0-1.928,0-2.893,0c0.92,5.171,1.146,10.408,2.5,15.5
			c0.455,1.71,2.822,1.235,2.946-0.399c0.445-5.875,0.566-11.767,1.446-17.601c-0.964,0-1.928,0-2.893,0
			c0.909,6.004,1.156,12.063,2.5,18c0.32,1.413,2.604,1.459,2.893,0c1.277-6.451,0.725-13.056,2-19.5c-0.964,0-1.928,0-2.893,0
			c1.304,6.824,1.068,13.919,3.5,20.5c0.521,1.411,2.382,1.439,2.893,0c1.938-5.459,2.081-11.18,2.554-16.899
			c-0.982,0.133-1.964,0.266-2.946,0.399c1.407,5.451,1.284,11.107,3,16.5c0.429,1.348,2.549,1.515,2.893,0
			c1.383-6.097,1.565-12.335,2.5-18.5c-0.964,0-1.928,0-2.893,0c1.335,5.446,1.553,11.081,3,16.5c0.375,1.406,2.549,1.462,2.893,0
			c1.281-5.443,1.22-11.059,2.5-16.5c-0.964,0-1.929,0-2.893,0c2.319,5.763,2.069,12.022,3.5,18
			c0.401,1.675,2.928,1.271,2.946-0.399c0.053-4.791,0.424-9.479,2.795-13.743c-0.914-0.119-1.827-0.239-2.741-0.358
			c1.367,5.618,1.437,11.371,1.946,17.101c0.139,1.563,2.662,2.183,2.946,0.399c0.967-6.062,1.68-12.116,3.5-18
			c-0.982-0.133-1.964-0.266-2.946-0.399c0.004,5.509,0.093,10.962,1.054,16.399c0.312,1.771,2.818,1.18,2.946-0.399
			c0.426-5.273,0.193-10.532,1.946-15.601c-0.982-0.133-1.964-0.266-2.946-0.399c0.466,6.146,0.633,12.295,1.554,18.399
			c0.271,1.795,2.795,1.152,2.946-0.399c0.583-5.962,1.92-11.734,4.295-17.243c-0.914-0.119-1.827-0.239-2.741-0.358
			c0.827,5.642,0.172,11.351,1,17c0.213,1.454,2.649,1.422,2.893,0c0.873-5.095,0.736-10.33,2.849-15.142
			c-0.914-0.119-1.827-0.239-2.741-0.358c1.317,5.122,1.025,10.373,1.446,15.601c0.133,1.65,2.451,2.088,2.946,0.399
			c1.499-5.109,1.708-10.462,3.5-15.5c-0.982-0.133-1.964-0.266-2.946-0.399c-0.048,5.511-0.291,10.931,0.554,16.399
			c0.225,1.454,2.639,1.422,2.893,0c0.93-5.209,1.22-10.477,3-15.5c-0.982-0.133-1.964-0.266-2.946-0.399
			c0.448,5.494,0.552,11.006,1,16.5c0.129,1.583,2.615,2.166,2.946,0.399c0.955-5.09,1.306-10.531,3.849-15.142
			c-0.932-0.252-1.863-0.504-2.795-0.757c0.399,5.148,0.21,10.289,1.054,15.399c0.241,1.464,2.606,1.409,2.893,0
			c0.969-4.762,2.092-9.298,4.349-13.642c-0.914-0.119-1.827-0.239-2.741-0.358c1.351,5.447,0.533,11.063,0.446,16.601
			c-0.031,1.963,2.828,1.893,3,0c0.467-5.129,0.778-10.707,4.061-14.939c-0.836-0.221-1.671-0.441-2.507-0.662
			c0.77,4.525,0.047,9.053-0.054,13.601c-0.037,1.665,2.641,2.085,2.946,0.399c0.85-4.682,0.861-10.052,4.114-13.838
			c-0.854-0.354-1.707-0.707-2.561-1.061c0.327,5.059-0.446,9.985-1,15c-0.195,1.765,2.436,1.917,2.946,0.399
			c1.487-4.421,2.014-9.079,3.5-13.5c-0.964,0-1.929,0-2.893,0c1.206,4.568,0.498,9-0.054,13.601c1,0,2,0,3,0
			c0.375-3.303,0.247-7.529,3.257-9.705c-0.752-0.432-1.505-0.864-2.257-1.295c0.367,3.632-0.03,7.071-0.946,10.601
			c0.982,0.133,1.964,0.266,2.946,0.399c0.524-4.096,1.526-7.756,3.795-11.243c-0.863,0-1.727,0-2.59,0
			c1.163,2.65,0.253,5.589-1,7.986c-0.896,1.712,1.693,3.229,2.59,1.514c1.828-3.496,2.623-7.316,1-11.014
			c-0.482-1.101-2.04-0.847-2.59,0c-2.568,3.947-3.613,8.127-4.205,12.757c-0.219,1.707,2.531,1.998,2.946,0.399
			c0.983-3.789,1.449-7.488,1.054-11.399c-0.102-1.007-1.24-2.03-2.257-1.295c-4.075,2.946-4.218,7.663-4.743,12.295
			c-0.219,1.925,2.773,1.892,3,0c0.589-4.906,1.225-9.558-0.054-14.399c-0.396-1.499-2.435-1.361-2.893,0
			c-1.487,4.421-2.014,9.079-3.5,13.5c0.982,0.133,1.964,0.266,2.946,0.399c0.554-5.015,1.327-9.941,1-15
			c-0.077-1.195-1.642-2.13-2.561-1.061c-3.709,4.316-3.91,9.782-4.886,15.162c0.982,0.133,1.964,0.266,2.946,0.399
			c0.107-4.848,0.766-9.582-0.054-14.399c-0.178-1.047-1.839-1.523-2.507-0.662c-3.84,4.951-4.389,11.008-4.939,17.061c1,0,2,0,3,0
			c0.092-5.83,0.868-11.667-0.554-17.399c-0.305-1.229-2.142-1.512-2.741-0.358c-2.371,4.562-3.63,9.337-4.651,14.358
			c0.964,0,1.929,0,2.893,0c-0.799-4.839-0.568-9.727-0.946-14.601c-0.109-1.407-2.027-2.149-2.795-0.757
			c-2.691,4.88-3.141,10.468-4.151,15.858c0.982,0.133,1.964,0.266,2.946,0.399c-0.448-5.494-0.552-11.006-1-16.5
			c-0.139-1.702-2.37-2.025-2.946-0.399c-1.785,5.037-2.068,10.276-3,15.5c0.964,0,1.929,0,2.893,0
			c-0.802-5.191-0.491-10.374-0.446-15.601c0.016-1.767-2.396-1.944-2.946-0.399c-1.793,5.038-2.001,10.392-3.5,15.5
			c0.982,0.133,1.964,0.266,2.946,0.399c-0.442-5.499-0.169-11.015-1.554-16.399c-0.299-1.164-2.203-1.585-2.741-0.358
			c-2.252,5.13-2.22,10.423-3.151,15.858c0.964,0,1.929,0,2.893,0c-0.827-5.642-0.172-11.351-1-17
			c-0.182-1.241-2.246-1.507-2.741-0.358c-2.596,6.018-4.068,12.244-4.705,18.757c0.982-0.133,1.964-0.266,2.946-0.399
			c-0.88-5.834-1.001-11.727-1.446-17.601c-0.129-1.699-2.383-2.029-2.946-0.399c-1.841,5.323-1.605,10.854-2.054,16.399
			c0.982-0.133,1.964-0.266,2.946-0.399c-0.913-5.168-0.942-10.369-0.946-15.601C87.949,7.81,85.5,7.53,85.004,9.134
			c-1.821,5.884-2.533,11.938-3.5,18c0.982,0.133,1.964,0.266,2.946,0.399c-0.533-5.999-0.623-12.02-2.054-17.899
			c-0.306-1.258-2.118-1.478-2.741-0.358c-2.631,4.728-3.146,9.928-3.205,15.257c0.982-0.133,1.964-0.266,2.946-0.399
			c-1.434-5.989-1.174-12.221-3.5-18c-0.509-1.264-2.52-1.585-2.893,0c-1.281,5.443-1.22,11.059-2.5,16.5c0.964,0,1.929,0,2.893,0
			c-1.446-5.419-1.664-11.054-3-16.5c-0.334-1.363-2.665-1.506-2.893,0c-0.934,6.16-1.119,12.411-2.5,18.5c0.964,0,1.928,0,2.893,0
			c-1.713-5.382-1.595-11.055-3-16.5c-0.445-1.723-2.812-1.222-2.946,0.399c-0.451,5.452-0.599,10.895-2.446,16.101
			c0.964,0,1.928,0,2.893,0c-2.426-6.566-2.197-13.681-3.5-20.5c-0.275-1.442-2.609-1.432-2.893,0c-1.277,6.451-0.725,13.056-2,19.5
			c0.964,0,1.928,0,2.893,0c-1.342-5.928-1.592-12.003-2.5-18c-0.218-1.438-2.676-1.438-2.893,0
			c-0.921,6.104-1.087,12.253-1.554,18.399c0.982-0.133,1.964-0.266,2.946-0.399c-1.352-5.082-1.581-10.337-2.5-15.5
			c-0.258-1.449-2.616-1.425-2.893,0c-0.932,4.799-1.147,9.688-2,14.5c0.964,0,1.928,0,2.893,0c-0.891-5.687-0.589-11.505-2.5-17
			c-0.461-1.325-2.529-1.533-2.893,0c-1.334,5.627-1.239,11.467-3,17c0.964,0,1.928,0,2.893,0c-1.255-5.102-0.743-10.391-2-15.5
			c-0.409-1.663-2.945-1.281-2.946,0.399c-0.004,5.232-0.033,10.433-0.946,15.601c0.964,0,1.928,0,2.893,0
			c-1.335-5.634-1.235-11.454-3-17c-0.414-1.301-2.629-1.558-2.893,0c-0.896,5.303-0.605,10.701-1.5,16c0.964,0,1.928,0,2.893,0
			c-1.349-4.454-1.935-8.985-2.446-13.601c-0.208-1.875-3.018-1.978-3,0c0.042,4.714,0.479,9.539-0.946,14.101
			c0.964,0,1.928,0,2.893,0c-1.403-5.269-1.501-10.697-1.946-16.101c-0.157-1.901-2.999-1.96-3,0
			c-0.004,5.072-0.052,10.092-0.946,15.101c0.964,0,1.928,0,2.893,0c-1.948-5.007-1.94-10.303-1.946-15.601
			c-0.002-1.97-2.813-1.887-3,0c-0.542,5.458-1.444,10.824-2.946,16.101c0.964,0,1.928,0,2.893,0
			c-1.9-5.519-1.484-11.355-1.446-17.101c0.013-1.936-2.982-1.934-3,0c-0.05,5.315-0.458,10.623-2.446,15.601
			c0.964,0,1.928,0,2.893,0c-1.822-4.365-1.49-8.973-1.446-13.601c0.019-1.965-2.826-1.893-3,0
			c-0.539,5.857-1.538,11.532-3.446,17.101c0.964,0,1.928,0,2.893,0c-1.877-6.523-1.144-13.417-1.946-20.101
			C12.723,2.137,9.72,2.115,9.95,4.033L9.95,4.033z"/>
	</g>
</g>
<g>
	<g>
		<path d="M12.004,21.932c1.234,3.157,5.986,3.772,8.844,4.353c6.507,1.323,13.21,1.828,19.819,2.331
			c10.043,0.764,20.119,1.159,30.177,1.689c13.542,0.714,27.09,1.329,40.641,1.855c5.96,0.232,11.923,0.451,17.887,0.551
			c1.729,0.029,6.167,0.837,7.373-0.921c1.098-1.6-1.503-3.098-2.59-1.514c0.851-1.241,0.052-0.555-1.53-0.542
			c-1.992,0.017-3.985-0.032-5.978-0.077c-5.735-0.129-11.47-0.351-17.202-0.577c-12.442-0.49-24.883-1.067-37.318-1.709
			c-8.044-0.415-16.092-0.8-24.134-1.269c-6.581-0.384-13.16-0.877-19.705-1.673c-2.123-0.258-12.388-0.729-13.392-3.295
			C14.2,19.354,11.298,20.128,12.004,21.932L12.004,21.932z"/>
	</g>
</g>
<g>
	<g>
		<path d="M10.39,2.594c4.127,4.492,14.42,2.854,19.781,2.824c5.253-0.03,10.493,0.691,15.734,1.008
			c8.161,0.492,16.318,0.835,24.419,2.008c13.284,1.923,26.309,5.655,39.539,7.949c4.169,0.723,8.341,1.221,12.545,1.688
			c4.285,0.476,10.149,0.609,13.785,3.259c1.566,1.141,3.061-1.463,1.514-2.591c-5.86-4.27-15.687-3.527-22.558-4.518
			c-12.886-1.856-25.551-5.056-38.301-7.633c-13.356-2.701-26.965-2.65-40.489-3.861c-3.983-0.357-7.931-0.276-11.928-0.283
			c-3.238-0.005-9.506,0.658-11.921-1.971C11.199-0.955,9.083,1.172,10.39,2.594L10.39,2.594z"/>
	</g>
</g>
<g>
	<g>
		<path d="M10.207,1.738c-6.283-3.696-8.374,3.368-8.973,8.355c-1.391,11.583-1.312,23.759-1.143,35.399
			c0.221,15.24,1.833,30.292,3.991,45.362c1.134,7.912,2.225,15.826,2.922,23.791c0.323,3.691,0.488,7.393,0.564,11.097
			c0.054,2.61-0.893,6.246,0.383,8.596c0.571,1.052,1.984,0.888,2.591,0c0.34-0.497,0.422-1,0.703-1.547
			c0.882-1.718-1.707-3.235-2.591-1.514c-0.225,0.438-0.43,1.147-0.703,1.547c0.864,0,1.727,0,2.591,0
			c-0.961-1.771,0.031-6.845-0.012-8.92c-0.064-3.091-0.285-6.178-0.526-9.259c-0.45-5.745-1.207-11.464-1.982-17.172
			C6.278,84.625,4.395,71.883,3.609,58.93C2.833,46.119,2.852,33.275,3.792,20.476C4.026,17.282,3.175,1.082,8.693,4.329
			C10.364,5.312,11.873,2.718,10.207,1.738L10.207,1.738z"/>
	</g>
</g>
<g>
	<g>
		<path d="M136.004,21.432c1.508,7.359-0.506,15.241-2.04,22.438c-1.46,6.843-3.045,13.598-3.691,20.577
			c-1.729,18.677-0.062,37.369,4.731,55.484c0.494,1.869,3.388,1.075,2.893-0.797c-5.012-18.944-6.297-38.224-4.335-57.703
			c1.349-13.396,8.124-27.189,5.335-40.798C138.509,18.74,135.617,19.544,136.004,21.432L136.004,21.432z"/>
	</g>
</g>
<g>
	<g>
		<path d="M7.551,134.479c8.812,3.003,18.51,1.315,27.592,0.894c11.843-0.549,23.646-1.776,35.463-2.7
			c12.317-0.964,24.653-1.734,36.979-2.594c4.679-0.327,9.326-0.606,13.962-1.341c4.949-0.784,9.877-2.053,14.903-2.205
			c1.93-0.059,1.936-3.059,0-3c-9,0.272-17.893,2.783-26.906,3.409c-12.365,0.858-24.729,1.736-37.094,2.591
			c-11.206,0.774-22.38,1.942-33.593,2.637c-9.765,0.605-21.062,2.636-30.508-0.583C6.513,130.961,5.731,133.859,7.551,134.479
			L7.551,134.479z"/>
	</g>
</g>
</svg>
