<?xml version="1.0" encoding="utf-8"?>
<!-- Generator: Adobe Illustrator 19.2.1, SVG Export Plug-In . SVG Version: 6.00 Build 0)  -->
<svg version="1.1" id="Layer_1" xmlns="http://www.w3.org/2000/svg" xmlns:xlink="http://www.w3.org/1999/xlink" x="0px" y="0px"
	 viewBox="0 0 200 150" style="enable-background:new 0 0 200 150;" xml:space="preserve">
<style type="text/css">
	.st0{fill:#1D1D1B;}
	.st1{fill:#FFFFFF;}
	.st2{fill:#424143;}
	.st3{clip-path:url(#SVGID_2_);}
	.st4{clip-path:url(#SVGID_4_);}
	.st5{clip-path:url(#SVGID_6_);}
	.st6{clip-path:url(#SVGID_8_);}
	.st7{fill:#2D2E2D;}
	.st8{clip-path:url(#SVGID_10_);}
</style>
<g id="Link:_Making_Sense_1_">
	<g>
		<path class="st2" d="M58.5,56.8c-3.1,0-5.7,2.5-5.8,5.6c-5.6,2.2-9.5,7.4-10.1,13.3c-0.1,0.7,0.4,1.3,1.2,1.4c0,0,0.1,0,0.1,0
			c0.7,0,1.2-0.5,1.3-1.2c0.5-4.8,3.6-9.1,8-11c0.9,2,2.9,3.4,5.3,3.4c3.2,0,5.8-2.6,5.8-5.8C64.3,59.4,61.7,56.8,58.5,56.8z
			 M58.5,66.2c-2,0-3.6-1.6-3.6-3.6c0-2,1.6-3.6,3.6-3.6c2,0,3.6,1.6,3.6,3.6C62.1,64.6,60.5,66.2,58.5,66.2z"/>
	</g>
	<g>
		<path class="st2" d="M65.8,90.1c-0.3-0.6-1.1-0.9-1.7-0.6c-4.4,2.1-9.6,1.5-13.6-1.3c1.3-1.8,1.5-4.3,0.3-6.3c-1-1.8-3-2.9-5-2.9
			c-1,0-2.1,0.3-2.9,0.8c-1.3,0.8-2.3,2.1-2.7,3.6c-0.4,1.5-0.2,3.1,0.6,4.4c1,1.8,3,2.9,5,2.9c1,0,1.9-0.2,2.8-0.7
			c2.9,2.2,6.4,3.4,9.9,3.4c2.3,0,4.6-0.5,6.7-1.5C65.8,91.5,66.1,90.7,65.8,90.1z M45.8,88.3c-1.3,0-2.4-0.7-3.1-1.8
			c-0.5-0.8-0.6-1.8-0.4-2.7c0.2-0.9,0.8-1.7,1.7-2.2c0.6-0.3,1.2-0.5,1.8-0.5c1.3,0,2.4,0.7,3.1,1.8c1,1.7,0.4,3.9-1.3,4.9
			C47.1,88.1,46.5,88.3,45.8,88.3z"/>
	</g>
	<g>
		<path class="st2" d="M74.2,79.8c0.9-5.9-1.6-11.9-6.4-15.4c-0.6-0.4-1.4-0.3-1.8,0.3c-0.4,0.6-0.3,1.4,0.3,1.8
			c3.9,2.8,6,7.7,5.4,12.5c-0.2,0-0.4,0-0.6,0c-2.1,0-4,1.1-5,2.9c-0.8,1.3-1,2.9-0.6,4.4c0.4,1.5,1.3,2.8,2.7,3.6
			c0.9,0.5,1.9,0.8,2.9,0.8c2.1,0,4-1.1,5-2.9C77.8,84.9,76.9,81.4,74.2,79.8z M74.2,86.5c-0.6,1.1-1.8,1.8-3.1,1.8
			c-0.6,0-1.3-0.2-1.8-0.5c-0.8-0.5-1.4-1.3-1.7-2.2c-0.2-0.9-0.1-1.9,0.4-2.7c0.6-1.1,1.8-1.8,3.1-1.8c0.6,0,1.3,0.2,1.8,0.5
			C74.7,82.6,75.2,84.8,74.2,86.5z"/>
	</g>
	<g>
		<path class="st2" d="M101.7,68.3l4.2-8.1c0.1-0.2,0.2-0.3,0.3-0.5c0.1-0.1,0.3-0.2,0.6-0.2l0.8,0c0.2,0,0.3,0.1,0.4,0.2
			c0.1,0.1,0.2,0.2,0.2,0.4l0,13.3c0,0.2-0.1,0.3-0.2,0.4c-0.1,0.1-0.2,0.2-0.4,0.2l-0.8,0c-0.2,0-0.3-0.1-0.4-0.2
			c-0.1-0.1-0.2-0.2-0.2-0.4l0-9.8l-3.2,6.2c-0.1,0.2-0.2,0.4-0.4,0.5c-0.1,0.1-0.3,0.2-0.5,0.2l-0.8,0c-0.2,0-0.4-0.1-0.5-0.2
			c-0.1-0.1-0.2-0.3-0.4-0.5l-3.2-6.2l0,9.8c0,0.2-0.1,0.3-0.2,0.4C97,73.9,96.9,74,96.7,74l-0.8,0c-0.2,0-0.3-0.1-0.4-0.2
			c-0.1-0.1-0.2-0.2-0.2-0.4l0-13.3c0-0.2,0.1-0.3,0.2-0.4c0.1-0.1,0.2-0.2,0.4-0.2l0.8,0c0.2,0,0.4,0.1,0.6,0.2
			c0.1,0.1,0.3,0.3,0.3,0.5L101.7,68.3z"/>
	</g>
	<g>
		<path class="st2" d="M110.7,71.3c0-0.5,0.1-1,0.3-1.4c0.2-0.4,0.5-0.8,0.9-1.1c0.4-0.3,0.8-0.5,1.4-0.7c0.5-0.2,1.1-0.3,1.6-0.4
			l2.9-0.5l0-0.3c0-0.7-0.2-1.2-0.7-1.6c-0.5-0.4-1-0.5-1.7-0.5c-0.6,0-1.1,0.1-1.4,0.3c-0.3,0.2-0.6,0.5-0.8,0.8
			c-0.1,0.1-0.2,0.2-0.3,0.2c-0.1,0-0.2,0.1-0.4,0.1l-0.6,0c-0.2,0-0.3-0.1-0.4-0.2c-0.1-0.1-0.2-0.2-0.2-0.4c0-0.3,0.1-0.6,0.4-0.9
			c0.2-0.3,0.5-0.6,0.9-0.8c0.4-0.2,0.8-0.5,1.3-0.6c0.5-0.2,1-0.2,1.5-0.2c0.6,0,1.2,0.1,1.7,0.3c0.5,0.2,1,0.4,1.4,0.8
			c0.4,0.3,0.7,0.8,0.9,1.3c0.2,0.5,0.3,1.1,0.3,1.8l0,6.3c0,0.2-0.1,0.3-0.2,0.4c-0.1,0.1-0.2,0.2-0.4,0.2l-0.8,0
			c-0.2,0-0.3-0.1-0.4-0.2c-0.1-0.1-0.2-0.2-0.2-0.4l0-0.8c-0.1,0.3-0.3,0.5-0.6,0.7c-0.3,0.2-0.6,0.4-0.9,0.5
			c-0.3,0.1-0.7,0.2-1.1,0.3c-0.4,0.1-0.7,0.1-1,0.1c-0.5,0-1-0.1-1.5-0.2c-0.4-0.2-0.8-0.4-1.1-0.6c-0.3-0.3-0.6-0.6-0.7-0.9
			C110.8,72.1,110.7,71.7,110.7,71.3z M114.5,72.4c0.5,0,0.9-0.1,1.4-0.2c0.4-0.2,0.8-0.4,1.1-0.6c0.3-0.3,0.5-0.6,0.7-1
			c0.2-0.4,0.2-0.8,0.2-1.2l0-0.5l-2.4,0.4c-0.9,0.1-1.6,0.4-2.1,0.7c-0.5,0.3-0.8,0.7-0.8,1.2c0,0.2,0,0.3,0.1,0.5
			c0.1,0.2,0.2,0.3,0.3,0.4c0.2,0.1,0.3,0.2,0.6,0.3C113.8,72.4,114.1,72.4,114.5,72.4z"/>
	</g>
	<g>
		<path class="st2" d="M124.6,69.5l0,4c0,0.2-0.1,0.3-0.2,0.4c-0.1,0.1-0.2,0.2-0.4,0.2l-0.8,0c-0.2,0-0.3-0.1-0.4-0.2
			c-0.1-0.1-0.2-0.2-0.2-0.4l0-13.5c0-0.2,0.1-0.3,0.2-0.4c0.1-0.1,0.2-0.2,0.4-0.2l0.8,0c0.2,0,0.3,0.1,0.4,0.2
			c0.1,0.1,0.2,0.2,0.2,0.4l0,6.8l4-3.1c0.1-0.1,0.2-0.1,0.3-0.2c0.1-0.1,0.3-0.1,0.5-0.1l1,0c0.1,0,0.3,0,0.4,0.1
			c0.1,0.1,0.1,0.2,0.1,0.4c0,0.1,0,0.1,0,0.2c0,0.1-0.1,0.1-0.2,0.2l-5,3.9l5.5,5.1c0.1,0.1,0.1,0.2,0.2,0.2c0,0.1,0,0.1,0,0.2
			c0,0.1,0,0.3-0.1,0.4c-0.1,0.1-0.2,0.1-0.4,0.1l-1,0c-0.2,0-0.4,0-0.5-0.1c-0.1-0.1-0.3-0.2-0.3-0.2L124.6,69.5z"/>
	</g>
	<g>
		<path class="st2" d="M135.4,61.1c0,0.2-0.1,0.3-0.2,0.4c-0.1,0.1-0.2,0.2-0.4,0.2l-1.2,0c-0.2,0-0.3-0.1-0.4-0.2
			c-0.1-0.1-0.2-0.2-0.2-0.4l0-1.2c0-0.2,0.1-0.3,0.2-0.4c0.1-0.1,0.2-0.2,0.4-0.2l1.2,0c0.2,0,0.3,0.1,0.4,0.2
			c0.1,0.1,0.2,0.2,0.2,0.4L135.4,61.1z M135.1,73.4c0,0.2-0.1,0.3-0.2,0.4c-0.1,0.1-0.2,0.2-0.4,0.2l-0.8,0c-0.2,0-0.3-0.1-0.4-0.2
			c-0.1-0.1-0.2-0.2-0.2-0.4l0-9.6c0-0.2,0.1-0.3,0.2-0.4c0.1-0.1,0.2-0.2,0.4-0.2l0.8,0c0.2,0,0.3,0.1,0.4,0.2
			c0.1,0.1,0.2,0.2,0.2,0.4L135.1,73.4z"/>
	</g>
	<g>
		<path class="st2" d="M147.8,73.4c0,0.2-0.1,0.3-0.2,0.4c-0.1,0.1-0.2,0.2-0.4,0.2l-0.8,0c-0.2,0-0.3-0.1-0.4-0.2
			c-0.1-0.1-0.2-0.2-0.2-0.4l0-5.4c0-1.1-0.3-1.8-0.8-2.4c-0.5-0.5-1.2-0.8-2.1-0.8c-0.9,0-1.6,0.3-2.1,0.8
			c-0.5,0.5-0.8,1.3-0.8,2.4l0,5.4c0,0.2-0.1,0.3-0.2,0.4c-0.1,0.1-0.2,0.2-0.4,0.2l-0.8,0c-0.2,0-0.3-0.1-0.4-0.2
			c-0.1-0.1-0.2-0.2-0.2-0.4l0-9.6c0-0.2,0.1-0.3,0.2-0.4c0.1-0.1,0.2-0.2,0.4-0.2l0.8,0c0.2,0,0.3,0.1,0.4,0.2
			c0.1,0.1,0.2,0.2,0.2,0.4l0,0.6c0.3-0.3,0.6-0.7,1.2-1c0.5-0.3,1.2-0.4,2-0.4c0.6,0,1.2,0.1,1.8,0.3c0.5,0.2,1,0.5,1.4,0.9
			c0.4,0.4,0.7,0.9,0.9,1.5c0.2,0.6,0.3,1.2,0.3,1.9L147.8,73.4z"/>
	</g>
	<g>
		<path class="st2" d="M150.2,68c0-0.8,0.2-1.4,0.4-2c0.2-0.6,0.6-1.1,1-1.5c0.4-0.4,0.9-0.7,1.5-1c0.6-0.2,1.2-0.3,1.8-0.3
			c0.9,0,1.5,0.1,2,0.4c0.5,0.3,0.9,0.6,1.2,1l0-0.6c0-0.2,0.1-0.3,0.2-0.4c0.1-0.1,0.2-0.2,0.4-0.2l0.8,0c0.2,0,0.3,0.1,0.4,0.2
			c0.1,0.1,0.2,0.2,0.2,0.4l0,10c0,1.4-0.4,2.6-1.2,3.4c-0.8,0.8-2,1.3-3.7,1.3c-0.8,0-1.5-0.1-2.1-0.3c-0.6-0.2-1.1-0.4-1.4-0.7
			c-0.4-0.3-0.7-0.6-0.8-1c-0.2-0.4-0.3-0.7-0.3-1c0-0.2,0-0.3,0.2-0.4c0.1-0.1,0.3-0.2,0.4-0.2l0.6,0c0.2,0,0.3,0,0.4,0.1
			c0.1,0.1,0.2,0.2,0.3,0.4c0,0.1,0.1,0.2,0.2,0.3c0.1,0.1,0.2,0.3,0.4,0.4c0.2,0.1,0.5,0.3,0.8,0.4c0.3,0.1,0.7,0.2,1.2,0.2
			c0.5,0,0.9,0,1.3-0.1c0.4-0.1,0.7-0.2,1-0.4c0.3-0.2,0.5-0.5,0.7-0.8c0.2-0.3,0.2-0.8,0.2-1.3l0-1.3c-0.3,0.4-0.7,0.7-1.2,1
			c-0.5,0.3-1.2,0.4-2,0.4c-0.6,0-1.2-0.1-1.8-0.3c-0.6-0.2-1-0.6-1.5-1c-0.4-0.4-0.7-0.9-1-1.5c-0.2-0.6-0.4-1.3-0.4-2
			c0-0.2,0-0.4,0-0.7C150.2,68.4,150.2,68.2,150.2,68z M158.1,67.9c0-1-0.3-1.7-0.9-2.3c-0.5-0.5-1.2-0.8-2.1-0.8
			c-0.9,0-1.6,0.3-2.1,0.9c-0.5,0.6-0.8,1.4-0.9,2.4c0,0.4,0,0.8,0,1.2c0.1,1,0.3,1.8,0.9,2.4c0.5,0.6,1.2,0.9,2.1,0.9
			c0.9,0,1.6-0.3,2.1-0.8c0.5-0.5,0.8-1.3,0.9-2.2c0-0.2,0-0.5,0-0.7C158.1,68.4,158.1,68.1,158.1,67.9z"/>
	</g>
	<g>
		<path class="st2" d="M99.7,75.8c0.8,0,1.6,0.1,2.2,0.4c0.6,0.3,1.2,0.6,1.6,1c0.4,0.4,0.8,0.8,1,1.2c0.2,0.4,0.4,0.8,0.4,1.2
			c0,0.1,0,0.2-0.1,0.3c-0.1,0.1-0.2,0.1-0.3,0.1l-0.8,0c-0.2,0-0.3,0-0.4-0.1c-0.1-0.1-0.2-0.2-0.3-0.4c-0.1-0.1-0.2-0.3-0.3-0.5
			c-0.2-0.2-0.4-0.4-0.6-0.6c-0.3-0.2-0.6-0.4-1-0.5c-0.4-0.1-0.8-0.2-1.3-0.2c-0.4,0-0.8,0-1.1,0.1c-0.4,0.1-0.7,0.2-0.9,0.4
			c-0.3,0.2-0.5,0.4-0.7,0.7c-0.2,0.3-0.2,0.6-0.2,0.9c0,0.4,0.1,0.7,0.2,0.9c0.2,0.2,0.4,0.5,0.8,0.7c0.4,0.2,0.8,0.4,1.3,0.5
			c0.5,0.2,1.2,0.4,2,0.6c0.8,0.2,1.4,0.4,2,0.7c0.5,0.2,1,0.5,1.3,0.8c0.3,0.3,0.6,0.7,0.8,1.1c0.2,0.4,0.2,0.9,0.2,1.4
			c0,0.6-0.1,1.2-0.4,1.7c-0.3,0.5-0.6,1-1.1,1.3c-0.5,0.4-1.1,0.7-1.7,0.9c-0.7,0.2-1.4,0.3-2.3,0.3c-0.8,0-1.5-0.1-2.2-0.4
			c-0.7-0.2-1.3-0.5-1.7-0.9c-0.5-0.4-0.9-0.8-1.1-1.2c-0.3-0.5-0.4-0.9-0.4-1.3c0-0.1,0-0.2,0.1-0.3c0.1-0.1,0.2-0.1,0.3-0.1l0.8,0
			c0.1,0,0.3,0,0.4,0.1c0.1,0.1,0.2,0.2,0.3,0.4c0.1,0.2,0.2,0.4,0.4,0.6c0.2,0.2,0.4,0.4,0.7,0.6c0.3,0.2,0.6,0.4,1.1,0.5
			c0.4,0.1,0.9,0.2,1.5,0.2c0.5,0,0.9-0.1,1.4-0.2c0.4-0.1,0.8-0.3,1.1-0.5c0.3-0.2,0.6-0.5,0.8-0.7c0.2-0.3,0.3-0.6,0.3-1
			c0-0.4-0.1-0.7-0.3-0.9c-0.2-0.3-0.5-0.5-0.9-0.7c-0.4-0.2-0.9-0.4-1.5-0.6c-0.6-0.2-1.3-0.4-2-0.5c-0.7-0.2-1.3-0.4-1.8-0.7
			c-0.5-0.3-0.9-0.5-1.2-0.9c-0.3-0.3-0.5-0.7-0.6-1.1c-0.1-0.4-0.2-0.8-0.2-1.3c0-0.5,0.1-1,0.3-1.5c0.2-0.5,0.5-0.9,0.9-1.3
			c0.4-0.4,0.9-0.7,1.5-0.9C98.2,75.9,98.9,75.8,99.7,75.8z"/>
	</g>
	<g>
		<path class="st2" d="M107.3,84.1c0.1-0.6,0.2-1.2,0.5-1.8c0.2-0.6,0.6-1,1-1.4c0.4-0.4,0.9-0.7,1.4-1c0.6-0.2,1.2-0.3,1.9-0.3
			c0.7,0,1.4,0.1,2,0.4c0.6,0.2,1.1,0.6,1.5,1c0.4,0.5,0.7,1,0.9,1.7c0.2,0.6,0.3,1.4,0.3,2.2l0,0.6c0,0.2-0.1,0.3-0.2,0.4
			c-0.1,0.1-0.2,0.2-0.4,0.2l-7.1,0l0,0.1c0,0.9,0.3,1.7,0.9,2.2c0.5,0.5,1.2,0.8,2,0.8c0.8,0,1.3-0.1,1.7-0.3
			c0.4-0.2,0.7-0.5,0.9-0.7c0.1-0.1,0.2-0.2,0.3-0.2c0.1,0,0.2-0.1,0.4-0.1l0.6,0c0.2,0,0.3,0.1,0.4,0.2c0.1,0.1,0.2,0.2,0.1,0.4
			c0,0.2-0.2,0.5-0.4,0.8c-0.2,0.3-0.5,0.6-0.8,0.8c-0.4,0.3-0.8,0.5-1.4,0.6c-0.5,0.2-1.2,0.3-1.9,0.3c-0.7,0-1.3-0.1-1.9-0.4
			c-0.6-0.2-1-0.6-1.4-1c-0.4-0.4-0.7-0.9-1-1.5c-0.2-0.6-0.4-1.2-0.5-1.9C107.3,85.3,107.3,84.7,107.3,84.1z M109.2,84.1l5.8,0
			l0-0.1c0-0.8-0.3-1.5-0.8-2c-0.5-0.5-1.2-0.8-2.1-0.8c-0.4,0-0.8,0.1-1.1,0.2c-0.3,0.1-0.6,0.3-0.9,0.6c-0.3,0.2-0.5,0.5-0.6,0.9
			C109.3,83.3,109.2,83.7,109.2,84.1L109.2,84.1z"/>
	</g>
	<g>
		<path class="st2" d="M128.8,89.9c0,0.2-0.1,0.3-0.2,0.4c-0.1,0.1-0.2,0.2-0.4,0.2l-0.8,0c-0.2,0-0.3-0.1-0.4-0.2
			c-0.1-0.1-0.2-0.2-0.2-0.4l0-5.4c0-1.1-0.3-1.8-0.8-2.4c-0.5-0.5-1.2-0.8-2.1-0.8c-0.9,0-1.6,0.3-2.1,0.8
			c-0.5,0.5-0.8,1.3-0.8,2.4l0,5.4c0,0.2-0.1,0.3-0.2,0.4c-0.1,0.1-0.2,0.2-0.4,0.2l-0.8,0c-0.2,0-0.3-0.1-0.4-0.2
			c-0.1-0.1-0.2-0.2-0.2-0.4l0-9.6c0-0.2,0.1-0.3,0.2-0.4c0.1-0.1,0.2-0.2,0.4-0.2l0.8,0c0.2,0,0.3,0.1,0.4,0.2
			c0.1,0.1,0.2,0.2,0.2,0.4l0,0.6c0.3-0.3,0.7-0.7,1.2-1c0.5-0.3,1.2-0.4,2-0.4c0.6,0,1.2,0.1,1.8,0.3c0.5,0.2,1,0.5,1.4,0.9
			c0.4,0.4,0.7,0.9,0.9,1.5c0.2,0.6,0.3,1.2,0.3,1.9L128.8,89.9z"/>
	</g>
	<g>
		<path class="st2" d="M137.9,87.5c0-0.3-0.1-0.5-0.2-0.6c-0.1-0.2-0.4-0.3-0.7-0.4c-0.3-0.1-0.7-0.2-1.1-0.4
			c-0.4-0.1-1-0.2-1.6-0.4c-1.1-0.2-1.9-0.6-2.3-1.2c-0.4-0.5-0.7-1.2-0.7-1.9c0-0.4,0.1-0.8,0.2-1.2c0.2-0.4,0.4-0.7,0.7-1
			c0.3-0.3,0.7-0.5,1.2-0.7c0.5-0.2,1.1-0.2,1.8-0.2c0.7,0,1.3,0.1,1.8,0.2c0.5,0.2,0.9,0.3,1.3,0.6c0.3,0.2,0.6,0.5,0.8,0.8
			c0.2,0.3,0.3,0.5,0.3,0.8c0,0.2,0,0.3-0.2,0.4c-0.1,0.1-0.3,0.2-0.4,0.2l-0.7,0c-0.1,0-0.2,0-0.3-0.1c-0.1,0-0.2-0.1-0.3-0.2
			c-0.2-0.2-0.4-0.4-0.8-0.6c-0.4-0.2-0.8-0.2-1.5-0.2c-0.6,0-1.1,0.1-1.5,0.3c-0.4,0.2-0.6,0.6-0.6,1c0,0.3,0.1,0.5,0.2,0.6
			c0.1,0.2,0.3,0.3,0.5,0.4c0.2,0.1,0.6,0.2,1,0.3c0.4,0.1,0.9,0.2,1.5,0.4c0.6,0.1,1.2,0.3,1.6,0.5c0.4,0.2,0.8,0.5,1,0.7
			c0.3,0.3,0.4,0.6,0.6,0.9c0.1,0.3,0.2,0.7,0.2,1c0,0.4-0.1,0.8-0.3,1.2c-0.2,0.4-0.5,0.7-0.9,1c-0.4,0.3-0.8,0.5-1.4,0.7
			c-0.5,0.2-1.1,0.3-1.8,0.3c-0.7,0-1.3-0.1-1.8-0.2c-0.5-0.2-1-0.4-1.3-0.6c-0.4-0.2-0.7-0.5-0.9-0.8c-0.2-0.3-0.3-0.5-0.3-0.8
			c0-0.2,0-0.3,0.1-0.4c0.1-0.1,0.2-0.2,0.4-0.2l0.7,0c0.1,0,0.2,0,0.3,0c0.1,0,0.2,0.1,0.3,0.2c0.2,0.3,0.5,0.5,0.9,0.7
			c0.4,0.2,0.9,0.2,1.5,0.2c0.3,0,0.6,0,0.9-0.1c0.3-0.1,0.6-0.2,0.8-0.3c0.2-0.1,0.4-0.3,0.5-0.4C137.9,87.9,137.9,87.7,137.9,87.5
			z"/>
	</g>
	<g>
		<path class="st2" d="M141.8,84.1c0.1-0.6,0.2-1.2,0.5-1.8c0.2-0.6,0.6-1,1-1.4c0.4-0.4,0.9-0.7,1.4-1c0.6-0.2,1.2-0.3,1.9-0.3
			c0.7,0,1.4,0.1,2,0.4c0.6,0.2,1.1,0.6,1.5,1c0.4,0.5,0.7,1,0.9,1.7c0.2,0.6,0.3,1.4,0.3,2.2l0,0.6c0,0.2-0.1,0.3-0.2,0.4
			c-0.1,0.1-0.2,0.2-0.4,0.2l-7.1,0l0,0.1c0,0.9,0.3,1.7,0.9,2.2c0.5,0.5,1.2,0.8,2,0.8c0.8,0,1.3-0.1,1.7-0.3
			c0.4-0.2,0.7-0.5,0.9-0.7c0.1-0.1,0.2-0.2,0.3-0.2c0.1,0,0.2-0.1,0.4-0.1l0.6,0c0.2,0,0.3,0.1,0.4,0.2c0.1,0.1,0.2,0.2,0.1,0.4
			c0,0.2-0.2,0.5-0.4,0.8c-0.2,0.3-0.5,0.6-0.8,0.8c-0.4,0.3-0.8,0.5-1.4,0.6c-0.5,0.2-1.2,0.3-1.9,0.3c-0.7,0-1.3-0.1-1.9-0.4
			c-0.5-0.2-1-0.6-1.4-1c-0.4-0.4-0.7-0.9-1-1.5c-0.2-0.6-0.4-1.2-0.5-1.9C141.7,85.3,141.7,84.7,141.8,84.1z M143.6,84.1l5.8,0
			l0-0.1c0-0.8-0.3-1.5-0.8-2c-0.5-0.5-1.2-0.8-2.1-0.8c-0.4,0-0.8,0.1-1.1,0.2c-0.3,0.1-0.6,0.3-0.9,0.6c-0.3,0.2-0.5,0.5-0.6,0.9
			C143.7,83.3,143.6,83.7,143.6,84.1L143.6,84.1z"/>
	</g>
</g>
</svg>
