<?xml version="1.0" encoding="utf-8"?>
<!-- Generator: Adobe Illustrator 16.0.0, SVG Export Plug-In . SVG Version: 6.00 Build 0)  -->
<!DOCTYPE svg PUBLIC "-//W3C//DTD SVG 1.1//EN" "http://www.w3.org/Graphics/SVG/1.1/DTD/svg11.dtd">
<svg version="1.1" id="Layer_1" xmlns="http://www.w3.org/2000/svg" xmlns:xlink="http://www.w3.org/1999/xlink" x="0px" y="0px"
	 width="251.23px" height="98.087px" viewBox="0 0 251.23 98.087" enable-background="new 0 0 251.23 98.087" xml:space="preserve">
<polygon fill="#FBB536" points="103.771,38.229 103.771,17.396 93.948,17.396 93.948,38.229 87.779,38.229 87.779,17.396 
	77.955,17.396 77.955,38.229 71.732,38.229 71.732,11.506 109.995,11.506 109.995,38.229 "/>
<g>
	<defs>
		<rect id="SVGID_1_" width="251.23" height="98.087"/>
	</defs>
	<clipPath id="SVGID_2_">
		<use xlink:href="#SVGID_1_"  overflow="visible"/>
	</clipPath>
	<path clip-path="url(#SVGID_2_)" fill="#FBB536" d="M133.185,26.557h-6.22c-2.403,0-3.987,0.983-3.987,3.164
		c0,2.182,1.584,3.163,3.987,3.163h6.22V26.557z M139.299,11.507v26.722h-12.227c-5.949,0-9.715-3.382-9.715-8.508
		c0-5.127,4.04-8.506,9.715-8.506h6.112v-4.254h-13.479v-5.454H139.299z"/>
</g>
<polygon fill="#FBB536" points="147.809,0 147.809,38.228 154.031,38.228 154.031,30.156 156.487,27.376 164.457,38.228 
	171.552,38.228 160.635,23.067 171.061,11.508 163.311,11.508 154.031,21.869 154.031,0 "/>
<g>
	<defs>
		<rect id="SVGID_3_" width="251.23" height="98.087"/>
	</defs>
	<clipPath id="SVGID_4_">
		<use xlink:href="#SVGID_3_"  overflow="visible"/>
	</clipPath>
	<path clip-path="url(#SVGID_4_)" fill="#FBB536" d="M190.925,20.45c0-2.071-1.639-3.927-4.096-3.927
		c-2.456,0-4.092,1.855-4.092,3.927c0,2.073,1.636,3.872,4.092,3.872C189.286,24.322,190.925,22.523,190.925,20.45 M182.79,29.176
		v3.545h13.373v5.508H176.68V21.215c0-6.545,4.638-10.363,10.149-10.363c5.732,0,10.153,4.09,10.153,9.599
		s-4.639,9.543-10.153,9.543C185.246,29.993,183.939,29.721,182.79,29.176"/>
</g>
<polygon fill="#FBB536" points="203.145,38.229 203.145,11.506 217.993,11.506 217.993,17.396 209.368,17.396 209.368,38.229 "/>
<g>
	<defs>
		<rect id="SVGID_5_" width="251.23" height="98.087"/>
	</defs>
	<clipPath id="SVGID_6_">
		<use xlink:href="#SVGID_5_"  overflow="visible"/>
	</clipPath>
	<path clip-path="url(#SVGID_6_)" d="M79.833,56.661c0-1.276-1.009-2.418-2.522-2.418c-1.512,0-2.52,1.142-2.52,2.418
		s1.008,2.384,2.52,2.384C78.824,59.045,79.833,57.938,79.833,56.661 M74.824,62.033v2.183h8.234v3.392H71.061V57.131
		c0-4.03,2.857-6.38,6.25-6.38c3.529,0,6.252,2.518,6.252,5.91c0,3.391-2.857,5.876-6.252,5.876
		C76.335,62.537,75.531,62.369,74.824,62.033"/>
	<path clip-path="url(#SVGID_6_)" d="M94.885,54.142c-2.922,0-4.402,2.485-4.402,5.238c0,2.754,1.48,5.239,4.402,5.239
		c2.959,0,4.403-2.485,4.403-5.239C99.288,56.627,97.844,54.142,94.885,54.142 M94.616,50.751c2.151,0,3.663,0.806,4.604,1.612
		v-8.295h3.83v23.538h-3.763V66.13c-1.009,1.04-2.353,1.846-4.672,1.846c-4.738,0-8.032-3.66-8.032-8.596
		C86.584,54.443,89.878,50.751,94.616,50.751"/>
	<path clip-path="url(#SVGID_6_)" d="M114.207,64.551c2.219,0,3.429-1.712,3.429-4.13v-9.267h3.831v16.452h-3.764v-1.343
		c-1.043,1.143-2.487,1.712-4.269,1.712c-3.663,0-6.149-2.585-6.149-7.253v-9.568h3.83v9.838
		C111.115,63.141,112.225,64.551,114.207,64.551"/>
	<path clip-path="url(#SVGID_6_)" d="M129.631,59.38c0,2.989,1.916,5.138,4.504,5.138c2.051,0,3.125-1.008,4.234-2.552l2.621,2.451
		c-1.31,1.914-3.595,3.559-6.99,3.559c-4.537,0-8.267-3.66-8.267-8.596c0-4.937,3.729-8.629,8.267-8.629
		c2.992,0,5.108,1.242,6.688,3.29l-2.654,2.552c-1.041-1.376-2.185-2.35-3.932-2.35C131.513,54.243,129.631,56.392,129.631,59.38"/>
	<path clip-path="url(#SVGID_6_)" d="M153.523,60.421h-3.83c-1.48,0-2.455,0.605-2.455,1.948s0.975,1.946,2.455,1.946h3.83V60.421z
		 M157.287,51.154v16.452h-7.526c-3.663,0-5.981-2.081-5.981-5.237c0-3.157,2.486-5.238,5.981-5.238h3.763v-2.619h-8.3v-3.357
		H157.287z"/>
</g>
<polygon points="163.368,54.579 160.579,54.579 160.579,51.154 163.368,51.154 163.368,46.554 167.166,46.554 167.166,51.154 
	171.501,51.154 171.501,54.579 167.166,54.579 167.166,63.981 171.301,63.981 171.301,67.607 163.368,67.607 "/>
<g>
	<defs>
		<rect id="SVGID_7_" width="251.23" height="98.087"/>
	</defs>
	<clipPath id="SVGID_8_">
		<use xlink:href="#SVGID_7_"  overflow="visible"/>
	</clipPath>
	<path clip-path="url(#SVGID_8_)" d="M179.163,67.606h-3.831V51.154h3.831V67.606z M177.28,43.767c1.345,0,2.42,1.04,2.42,2.384
		s-1.075,2.417-2.42,2.417s-2.42-1.073-2.42-2.417S175.936,43.767,177.28,43.767"/>
	<path clip-path="url(#SVGID_8_)" d="M191.562,64.518c2.655,0,4.571-2.148,4.571-5.138c0-2.988-1.916-5.137-4.571-5.137
		c-2.688,0-4.604,2.148-4.604,5.137C186.958,62.369,188.874,64.518,191.562,64.518 M191.562,50.751c4.739,0,8.504,3.692,8.504,8.629
		c0,4.936-3.765,8.596-8.504,8.596c-4.771,0-8.502-3.66-8.502-8.596C183.06,54.443,186.79,50.751,191.562,50.751"/>
	<path clip-path="url(#SVGID_8_)" d="M203.76,67.607V51.154h3.764v1.343c0.841-0.94,2.353-1.746,4.269-1.746
		c4.032,0,6.519,2.619,6.519,7.286v9.57h-3.83v-9.57c0-2.283-1.144-3.828-3.261-3.828c-2.386,0-3.63,1.713-3.63,4.298v9.101H203.76z
		"/>
	<path clip-path="url(#SVGID_8_)" fill="#252525" d="M0.795,13.445c1.827,3.142,4.887,5.396,6.916,8.462
		c2.084,3.149,3.82,6.636,5.115,10.18c0.322,0.882,1.744,0.501,1.417-0.391c-1.22-3.339-2.837-6.503-4.653-9.556
		c-2.094-3.519-5.515-5.979-7.526-9.437C1.588,11.886,0.318,12.625,0.795,13.445"/>
	<path clip-path="url(#SVGID_8_)" fill="#252525" d="M13.19,33.041c7.471-5.045,15.458-7.392,23.908-10.349
		c8.783-3.07,17.498-6.323,26.279-9.398c0.889-0.311,0.506-1.73-0.391-1.416C53.4,15.234,43.878,18.77,34.29,22.124
		c-7.957,2.782-14.833,4.915-21.841,9.648C11.668,32.301,12.402,33.573,13.19,33.041"/>
	<path clip-path="url(#SVGID_8_)" fill="#252525" d="M17.002,36.623c6.179-4.135,14.115-6.507,20.835-9.79
		c8.614-4.208,17.119-8.635,25.741-12.828c0.854-0.413,0.107-1.68-0.741-1.267c-7.896,3.839-15.708,7.846-23.569,11.754
		c-7.498,3.729-16.066,6.215-23.007,10.862C15.478,35.88,16.212,37.151,17.002,36.623"/>
	<path clip-path="url(#SVGID_8_)" fill="#252525" d="M63.093,12.657c-9.357,18.462-19.351,36.595-30.23,54.208
		c-0.499,0.808,0.773,1.546,1.269,0.74c10.879-17.611,20.873-35.746,30.23-54.209C64.79,12.555,63.521,11.811,63.093,12.657"/>
	<path clip-path="url(#SVGID_8_)" fill="#252525" d="M15.814,36.439C19.812,47.721,26.288,58.074,32.4,68.33
		c0.484,0.812,1.756,0.075,1.269-0.74C27.636,57.466,21.175,47.178,17.23,36.049C16.917,35.163,15.497,35.545,15.814,36.439"/>
	<path clip-path="url(#SVGID_8_)" fill="#252525" d="M16.526,36.023c2.526,4.737,5.627,9.084,8.234,13.759
		c3.095,5.55,4.863,11.737,7.95,17.313c0.458,0.829,1.728,0.09,1.269-0.739c-2.747-4.964-4.67-10.272-7.008-15.427
		c-2.487-5.481-6.339-10.326-9.176-15.646C17.35,34.446,16.081,35.188,16.526,36.023"/>
	<path clip-path="url(#SVGID_8_)" fill="#252525" d="M0.106,13.902c1.674,2.872,2.971,5.951,4.779,8.742
		c2.175,3.36,4.559,6.607,6.776,9.945c0.521,0.786,1.796,0.051,1.269-0.74c-2.22-3.346-4.46-6.668-6.776-9.945
		c-1.906-2.699-3.118-5.893-4.779-8.741C0.899,12.344-0.373,13.083,0.106,13.902"/>
	<path clip-path="url(#SVGID_8_)" fill="#252525" d="M12.545,32.631c0.005,0.011,0.009,0.021,0.015,0.03
		c0.423-0.247,0.846-0.493,1.269-0.74c-0.126-0.249-0.24-0.502-0.309-0.772c-0.234-0.917-1.652-0.527-1.417,0.391
		c0.099,0.388,0.275,0.766,0.457,1.122c0.431,0.846,1.693,0.103,1.269-0.74c-0.004-0.011-0.01-0.021-0.015-0.03
		C13.39,31.043,12.121,31.787,12.545,32.631"/>
	<path clip-path="url(#SVGID_8_)" fill="#252525" d="M6.323,53.199c0.948,0,0.948-1.47,0-1.47
		C5.375,51.729,5.375,53.199,6.323,53.199"/>
	<path clip-path="url(#SVGID_8_)" fill="#252525" d="M1.278,13.945c2.051-0.795,5.885-0.041,8.048-0.038
		c4.528,0.005,9.055,0.027,13.581,0.05c13.54,0.069,27.074-0.703,40.608-0.456c0.948,0.017,0.946-1.452,0-1.47
		c-13.534-0.246-27.068,0.529-40.608,0.456c-4.526-0.023-9.053-0.041-13.581-0.049c-2.322-0.004-6.223-0.769-8.439,0.092
		C0.013,12.868,0.393,14.289,1.278,13.945"/>
	<path clip-path="url(#SVGID_8_)" fill="#252525" d="M11.821,32.731C8.98,39.372,5.738,45.345,5.019,52.677
		c-0.091,0.943,1.38,0.936,1.472,0c0.687-7.025,3.875-12.835,6.6-19.205C13.459,32.612,12.193,31.863,11.821,32.731"/>
	<path clip-path="url(#SVGID_8_)" fill="#252525" d="M4.49,52.813c-0.001,0.044-0.004,0.087-0.005,0.13
		c-0.021,0.386,0.348,0.756,0.734,0.735c5.492-0.295,10.247-3.845,15.265-5.654c0.885-0.317,0.503-1.736-0.391-1.415
		c-4.877,1.758-9.557,5.313-14.874,5.601c0.244,0.245,0.491,0.489,0.735,0.733c0.002-0.043,0.005-0.086,0.007-0.13
		C6.008,51.867,4.538,51.871,4.49,52.813"/>
	<path clip-path="url(#SVGID_8_)" fill="#252525" d="M17.364,37.79c-3.133,4.271-5.964,8.751-8.875,13.173
		c-0.523,0.794,0.75,1.528,1.268,0.741c2.913-4.424,5.743-8.9,8.876-13.175C19.195,37.765,17.918,37.034,17.364,37.79"/>
	<path clip-path="url(#SVGID_8_)" fill="#252525" d="M18.389,40.188c-2.422,3.155-4.427,6.592-6.539,9.956
		c-0.506,0.804,0.767,1.541,1.269,0.74c2.111-3.362,4.119-6.8,6.539-9.956C20.235,40.178,18.957,39.446,18.389,40.188"/>
	<path clip-path="url(#SVGID_8_)" fill="#252525" d="M18.653,43.939c-1.187,1.663-2.282,3.36-3.647,4.89
		c-0.629,0.703,0.408,1.747,1.039,1.038c1.448-1.623,2.618-3.421,3.877-5.188C20.473,43.906,19.197,43.174,18.653,43.939"/>
	<path clip-path="url(#SVGID_8_)" fill="#252525" d="M16.816,35.137c-2.472,2.178-3.816,5.241-5.64,7.927
		c-1.897,2.791-4.012,5.376-5.233,8.556c-0.341,0.887,1.081,1.266,1.416,0.392c1.166-3.029,3.234-5.578,5.086-8.207
		c1.803-2.56,3.024-5.525,5.41-7.629C18.568,35.548,17.524,34.513,16.816,35.137"/>
</g>
<g>
	<path fill="#231F20" d="M71.356,79.002h1.88v11.562h-1.88V79.002z"/>
	<path fill="#231F20" d="M77.064,87.084c0.099,1.221,0.923,1.963,2.127,1.963c0.957,0,1.617-0.462,2.079-1.138l1.27,1.188
		c-0.693,0.891-1.699,1.649-3.349,1.649c-2.424,0-4.058-1.716-4.058-4.174c0-2.342,1.435-4.288,3.777-4.288
		c2.606,0,3.695,2.095,3.695,4.14c0,0.281-0.017,0.66-0.017,0.66H77.064z M77.163,85.583h3.448C80.594,84.874,80.182,84,78.928,84
		C77.873,84,77.312,84.808,77.163,85.583z"/>
	<path fill="#231F20" d="M89.356,84.164c0,0-0.132-0.016-0.297-0.016c-1.897,0-2.491,1.071-2.491,3.249v3.167h-1.881v-8.082h1.848
		v0.874c0.627-0.759,1.386-0.99,2.458-0.99c0.05,0,0.165,0,0.363,0.017V84.164z"/>
	<path fill="#231F20" d="M92.145,87.084c0.099,1.221,0.923,1.963,2.127,1.963c0.957,0,1.617-0.462,2.079-1.138l1.27,1.188
		c-0.693,0.891-1.699,1.649-3.349,1.649c-2.425,0-4.058-1.716-4.058-4.174c0-2.342,1.435-4.288,3.777-4.288
		c2.606,0,3.695,2.095,3.695,4.14c0,0.281-0.017,0.66-0.017,0.66H92.145z M92.244,85.583h3.448C95.675,84.874,95.262,84,94.009,84
		C92.953,84,92.392,84.808,92.244,85.583z"/>
	<path fill="#231F20" d="M101.401,90.564h-1.88v-8.082h1.847v0.659c0.413-0.462,1.155-0.857,2.095-0.857
		c1.979,0,3.2,1.286,3.2,3.579v4.701h-1.88v-4.701c0-1.121-0.561-1.88-1.6-1.88c-1.171,0-1.781,0.841-1.781,2.111V90.564z"/>
	<path fill="#231F20" d="M116.416,82.284c1.056,0,1.798,0.396,2.26,0.792v-4.074h1.88v11.562h-1.848v-0.726
		c-0.495,0.511-1.154,0.907-2.292,0.907c-2.326,0-3.942-1.798-3.942-4.223S114.09,82.284,116.416,82.284z M116.547,83.95
		c-1.435,0-2.161,1.221-2.161,2.573s0.726,2.573,2.161,2.573c1.452,0,2.161-1.221,2.161-2.573S117.999,83.95,116.547,83.95z"/>
	<path fill="#231F20" d="M126.612,82.284c2.325,0,4.173,1.814,4.173,4.239s-1.848,4.223-4.173,4.223
		c-2.342,0-4.173-1.798-4.173-4.223S124.27,82.284,126.612,82.284z M126.612,89.047c1.304,0,2.243-1.056,2.243-2.523
		S127.916,84,126.612,84c-1.32,0-2.26,1.056-2.26,2.523S125.292,89.047,126.612,89.047z"/>
	<path fill="#231F20" d="M136.529,82.284c2.325,0,4.172,1.814,4.172,4.239s-1.847,4.223-4.172,4.223
		c-2.343,0-4.174-1.798-4.174-4.223S134.187,82.284,136.529,82.284z M136.529,89.047c1.303,0,2.242-1.056,2.242-2.523
		S137.832,84,136.529,84c-1.32,0-2.26,1.056-2.26,2.523S135.209,89.047,136.529,89.047z"/>
	<path fill="#231F20" d="M147.436,84.164c0,0-0.133-0.016-0.297-0.016c-1.897,0-2.491,1.071-2.491,3.249v3.167h-1.881v-8.082h1.848
		v0.874c0.627-0.759,1.386-0.99,2.458-0.99c0.049,0,0.164,0,0.363,0.017V84.164z"/>
	<path fill="#231F20" d="M153.211,87.711v-3.547h-1.188v-1.682h1.188v-2.26h1.864v2.26h1.93v1.682h-1.93v3.267
		c0,1.171,0.264,1.468,1.319,1.468c0.182,0,0.61-0.033,0.61-0.033v1.683c0,0-0.363,0.033-1.007,0.033
		C153.887,90.581,153.211,89.756,153.211,87.711z"/>
	<path fill="#231F20" d="M160.173,87.084c0.1,1.221,0.924,1.963,2.128,1.963c0.957,0,1.616-0.462,2.078-1.138l1.271,1.188
		c-0.692,0.891-1.699,1.649-3.349,1.649c-2.425,0-4.058-1.716-4.058-4.174c0-2.342,1.436-4.288,3.777-4.288
		c2.606,0,3.695,2.095,3.695,4.14c0,0.281-0.017,0.66-0.017,0.66H160.173z M160.272,85.583h3.447
		c-0.017-0.709-0.429-1.583-1.683-1.583C160.981,84,160.421,84.808,160.272,85.583z"/>
	<path fill="#231F20" d="M176.788,85.731c0-1.056-0.528-1.748-1.484-1.748c-1.089,0-1.666,0.791-1.666,1.979v4.602h-1.881v-8.082
		h1.848v0.709c0.363-0.429,1.056-0.907,2.095-0.907c1.105,0,1.831,0.462,2.26,1.056c0.66-0.742,1.501-1.056,2.523-1.056
		c2.161,0,3.217,1.286,3.217,3.579v4.701h-1.88v-4.833c0-1.056-0.528-1.748-1.485-1.748c-1.088,0-1.682,0.791-1.682,1.979v4.602
		h-1.864V85.731z"/>
	<path fill="#231F20" d="M185.402,88.288c0-1.848,1.501-2.705,3.365-2.705c0.61,0,1.286,0.165,1.633,0.28v-0.544
		c0-0.825-0.709-1.336-1.584-1.336c-0.627,0-1.401,0.247-1.913,1.171l-1.271-1.188c0.644-1.139,1.963-1.683,3.2-1.683
		c2.013,0,3.447,0.989,3.447,3.052v5.229h-1.847v-0.627c-0.512,0.445-1.271,0.809-2.31,0.809
		C186.656,90.746,185.402,89.839,185.402,88.288z M188.503,89.097c0.727,0,1.485-0.297,1.897-0.693v-0.924
		c-0.479-0.181-1.006-0.329-1.683-0.329c-0.857,0-1.435,0.346-1.435,1.006C187.283,88.668,187.679,89.097,188.503,89.097z"/>
	<path fill="#231F20" d="M194.46,79.002h1.881v6.614l2.804-3.134h2.343l-3.15,3.496l3.299,4.586h-2.145l-2.408-3.282l-0.742,0.841
		v2.441h-1.881V79.002z"/>
	<path fill="#231F20" d="M204.326,87.084c0.1,1.221,0.924,1.963,2.128,1.963c0.957,0,1.616-0.462,2.078-1.138l1.271,1.188
		c-0.692,0.891-1.699,1.649-3.349,1.649c-2.425,0-4.058-1.716-4.058-4.174c0-2.342,1.436-4.288,3.777-4.288
		c2.606,0,3.695,2.095,3.695,4.14c0,0.281-0.017,0.66-0.017,0.66H204.326z M204.426,85.583h3.447
		C207.856,84.874,207.444,84,206.19,84C205.135,84,204.574,84.808,204.426,85.583z"/>
	<path fill="#231F20" d="M213.583,90.564h-1.88v-8.082h1.848v0.659c0.412-0.462,1.154-0.857,2.095-0.857
		c1.979,0,3.2,1.286,3.2,3.579v4.701h-1.881v-4.701c0-1.121-0.561-1.88-1.6-1.88c-1.172,0-1.782,0.841-1.782,2.111V90.564z"/>
</g>
</svg>
