<?xml version="1.0" encoding="utf-8"?>
<!-- Generator: Adobe Illustrator 19.2.1, SVG Export Plug-In . SVG Version: 6.00 Build 0)  -->
<svg version="1.1" id="Layer_1" xmlns="http://www.w3.org/2000/svg" xmlns:xlink="http://www.w3.org/1999/xlink" x="0px" y="0px"
	 viewBox="0 0 200 150" style="enable-background:new 0 0 200 150;" xml:space="preserve">
<style type="text/css">
	.st0{fill:#1D1D1B;}
	.st1{fill:#FFFFFF;}
	.st2{fill:#424143;}
	.st3{clip-path:url(#SVGID_2_);}
	.st4{clip-path:url(#SVGID_4_);}
	.st5{clip-path:url(#SVGID_6_);}
	.st6{clip-path:url(#SVGID_8_);}
	.st7{fill:#2D2E2D;}
	.st8{clip-path:url(#SVGID_10_);}
</style>
<g id="Link:_Waag_1_">
	<defs>
		<rect id="SVGID_1_" x="35" y="55" width="130" height="40"/>
	</defs>
	<clipPath id="SVGID_2_">
		<use xlink:href="#SVGID_1_"  style="overflow:visible;"/>
	</clipPath>
	<g class="st3">
		<path class="st0" d="M165,77.6c-0.5,0-0.7,0-1,0c-0.3,0-0.7,0-1.1,0c-0.2,0.6-0.4,1.4-0.9,2.6c-0.4,1-0.6,1.9-0.7,2.7l0,0
			c-0.2-1-0.3-1.5-0.8-2.7c-0.4-1-0.7-1.9-1-2.6c-0.5,0-0.6,0-1,0c-0.4,0-0.8,0-1.1,0c0.1,0.5,0.2,0.9,1.7,4.1
			c0.7,1.6,1,2.3,1.3,2.8c-0.2,0.4-0.4,0.7-0.7,1.4c-0.3,0.7-0.5,1.1-0.8,1.7c0.5,0,0.7,0,1.2,0c0.4,0,0.8,0,1,0
			c0.3-1,0.7-1.8,1.6-4.1C164.1,79.8,164.8,78.2,165,77.6 M157,79.4c0-0.3,0-0.5,0-0.8c0-0.3,0-0.6,0-1c-0.4,0.1-1.7,0-2.1,0.1l0,0
			c0.1-0.6,0.1-1.1,0.1-1.7c-0.5,0.1-1.2,0.2-1.7,0.2c0,0.4,0,1.3,0.1,1.5l0,0c-0.3-0.1-1.2-0.1-1.6-0.1c0,0.3,0,0.6,0,0.9
			c0,0.4,0,0.5,0,0.9c0.4,0,1.1,0,1.5-0.2l0,0c-0.1,0.8-0.2,2.5-0.2,3.3c0,1.7,0.6,2.5,2.2,2.5c0.6,0,1.2-0.1,1.6-0.2
			c0-0.3-0.1-0.6-0.1-0.9c0-0.3,0-0.5,0-0.7c-0.2,0-0.5,0.1-0.8,0.1c-1,0-1.2-0.2-1.2-1.3c0-0.8-0.1-2.2-0.2-2.6l0-0.1
			C155.3,79.4,156.4,79.4,157,79.4 M149.1,80.7c-0.5-0.1-1-0.1-1.6-0.1c-0.6,0-1.2,0-1.7,0.1c0-1.2,0.6-1.7,1.7-1.7
			C148.7,79,149.1,79.5,149.1,80.7 M150.9,81.9l0-0.6c0-2.8-1.2-4-3.3-4c-2.2,0-3.5,1.6-3.5,3.9c0,2.4,1.5,3.9,3.8,3.9
			c1.1,0,2-0.3,2.5-0.7c-0.1-0.4-0.1-1.2-0.1-1.5c-0.6,0.3-1.4,0.4-2.3,0.4c-1.2,0-2-0.5-2.1-1.6c0.2,0.1,0.8,0.1,1.4,0.1
			L150.9,81.9z M142.5,77.6c-0.4,0-0.7,0-1,0c-0.4,0-0.6,0-1,0c0,1.2,0.1,2.5,0.1,3.8c0,1,0,2.3,0,3.5c0.4,0,0.6,0,1,0
			c0.4,0,0.6,0,1,0c0-1.2,0-2.5,0-3.5C142.4,80.1,142.4,78.8,142.5,77.6 M142.6,76.1c0-0.4,0-0.5,0-0.9c0-0.4,0-0.5,0-0.9
			c-0.4,0-0.7,0-1.2,0c-0.5,0-0.8,0-1.2,0c0,0.3,0,0.5,0,0.9c0,0.4,0,0.5,0,0.9c0.4,0,0.7,0,1.2,0C142,76.1,142.3,76.1,142.6,76.1
			 M139,78.2c-0.5-0.6-1.2-0.8-2.1-0.8c-2.3,0-3.8,1.6-3.8,3.8c0,2.2,1.5,3.9,3.8,3.9c0.8,0,1.6-0.3,2.1-0.8
			c-0.1-0.5-0.2-1.2-0.2-1.7c-0.5,0.4-1.1,0.6-1.8,0.6c-1.3,0-2.1-0.8-2.1-2.1c0-1.2,0.7-2,2.1-2c0.9,0,1.3,0.2,1.9,0.7
			C138.9,79.1,138.9,78.5,139,78.2 M130.1,81.2c0,1.3-0.6,2.2-1.9,2.2c-1.3,0-1.9-1-1.9-2.2c0-1.3,0.6-2.1,1.9-2.1
			C129.5,79,130.1,79.8,130.1,81.2 M131.9,81.2c0-2.4-1.5-3.9-3.6-3.9c-2.1,0-3.6,1.5-3.6,3.8c0,2.4,1.4,4,3.6,4
			C130.4,85.2,131.9,83.5,131.9,81.2 M123.3,82.7c0-1.2-0.6-1.7-1.9-2c-1.4-0.3-1.5-0.4-1.5-0.8c0-0.5,0.4-0.8,1.4-0.8
			c0.7,0,1.3,0.1,1.8,0.4c0-0.6,0.1-1.2,0.2-1.6c-0.5-0.4-1.3-0.6-2.1-0.6c-2,0-3.1,1-3.1,2.4c0,1.1,0.5,1.8,2,2
			c1.3,0.2,1.4,0.3,1.4,0.8c0,0.5-0.3,0.8-1.2,0.8c-0.7,0-1.3-0.1-1.8-0.4c0,0.5-0.1,1.1-0.1,1.6c0.5,0.4,1.3,0.5,2,0.5
			C122.2,85.1,123.3,84.2,123.3,82.7 M111.8,79.6c0,0.4-0.1,0.9-0.1,1.4c0,0.5,0,1,0,1.1c-0.3,0.4-0.7,0.6-1.5,0.6
			c-1.1,0-1.7-0.7-1.7-1.8c0-1.1,0.5-1.8,1.7-1.8C111,79.2,111.5,79.3,111.8,79.6 M113.6,77.6c-0.3,0-0.5,0-0.7,0
			c-0.2,0-0.4,0-0.7,0c-0.1,0.2-0.1,0.5-0.2,0.9l0,0c-0.4-0.7-0.9-1.1-2-1.1c-2,0-3.3,1.4-3.3,3.6c0,2,1.4,3.5,3.3,3.5
			c0.9,0,1.5-0.6,1.8-1.2l0,0c0,0.1,0,0.4,0,0.6l0,0.3c0,1.3-0.6,1.8-1.9,1.8c-0.6,0-1.1-0.1-1.6-0.2c0,0.5,0,1-0.1,1.6
			c0.5,0.3,1.2,0.4,1.8,0.4c2.1,0,3.6-1.1,3.6-3.8l0-3C113.6,79.7,113.6,78.7,113.6,77.6 M103.4,83c-0.3,0.4-0.7,0.6-1.4,0.6
			c-0.8,0-1.1-0.3-1.1-0.8c0-0.6,0.4-0.8,1.3-0.9c0.5,0,0.9,0,1.1-0.1L103.4,83z M105.4,84.9c-0.1-0.7-0.2-1.3-0.2-1.9l0-2.7
			c0-2.1-1-3-3.1-3c-1.2,0-2.1,0.3-2.6,1.1c0.1,0.4,0.2,0.9,0.2,1.5l0,0c0.4-0.5,1.1-0.8,2.3-0.8c1.1,0,1.5,0.2,1.5,1.1l0,0.4
			l-0.4,0c-2.6,0-3.8,0.6-3.8,2.3c0,1.4,0.9,2.2,2.4,2.2c1.1,0,1.7-0.5,2-1.4l0.1,0c0,0.4,0.1,0.8,0.2,1.2c0.3,0,0.6,0,0.8,0
			C104.9,84.9,105.2,84.9,105.4,84.9 M96,83c-0.3,0.4-0.7,0.6-1.4,0.6c-0.8,0-1.1-0.3-1.1-0.8c0-0.6,0.4-0.8,1.3-0.9
			c0.5,0,0.9,0,1.1-0.1L96,83z M97.9,84.9c-0.1-0.7-0.2-1.3-0.2-1.9l0-2.7c0-2.1-1-3-3.1-3c-1.2,0-2.1,0.3-2.6,1.1
			c0.1,0.4,0.2,0.9,0.2,1.5l0,0c0.4-0.5,1.1-0.8,2.3-0.8c1.1,0,1.5,0.2,1.5,1.1l0,0.4l-0.4,0c-2.6,0-3.8,0.6-3.8,2.3
			c0,1.4,0.9,2.2,2.4,2.2c1.1,0,1.7-0.5,2-1.4l0.1,0c0,0.4,0.1,0.8,0.2,1.2c0.3,0,0.6,0,0.8,0C97.4,84.9,97.7,84.9,97.9,84.9
			 M91.1,77.6c-0.4,0-0.6,0-0.9,0c-0.4,0-0.5,0-1,0c-0.1,0.7-0.4,1.6-0.6,2.5c-0.2,1-0.5,2-0.6,2.9l0,0c-0.1-0.9-0.5-2-0.8-3.1
			c-0.4-1.1-0.6-1.8-0.8-2.2c-0.2,0-0.5,0-0.8,0c-0.3,0-0.6,0-0.8,0c-0.2,0.4-0.4,1.1-0.8,2.2c-0.4,1.2-0.7,2.3-0.8,3.1l0,0
			c-0.1-0.8-0.3-1.8-0.6-2.9c-0.2-0.9-0.5-1.8-0.6-2.5c-0.4,0-0.6,0-1,0c-0.4,0-0.5,0-0.9,0c0,0.3,0.3,1.4,1.2,4.1
			c0.5,1.4,0.8,2.4,1,3.2c0.3,0,0.6,0,0.9,0c0.3,0,0.7,0,0.8,0c0.1-0.3,0.7-1.7,1.1-2.9c0.3-0.9,0.5-1.7,0.6-2.5l0,0
			c0.1,0.8,0.3,1.6,0.6,2.5c0.4,1.2,1,2.7,1.1,2.9c0.1,0,0.6,0,0.9,0c0.3,0,0.8,0,0.8,0c0.2-0.8,0.5-1.7,1-3.2
			C90.7,78.9,91.1,77.8,91.1,77.6"/>
	</g>
	<g class="st3">
		<path class="st0" d="M55,95c11,0,20-8.9,20-20c0-11-8.9-20-20-20c-11,0-20,8.9-20,20C35,86,44,95,55,95"/>
	</g>
	<g class="st3">
		<path class="st1" d="M61.6,64.2l3.7,7.7l1.3,12.6l-7.5,0l0-6.3c0-2.4-1.8-4.3-4.1-4.3c-2.3,0-4.1,2-4.1,4.3l0,6.3l-7.5,0l1.3-12.6
			l3.7-7.7l1.6,6.3l5.1-8.5l5.1,8.6L61.6,64.2z"/>
	</g>
</g>
</svg>
