<?xml version="1.0" encoding="utf-8"?>
<!-- Generator: Adobe Illustrator 15.0.2, SVG Export Plug-In . SVG Version: 6.00 Build 0)  -->
<!DOCTYPE svg PUBLIC "-//W3C//DTD SVG 1.1//EN" "http://www.w3.org/Graphics/SVG/1.1/DTD/svg11.dtd">
<svg version="1.1" id="logo_x5F_3" xmlns="http://www.w3.org/2000/svg" xmlns:xlink="http://www.w3.org/1999/xlink" x="0px" y="0px"
	 width="100px" height="100px" viewBox="0 0 100 100" enable-background="new 0 0 100 100" xml:space="preserve">
<g>
	<path d="M42.365,34.611c-0.881,0.471-1.884,0.718-3,0.718c-2.232,0-3.83-1.516-3.83-3.78c0-2.324,1.598-3.84,3.83-3.84
		c1.106,0,2.1,0.236,2.858,0.911l-0.953,0.963c-0.461-0.45-1.167-0.707-1.895-0.707c-1.495,0-2.488,1.148-2.488,2.593
		c0,1.546,0.993,2.692,2.488,2.692c0.656,0,1.25-0.123,1.7-0.378v-1.711H39.59v-1.168h2.775V34.611z"/>
	<path d="M44.761,33.116c0.082,0.727,0.635,1.168,1.321,1.168c0.614,0,1.014-0.286,1.321-0.666l0.881,0.666
		c-0.573,0.706-1.301,0.983-2.079,0.983c-1.485,0-2.673-1.034-2.673-2.581s1.188-2.581,2.673-2.581c1.373,0,2.304,0.962,2.304,2.674
		v0.337H44.761z M47.28,32.194c-0.01-0.716-0.481-1.167-1.25-1.167c-0.727,0-1.178,0.461-1.27,1.167H47.28z"/>
	<path d="M49.604,30.229h1.168v0.768h0.02c0.215-0.461,0.687-0.892,1.506-0.892c0.757,0,1.28,0.297,1.536,0.911
		c0.358-0.624,0.881-0.911,1.618-0.911c1.312,0,1.772,0.932,1.772,2.11v2.928h-1.229v-2.784c0-0.615-0.184-1.147-0.911-1.147
		c-0.768,0-1.055,0.635-1.055,1.271v2.661H52.8v-2.928c0-0.605-0.246-1.004-0.84-1.004c-0.809,0-1.126,0.594-1.126,1.249v2.683
		h-1.229V30.229z"/>
	<path d="M59.548,33.116c0.082,0.727,0.634,1.168,1.321,1.168c0.615,0,1.014-0.286,1.322-0.666l0.88,0.666
		c-0.573,0.706-1.301,0.983-2.079,0.983c-1.485,0-2.673-1.034-2.673-2.581s1.188-2.581,2.673-2.581c1.372,0,2.304,0.962,2.304,2.674
		v0.337H59.548z M62.067,32.194c-0.01-0.716-0.481-1.167-1.25-1.167c-0.727,0-1.177,0.461-1.27,1.167H62.067z"/>
	<path d="M65.425,33.116c0.082,0.727,0.635,1.168,1.322,1.168c0.614,0,1.013-0.286,1.321-0.666l0.881,0.666
		c-0.574,0.706-1.301,0.983-2.079,0.983c-1.485,0-2.673-1.034-2.673-2.581s1.188-2.581,2.673-2.581c1.373,0,2.304,0.962,2.304,2.674
		v0.337H65.425z M67.945,32.194c-0.01-0.716-0.481-1.167-1.25-1.167c-0.728,0-1.178,0.461-1.27,1.167H67.945z"/>
	<path d="M70.32,30.229h1.167v0.787h0.021c0.225-0.491,0.686-0.911,1.505-0.911c1.321,0,1.792,0.932,1.792,1.936v3.103h-1.229
		v-2.487c0-0.543-0.042-1.444-0.902-1.444c-0.809,0-1.126,0.594-1.126,1.249v2.683H70.32V30.229z"/>
	<path d="M75.625,31.272v-1.043h1.014v-1.424h1.228v1.424h1.352v1.043h-1.352v2.151c0,0.491,0.144,0.798,0.687,0.798
		c0.215,0,0.512-0.04,0.666-0.153v1.035c-0.256,0.122-0.686,0.164-0.973,0.164c-1.3,0-1.607-0.584-1.607-1.741v-2.254H75.625z"/>
	<path d="M81.165,33.116c0.082,0.727,0.635,1.168,1.321,1.168c0.614,0,1.014-0.286,1.321-0.666l0.88,0.666
		c-0.574,0.706-1.3,0.983-2.078,0.983c-1.485,0-2.673-1.034-2.673-2.581s1.188-2.581,2.673-2.581c1.372,0,2.303,0.962,2.303,2.674
		v0.337H81.165z M83.684,32.194c-0.01-0.716-0.481-1.167-1.25-1.167c-0.727,0-1.177,0.461-1.27,1.167H83.684z"/>
</g>
<g>
	<path d="M38.269,38.677h1.116l3.124,7.251h-1.475l-0.676-1.659h-3.144l-0.656,1.659h-1.444L38.269,38.677z M39.908,43.162
		l-1.117-2.949l-1.136,2.949H39.908z"/>
	<path d="M43.153,41.012h1.167v0.768h0.021c0.214-0.46,0.686-0.892,1.505-0.892c0.758,0,1.28,0.298,1.536,0.913
		c0.358-0.626,0.881-0.913,1.618-0.913c1.311,0,1.771,0.933,1.771,2.11v2.93h-1.229v-2.786c0-0.615-0.184-1.147-0.912-1.147
		c-0.768,0-1.054,0.636-1.054,1.271v2.663h-1.229v-2.93c0-0.604-0.246-1.004-0.84-1.004c-0.809,0-1.126,0.594-1.126,1.25v2.684
		h-1.229V41.012z"/>
	<path d="M54.735,42.373c-0.235-0.328-0.542-0.502-0.962-0.502c-0.328,0-0.717,0.154-0.717,0.522c0,0.881,2.652,0.163,2.652,2.079
		c0,1.167-1.117,1.577-2.12,1.577c-0.758,0-1.414-0.195-1.915-0.758l0.819-0.767c0.317,0.346,0.645,0.603,1.168,0.603
		c0.358,0,0.819-0.174,0.819-0.563c0-1.014-2.652-0.215-2.652-2.087c0-1.098,0.983-1.59,1.976-1.59c0.656,0,1.352,0.206,1.751,0.748
		L54.735,42.373z"/>
	<path d="M56.086,42.055v-1.043h1.015v-1.424h1.229v1.424h1.352v1.043h-1.352v2.151c0,0.491,0.144,0.8,0.687,0.8
		c0.214,0,0.512-0.043,0.666-0.154v1.034c-0.256,0.123-0.687,0.164-0.973,0.164c-1.301,0-1.607-0.584-1.607-1.741v-2.254H56.086z"/>
	<path d="M61.626,43.9c0.082,0.726,0.635,1.167,1.321,1.167c0.615,0,1.014-0.287,1.321-0.667l0.88,0.667
		c-0.573,0.706-1.301,0.982-2.079,0.982c-1.484,0-2.673-1.034-2.673-2.58c0-1.548,1.188-2.582,2.673-2.582
		c1.373,0,2.304,0.964,2.304,2.674V43.9H61.626z M64.146,42.978c-0.01-0.717-0.481-1.168-1.249-1.168
		c-0.728,0-1.178,0.462-1.27,1.168H64.146z"/>
	<path d="M66.521,41.012h1.229v0.777h0.021c0.266-0.562,0.809-0.901,1.454-0.901c0.153,0,0.297,0.032,0.44,0.073v1.188
		c-0.205-0.051-0.399-0.094-0.594-0.094c-1.157,0-1.321,0.974-1.321,1.239v2.634h-1.229V41.012z"/>
	<path d="M74.222,45.189h-0.021c-0.358,0.594-1.004,0.86-1.69,0.86c-1.516,0-2.427-1.126-2.427-2.58
		c0-1.455,0.973-2.582,2.376-2.582c0.921,0,1.413,0.432,1.669,0.748h0.031v-3.45h1.229v7.742h-1.167V45.189z M72.757,44.943
		c0.901,0,1.444-0.706,1.444-1.474c0-0.769-0.542-1.476-1.444-1.476s-1.444,0.707-1.444,1.476
		C71.313,44.237,71.856,44.943,72.757,44.943z"/>
	<path d="M79.854,45.252h-0.031c-0.348,0.553-0.921,0.798-1.577,0.798c-0.911,0-1.792-0.502-1.792-1.475
		c0-1.598,1.864-1.71,3.093-1.71h0.307v-0.133c0-0.604-0.471-0.923-1.126-0.923c-0.512,0-0.983,0.205-1.311,0.513l-0.645-0.645
		c0.542-0.554,1.31-0.79,2.088-0.79c2.1,0,2.1,1.517,2.1,2.213v2.827h-1.106V45.252z M79.782,43.726h-0.256
		c-0.676,0-1.843,0.051-1.843,0.758c0,0.45,0.461,0.645,0.86,0.645c0.84,0,1.239-0.439,1.239-1.126V43.726z"/>
	<path d="M82.229,41.012h1.167v0.768h0.02c0.215-0.46,0.687-0.892,1.506-0.892c0.758,0,1.28,0.298,1.536,0.913
		c0.358-0.626,0.88-0.913,1.618-0.913c1.311,0,1.771,0.933,1.771,2.11v2.93h-1.229v-2.786c0-0.615-0.184-1.147-0.911-1.147
		c-0.768,0-1.055,0.636-1.055,1.271v2.663h-1.229v-2.93c0-0.604-0.246-1.004-0.84-1.004c-0.809,0-1.126,0.594-1.126,1.25v2.684
		h-1.229V41.012z"/>
</g>
<polygon points="15.396,70.193 19.438,66.151 15.396,62.109 18.091,59.414 22.133,63.458 26.175,59.414 28.87,62.109 24.828,66.151 
	28.87,70.193 26.175,72.889 22.133,68.846 18.091,72.889 "/>
<polygon points="15.396,37.831 19.438,33.788 15.396,29.746 18.091,27.052 22.133,31.094 26.175,27.052 28.87,29.746 24.828,33.788 
	28.87,37.831 26.175,40.524 22.133,36.483 18.091,40.524 "/>
<polygon points="15.396,54.026 19.438,49.983 15.396,45.941 18.091,43.247 22.133,47.29 26.175,43.247 28.87,45.941 24.828,49.983 
	28.87,54.026 26.175,56.722 22.133,52.68 18.091,56.722 "/>
</svg>
