<?xml version="1.0" encoding="utf-8"?>
<!-- Generator: Adobe Illustrator 19.2.1, SVG Export Plug-In . SVG Version: 6.00 Build 0)  -->
<svg version="1.1" id="Layer_1" xmlns="http://www.w3.org/2000/svg" xmlns:xlink="http://www.w3.org/1999/xlink" x="0px" y="0px"
	 viewBox="0 0 200 150" style="enable-background:new 0 0 200 150;" xml:space="preserve">
<style type="text/css">
	.st0{fill:#1D1D1B;}
	.st1{fill:#FFFFFF;}
	.st2{fill:#424143;}
	.st3{clip-path:url(#SVGID_2_);}
	.st4{clip-path:url(#SVGID_4_);}
	.st5{clip-path:url(#SVGID_6_);}
	.st6{clip-path:url(#SVGID_8_);}
	.st7{fill:#2D2E2D;}
	.st8{clip-path:url(#SVGID_10_);}
</style>
<g>
	<g>
		<g id="FOOTER_1_">
			<g id="Link:_RIVM_1_">
				<g>
					<rect x="15.6" y="38.1" class="st0" width="29.6" height="59"/>
				</g>
				<g>
					<defs>
						<rect id="SVGID_9_" x="15" y="38.1" width="170" height="73.7"/>
					</defs>
					<clipPath id="SVGID_2_">
						<use xlink:href="#SVGID_9_"  style="overflow:visible;"/>
					</clipPath>
					<g class="st3">
						<path class="st1" d="M30.9,83.7l-0.5,0l0-1.4l0.5,0L30.9,83.7z M33.2,77.4l-0.5,0l0-1.4l0.5,0L33.2,77.4z M23.7,74.9
							c0,0-0.3,0-0.3,0.1c0,0.1,0.1,0,0.3,0.1c0.4,0.1,0.6,0.3,0.9,0.3c0.3,0,0.5-0.2,0.4-0.6c0-0.1-0.1,0-0.1,0
							c0,0.2-0.2,0.3-0.5,0.3C24.2,75,24.1,74.9,23.7,74.9 M20.9,76.4c0,0.1,0.5,0.7-0.2,0.9c0,0,0,0,0,0.1c0.6,0.2,0.8-0.2,0.8-0.2
							c0.3,0.6-0.1,1-0.1,1c0.1,0.1,0.3,0.3,0.7,0.4c0.2-0.1,0.4-0.2,0.5-0.5c0,0,0.1,0.3,0,0.5c1.1,0.1,1.5-0.8,2.4-0.6
							c0,0,0,0,0,0c0-0.6-0.3-1.6-1.4-1.8c-1.1-0.2-0.8-0.6-0.8-0.6c0.4,0,0.7,0.2,0.7,0.2c0.1-0.1,0-0.3,0-0.3
							c0-0.1,0.1-0.2,0.1-0.2c-0.5,0-0.6-0.1-0.6-0.1c-0.1-0.3,0.1-0.7,0.9-0.3c0.2-0.2,0.2-0.4,0.2-0.4c0.1,0,0.1-0.1,0.1-0.2
							c0-0.1-0.6-0.5-0.8-0.5c0-0.2-0.3-0.4-1-0.3c-0.3,0-0.6,0-0.5-0.2c0,0,0,0-0.1,0c-0.1,0.1-0.2,0.3,0.1,0.4
							c0.3,0.2,0.3,0.5,0.4,0.5c0,0.1-0.1,0.1-0.1,0c-0.2-0.5-0.9-0.7-1.3-0.4c0,0.3,0.3,0.5,0.5,0.5c0.1,0,0.2-0.1,0.2-0.2
							c0-0.1,0-0.1,0.1,0c0.1,0.2-0.2,0.6-0.6,0.4c-0.4,0.4-0.3,1-0.2,1.2c0.1,0.4-0.1,0.7-0.4,0.5c0,0,0,0,0,0
							C20.2,76.3,20.5,76.6,20.9,76.4 M23.3,74.1c-0.2,0.2-0.5,0.2-0.6-0.2C23.1,73.9,23.3,74,23.3,74.1 M36.4,75
							c-0.2,0-0.4-0.1-0.5-0.3c0,0,0-0.1-0.1,0c-0.1,0.4,0.2,0.6,0.4,0.6c0.3,0,0.5-0.2,0.9-0.3c0.2,0,0.3,0,0.3-0.1
							c0-0.1-0.3-0.1-0.3-0.1C36.7,74.9,36.6,75,36.4,75 M40.6,76.1C40.6,76,40.6,76,40.6,76.1c-0.4,0.1-0.5-0.2-0.5-0.6
							c0-0.2,0.2-0.7-0.2-1.2c-0.4,0.2-0.7-0.2-0.6-0.4c0-0.1,0.1-0.1,0.1,0c0,0.1,0.1,0.2,0.2,0.2c0.2,0,0.5-0.2,0.5-0.5
							c-0.4-0.3-1.2-0.2-1.3,0.4c0,0.1-0.1,0.1-0.1,0c0,0,0-0.4,0.3-0.5c0.3-0.1,0.2-0.4,0.1-0.4c0,0-0.1,0-0.1,0
							c0.1,0.2-0.1,0.3-0.5,0.2c-0.7-0.1-0.9,0.2-1,0.3c-0.2,0-0.8,0.4-0.8,0.5c0,0,0,0.1,0.1,0.2c0,0,0,0.3,0.2,0.4
							c0.8-0.5,1,0,0.9,0.3c0,0-0.1,0.1-0.6,0.1c0,0,0,0.2,0.1,0.2c0,0-0.1,0.1,0,0.3c0,0,0.3-0.2,0.7-0.2c0,0,0.3,0.4-0.8,0.6
							c-1.1,0.2-1.4,1.2-1.4,1.8c0,0,0,0,0,0c0.9-0.2,1.3,0.7,2.4,0.6c-0.1-0.3,0-0.5,0-0.5c0.1,0.2,0.3,0.4,0.5,0.5
							c0.4-0.1,0.7-0.3,0.7-0.4c0,0-0.4-0.4-0.1-1c0,0,0.3,0.4,0.8,0.2c0,0,0-0.1,0-0.1c-0.7-0.2-0.3-0.9-0.2-0.9
							C40.3,76.6,40.6,76.3,40.6,76.1 M38.2,73.9c-0.1,0.4-0.4,0.4-0.6,0.2C37.6,74,37.7,73.9,38.2,73.9 M30.2,67.6
							c0,0.1,0,0.2,0.1,0.2c0.1,0.1,0.1,0.1,0,0.2c0,0-0.1,0-0.2,0c0,0-0.1-0.1-0.2-0.1c-0.2,0-0.2,0.1-0.2,0.2
							c0,0.1,0.1,0.2,0.2,0.2c0.1,0,0.2,0,0.2-0.1c0.1-0.1,0.1-0.1,0.2,0c0,0,0,0.4-0.1,0.6c-0.3,0.1-0.4,0.3-0.4,0.4
							c0,0.3,0.3,0.5,0.6,0.6c0.2-0.1,0.5-0.3,0.5-0.6c0-0.1-0.1-0.3-0.4-0.4c0-0.3-0.1-0.6-0.1-0.6c0,0,0.1,0,0.2,0
							c0,0,0.1,0.1,0.2,0.1c0.2,0,0.2-0.1,0.2-0.2c0-0.1-0.1-0.2-0.2-0.2c-0.1,0-0.2,0-0.2,0.1c-0.1,0.1-0.1,0.1-0.2,0
							c0,0,0-0.1,0-0.2c0,0,0.1-0.1,0.1-0.2c0-0.2-0.1-0.2-0.2-0.2C30.3,67.4,30.2,67.5,30.2,67.6 M30.4,70c-0.2,0-0.4,0.2-0.4,0.4
							c0,0.2,0.2,0.4,0.4,0.4c0.2,0,0.4-0.2,0.4-0.4C30.8,70.2,30.6,70,30.4,70 M30.4,73.8c1.6,0,2.5,0.3,2.5,0.3
							c0-0.8,0-1.2,0.5-1.2c-0.2-0.7,0.8-0.9,0.8-1.8c0-0.6-0.4-0.6-0.5-0.6c-0.4,0-0.3,0.2-0.6,0.2c0,0-0.1,0-0.1,0
							c0,0.1,0.1,0.3,0.2,0.3c0.2,0,0.2-0.2,0.3-0.2c0.1,0,0.1,0,0.1,0.2c0,0.4-0.2,0.8-0.5,1.1C33.1,72.1,33,72,32.9,72
							c-0.2,0-0.3,0.2-0.3,0.4c0,0.1,0,0.1,0,0.2c-0.1,0.1-0.2,0.1-0.2,0.1c-0.1,0-0.3-0.1-0.3-0.3c0-0.6,0.8-1.2,0.8-2
							c0-0.4-0.3-0.8-0.8-0.8c-0.6,0-0.5,0.5-1,0.5c0,0,0,0,0,0c0,0,0.1,0.3,0.3,0.3c0.3,0,0.4-0.5,0.6-0.5c0.1,0,0.2,0.1,0.2,0.4
							c0,0.2-0.1,0.6-0.3,1c-0.1-0.1-0.2-0.1-0.3-0.1c-0.2,0-0.4,0.2-0.4,0.5c0,0.2,0.1,0.3,0.2,0.4c-0.1,0.2-0.3,0.3-0.4,0.3
							c-0.3,0-0.5-0.2-0.5-0.4c0-0.2,0.4-0.3,0.4-0.7c0-0.2-0.2-0.4-0.3-0.4c-0.2,0-0.2,0.1-0.3,0.1c0,0-0.1-0.1-0.3-0.1
							c-0.2,0-0.3,0.1-0.3,0.4c0,0.4,0.4,0.4,0.4,0.7c0,0.2-0.1,0.4-0.5,0.4c-0.2,0-0.3-0.1-0.4-0.3c0.1-0.1,0.2-0.2,0.2-0.4
							c0-0.2-0.2-0.5-0.4-0.5c-0.1,0-0.2,0-0.2,0.1c-0.2-0.4-0.3-0.8-0.3-1c0-0.3,0.1-0.4,0.2-0.4c0.2,0,0.3,0.5,0.6,0.5
							c0.3,0,0.3-0.3,0.3-0.3c0,0,0,0,0,0c-0.5,0-0.4-0.5-1-0.5c-0.5,0-0.8,0.4-0.8,0.8c0,0.8,0.9,1.4,0.9,2c0,0.3-0.2,0.3-0.3,0.3
							c-0.1,0-0.2,0-0.3-0.1c0-0.1,0-0.1,0-0.2c0-0.2-0.1-0.4-0.3-0.4c-0.1,0-0.2,0.1-0.3,0.1c-0.3-0.3-0.5-0.7-0.5-1.1
							c0-0.2,0.1-0.2,0.1-0.2c0.1,0,0.1,0.2,0.3,0.2c0.1,0,0.2-0.2,0.2-0.3c0,0,0,0-0.1,0c-0.3,0-0.3-0.2-0.6-0.2
							c-0.1,0-0.5,0.1-0.5,0.6c0,0.9,1.1,1.1,0.8,1.8c0.5-0.1,0.5,0.4,0.5,1.2C27.9,74.1,28.8,73.8,30.4,73.8 M27.5,75
							c-0.4,0.1-0.7,0.2-0.9,0.2c0-0.2,0.1-0.4,0.3-0.4c0,0,0,0,0,0c-0.4-0.3-0.6,0.2-0.6,0.2c-0.1,0-0.3,0-0.3,0.2
							c0,0.5-1.3,0.9-1.6,0.9c0.5,0.2,0.7,0.8,0.7,0.8c0.4-0.4,0.8-0.7,0.9-0.7c0.1,0,0.1,0.1,0.1,0.2c0,0,0,0,0,0
							c0.2-0.3,0.1-0.4,0.1-0.4c0-0.1,0-0.3,0.3-0.3l0,3.7l-0.2,0c-0.1,0-0.6-0.4-1.2-0.9c-0.6-0.4-0.9-0.2-1.6,0.2
							c-0.9,0.5-1.8,0-1.8,0C21,79.4,20.7,81,20.7,81c-0.2,0.1-0.4,0.1-0.7,0.1c-0.6,0-0.7-0.4-0.7-0.6c0-0.9,1.2-1.3,1.2-2.2
							c0-0.2-0.1-1.1-1.2-1.1c-0.1,0-1,0-1,0c-0.4,0-0.5-0.3-0.6-0.4c0,0-0.1,0,0,0c0,0.1,0,0.2,0,0.4c0,0.4,0.2,0.6,0.6,0.6
							c0.2,0,0.4-0.1,0.4-0.1c0,0,0.1,0,0,0c-0.2,0.2-0.2,0.6-0.1,0.7c0,0,0,0,0,0c0.1-0.4,0.5-0.8,1-0.8c0.6,0,0.6,0.5,0.6,0.6
							c0,0.7-1.3,1.3-1.3,2.3c0,1,1.1,1.3,1.7,1.1c0,1-1.2,1.4-1.3,0.7c0,0,0,0,0,0c-0.2,0.4-0.1,0.7,0.4,0.8c0,0,0,0,0,0
							c-0.5,0.3-0.2,1.4-0.2,1.8c0,0.5-0.5,0.4-0.5,0.4c0,0,0,0,0,0c0.3,0.4,0.8,0,0.8,0c0.3,0.1,0.1,0.4-0.1,0.5c0,0,0,0,0,0
							c0.1,0,0.5,0,0.6-0.3c0.2,0.3,0.5,0.2,0.6,0.1c0.1-0.1,0.6-0.2,0.6,0.3c0,0,0,0,0,0c0.4-0.4,0-0.7-0.2-0.7
							c0,0,0.3-0.3,0.6,0.1c0,0,0,0,0,0c0-0.6-0.4-0.6-0.7-0.4c0-0.1-0.1-0.4,0.3-0.4c0,0,0,0,0,0c-0.3-0.4-0.6,0-0.7,0.1
							c-0.2,0.2-0.5,0.1-0.6,0.1c0.1-1.9,1.8-1.3,2.1-2.2c0-0.1,0,0,0,0c0.1,0.2,0.6,0.3,0.8-0.2c0,0,0,0,0,0
							c-0.5,0.5-1.6-1.1-0.1-2.3c1.3-1.1,2.5-0.5,2.9-0.1c0,0.2-0.1,0.2-0.1,0.2c0,0,0,0,0,0c0.1,0,0.3,0,0.4-0.1
							c0.3,0.2,0,0.4-0.1,0.5c0,0,0,0,0,0c0.3,0,0.5-0.2,0.5-0.4l0,0l0,1.1c0,1.6,1.8,1.8,3.8,3.1c2-1.3,3.8-1.6,3.8-3.1l0-1.1l0,0
							c0,0.1,0.2,0.4,0.5,0.4c0,0,0,0,0,0c-0.1-0.1-0.4-0.3-0.1-0.5c0.1,0.1,0.3,0.1,0.4,0.1c0,0,0,0,0,0c-0.1,0-0.2-0.1-0.1-0.2
							c0.4-0.4,1.6-1,2.9,0.1c1.5,1.3,0.4,2.8-0.1,2.3c0,0,0,0,0,0c0.1,0.5,0.7,0.4,0.8,0.2c0,0,0,0,0,0c0.2,0.9,2,0.3,2.1,2.2
							c0,0-0.4,0.1-0.6-0.1c-0.1-0.1-0.4-0.4-0.7-0.1c0,0,0,0,0,0c0.4,0,0.3,0.3,0.3,0.4c-0.3-0.2-0.8-0.2-0.7,0.4c0,0,0,0,0,0
							c0.3-0.3,0.5-0.1,0.6-0.1c-0.2,0-0.6,0.3-0.2,0.7c0,0,0,0,0,0c0-0.5,0.5-0.4,0.6-0.3c0.1,0,0.4,0.1,0.6-0.1
							c0.1,0.4,0.6,0.4,0.6,0.4c0,0,0,0,0,0c-0.2-0.1-0.4-0.4-0.1-0.5c0,0,0.4,0.4,0.8,0c0,0,0,0,0,0c0,0-0.5,0.1-0.5-0.4
							c0-0.3,0.3-1.5-0.2-1.8c0,0,0,0,0,0c0.5-0.1,0.5-0.4,0.4-0.8c0,0,0,0,0,0c0,0.7-1.2,0.4-1.3-0.7c0.6,0.2,1.7-0.1,1.7-1.1
							c0-1-1.3-1.6-1.3-2.3c0-0.1,0-0.6,0.6-0.6c0.5,0,0.9,0.4,1,0.8c0,0,0,0,0,0c0.1-0.1,0.1-0.5-0.1-0.7c0,0,0-0.1,0,0
							c0.1,0,0.2,0.1,0.4,0.1c0.4,0,0.6-0.2,0.6-0.6c0-0.2-0.1-0.3,0-0.4c0,0,0-0.1,0,0c-0.1,0.1-0.2,0.4-0.6,0.4c0,0-0.9,0-1,0
							c-1.1,0-1.2,0.9-1.2,1.1c0,0.9,1.2,1.3,1.2,2.2c0,0.2-0.1,0.6-0.7,0.6c-0.2,0-0.5-0.1-0.7-0.1c0,0-0.3-1.6-1.1-2.2
							c0,0-0.9,0.4-1.8-0.1c-0.7-0.4-1-0.6-1.6-0.2c-0.6,0.4-1.1,0.9-1.2,0.9l-0.1,0l0-3.7c0.3,0,0.3,0.2,0.3,0.3
							c0,0.1-0.1,0.1,0.1,0.4c0,0,0,0,0,0c0-0.1,0-0.2,0.1-0.2c0.1,0,0.5,0.3,0.9,0.7c0,0,0.2-0.6,0.7-0.8c-0.3,0-1.6-0.3-1.6-0.9
							c0-0.2-0.2-0.2-0.3-0.2c0,0-0.2-0.5-0.6-0.2c0,0,0,0,0,0c0.2,0,0.2,0.2,0.2,0.4c-0.4-0.1-1.9-0.6-3.8-0.6
							c-0.9,0-1.7,0.1-2.4,0.2l0,1.3l-0.5,0L27.5,75 M24.1,88c-0.1-0.1-0.2-0.1-0.2-0.3l0-0.8c-0.2-0.1-0.8-0.3-2.1-0.3
							c-1,0-1.3,0.2-1.4,0.3l-0.3,1.5c0,0,0.4-0.4,1.9-0.3c1.8,0.1,3.6,1.2,3.6,0l0-0.7C24.3,87.5,24.1,87.9,24.1,88 M35.1,87.5
							l0,0.7c0,1.1,1.9,0.1,3.6,0c1.5-0.1,1.9,0.3,1.9,0.3l-0.3-1.5c0-0.1-0.3-0.3-1.4-0.3c-1.2,0-1.9,0.2-2.1,0.3v0.8
							c0,0.2-0.1,0.3-0.2,0.3C36.7,87.9,36.5,87.5,35.1,87.5 M30.4,86.8c2.9,0,5.8,0.2,6.2,0.6c0,0,0,0,0,0l0-1.5
							c0-0.4-3-0.7-6.2-0.7c-3.2,0-6.2,0.3-6.2,0.7l0,1.5c0,0,0,0.1,0,0C24.6,87,27.5,86.8,30.4,86.8 M27.8,79.6l-0.3-0.1l0,0
							l-0.3-0.1c0,0,0.2,0,0.3,0c0,0,0,0,0,0c-0.1-0.1-0.3-0.3-0.3-0.3s0.1,0.1,0.3,0.1c0,0,0,0,0,0c-0.1-0.1-0.2-0.3-0.2-0.3
							s0.3,0.2,0.3,0.2c0,0,0,0,0,0c-0.1-0.2-0.2-0.4-0.2-0.4l0.3,0.3c0,0,0,0,0,0c0-0.1-0.1-0.4-0.1-0.4l0.2,0.3c0,0,0,0,0,0
							c0-0.1,0-0.3,0-0.3s0.1,0.2,0.1,0.3c0,0,0,0,0,0c0,0,0.1-0.3,0.1-0.3l0,0.4l0,0l-0.1,0.4c0.4-0.1,1-0.8,1.4-0.8
							c0.5,0,0.7,0.6,1.6,0.3c0.2,0.3,0.3,0.6,0.4,1c0.4,0.3,0.9,0.2,0.9-0.1c0-0.5-0.5-0.6-0.5-1.1c0-0.2,0.2-0.5,0.6-0.5
							c0.2,0,0.6,0.1,0.7,0.1c0.2,0,0.3-0.2,0.3-0.2c0,0,0.1,0,0.1,0c0,0,0,0.1,0,0.2c0,0.3-0.5,0.4-0.5,0.3c0,0,0,0,0,0
							c0.1,0.1,0.1,0.2,0,0.4c0,0,0,0,0,0c0-0.2-0.3-0.5-0.5-0.5c-0.1,0-0.3,0.1-0.3,0.2c0,0.3,0.6,0.5,0.6,1.1
							c0,0.6-0.6,0.7-1.2,0.6c0,0.6,0.9,0.9,0.9,0.5c0,0,0,0,0,0c0.1,0.2,0.1,0.3-0.1,0.4c0.1,0.1,0.2,0.4,0.2,0.5
							c0.1,0.3,0.3,0.1,0.4,0.1c0,0,0,0,0,0c-0.1,0.3-0.4,0.2-0.4,0.2c-0.1,0.1,0,0.2,0.2,0.2c0,0,0,0,0,0c-0.1,0-0.3,0.1-0.4-0.1
							c-0.1,0.2-0.2,0.2-0.3,0.2c-0.1,0-0.2,0.1-0.2,0.3c0,0,0,0,0,0c-0.3-0.2-0.1-0.4,0-0.4c0,0-0.2-0.1-0.3,0.1c0,0,0,0,0,0
							c-0.1-0.3,0.1-0.4,0.3-0.3c0,0-0.1-0.2-0.3-0.1c0,0,0,0,0,0c0-0.1,0.2-0.2,0.4-0.1c0.1,0.1,0.3,0,0.3,0
							c-0.4-0.8-1.1-0.1-1.3-0.7c0,0,0,0,0,0c0,0.1-0.4,0.1-0.4-0.1c0,0,0,0,0,0c0,0,0.1,0.1,0.3-0.1c0.1-0.1,0.1-0.3,0.1-0.4
							c0-0.5-0.5-1.2-1.2-1.2c-0.5,0-0.9,0.2-1.3,0.4l0.3,0.1c0,0.3-0.4,0.5-0.7,0.5l0.1-0.4c-0.1,0-0.2,0.1-0.3,0.2c0,0,0,0,0,0
							c-0.1-0.2,0.1-0.3,0.2-0.4c0,0,0,0,0,0c-0.2,0-0.3,0.1-0.3,0.2c0,0,0,0,0,0C27.8,79.8,27.8,79.7,27.8,79.6 M28.8,82.3
							c-0.1,0.2-0.2,0-0.4,0c-0.2,0-0.2,0.1-0.2,0.2c0,0,0,0,0,0c-0.2-0.3,0-0.4,0.1-0.4c0,0-0.2-0.1-0.3,0c0,0,0,0,0,0
							c0-0.3,0.2-0.3,0.4-0.2c0-0.1,0-0.2-0.2-0.2c0,0,0,0,0,0c0.1-0.1,0.1-0.1,0.2-0.1c0.2,0,0.2,0.2,0.3,0.2
							c0.2,0,0.4-0.2,0.4-0.3c0,0-0.2-0.4-0.1-0.7c0,0,0,0,0,0c-0.1,0-0.3,0-0.3-0.2c0,0,0,0,0,0c0.1,0.1,0.2,0,0.3-0.1
							c0.1-0.1,0.5-0.7,1.1-0.7c0.1,0,0.3,0.1,0.4,0.2c-0.2,0.2,0,0.5,0.1,0.4c0,0,0,0,0,0c-0.8,0.3-1.1,0.4-1.1,1
							c0,0.3,0.1,0.5,0.3,0.5c0,0,0,0,0,0C29.8,82,29.8,82,29.7,82c-0.2,0-0.2-0.1-0.3-0.1c-0.1,0-0.4,0.2-0.4,0.3
							c0,0.1,0,0.1,0.1,0.2c0,0,0,0,0,0C29.1,82.5,28.9,82.5,28.8,82.3 M30.8,76.2c-0.2,0-0.4,0-0.4,0.1
							C30.5,76.4,30.7,76.4,30.8,76.2 M30,76.8c0.2,0,0.3,0,0.4,0c0,0,0,0,0,0.1C30,76.9,30,77,29.7,77c-0.1,0-0.3-0.1-0.2-0.4
							c0,0,0,0,0,0C29.6,76.7,29.7,76.8,30,76.8 M25.5,84.4c0.2,0.3,0.5,0,0.7,0c0.1,0,0.3,0,0.4,0.3c0,0,0,0,0,0
							c0.3-0.4-0.1-0.7-0.3-0.7c0,0,0.4-0.2,0.6,0c0,0,0,0,0,0c0-0.6-0.4-0.6-0.7-0.4c-0.1-0.2,0.1-0.4,0.3-0.4c0,0,0,0,0,0
							c-0.4-0.4-0.7,0.1-0.7,0.2c-0.1,0.2-0.7-0.2-0.9-0.4c0,0,0.5-0.5,0.5-1c0,0,0-0.1,0-0.1c0,0,0,0,0,0c0,0,0.1,0,0.2,0
							c0.1,0,0.3,0,0.3-0.4c0,0,0,0,0,0c-0.1,0.1-0.1,0.1-0.2,0.1c-0.4,0-1.2-1.3-2.1-1.3c-0.2,0-0.7,0.2-0.9,0.4
							c0.1,0.1,0.1,0.2,0.1,0.3c0,0.2-0.1,0.2-0.3,0.3c0,0,0,0,0,0c0.5,0.2,1.4,0.5,1.5,0.7c0.2,0.2,0.2,0.6,0.1,1.1
							c-0.1,0.5-0.4,0.4-0.5,0.4c0,0,0,0,0,0c0.1,0.2,0.3,0.2,0.4,0.2c0.2,0,0.3-0.2,0.5-0.2c0.2,0,0.7,0.3,0.7,0.5
							c0,0.1-0.1,0.3-0.2,0.3c0,0,0,0,0,0C25,84.7,25.4,84.8,25.5,84.4 M35.9,84.7C35.9,84.7,35.9,84.7,35.9,84.7
							c-0.1-0.1-0.2-0.2-0.2-0.4c0-0.2,0.4-0.5,0.7-0.5c0.1,0,0.2,0.2,0.5,0.2c0.1,0,0.3-0.1,0.4-0.2c0,0,0,0,0,0
							c-0.1,0-0.4,0.1-0.5-0.4c-0.1-0.5-0.2-0.9,0.1-1.1c0.2-0.2,1.1-0.5,1.5-0.7c0,0,0,0,0,0c-0.1,0-0.3-0.1-0.3-0.3
							c0-0.1,0-0.2,0.1-0.3c-0.2-0.3-0.7-0.4-1-0.4c-0.9,0-1.7,1.3-2.1,1.3c0,0-0.1,0-0.2-0.1c0,0,0,0,0,0c0,0.4,0.2,0.4,0.3,0.4
							c0.1,0,0.1,0,0.2,0c0,0,0,0,0,0c0,0,0,0.1,0,0.1c0,0.5,0.5,1,0.5,1c-0.2,0.2-0.8,0.6-0.9,0.4c-0.1-0.1-0.3-0.6-0.7-0.2
							c0,0,0,0,0,0c0.2,0,0.4,0.1,0.3,0.4c-0.3-0.2-0.7-0.2-0.7,0.4c0,0,0,0,0,0c0.2-0.3,0.5-0.1,0.6,0c-0.2,0-0.6,0.3-0.3,0.7
							c0,0,0,0,0,0c0-0.3,0.2-0.3,0.4-0.3c0.3,0,0.5,0.3,0.7,0C35.4,84.8,35.8,84.7,35.9,84.7 M28.3,77.3c0,0-0.1,0-0.2,0
							c0,0,0,0,0,0c0,0.1,0.1,0.2,0.3,0.2c0.1,0,0.2,0,0.2-0.1c0,0,0.6,0.2,0.8,0.3c-0.1,0.1-0.2,0.3-0.2,0.5
							c-0.2-0.1-1.1-0.6-1.1-0.6L27.8,78c0,0.1-0.3-0.1-0.2-0.2l0.2-0.3c-0.1-0.1-0.2,0-0.3,0c0,0,0,0,0,0c0-0.1,0.1-0.2,0.4-0.2
							c0-0.2-0.2-0.1-0.3-0.1c0,0,0,0,0,0c0.1-0.1,0.3-0.2,0.5-0.1l0.1-0.1L28,76.8l0.1-0.2l0.1,0.2l1-1.4c0,0,0.2-0.1,0.3-0.1
							c0,0.1,0,0.3,0,0.3l-1,1.4l0.2,0.1l-0.1,0.2l-0.2-0.1L28.3,77.3z M31.9,77.1c0,0.1,0.1,0.3,0.3,0.3c0,0,0,0,0,0
							c0,0.1-0.3,0.3-0.4,0.1c-0.1,0.2-0.1,0.4,0.1,0.5c0,0,0,0,0,0c-0.1,0.1-0.3,0.1-0.4-0.1c-0.2,0.1-0.2,0.4,0,0.5
							c0,0-0.5,0.3-1,0.1c-0.3-0.1-0.6-0.3-0.9-0.3c0-0.6,0.3-0.7,0.8-0.8c0.4-0.1,0.5-0.3,0.4-0.4c-0.1,0-0.4,0.1-0.4,0.1
							c0-0.1,0-0.2,0-0.2c0,0,0-0.1,0-0.1c0.3,0,0.3-0.1,0.3-0.1c0-0.3-0.3-0.3-0.5-0.2c-0.1-0.1-0.1-0.2-0.1-0.2c0,0,0-0.1,0-0.1
							c0-0.1,0.3-0.3,0.4-0.3c0-0.1,0.1-0.2,0.5-0.2c0-0.1,0-0.4-0.1-0.5c0,0,0,0,0,0c0.1,0.1,0.2,0.4,0.3,0.4c0,0,0.4-0.2,0.4-0.2
							c0,0,0.1,0.5,0.1,0.5c0.1,0.1,0.4,0,0.5,0.1c0,0,0,0,0,0c-0.1,0-0.4,0.2-0.5,0.2C32,76.6,31.9,77,31.9,77.1"/>
					</g>
					<g class="st3">
						<path class="st0" d="M56.4,76.3c-0.1,0-0.2,0.1-0.4,0.1c-0.1,0-0.2,0-0.3,0c-0.1,0-0.2-0.1-0.2-0.1c-0.1-0.1-0.2-0.1-0.2-0.2
							c-0.1-0.1-0.2-0.2-0.2-0.3l-1.2-1.9l-0.4,0l0,2L54,76l0,0.2c-0.2,0-0.3,0.1-0.5,0.1c-0.2,0-0.4,0-0.6,0c-0.2,0-0.3,0-0.5,0
							c-0.2,0-0.3,0-0.4-0.1l0-0.2c0.2-0.1,0.3-0.1,0.4-0.2c0.1-0.1,0.1-0.3,0.1-0.5l0-4.5L52,70.6l0-0.2c0.1,0,0.3,0,0.4-0.1
							c0.1,0,0.3,0,0.4,0c0.2,0,0.3,0,0.5,0c0.2,0,0.3,0,0.5,0c0.7,0,1.2,0.1,1.6,0.4c0.3,0.3,0.5,0.7,0.5,1.2c0,0.2,0,0.4-0.1,0.6
							c-0.1,0.2-0.1,0.4-0.3,0.5c-0.1,0.1-0.3,0.3-0.4,0.4c-0.2,0.1-0.4,0.2-0.6,0.3l1.3,1.7c0.1,0.2,0.2,0.3,0.4,0.4
							c0.1,0.1,0.3,0.2,0.5,0.2l0,0.2C56.7,76.3,56.6,76.3,56.4,76.3 M54.7,71.1c-0.2-0.2-0.5-0.3-0.9-0.3c-0.1,0-0.1,0-0.2,0
							c-0.1,0-0.1,0-0.2,0l0,2.6l0.4,0c0.2,0,0.4,0,0.5-0.1c0.2-0.1,0.3-0.1,0.4-0.3c0.1-0.1,0.2-0.3,0.3-0.4
							c0.1-0.2,0.1-0.4,0.1-0.6C55.1,71.6,55,71.3,54.7,71.1"/>
					</g>
					<g class="st3">
						<path class="st0" d="M58.6,76.3c-0.1,0-0.2,0-0.2,0c-0.1,0-0.2,0-0.3,0c-0.1,0-0.2,0-0.3,0c-0.1,0-0.2,0-0.3,0
							c-0.1,0-0.2,0-0.4-0.1l0-0.2c0.1,0,0.1,0,0.2-0.1c0.1,0,0.1-0.1,0.2-0.1c0,0,0.1-0.1,0.1-0.1c0,0,0-0.1,0-0.2l0-3.1L57,72.2
							l0-0.2c0.2-0.1,0.4-0.1,0.6-0.1c0.2,0,0.4,0,0.5,0l0.3,0l0,0.5l0,3.5l0.5,0.1l0,0.2C58.8,76.2,58.7,76.2,58.6,76.3 M58.5,70.7
							c0,0.1-0.1,0.1-0.1,0.2c0,0.1-0.1,0.1-0.2,0.1c-0.1,0-0.1,0-0.2,0c-0.1,0-0.1,0-0.2,0c-0.1,0-0.1-0.1-0.2-0.1
							c0,0-0.1-0.1-0.1-0.2c0-0.1,0-0.1,0-0.2c0-0.1,0-0.1,0-0.2c0-0.1,0.1-0.1,0.1-0.2c0-0.1,0.1-0.1,0.2-0.1c0.1,0,0.1,0,0.2,0
							c0.1,0,0.1,0,0.2,0c0.1,0,0.1,0.1,0.2,0.1c0,0,0.1,0.1,0.1,0.2c0,0.1,0,0.1,0,0.2C58.5,70.5,58.5,70.6,58.5,70.7"/>
					</g>
					<g class="st3">
						<path class="st0" d="M60.8,72.4l0,4.2c0,0.4,0,0.7-0.1,1c-0.1,0.2-0.1,0.4-0.2,0.6c-0.1,0.2-0.2,0.3-0.3,0.3
							c-0.1,0.1-0.3,0.1-0.4,0.1c-0.1,0-0.2,0-0.3-0.1c-0.1,0-0.2-0.1-0.2-0.2l0-0.1c0.1,0,0.2,0,0.3-0.1c0.1-0.1,0.2-0.2,0.3-0.3
							c0.1-0.1,0.1-0.3,0.2-0.4c0-0.2,0.1-0.4,0.1-0.6l0-4.3l-0.6-0.3l0-0.2c0.2-0.1,0.4-0.1,0.6-0.1c0.2,0,0.4,0,0.5,0l0.3,0
							L60.8,72.4z M60.9,70.7c0,0.1-0.1,0.1-0.1,0.2c-0.1,0.1-0.1,0.1-0.2,0.1c-0.1,0-0.1,0-0.2,0c-0.1,0-0.1,0-0.2,0
							c-0.1,0-0.1-0.1-0.2-0.1c0,0-0.1-0.1-0.1-0.2c0-0.1,0-0.1,0-0.2c0-0.1,0-0.1,0-0.2c0-0.1,0.1-0.1,0.1-0.2
							c0-0.1,0.1-0.1,0.2-0.1c0.1,0,0.1,0,0.2,0c0.1,0,0.1,0,0.2,0c0.1,0,0.1,0.1,0.2,0.1c0,0,0.1,0.1,0.1,0.2c0,0.1,0,0.1,0,0.2
							C60.9,70.5,60.9,70.6,60.9,70.7"/>
					</g>
					<g class="st3">
						<path class="st0" d="M65.6,76.3c-0.1,0-0.2,0-0.4,0c-0.1,0-0.2,0-0.4-0.1c-0.1-0.1-0.2-0.1-0.3-0.3l-1.5-2l0,1.9l0.5,0.1
							l0,0.2c-0.1,0-0.2,0.1-0.2,0.1c-0.1,0-0.2,0-0.2,0c-0.1,0-0.2,0-0.3,0c-0.1,0-0.2,0-0.3,0c-0.1,0-0.2,0-0.3,0
							c-0.1,0-0.3,0-0.4-0.1l0-0.2c0.1,0,0.1,0,0.2-0.1c0.1,0,0.1-0.1,0.2-0.1c0,0,0.1-0.1,0.1-0.1c0,0,0-0.1,0-0.2l0-5.4L61.7,70
							l0-0.2c0.2-0.1,0.4-0.1,0.6-0.1c0.2,0,0.4,0,0.5,0l0.3,0l-0.1,0.5l0,3.7l0.5-0.4c0.1-0.1,0.2-0.2,0.4-0.4
							c0.1-0.1,0.2-0.3,0.3-0.4c0.1-0.1,0.2-0.3,0.2-0.4c0.1-0.1,0.1-0.2,0.1-0.4c0.1,0,0.2,0,0.2-0.1c0.1,0,0.2,0,0.2,0
							c0.1,0,0.1,0,0.2,0c0.1,0,0.1,0,0.2,0.1c0,0.1,0,0.2-0.1,0.3c-0.1,0.1-0.1,0.3-0.2,0.4c-0.1,0.1-0.2,0.3-0.4,0.4
							c-0.2,0.1-0.3,0.3-0.6,0.5l-0.3,0.2l1.4,1.7c0.1,0.2,0.2,0.3,0.4,0.3c0.1,0.1,0.2,0.1,0.3,0.1l0,0.2
							C65.8,76.2,65.7,76.3,65.6,76.3"/>
					</g>
					<g class="st3">
						<path class="st0" d="M69,75.6c-0.1,0.2-0.2,0.3-0.4,0.4c-0.1,0.1-0.3,0.2-0.5,0.3c-0.2,0.1-0.5,0.1-0.7,0.1
							c-0.4,0-0.7-0.1-0.9-0.2c-0.2-0.1-0.3-0.3-0.3-0.6c0-0.1,0-0.1,0-0.2c0-0.1,0-0.1,0.1-0.2c0.2,0.2,0.4,0.3,0.6,0.4
							c0.2,0.1,0.4,0.1,0.7,0.1c0.3,0,0.5-0.1,0.6-0.2c0.1-0.1,0.2-0.2,0.2-0.4c0-0.1,0-0.2,0-0.2c0-0.1-0.1-0.1-0.1-0.2
							c-0.1-0.1-0.1-0.1-0.2-0.2c-0.1-0.1-0.2-0.1-0.4-0.2l-0.5-0.2c-0.3-0.1-0.5-0.3-0.6-0.5c-0.1-0.2-0.2-0.4-0.2-0.7
							c0-0.2,0-0.4,0.1-0.5c0.1-0.2,0.2-0.3,0.3-0.4c0.1-0.1,0.3-0.2,0.5-0.3c0.2-0.1,0.4-0.1,0.7-0.1c0.2,0,0.3,0,0.5,0
							c0.1,0,0.2,0.1,0.3,0.1c0.1,0,0.2,0.1,0.2,0.2c0,0.1,0.1,0.2,0.1,0.2c0,0.1,0,0.1,0,0.2c0,0.1,0,0.1,0,0.2
							c-0.1-0.1-0.3-0.2-0.5-0.3c-0.2-0.1-0.4-0.1-0.5-0.1c-0.2,0-0.3,0-0.4,0c-0.1,0-0.2,0.1-0.3,0.1c-0.1,0.1-0.1,0.1-0.2,0.2
							c0,0.1,0,0.1,0,0.2c0,0.1,0,0.2,0,0.2c0,0.1,0.1,0.1,0.1,0.2c0.1,0.1,0.1,0.1,0.2,0.2c0.1,0.1,0.2,0.1,0.3,0.2l0.5,0.2
							c0.2,0.1,0.3,0.1,0.4,0.2c0.1,0.1,0.2,0.2,0.3,0.3c0.1,0.1,0.1,0.2,0.2,0.3c0,0.1,0,0.2,0,0.4C69.2,75.2,69.1,75.4,69,75.6"/>
					</g>
					<g class="st3">
						<path class="st0" d="M71.3,76.3c-0.1,0-0.2,0-0.2,0c-0.1,0-0.2,0-0.3,0c-0.1,0-0.2,0-0.3,0c-0.1,0-0.2,0-0.3,0
							c-0.1,0-0.3,0-0.4-0.1l0-0.2c0.1,0,0.1,0,0.2-0.1c0.1,0,0.1-0.1,0.2-0.1c0,0,0.1-0.1,0.1-0.1c0,0,0-0.1,0-0.2l0-3.1l-0.6-0.3
							l0-0.2c0.2-0.1,0.4-0.1,0.6-0.1c0.2,0,0.4,0,0.5,0l0.3,0l0,0.5l0,3.5l0.5,0.1l0,0.2C71.5,76.2,71.4,76.2,71.3,76.3 M71.2,70.7
							c0,0.1-0.1,0.1-0.1,0.2c0,0.1-0.1,0.1-0.2,0.1c-0.1,0-0.1,0-0.2,0c-0.1,0-0.1,0-0.2,0c-0.1,0-0.1-0.1-0.2-0.1
							c0,0-0.1-0.1-0.1-0.2c0-0.1,0-0.1,0-0.2c0-0.1,0-0.1,0-0.2c0-0.1,0.1-0.1,0.1-0.2c0-0.1,0.1-0.1,0.2-0.1c0.1,0,0.1,0,0.2,0
							c0.1,0,0.1,0,0.2,0c0.1,0,0.1,0.1,0.2,0.1c0,0,0.1,0.1,0.1,0.2c0,0.1,0,0.1,0,0.2C71.2,70.5,71.2,70.6,71.2,70.7"/>
					</g>
					<g class="st3">
						<path class="st0" d="M75.6,76.3c-0.1,0-0.2,0-0.3,0c-0.1,0-0.2,0-0.3-0.1l0-0.2c0.1-0.1,0.2-0.1,0.3-0.2
							c0.1-0.1,0.1-0.2,0.1-0.4l0-1.8c0-0.2,0-0.4-0.1-0.6c0-0.2-0.1-0.3-0.2-0.4c-0.1-0.1-0.2-0.2-0.3-0.2c-0.1,0-0.2-0.1-0.4-0.1
							c-0.2,0-0.4,0-0.5,0.1c-0.2,0.1-0.3,0.1-0.4,0.2l0,3.1L74,76l0,0.2c-0.1,0-0.2,0.1-0.2,0.1c-0.1,0-0.2,0-0.3,0
							c-0.1,0-0.2,0-0.3,0c-0.1,0-0.2,0-0.3,0c-0.1,0-0.2,0-0.4,0c-0.1,0-0.2,0-0.3-0.1l0-0.2c0.1,0,0.1,0,0.2-0.1
							c0.1,0,0.1-0.1,0.2-0.1c0,0,0.1-0.1,0.1-0.1c0,0,0-0.1,0-0.2l0-3.1l-0.6-0.3l0-0.2c0.2-0.1,0.4-0.1,0.6-0.1c0.2,0,0.4,0,0.5,0
							l0.2,0l0,0.5c0.2-0.2,0.4-0.3,0.6-0.4c0.2-0.1,0.5-0.1,0.8-0.1c0.2,0,0.4,0,0.5,0.1c0.2,0.1,0.3,0.2,0.4,0.3
							c0.1,0.1,0.2,0.3,0.3,0.4c0.1,0.2,0.1,0.4,0.1,0.6l0,2.6l0.5,0.1l0,0.2C76.4,76.3,76,76.3,75.6,76.3"/>
					</g>
					<g class="st3">
						<path class="st0" d="M80,75.6c-0.1,0.2-0.2,0.3-0.4,0.4c-0.2,0.1-0.3,0.2-0.5,0.3c-0.2,0.1-0.4,0.1-0.7,0.1
							c-0.4,0-0.7-0.1-0.9-0.2c-0.2-0.1-0.3-0.3-0.3-0.6c0-0.1,0-0.1,0-0.2c0-0.1,0-0.1,0.1-0.2c0.2,0.2,0.4,0.3,0.6,0.4
							c0.2,0.1,0.4,0.1,0.7,0.1c0.3,0,0.4-0.1,0.6-0.2c0.1-0.1,0.2-0.2,0.2-0.4c0-0.1,0-0.2,0-0.2c0-0.1-0.1-0.1-0.1-0.2
							c-0.1-0.1-0.1-0.1-0.2-0.2c-0.1-0.1-0.2-0.1-0.4-0.2l-0.5-0.2c-0.3-0.1-0.5-0.3-0.6-0.5c-0.1-0.2-0.2-0.4-0.2-0.7
							c0-0.2,0-0.4,0.1-0.5c0.1-0.2,0.2-0.3,0.3-0.4c0.1-0.1,0.3-0.2,0.5-0.3c0.2-0.1,0.4-0.1,0.7-0.1c0.2,0,0.3,0,0.5,0
							c0.1,0,0.2,0.1,0.3,0.1c0.1,0,0.1,0.1,0.2,0.2c0,0.1,0.1,0.2,0.1,0.2c0,0.1,0,0.1,0,0.2c0,0.1,0,0.1,0,0.2
							c-0.2-0.1-0.3-0.2-0.5-0.3c-0.2-0.1-0.4-0.1-0.5-0.1c-0.1,0-0.3,0-0.4,0c-0.1,0-0.2,0.1-0.3,0.1c-0.1,0.1-0.1,0.1-0.2,0.2
							c0,0.1,0,0.1,0,0.2c0,0.1,0,0.2,0,0.2c0,0.1,0.1,0.1,0.1,0.2c0.1,0.1,0.1,0.1,0.2,0.2c0.1,0.1,0.2,0.1,0.4,0.2l0.5,0.2
							c0.2,0.1,0.3,0.1,0.4,0.2c0.1,0.1,0.2,0.2,0.3,0.3c0.1,0.1,0.1,0.2,0.2,0.3c0,0.1,0,0.2,0,0.4C80.1,75.2,80,75.4,80,75.6"/>
					</g>
					<g class="st3">
						<path class="st0" d="M82.2,76.4c-0.4,0-0.7-0.1-0.8-0.3c-0.2-0.2-0.3-0.5-0.3-1c0-0.2,0-0.5,0-0.7c0-0.2,0-0.5,0-0.7l0-1.2
							l-0.5,0l0-0.3l1-1l0.3,0l0,0.8l1.2,0l-0.1,0.5l-1.2,0l0,1.2c0,0.2,0,0.4,0,0.6l0,0.5c0,0.2,0,0.3,0,0.5c0,0.1,0.1,0.2,0.1,0.3
							c0,0.1,0.1,0.1,0.2,0.2c0.1,0,0.1,0.1,0.2,0.1c0.1,0,0.3,0,0.4-0.1c0.1,0,0.2-0.1,0.3-0.2l0.1,0
							C83.2,76.1,82.9,76.4,82.2,76.4"/>
					</g>
					<g class="st3">
						<path class="st0" d="M85.2,76.3c-0.1,0-0.2,0-0.3,0c-0.1,0-0.2,0-0.3,0c-0.1,0-0.2,0-0.3,0c-0.1,0-0.2,0-0.3,0
							c-0.1,0-0.2,0-0.4-0.1l0-0.2c0.1,0,0.1,0,0.2-0.1c0.1,0,0.1-0.1,0.2-0.1c0,0,0.1-0.1,0.1-0.1c0,0,0-0.1,0-0.2l0-3.1l-0.6-0.3
							l0-0.2c0.2-0.1,0.4-0.1,0.6-0.1c0.2,0,0.4,0,0.5,0l0.3,0l0,0.5l0,3.5l0.5,0.1l0,0.2C85.4,76.2,85.3,76.2,85.2,76.3 M85.1,70.7
							c0,0.1-0.1,0.1-0.1,0.2c0,0.1-0.1,0.1-0.2,0.1c-0.1,0-0.1,0-0.2,0c-0.1,0-0.1,0-0.2,0c-0.1,0-0.1-0.1-0.2-0.1
							c0,0-0.1-0.1-0.1-0.2c0-0.1,0-0.1,0-0.2c0-0.1,0-0.1,0-0.2c0-0.1,0.1-0.1,0.1-0.2c0-0.1,0.1-0.1,0.2-0.1c0.1,0,0.1,0,0.2,0
							c0.1,0,0.1,0,0.2,0c0.1,0,0.1,0.1,0.2,0.1c0,0,0.1,0.1,0.1,0.2c0,0.1,0,0.1,0,0.2C85.1,70.5,85.1,70.6,85.1,70.7"/>
					</g>
					<g class="st3">
						<path class="st0" d="M87.6,76.4c-0.4,0-0.6-0.1-0.8-0.3c-0.2-0.2-0.3-0.5-0.3-1c0-0.2,0-0.5,0-0.7c0-0.2,0-0.5,0-0.7l0-1.2
							l-0.5,0l0-0.3l1-1l0.3,0l0,0.8l1.2,0l-0.1,0.5l-1.2,0l0,1.2c0,0.2,0,0.4,0,0.6l0,0.5c0,0.2,0,0.3,0,0.5c0,0.1,0.1,0.2,0.1,0.3
							c0,0.1,0.1,0.1,0.2,0.2c0.1,0,0.2,0.1,0.2,0.1c0.1,0,0.3,0,0.4-0.1c0.1,0,0.2-0.1,0.3-0.2l0.1,0
							C88.6,76.1,88.2,76.4,87.6,76.4"/>
					</g>
					<g class="st3">
						<path class="st0" d="M93,76.1c0,0-0.1,0.1-0.2,0.1c-0.1,0-0.1,0.1-0.2,0.1c-0.1,0-0.1,0.1-0.2,0.1c-0.1-0.1-0.2-0.1-0.3-0.2
							c-0.1-0.1-0.1-0.2-0.2-0.3C92,75.9,92,76,91.9,76c-0.1,0.1-0.2,0.1-0.3,0.2c-0.1,0-0.2,0.1-0.4,0.1c-0.1,0-0.3,0-0.4,0
							c-0.2,0-0.4,0-0.5-0.1c-0.2-0.1-0.3-0.1-0.4-0.3c-0.1-0.1-0.2-0.3-0.3-0.5c-0.1-0.2-0.1-0.4-0.1-0.7l0-2.4l-0.5-0.3l0-0.2
							c0.2-0.1,0.4-0.1,0.6-0.1c0.2,0,0.3,0,0.4,0l0.3,0l-0.1,0.5l0,2.1c0,0.2,0,0.5,0.1,0.6c0,0.2,0.1,0.3,0.2,0.4
							c0.1,0.1,0.2,0.2,0.3,0.2c0.1,0,0.2,0.1,0.4,0.1c0.1,0,0.2,0,0.3,0c0.1,0,0.2,0,0.2-0.1c0.1,0,0.1-0.1,0.2-0.1
							c0.1,0,0.1-0.1,0.2-0.1l0-3l-0.5-0.3l0-0.2c0.2-0.1,0.4-0.1,0.6-0.1c0.2,0,0.3,0,0.5,0l0.3,0l-0.1,0.5l0,3.1
							c0,0.1,0.1,0.2,0.1,0.2c0.1,0.1,0.1,0.2,0.2,0.2C93.1,76,93.1,76.1,93,76.1"/>
					</g>
					<g class="st3">
						<path class="st0" d="M97.9,76.1c0,0-0.1,0.1-0.2,0.1c-0.1,0-0.1,0.1-0.2,0.1c-0.1,0-0.1,0.1-0.2,0.1c-0.1-0.1-0.2-0.1-0.3-0.2
							C97.1,76.1,97,76,97,75.9c-0.1,0.1-0.1,0.1-0.2,0.2c-0.1,0.1-0.2,0.1-0.3,0.2c-0.1,0-0.2,0.1-0.4,0.1c-0.1,0-0.3,0-0.4,0
							c-0.2,0-0.4,0-0.5-0.1c-0.2-0.1-0.3-0.1-0.4-0.3c-0.1-0.1-0.2-0.3-0.3-0.5c-0.1-0.2-0.1-0.4-0.1-0.7l0-2.4l-0.5-0.3l0-0.2
							c0.2-0.1,0.4-0.1,0.6-0.1c0.2,0,0.3,0,0.5,0l0.3,0l-0.1,0.5l0,2.1c0,0.2,0,0.5,0.1,0.6c0,0.2,0.1,0.3,0.2,0.4
							c0.1,0.1,0.2,0.2,0.3,0.2c0.1,0,0.2,0.1,0.4,0.1c0.1,0,0.2,0,0.3,0c0.1,0,0.2,0,0.2-0.1c0.1,0,0.1-0.1,0.2-0.1
							c0.1,0,0.1-0.1,0.2-0.1l0-3l-0.5-0.3l0-0.2c0.2-0.1,0.4-0.1,0.6-0.1c0.2,0,0.3,0,0.5,0l0.3,0l-0.1,0.5l0,3.1
							c0,0.1,0.1,0.2,0.1,0.2c0.1,0.1,0.1,0.2,0.2,0.2C98,76,97.9,76.1,97.9,76.1"/>
					</g>
					<g class="st3">
						<path class="st0" d="M100.3,76.4c-0.4,0-0.6-0.1-0.8-0.3c-0.2-0.2-0.3-0.5-0.3-1c0-0.2,0-0.5,0-0.7c0-0.2,0-0.5,0-0.7l0-1.2
							l-0.5,0l0-0.3l1-1l0.3,0l0,0.8l1.2,0l-0.1,0.5l-1.2,0l0,1.2c0,0.2,0,0.4,0,0.6l0,0.5c0,0.2,0,0.3,0,0.5c0,0.1,0.1,0.2,0.1,0.3
							c0,0.1,0.1,0.1,0.2,0.2c0.1,0,0.1,0.1,0.2,0.1c0.1,0,0.3,0,0.4-0.1c0.1,0,0.2-0.1,0.3-0.2l0.1,0
							C101.3,76.1,100.9,76.4,100.3,76.4"/>
					</g>
					<g class="st3">
						<polygon class="st0" points="107.1,72.3 105.4,76.4 105.1,76.4 103.6,72.4 103.2,72.1 103.2,71.9 104.9,71.9 104.9,72.1 
							104.4,72.3 105.4,75.2 105.4,75.2 106.5,72.3 105.9,72.1 105.9,71.9 107.4,71.9 107.4,72.1 						"/>
					</g>
					<g class="st3">
						<path class="st0" d="M111.7,75c-0.1,0.3-0.3,0.6-0.5,0.8c-0.2,0.2-0.4,0.4-0.7,0.5c-0.3,0.1-0.5,0.2-0.8,0.2
							c-0.3,0-0.5,0-0.8-0.1c-0.2-0.1-0.5-0.2-0.7-0.4c-0.2-0.2-0.3-0.4-0.4-0.7c-0.1-0.3-0.2-0.6-0.2-0.9c0-0.4,0.1-0.7,0.2-1
							c0.1-0.3,0.3-0.6,0.5-0.8c0.2-0.2,0.4-0.4,0.7-0.5c0.3-0.1,0.5-0.2,0.8-0.2c0.3,0,0.5,0.1,0.8,0.2c0.3,0.1,0.5,0.2,0.6,0.4
							c0.2,0.2,0.3,0.4,0.4,0.7c0.1,0.3,0.2,0.6,0.2,0.9C111.9,74.3,111.8,74.7,111.7,75 M110.9,73.3c-0.1-0.2-0.2-0.4-0.3-0.5
							c-0.1-0.1-0.2-0.3-0.4-0.3c-0.1-0.1-0.3-0.1-0.5-0.1c-0.2,0-0.3,0-0.5,0.1c-0.2,0.1-0.3,0.2-0.4,0.4c-0.1,0.2-0.2,0.4-0.3,0.6
							c-0.1,0.2-0.1,0.5-0.1,0.8c0,0.3,0,0.5,0.1,0.7c0.1,0.2,0.2,0.4,0.3,0.5c0.1,0.1,0.2,0.3,0.4,0.3c0.1,0.1,0.3,0.1,0.5,0.1
							c0.2,0,0.3,0,0.5-0.1c0.1-0.1,0.3-0.2,0.4-0.4c0.1-0.1,0.2-0.3,0.3-0.6c0.1-0.2,0.1-0.5,0.1-0.8C111,73.7,111,73.5,110.9,73.3
							"/>
					</g>
					<g class="st3">
						<path class="st0" d="M116.6,75c-0.1,0.3-0.3,0.6-0.5,0.8c-0.2,0.2-0.4,0.4-0.7,0.5c-0.3,0.1-0.5,0.2-0.8,0.2
							c-0.3,0-0.5,0-0.8-0.1c-0.2-0.1-0.5-0.2-0.6-0.4c-0.2-0.2-0.3-0.4-0.4-0.7c-0.1-0.3-0.2-0.6-0.2-0.9c0-0.4,0.1-0.7,0.2-1
							c0.1-0.3,0.3-0.6,0.5-0.8c0.2-0.2,0.4-0.4,0.7-0.5c0.3-0.1,0.5-0.2,0.8-0.2c0.3,0,0.5,0.1,0.8,0.2c0.3,0.1,0.5,0.2,0.6,0.4
							c0.2,0.2,0.3,0.4,0.4,0.7c0.1,0.3,0.2,0.6,0.2,0.9C116.8,74.3,116.7,74.7,116.6,75 M115.8,73.3c-0.1-0.2-0.2-0.4-0.3-0.5
							c-0.1-0.1-0.2-0.2-0.4-0.3c-0.1-0.1-0.3-0.1-0.5-0.1c-0.2,0-0.3,0-0.5,0.1c-0.2,0.1-0.3,0.2-0.4,0.4c-0.1,0.2-0.2,0.4-0.3,0.6
							c-0.1,0.2-0.1,0.5-0.1,0.8c0,0.3,0,0.5,0.1,0.7c0.1,0.2,0.2,0.4,0.3,0.5c0.1,0.1,0.2,0.3,0.4,0.3c0.1,0.1,0.3,0.1,0.5,0.1
							c0.2,0,0.3,0,0.5-0.1c0.1-0.1,0.3-0.2,0.4-0.4c0.1-0.1,0.2-0.3,0.3-0.6c0.1-0.2,0.1-0.5,0.1-0.8
							C115.9,73.7,115.9,73.5,115.8,73.3"/>
					</g>
					<g class="st3">
						<path class="st0" d="M120.2,72.5c0,0.1-0.1,0.2-0.1,0.3c-0.1-0.1-0.2-0.1-0.3-0.2c-0.1,0-0.2-0.1-0.3-0.1
							c-0.3,0-0.6,0.1-0.8,0.4l0,2.9l0.6,0.1l0,0.2c-0.1,0-0.2,0.1-0.2,0.1c-0.1,0-0.2,0-0.3,0c-0.1,0-0.2,0-0.3,0
							c-0.1,0-0.2,0-0.4,0c-0.1,0-0.3,0-0.4,0c-0.1,0-0.2,0-0.4-0.1l0-0.2c0.1,0,0.1,0,0.2-0.1c0.1,0,0.1-0.1,0.2-0.1
							c0,0,0.1-0.1,0.1-0.1c0,0,0-0.1,0-0.2l0-3.1l-0.6-0.2l0-0.2c0.2-0.1,0.4-0.1,0.6-0.1c0.2,0,0.4,0,0.5,0l0.2,0l0,0.7l0,0
							l0.3-0.3c0.1-0.1,0.3-0.2,0.4-0.3c0.1-0.1,0.3-0.1,0.4-0.1c0.3,0,0.5,0.1,0.5,0.4C120.3,72.3,120.3,72.4,120.2,72.5"/>
					</g>
					<g class="st3">
						<path class="st0" d="M126.7,70.8c-0.1,0.1-0.1,0.2-0.2,0.4l-1.6,5.1l-0.4,0l-1.8-5.5l-0.5-0.2l0-0.2c0.2,0,0.3-0.1,0.5-0.1
							c0.1,0,0.3,0,0.5,0l0.2,0c0.1,0,0.1,0,0.2,0c0.1,0,0.1,0,0.2,0c0.1,0,0.2,0,0.2,0l0,0.2c-0.1,0-0.2,0.1-0.3,0.2
							c0,0.1,0,0.2,0,0.4l1.1,3.8l0,0l1.2-4.1l-0.6-0.2l0-0.2c0.2-0.1,0.3-0.1,0.5-0.1c0.2,0,0.3,0,0.5,0c0.1,0,0.2,0,0.3,0
							c0.1,0,0.2,0,0.3,0.1l0,0.2C126.8,70.6,126.7,70.7,126.7,70.8"/>
					</g>
					<g class="st3">
						<path class="st0" d="M131,75c-0.1,0.3-0.3,0.6-0.5,0.8c-0.2,0.2-0.4,0.4-0.7,0.5c-0.3,0.1-0.5,0.2-0.8,0.2
							c-0.3,0-0.5,0-0.8-0.1c-0.2-0.1-0.5-0.2-0.7-0.4c-0.2-0.2-0.3-0.4-0.4-0.7c-0.1-0.3-0.2-0.6-0.2-0.9c0-0.4,0.1-0.7,0.2-1
							c0.1-0.3,0.3-0.6,0.5-0.8c0.2-0.2,0.4-0.4,0.7-0.5c0.3-0.1,0.5-0.2,0.8-0.2c0.3,0,0.5,0.1,0.8,0.2c0.2,0.1,0.5,0.2,0.6,0.4
							c0.2,0.2,0.3,0.4,0.4,0.7c0.1,0.3,0.2,0.6,0.2,0.9C131.1,74.3,131.1,74.7,131,75 M130.2,73.3c-0.1-0.2-0.2-0.4-0.3-0.5
							c-0.1-0.1-0.2-0.2-0.4-0.3c-0.1-0.1-0.3-0.1-0.5-0.1c-0.2,0-0.3,0-0.5,0.1c-0.2,0.1-0.3,0.2-0.4,0.4c-0.1,0.2-0.2,0.4-0.3,0.6
							c-0.1,0.2-0.1,0.5-0.1,0.8c0,0.3,0,0.5,0.1,0.7c0.1,0.2,0.2,0.4,0.3,0.5c0.1,0.1,0.2,0.3,0.4,0.3c0.1,0.1,0.3,0.1,0.5,0.1
							c0.2,0,0.3,0,0.5-0.1c0.2-0.1,0.3-0.2,0.4-0.4c0.1-0.1,0.2-0.3,0.3-0.6c0.1-0.2,0.1-0.5,0.1-0.8
							C130.3,73.7,130.3,73.5,130.2,73.3"/>
					</g>
					<g class="st3">
						<path class="st0" d="M133.4,76.3c-0.1,0-0.2,0-0.2,0c-0.1,0-0.2,0-0.3,0c-0.1,0-0.2,0-0.3,0c-0.1,0-0.2,0-0.4,0
							c-0.1,0-0.2,0-0.3-0.1l0-0.2c0.1,0,0.1,0,0.2-0.1c0.1,0,0.1-0.1,0.2-0.1c0,0,0.1-0.1,0.1-0.1c0,0,0-0.1,0-0.2l0-5.4l-0.6-0.2
							l0-0.2c0.1,0,0.2-0.1,0.3-0.1c0.1,0,0.2,0,0.3-0.1c0.1,0,0.2,0,0.3,0c0.1,0,0.2,0,0.2,0l0.3,0l0,0.5l0,5.7l0.5,0.1l0,0.2
							C133.5,76.2,133.5,76.3,133.4,76.3"/>
					</g>
					<g class="st3">
						<path class="st0" d="M138.1,76.3c-0.1,0-0.2,0-0.4,0c-0.1,0-0.2,0-0.4-0.1c-0.1-0.1-0.2-0.1-0.3-0.3l-1.5-2l0,1.9L136,76
							l0,0.2c-0.1,0-0.2,0.1-0.2,0.1c-0.1,0-0.2,0-0.2,0c-0.1,0-0.2,0-0.3,0c-0.1,0-0.2,0-0.3,0c-0.1,0-0.2,0-0.3,0
							c-0.1,0-0.3,0-0.4-0.1l0-0.2c0.1,0,0.1,0,0.2-0.1c0.1,0,0.1-0.1,0.2-0.1c0,0,0.1-0.1,0.1-0.1c0,0,0-0.1,0-0.2l0-5.4l-0.6-0.2
							l0-0.2c0.2-0.1,0.4-0.1,0.6-0.1c0.2,0,0.4,0,0.5,0l0.3,0l-0.1,0.5l0,3.7l0.5-0.4c0.1-0.1,0.2-0.2,0.4-0.4
							c0.1-0.1,0.2-0.3,0.3-0.4c0.1-0.1,0.2-0.3,0.2-0.4c0.1-0.1,0.1-0.2,0.1-0.4c0.1,0,0.2,0,0.2-0.1c0.1,0,0.2,0,0.2,0
							c0.1,0,0.1,0,0.2,0c0.1,0,0.1,0,0.2,0.1c0,0.1,0,0.2-0.1,0.3c-0.1,0.1-0.1,0.3-0.2,0.4c-0.1,0.1-0.2,0.3-0.4,0.4
							c-0.2,0.1-0.3,0.3-0.6,0.5l-0.3,0.2l1.4,1.7c0.1,0.2,0.3,0.3,0.4,0.3c0.1,0.1,0.2,0.1,0.3,0.1l0,0.2
							C138.3,76.2,138.2,76.3,138.1,76.3"/>
					</g>
					<g class="st3">
						<path class="st0" d="M141.5,75.6c-0.1,0.2-0.2,0.3-0.3,0.4c-0.2,0.1-0.3,0.2-0.5,0.3c-0.2,0.1-0.4,0.1-0.7,0.1
							c-0.4,0-0.7-0.1-0.9-0.2c-0.2-0.1-0.3-0.3-0.3-0.6c0-0.1,0-0.1,0-0.2c0-0.1,0-0.1,0.1-0.2c0.2,0.2,0.4,0.3,0.6,0.4
							c0.2,0.1,0.4,0.1,0.7,0.1c0.3,0,0.5-0.1,0.6-0.2c0.1-0.1,0.2-0.2,0.2-0.4c0-0.1,0-0.2,0-0.2c0-0.1-0.1-0.1-0.1-0.2
							c-0.1-0.1-0.2-0.1-0.3-0.2c-0.1-0.1-0.2-0.1-0.4-0.2l-0.5-0.2c-0.3-0.1-0.5-0.3-0.6-0.5c-0.1-0.2-0.2-0.4-0.2-0.7
							c0-0.2,0-0.4,0.1-0.5c0.1-0.2,0.2-0.3,0.3-0.4c0.1-0.1,0.3-0.2,0.5-0.3c0.2-0.1,0.4-0.1,0.7-0.1c0.2,0,0.3,0,0.5,0
							c0.1,0,0.2,0.1,0.3,0.1c0.1,0,0.1,0.1,0.2,0.2c0,0.1,0,0.2,0,0.2c0,0.1,0,0.1,0,0.2c0,0.1,0,0.1,0,0.2
							c-0.1-0.1-0.3-0.2-0.5-0.3c-0.2-0.1-0.4-0.1-0.5-0.1c-0.1,0-0.3,0-0.4,0c-0.1,0-0.2,0.1-0.3,0.1c-0.1,0.1-0.1,0.1-0.2,0.2
							c0,0.1,0,0.1,0,0.2c0,0.1,0,0.2,0,0.2c0,0.1,0.1,0.1,0.1,0.2c0.1,0.1,0.1,0.1,0.2,0.2c0.1,0.1,0.2,0.1,0.4,0.2l0.5,0.2
							c0.2,0.1,0.3,0.1,0.4,0.2c0.1,0.1,0.2,0.2,0.3,0.3c0.1,0.1,0.1,0.2,0.2,0.3c0,0.1,0,0.2,0,0.4
							C141.6,75.2,141.6,75.4,141.5,75.6"/>
					</g>
					<g class="st3">
						<path class="st0" d="M146.2,72.5c-0.2,0-0.3-0.1-0.5-0.1c-0.2,0-0.3,0-0.5,0l0,0c0.1,0.1,0.1,0.1,0.2,0.2
							c0.1,0.1,0.1,0.2,0.2,0.2c0,0.1,0.1,0.2,0.1,0.3c0,0.1,0,0.2,0,0.3c0,0.3-0.1,0.5-0.2,0.7c-0.1,0.2-0.2,0.4-0.4,0.6
							c-0.2,0.2-0.4,0.3-0.6,0.4c-0.2,0.1-0.5,0.1-0.7,0.1c-0.1,0-0.2,0-0.3,0c-0.1,0-0.2,0-0.3-0.1c0,0-0.1,0-0.1,0.1
							c0,0-0.1,0.1-0.1,0.1c0,0,0,0.1-0.1,0.1c0,0,0,0.1,0,0.1c0,0.1,0.1,0.2,0.2,0.3c0.1,0.1,0.2,0.1,0.4,0.1l1.3,0
							c0.4,0,0.7,0.1,0.9,0.2c0.2,0.2,0.3,0.4,0.3,0.8c0,0.2-0.1,0.4-0.2,0.6c-0.1,0.2-0.3,0.4-0.5,0.5c-0.2,0.1-0.4,0.3-0.7,0.3
							c-0.3,0.1-0.6,0.1-0.9,0.1c-0.3,0-0.5,0-0.8-0.1c-0.2-0.1-0.4-0.1-0.6-0.2c-0.2-0.1-0.3-0.2-0.3-0.3c-0.1-0.1-0.1-0.3-0.1-0.4
							c0-0.1,0-0.2,0.1-0.4c0-0.1,0.1-0.2,0.2-0.3c0.1-0.1,0.2-0.2,0.3-0.2c0.1-0.1,0.2-0.1,0.4-0.1l0,0c-0.2-0.1-0.3-0.1-0.4-0.3
							c-0.1-0.1-0.1-0.3-0.1-0.4c0-0.1,0-0.2,0.1-0.3c0-0.1,0.1-0.2,0.1-0.2c0.1-0.1,0.1-0.1,0.2-0.2c0.1-0.1,0.2-0.1,0.3-0.1l0,0
							c-0.1,0-0.2-0.1-0.3-0.2c-0.1-0.1-0.2-0.2-0.3-0.3c-0.1-0.1-0.1-0.2-0.2-0.4c0-0.1-0.1-0.3-0.1-0.4c0-0.3,0.1-0.5,0.1-0.7
							c0.1-0.2,0.2-0.4,0.4-0.6c0.2-0.2,0.4-0.3,0.6-0.4c0.2-0.1,0.5-0.1,0.7-0.1c0.1,0,0.2,0,0.3,0c0.1,0,0.2,0,0.3,0.1
							c0.1,0,0.2,0.1,0.3,0.1c0.1,0,0.1,0.1,0.2,0.1c0,0,0.1-0.1,0.2-0.1c0.1,0,0.1-0.1,0.2-0.1c0.1,0,0.2,0,0.2-0.1
							c0.1,0,0.2,0,0.2,0c0.1,0,0.2,0,0.2,0c0.1,0,0.1,0,0.2,0L146.2,72.5z M145.3,76.8c-0.1-0.1-0.3-0.1-0.5-0.1l-1.5,0
							c-0.1,0-0.1,0.1-0.2,0.1c-0.1,0.1-0.1,0.1-0.2,0.2c0,0.1-0.1,0.1-0.1,0.2c0,0.1,0,0.2,0,0.2c0,0.1,0,0.2,0.1,0.3
							c0.1,0.1,0.1,0.2,0.2,0.2c0.1,0.1,0.2,0.1,0.4,0.2c0.1,0,0.3,0.1,0.5,0.1c0.2,0,0.4,0,0.6-0.1c0.2-0.1,0.3-0.1,0.5-0.2
							c0.1-0.1,0.2-0.2,0.3-0.3c0.1-0.1,0.1-0.2,0.1-0.3C145.4,77,145.4,76.9,145.3,76.8 M144.9,72.9c0-0.1-0.1-0.3-0.2-0.4
							c-0.1-0.1-0.2-0.2-0.3-0.2c-0.1,0-0.2-0.1-0.4-0.1c-0.1,0-0.3,0-0.4,0.1c-0.1,0.1-0.2,0.2-0.3,0.3c-0.1,0.1-0.2,0.2-0.2,0.4
							c0,0.2-0.1,0.3-0.1,0.5c0,0.2,0,0.4,0.1,0.5c0,0.1,0.1,0.3,0.2,0.4c0.1,0.1,0.2,0.2,0.3,0.2c0.1,0,0.2,0.1,0.3,0.1
							c0.1,0,0.3,0,0.4-0.1c0.1-0.1,0.2-0.1,0.3-0.2c0.1-0.1,0.2-0.3,0.2-0.4c0.1-0.2,0.1-0.4,0.1-0.6
							C144.9,73.2,144.9,73.1,144.9,72.9"/>
					</g>
					<g class="st3">
						<path class="st0" d="M150.1,74.1l-2.7,0c0,0.3,0,0.5,0.1,0.7c0.1,0.2,0.2,0.4,0.3,0.5c0.1,0.1,0.3,0.3,0.4,0.3
							c0.2,0.1,0.3,0.1,0.5,0.1c0.1,0,0.2,0,0.3,0c0.1,0,0.2,0,0.3-0.1c0.1,0,0.2-0.1,0.3-0.1c0.1-0.1,0.2-0.1,0.3-0.2
							c0,0,0,0.1,0,0.1c0,0,0,0.1,0,0.1c0,0.1,0,0.2-0.1,0.3c-0.1,0.1-0.2,0.2-0.3,0.3c-0.1,0.1-0.3,0.1-0.5,0.2
							c-0.2,0-0.4,0.1-0.7,0.1c-0.3,0-0.5,0-0.7-0.2c-0.2-0.1-0.4-0.2-0.6-0.4c-0.2-0.2-0.3-0.4-0.4-0.7c-0.1-0.3-0.1-0.6-0.1-0.9
							c0-0.4,0.1-0.8,0.2-1.1c0.1-0.3,0.3-0.6,0.4-0.8c0.2-0.2,0.4-0.4,0.6-0.5c0.2-0.1,0.5-0.2,0.7-0.2c0.2,0,0.5,0,0.7,0.1
							c0.2,0.1,0.4,0.2,0.5,0.3c0.1,0.2,0.2,0.3,0.3,0.5c0.1,0.2,0.1,0.5,0.1,0.7l0,0.3C150.1,73.9,150.1,74,150.1,74.1 M149.3,73.1
							c0-0.2-0.1-0.3-0.2-0.4c-0.1-0.1-0.2-0.2-0.3-0.2c-0.1-0.1-0.2-0.1-0.4-0.1c-0.1,0-0.2,0-0.4,0.1c-0.1,0.1-0.2,0.2-0.3,0.3
							c-0.1,0.1-0.2,0.3-0.2,0.4c-0.1,0.2-0.1,0.3-0.1,0.5l2,0C149.4,73.4,149.4,73.2,149.3,73.1"/>
					</g>
					<g class="st3">
						<path class="st0" d="M153.9,76.3l-3.2,0l-0.1-0.1l2.3-3.7l-1.1,0c-0.2,0-0.3,0-0.4,0.1c-0.1,0.1-0.2,0.2-0.2,0.3l-0.1,0.2
							l-0.3,0l0.1-1.2l3,0l0.1,0.2l-2.3,3.7l1.1,0c0.1,0,0.2,0,0.3,0c0.1,0,0.2,0,0.2-0.1c0.1,0,0.1-0.1,0.1-0.1
							c0,0,0.1-0.1,0.1-0.2l0.1-0.3l0.2,0L153.9,76.3z"/>
					</g>
					<g class="st3">
						<path class="st0" d="M158.5,75c-0.1,0.3-0.3,0.6-0.5,0.8c-0.2,0.2-0.4,0.4-0.7,0.5c-0.3,0.1-0.5,0.2-0.8,0.2
							c-0.3,0-0.5,0-0.8-0.1c-0.2-0.1-0.5-0.2-0.7-0.4c-0.2-0.2-0.3-0.4-0.4-0.7c-0.1-0.3-0.2-0.6-0.2-0.9c0-0.4,0.1-0.7,0.2-1
							c0.1-0.3,0.3-0.6,0.5-0.8c0.2-0.2,0.4-0.4,0.7-0.5c0.3-0.1,0.5-0.2,0.8-0.2c0.3,0,0.5,0.1,0.8,0.2c0.2,0.1,0.5,0.2,0.6,0.4
							c0.2,0.2,0.3,0.4,0.4,0.7c0.1,0.3,0.2,0.6,0.2,0.9C158.7,74.3,158.7,74.7,158.5,75 M157.8,73.3c-0.1-0.2-0.2-0.4-0.3-0.5
							c-0.1-0.1-0.2-0.3-0.4-0.3c-0.1-0.1-0.3-0.1-0.5-0.1c-0.2,0-0.3,0-0.5,0.1c-0.2,0.1-0.3,0.2-0.4,0.4c-0.1,0.2-0.2,0.4-0.3,0.6
							c-0.1,0.2-0.1,0.5-0.1,0.8c0,0.3,0,0.5,0.1,0.7c0.1,0.2,0.2,0.4,0.3,0.5c0.1,0.1,0.3,0.3,0.4,0.3c0.1,0.1,0.3,0.1,0.5,0.1
							c0.2,0,0.3,0,0.5-0.1c0.1-0.1,0.3-0.2,0.4-0.4c0.1-0.1,0.2-0.3,0.3-0.6c0.1-0.2,0.1-0.5,0.1-0.8
							C157.9,73.8,157.8,73.5,157.8,73.3"/>
					</g>
					<g class="st3">
						<path class="st0" d="M162.8,76.4c-0.1,0-0.2,0-0.3,0c-0.1,0-0.2,0-0.3-0.1l0-0.2c0.1-0.1,0.2-0.1,0.2-0.2
							c0.1-0.1,0.1-0.2,0.1-0.4l0-1.8c0-0.2,0-0.4-0.1-0.6c0-0.2-0.1-0.3-0.2-0.4c-0.1-0.1-0.2-0.2-0.3-0.2c-0.1,0-0.2-0.1-0.4-0.1
							c-0.2,0-0.4,0-0.5,0.1c-0.2,0.1-0.3,0.1-0.4,0.2l0,3.1l0.5,0.1l0,0.2c-0.1,0-0.2,0.1-0.2,0.1c-0.1,0-0.2,0-0.2,0
							c-0.1,0-0.2,0-0.3,0c-0.1,0-0.2,0-0.3,0c-0.1,0-0.2,0-0.4,0c-0.1,0-0.2,0-0.3-0.1l0-0.2c0.1,0,0.1,0,0.2-0.1
							c0.1,0,0.1-0.1,0.2-0.1c0,0,0.1-0.1,0.1-0.1c0,0,0-0.1,0-0.2l0-3.1l-0.6-0.3l0-0.2c0.2-0.1,0.4-0.1,0.6-0.1c0.2,0,0.4,0,0.5,0
							l0.2,0l0,0.5c0.1-0.2,0.4-0.3,0.6-0.4c0.2-0.1,0.5-0.1,0.8-0.1c0.2,0,0.4,0,0.5,0.1c0.2,0.1,0.3,0.2,0.4,0.3
							c0.1,0.1,0.2,0.3,0.3,0.4c0.1,0.2,0.1,0.4,0.1,0.6l0,2.6l0.5,0.1l0,0.2C163.5,76.3,163.2,76.4,162.8,76.4"/>
					</g>
					<g class="st3">
						<path class="st0" d="M168.1,76.2c-0.1,0.1-0.2,0.1-0.4,0.2c-0.1-0.1-0.2-0.2-0.3-0.3c-0.1-0.1-0.1-0.2-0.2-0.3
							c-0.1,0.1-0.2,0.1-0.3,0.2c-0.1,0.1-0.2,0.1-0.3,0.2c-0.1,0-0.2,0.1-0.3,0.1c-0.1,0-0.2,0-0.3,0c-0.2,0-0.5,0-0.7-0.1
							c-0.2-0.1-0.4-0.2-0.5-0.4c-0.1-0.2-0.3-0.4-0.4-0.6c-0.1-0.2-0.1-0.5-0.1-0.8c0-0.4,0.1-0.8,0.2-1.1c0.1-0.3,0.3-0.6,0.5-0.8
							c0.2-0.2,0.4-0.4,0.7-0.5c0.3-0.1,0.5-0.2,0.8-0.2c0.1,0,0.2,0,0.3,0c0.1,0,0.2,0,0.3,0l0-1.6l-0.6-0.2l0-0.2
							c0.2-0.1,0.4-0.1,0.6-0.1c0.2,0,0.4,0,0.5,0l0.3,0l-0.1,0.5l0,5.3c0,0.1,0.1,0.2,0.1,0.3c0.1,0.1,0.1,0.2,0.2,0.3
							C168.3,76.1,168.2,76.2,168.1,76.2 M167.3,72.4c-0.1,0-0.2,0-0.3-0.1c-0.1,0-0.2,0-0.4,0c-0.2,0-0.4,0-0.5,0.1
							c-0.2,0.1-0.3,0.2-0.4,0.4c-0.1,0.2-0.2,0.4-0.3,0.6c-0.1,0.2-0.1,0.5-0.1,0.8c0,0.2,0,0.5,0.1,0.7c0.1,0.2,0.2,0.4,0.2,0.5
							c0.1,0.1,0.2,0.2,0.4,0.3c0.1,0.1,0.3,0.1,0.4,0.1c0.1,0,0.2,0,0.3,0c0.1,0,0.2,0,0.3-0.1c0.1,0,0.2-0.1,0.2-0.1
							c0.1,0,0.1-0.1,0.2-0.1L167.3,72.4z"/>
					</g>
					<g class="st3">
						<path class="st0" d="M173.1,76.3c-0.2,0-0.3,0-0.5,0c-0.1,0-0.2,0-0.3,0c-0.1,0-0.2,0-0.3-0.1l0-0.2c0.1-0.1,0.2-0.1,0.2-0.2
							c0.1-0.1,0.1-0.2,0.1-0.4l0-1.8c0-0.2,0-0.4-0.1-0.6c0-0.2-0.1-0.3-0.2-0.4c-0.1-0.1-0.2-0.2-0.3-0.2c-0.1,0-0.3-0.1-0.4-0.1
							c-0.1,0-0.2,0-0.3,0c-0.1,0-0.2,0-0.3,0.1c-0.1,0-0.2,0.1-0.2,0.1c-0.1,0-0.1,0.1-0.2,0.1l0,3.1l0.5,0.1l0,0.2
							c-0.1,0-0.2,0.1-0.2,0.1c-0.1,0-0.2,0-0.2,0c-0.1,0-0.2,0-0.3,0c-0.1,0-0.2,0-0.3,0c-0.1,0-0.2,0-0.3,0c-0.1,0-0.3,0-0.3-0.1
							l0-0.2c0.1,0,0.1,0,0.2-0.1c0.1,0,0.1-0.1,0.2-0.1c0,0,0.1-0.1,0.1-0.1c0,0,0-0.1,0-0.2l0-5.4L169,70l0-0.2
							c0.2-0.1,0.4-0.1,0.6-0.1c0.2,0,0.4,0,0.5,0l0.3,0l0,0.5l0,2.2c0.2-0.2,0.4-0.3,0.6-0.4c0.2-0.1,0.5-0.1,0.8-0.1
							c0.2,0,0.4,0,0.5,0.1c0.2,0.1,0.3,0.2,0.4,0.3c0.1,0.1,0.2,0.3,0.3,0.4c0.1,0.2,0.1,0.4,0.1,0.6l0,2.6l0.5,0.1l0,0.2
							C173.4,76.3,173.2,76.3,173.1,76.3"/>
					</g>
					<g class="st3">
						<path class="st0" d="M177.6,74.1l-2.7,0c0,0.3,0,0.5,0.1,0.7c0.1,0.2,0.2,0.4,0.3,0.5c0.1,0.1,0.3,0.2,0.4,0.3
							c0.2,0.1,0.3,0.1,0.5,0.1c0.1,0,0.2,0,0.3,0c0.1,0,0.2,0,0.3-0.1c0.1,0,0.2-0.1,0.3-0.1c0.1-0.1,0.2-0.1,0.3-0.2
							c0,0,0,0.1,0,0.1c0,0,0,0.1,0,0.1c0,0.1,0,0.2-0.1,0.3c-0.1,0.1-0.2,0.2-0.3,0.3c-0.1,0.1-0.3,0.1-0.5,0.2
							c-0.2,0-0.4,0.1-0.7,0.1c-0.3,0-0.5,0-0.7-0.2c-0.2-0.1-0.4-0.2-0.6-0.4c-0.2-0.2-0.3-0.4-0.4-0.7c-0.1-0.3-0.1-0.6-0.1-0.9
							c0-0.4,0.1-0.8,0.2-1.1c0.1-0.3,0.3-0.6,0.4-0.8c0.2-0.2,0.4-0.4,0.6-0.5c0.2-0.1,0.5-0.2,0.7-0.2c0.2,0,0.5,0,0.7,0.1
							c0.2,0.1,0.4,0.2,0.5,0.3c0.1,0.2,0.2,0.3,0.3,0.5c0.1,0.2,0.1,0.5,0.1,0.7v0.3C177.6,73.9,177.6,74,177.6,74.1 M176.8,73.1
							c0-0.2-0.1-0.3-0.2-0.4c-0.1-0.1-0.2-0.2-0.3-0.2c-0.1-0.1-0.2-0.1-0.4-0.1c-0.1,0-0.2,0-0.4,0.1c-0.1,0.1-0.2,0.2-0.3,0.3
							c-0.1,0.1-0.2,0.3-0.2,0.4c-0.1,0.2-0.1,0.3-0.1,0.5l2,0C176.9,73.4,176.9,73.2,176.8,73.1"/>
					</g>
					<g class="st3">
						<path class="st0" d="M179.9,76.3c-0.1,0-0.2,0-0.2,0c-0.1,0-0.2,0-0.3,0c-0.1,0-0.2,0-0.3,0c-0.1,0-0.2,0-0.3,0
							c-0.1,0-0.2,0-0.4-0.1l0-0.2c0.1,0,0.1,0,0.2-0.1c0.1,0,0.1-0.1,0.2-0.1c0,0,0.1-0.1,0.1-0.1c0,0,0-0.1,0-0.2l0-3.1l-0.6-0.2
							l0-0.2c0.2-0.1,0.4-0.1,0.6-0.1c0.2,0,0.4,0,0.5,0l0.3,0l0,0.5l0,3.5l0.5,0.1l0,0.2C180,76.2,180,76.3,179.9,76.3 M179.7,70.7
							c0,0.1-0.1,0.1-0.1,0.2c0,0.1-0.1,0.1-0.2,0.1c-0.1,0-0.1,0-0.2,0c-0.1,0-0.1,0-0.2,0c-0.1,0-0.1-0.1-0.2-0.1
							c0,0-0.1-0.1-0.1-0.2c0-0.1,0-0.1,0-0.2c0-0.1,0-0.1,0-0.2c0-0.1,0.1-0.1,0.1-0.2c0-0.1,0.1-0.1,0.2-0.1c0.1,0,0.1,0,0.2,0
							c0.1,0,0.1,0,0.2,0c0.1,0,0.1,0.1,0.2,0.1c0,0,0.1,0.1,0.1,0.2c0,0.1,0,0.1,0,0.2C179.8,70.5,179.7,70.6,179.7,70.7"/>
					</g>
					<g class="st3">
						<path class="st0" d="M184.4,76.2c-0.1,0.1-0.2,0.1-0.4,0.2c-0.1-0.1-0.2-0.2-0.3-0.3c-0.1-0.1-0.1-0.2-0.2-0.3
							c-0.1,0.1-0.2,0.1-0.3,0.2c-0.1,0.1-0.2,0.1-0.3,0.2c-0.1,0-0.2,0.1-0.3,0.1c-0.1,0-0.2,0-0.3,0c-0.2,0-0.5,0-0.7-0.1
							c-0.2-0.1-0.4-0.2-0.5-0.4c-0.1-0.2-0.3-0.4-0.4-0.6c-0.1-0.2-0.1-0.5-0.1-0.8c0-0.4,0.1-0.8,0.2-1.1c0.1-0.3,0.3-0.6,0.5-0.8
							c0.2-0.2,0.4-0.4,0.7-0.5c0.3-0.1,0.5-0.2,0.9-0.2c0.1,0,0.2,0,0.3,0c0.1,0,0.2,0,0.3,0l0-1.6L183,70l0-0.2
							c0.2-0.1,0.4-0.1,0.6-0.1c0.2,0,0.4,0,0.5,0l0.3,0l-0.1,0.5l0,5.3c0,0.1,0.1,0.2,0.1,0.3c0.1,0.1,0.1,0.2,0.2,0.3
							C184.6,76.1,184.5,76.2,184.4,76.2 M183.6,72.4c-0.1,0-0.2,0-0.3-0.1c-0.1,0-0.2,0-0.4,0c-0.2,0-0.4,0-0.5,0.1
							c-0.2,0.1-0.3,0.2-0.4,0.4c-0.1,0.2-0.2,0.4-0.3,0.6c-0.1,0.2-0.1,0.5-0.1,0.8c0,0.2,0,0.5,0.1,0.7c0.1,0.2,0.1,0.4,0.2,0.5
							c0.1,0.1,0.2,0.2,0.4,0.3c0.1,0.1,0.3,0.1,0.4,0.1c0.1,0,0.2,0,0.3,0c0.1,0,0.2,0,0.3-0.1c0.1,0,0.2-0.1,0.2-0.1
							c0.1,0,0.1-0.1,0.2-0.1L183.6,72.4z"/>
					</g>
					<g class="st3">
						<path class="st0" d="M55.5,84.6l-2.7,0c0,0.3,0,0.5,0.1,0.7c0.1,0.2,0.2,0.4,0.3,0.5c0.1,0.1,0.3,0.2,0.4,0.3
							c0.2,0.1,0.3,0.1,0.5,0.1c0.1,0,0.2,0,0.3,0c0.1,0,0.2,0,0.3-0.1c0.1,0,0.2-0.1,0.3-0.1c0.1-0.1,0.2-0.1,0.3-0.2
							c0,0,0,0.1,0,0.1c0,0,0,0.1,0,0.1c0,0.1,0,0.2-0.1,0.3c-0.1,0.1-0.2,0.2-0.3,0.3c-0.1,0.1-0.3,0.1-0.5,0.2
							c-0.2,0-0.4,0.1-0.7,0.1c-0.3,0-0.5,0-0.7-0.1c-0.2-0.1-0.4-0.2-0.6-0.4c-0.2-0.2-0.3-0.4-0.4-0.7C52,85.4,52,85.1,52,84.7
							c0-0.4,0.1-0.8,0.2-1.1c0.1-0.3,0.3-0.6,0.4-0.8c0.2-0.2,0.4-0.4,0.6-0.5c0.2-0.1,0.5-0.2,0.7-0.2c0.2,0,0.5,0,0.7,0.1
							c0.2,0.1,0.4,0.2,0.5,0.3c0.1,0.2,0.2,0.3,0.3,0.5c0.1,0.2,0.1,0.5,0.1,0.7l0,0.3C55.5,84.3,55.5,84.5,55.5,84.6 M54.7,83.5
							c0-0.2-0.1-0.3-0.2-0.4c-0.1-0.1-0.2-0.2-0.3-0.3c-0.1-0.1-0.2-0.1-0.4-0.1c-0.1,0-0.2,0-0.4,0.1c-0.1,0.1-0.2,0.2-0.3,0.3
							c-0.1,0.1-0.2,0.3-0.2,0.4c-0.1,0.2-0.1,0.3-0.1,0.5l2,0C54.8,83.9,54.7,83.7,54.7,83.5"/>
					</g>
					<g class="st3">
						<path class="st0" d="M59.6,86.8c-0.1,0-0.2,0-0.3,0c-0.1,0-0.2,0-0.3-0.1l0-0.2c0.1-0.1,0.2-0.1,0.2-0.2
							c0.1-0.1,0.1-0.2,0.1-0.4l0-1.8c0-0.2,0-0.4-0.1-0.6c0-0.2-0.1-0.3-0.2-0.4C59,83.1,58.9,83,58.8,83c-0.1,0-0.2-0.1-0.4-0.1
							c-0.2,0-0.4,0-0.5,0.1c-0.2,0.1-0.3,0.1-0.4,0.2l0,3.1l0.5,0.1l0,0.2c-0.1,0-0.2,0.1-0.2,0.1c-0.1,0-0.2,0-0.2,0
							c-0.1,0-0.2,0-0.3,0c-0.1,0-0.2,0-0.3,0c-0.1,0-0.2,0-0.4,0c-0.1,0-0.2,0-0.3-0.1l0-0.2c0.1,0,0.1,0,0.2-0.1
							c0.1,0,0.1-0.1,0.2-0.1c0,0,0.1-0.1,0.1-0.1c0,0,0-0.1,0-0.2l0-3.1l-0.6-0.2l0-0.2c0.2-0.1,0.4-0.1,0.6-0.1c0.2,0,0.4,0,0.5,0
							l0.2,0l0,0.5c0.2-0.2,0.4-0.3,0.6-0.4c0.2-0.1,0.5-0.1,0.8-0.1c0.2,0,0.4,0,0.5,0.1c0.2,0.1,0.3,0.2,0.4,0.3
							c0.1,0.1,0.2,0.3,0.3,0.4c0.1,0.2,0.1,0.4,0.1,0.6l0,2.6l0.5,0.1l0,0.2C60.3,86.7,60,86.8,59.6,86.8"/>
					</g>
					<g class="st3">
						<path class="st0" d="M69.2,86.8c-0.2,0-0.3,0-0.5,0c-0.1,0-0.2,0-0.3,0c-0.1,0-0.2,0-0.2,0c-0.1,0-0.2,0-0.2,0
							c-0.1,0-0.2,0-0.2,0l0-0.2c0.4-0.1,0.6-0.3,0.5-0.7L68,81.6l0,0l-1.6,5.1l-0.4,0l-1.7-5.2l0,0L64,86.3l0.6,0.2l0,0.2
							c-0.1,0-0.2,0.1-0.3,0.1c-0.1,0-0.2,0-0.2,0c-0.1,0-0.2,0-0.3,0c-0.1,0-0.2,0-0.3,0c-0.1,0-0.2,0-0.3,0c-0.1,0-0.3,0-0.4-0.1
							l0-0.2c0.2-0.1,0.3-0.1,0.4-0.2c0.1-0.1,0.1-0.2,0.2-0.3l0.4-4.7l-0.5-0.2l0-0.3c0.1,0,0.2,0,0.3,0c0.1,0,0.2,0,0.3,0
							c0.1,0,0.2,0,0.3,0l0.3,0l0.3,0l1.5,4.5l0,0l1.4-4.5h0.4c0.2,0,0.3,0,0.5,0c0.2,0,0.4,0,0.6,0.1l0,0.3l-0.6,0.1l0.4,5.1
							l0.5,0.1l0,0.2C69.5,86.7,69.4,86.7,69.2,86.8"/>
					</g>
					<g class="st3">
						<path class="st0" d="M71.8,86.7c-0.1,0-0.2,0-0.2,0c-0.1,0-0.2,0-0.3,0c-0.1,0-0.2,0-0.3,0c-0.1,0-0.2,0-0.3,0
							c-0.1,0-0.2,0-0.4-0.1l0-0.2c0.1,0,0.1,0,0.2-0.1c0.1,0,0.1-0.1,0.2-0.1c0,0,0.1-0.1,0.1-0.1c0,0,0-0.1,0-0.2l0-3.1l-0.6-0.3
							l0-0.2c0.2-0.1,0.4-0.1,0.6-0.1c0.2,0,0.4,0,0.5,0l0.3,0l0,0.5l0,3.5l0.5,0.1v0.2C72,86.7,71.9,86.7,71.8,86.7 M71.6,81.1
							c0,0.1-0.1,0.1-0.1,0.2c0,0.1-0.1,0.1-0.2,0.1c-0.1,0-0.1,0-0.2,0c-0.1,0-0.1,0-0.2,0c-0.1,0-0.1-0.1-0.2-0.1
							c0,0-0.1-0.1-0.1-0.2c0-0.1,0-0.1,0-0.2c0-0.1,0-0.1,0-0.2c0-0.1,0.1-0.1,0.1-0.2c0-0.1,0.1-0.1,0.2-0.1c0.1,0,0.1,0,0.2,0
							c0.1,0,0.1,0,0.2,0c0.1,0,0.1,0.1,0.2,0.1c0,0,0.1,0.1,0.1,0.2c0,0.1,0,0.1,0,0.2C71.7,81,71.7,81,71.6,81.1"/>
					</g>
					<g class="st3">
						<path class="st0" d="M74.2,86.7c-0.1,0-0.2,0-0.2,0c-0.1,0-0.2,0-0.3,0c-0.1,0-0.2,0-0.3,0c-0.1,0-0.2,0-0.4,0
							c-0.1,0-0.2,0-0.3-0.1l0-0.2c0.1,0,0.1,0,0.2-0.1c0.1,0,0.1-0.1,0.2-0.1c0,0,0.1-0.1,0.1-0.1c0,0,0-0.1,0-0.2l0-5.4l-0.6-0.3
							l0-0.2c0.1,0,0.2-0.1,0.3-0.1c0.1,0,0.2,0,0.3-0.1c0.1,0,0.2,0,0.3,0c0.1,0,0.2,0,0.2,0l0.3,0l0,0.5l0,5.7l0.5,0.1l0,0.2
							C74.4,86.7,74.3,86.7,74.2,86.7"/>
					</g>
					<g class="st3">
						<path class="st0" d="M76.7,86.7c-0.1,0-0.2,0-0.2,0c-0.1,0-0.2,0-0.3,0c-0.1,0-0.2,0-0.3,0c-0.1,0-0.2,0-0.3,0
							c-0.1,0-0.2,0-0.4-0.1l0-0.2c0.1,0,0.1,0,0.2-0.1c0.1,0,0.1-0.1,0.2-0.1c0,0,0.1-0.1,0.1-0.1c0,0,0-0.1,0-0.2l0-3.1L75,82.7
							l0-0.2c0.2-0.1,0.4-0.1,0.6-0.1c0.2,0,0.4,0,0.5,0l0.3,0l0,0.5l0,3.5l0.5,0.1v0.2C76.8,86.7,76.7,86.7,76.7,86.7 M76.5,81.1
							c0,0.1-0.1,0.1-0.1,0.2c0,0.1-0.1,0.1-0.2,0.1c-0.1,0-0.1,0-0.2,0c-0.1,0-0.1,0-0.2,0c-0.1,0-0.1-0.1-0.2-0.1
							c0,0-0.1-0.1-0.1-0.2c0-0.1,0-0.1,0-0.2c0-0.1,0-0.1,0-0.2c0-0.1,0.1-0.1,0.1-0.2c0-0.1,0.1-0.1,0.2-0.1c0.1,0,0.1,0,0.2,0
							c0.1,0,0.1,0,0.2,0c0.1,0,0.1,0.1,0.2,0.1c0,0,0.1,0.1,0.1,0.2c0,0.1,0,0.1,0,0.2C76.5,81,76.5,81,76.5,81.1"/>
					</g>
					<g class="st3">
						<path class="st0" d="M81,84.6l-2.7,0c0,0.3,0,0.5,0.1,0.7c0.1,0.2,0.2,0.4,0.3,0.5c0.1,0.1,0.3,0.2,0.4,0.3
							c0.2,0.1,0.3,0.1,0.5,0.1c0.1,0,0.2,0,0.3,0c0.1,0,0.2,0,0.3-0.1c0.1,0,0.2-0.1,0.3-0.1c0.1-0.1,0.2-0.1,0.3-0.2
							c0,0,0,0.1,0,0.1c0,0,0,0.1,0,0.1c0,0.1,0,0.2-0.1,0.3c-0.1,0.1-0.2,0.2-0.3,0.3c-0.1,0.1-0.3,0.1-0.5,0.2
							c-0.2,0-0.4,0.1-0.7,0.1c-0.3,0-0.5,0-0.7-0.1c-0.2-0.1-0.4-0.2-0.6-0.4c-0.2-0.2-0.3-0.4-0.4-0.7c-0.1-0.3-0.1-0.6-0.1-0.9
							c0-0.4,0.1-0.8,0.2-1.1c0.1-0.3,0.3-0.6,0.4-0.8c0.2-0.2,0.4-0.4,0.6-0.5c0.2-0.1,0.5-0.2,0.7-0.2c0.2,0,0.5,0,0.7,0.1
							c0.2,0.1,0.4,0.2,0.5,0.3c0.1,0.2,0.2,0.3,0.3,0.5c0.1,0.2,0.1,0.5,0.1,0.7l0,0.3C81.1,84.4,81.1,84.5,81,84.6 M80.2,83.5
							c0-0.2-0.1-0.3-0.2-0.4c-0.1-0.1-0.2-0.2-0.3-0.3c-0.1-0.1-0.2-0.1-0.4-0.1c-0.1,0-0.2,0-0.4,0.1c-0.1,0.1-0.2,0.2-0.3,0.3
							c-0.1,0.1-0.2,0.3-0.2,0.4c-0.1,0.2-0.1,0.3-0.1,0.5l2,0C80.3,83.9,80.3,83.7,80.2,83.5"/>
					</g>
					<g class="st3">
						<path class="st0" d="M85.7,86.5c0,0-0.1,0.1-0.2,0.1c-0.1,0-0.1,0.1-0.2,0.1c-0.1,0-0.1,0.1-0.2,0.1c-0.1-0.1-0.2-0.1-0.3-0.2
							c-0.1-0.1-0.1-0.2-0.2-0.3c-0.1,0.1-0.1,0.1-0.2,0.2c-0.1,0.1-0.2,0.1-0.3,0.2c-0.1,0-0.2,0.1-0.4,0.1c-0.1,0-0.3,0-0.4,0
							c-0.2,0-0.4,0-0.5-0.1c-0.2-0.1-0.3-0.1-0.4-0.3c-0.1-0.1-0.2-0.3-0.3-0.5c-0.1-0.2-0.1-0.4-0.1-0.7l0-2.4l-0.5-0.3l0-0.2
							c0.2-0.1,0.4-0.1,0.6-0.1c0.2,0,0.3,0,0.5,0l0.3,0l-0.1,0.5l0,2.1c0,0.2,0,0.5,0.1,0.6c0,0.2,0.1,0.3,0.2,0.4
							c0.1,0.1,0.2,0.2,0.3,0.2c0.1,0,0.2,0.1,0.4,0.1c0.1,0,0.2,0,0.3,0c0.1,0,0.2,0,0.2-0.1c0.1,0,0.1-0.1,0.2-0.1
							c0.1,0,0.1-0.1,0.2-0.1l0-3l-0.5-0.3l0-0.2c0.2-0.1,0.4-0.1,0.6-0.1c0.2,0,0.3,0,0.5,0l0.3,0l-0.1,0.5l0,3.1
							c0,0.1,0.1,0.2,0.2,0.2c0.1,0.1,0.1,0.2,0.2,0.2C85.8,86.5,85.8,86.5,85.7,86.5"/>
					</g>
					<g class="st3">
						<path class="st0" d="M52.8,97.2c-0.1,0-0.3,0-0.4,0c-0.1,0-0.2,0-0.3,0c-0.1,0-0.2,0-0.3-0.1l0-0.2c0.1,0,0.2-0.1,0.2-0.1
							c0.1-0.1,0.1-0.1,0.1-0.2l1.2-5l-0.5-0.1l0-0.2c0.1,0,0.1,0,0.2,0c0.1,0,0.2,0,0.3,0c0.1,0,0.2,0,0.3,0c0.1,0,0.2,0,0.2,0
							l0.3,0l0.8,4.4l0,0l1.5-4.4l0.2,0l0.2,0c0.1,0,0.2,0,0.2,0c0.1,0,0.2,0,0.2,0c0.1,0,0.2,0,0.2,0l0,0.2l-0.4,0.1l0.2,5.1
							l0.5,0.1l0,0.2c-0.1,0-0.3,0.1-0.4,0.1c-0.1,0-0.2,0-0.4,0c-0.2,0-0.3,0-0.5,0c-0.1,0-0.2,0-0.3-0.1l0-0.2
							c0.1,0,0.2-0.1,0.2-0.2c0.1-0.1,0.1-0.2,0.1-0.3l-0.1-4.1l0,0l-1.7,4.9l-0.3,0l-0.9-4.8l0,0l-0.9,4.4l0.5,0.1l0,0.2
							C53.1,97.2,52.9,97.2,52.8,97.2"/>
					</g>
					<g class="st3">
						<path class="st0" d="M58.5,97.1c-0.1-0.1-0.1-0.2-0.1-0.3c0-0.1,0-0.1,0-0.2c0-0.1,0-0.2,0-0.3c0-0.1,0-0.2,0-0.3
							c0-0.1,0-0.2,0-0.3l0.3-1.9l0-0.5L58.3,93l0-0.2c0.1-0.1,0.3-0.1,0.5-0.1c0.2,0,0.3,0,0.5,0c0.1,0,0.2,0,0.2,0
							c0.1,0,0.1,0,0.2,0l-0.4,2.7c0,0.1,0,0.1,0,0.2c0,0.1,0,0.2,0,0.3c0,0.1,0,0.2,0,0.3l0,0.2c0,0.2,0,0.3,0.1,0.3
							c0.1,0.1,0.2,0.1,0.3,0.2l0,0.2c-0.1,0-0.2,0.1-0.3,0.1c-0.1,0-0.2,0-0.4,0C58.7,97.3,58.6,97.2,58.5,97.1 M59.9,91.4
							c0,0.1-0.1,0.1-0.1,0.2c-0.1,0-0.1,0.1-0.2,0.1c-0.1,0-0.1,0-0.2,0c-0.1,0-0.2,0-0.3-0.1C59,91.6,59,91.5,59,91.3
							c0-0.1,0-0.1,0-0.2c0-0.1,0.1-0.1,0.1-0.2c0-0.1,0.1-0.1,0.2-0.1c0.1,0,0.1,0,0.2,0c0.1,0,0.2,0,0.3,0.1
							c0.1,0.1,0.1,0.2,0.1,0.3C59.9,91.3,59.9,91.4,59.9,91.4"/>
					</g>
					<g class="st3">
						<path class="st0" d="M63.8,93.8c0,0.1,0,0.2,0,0.3c0,0.1,0,0.2,0,0.3c0,0.1,0,0.2,0,0.3l-0.2,1c0,0.1,0,0.1,0,0.2
							c0,0.1,0,0.1,0,0.2c0,0.1,0,0.1,0,0.2c0,0.1,0,0.1,0,0.2c0,0.2,0,0.3,0.1,0.3c0.1,0.1,0.2,0.1,0.3,0.2l0,0.2
							c-0.1,0.1-0.2,0.1-0.3,0.1c-0.1,0-0.2,0-0.4,0c-0.2,0-0.3,0-0.3-0.1c-0.1-0.1-0.1-0.2-0.1-0.3c0-0.1,0-0.1,0-0.2
							c0-0.1,0-0.2,0-0.3c0-0.1,0-0.2,0-0.3c0-0.1,0-0.2,0-0.3l0.2-1.1c0-0.1,0-0.1,0-0.2c0-0.1,0-0.2,0-0.2c0-0.1,0-0.2,0-0.2
							c0-0.1,0-0.1,0-0.2c0-0.1,0-0.2,0-0.3c0-0.1-0.1-0.1-0.1-0.2c0,0-0.1-0.1-0.1-0.1c0,0-0.1,0-0.2,0c-0.1,0-0.3,0.1-0.4,0.2
							c-0.1,0.1-0.3,0.3-0.4,0.5c-0.1,0.2-0.2,0.5-0.3,0.7c-0.1,0.3-0.1,0.6-0.1,0.9l-0.1,1.6l-0.8,0l0.5-4L60.4,93l0-0.2
							c0.1-0.1,0.3-0.1,0.4-0.1c0.1,0,0.3,0,0.5,0c0.1,0,0.1,0,0.2,0c0.1,0,0.1,0,0.2,0l-0.3,1.4l0,0c0.1-0.2,0.2-0.4,0.4-0.6
							c0.1-0.2,0.3-0.3,0.4-0.5c0.1-0.1,0.3-0.2,0.4-0.3c0.1-0.1,0.3-0.1,0.5-0.1c0.1,0,0.2,0,0.3,0.1c0.1,0,0.2,0.1,0.2,0.2
							c0.1,0.1,0.1,0.2,0.2,0.3c0,0.1,0.1,0.2,0.1,0.4C63.8,93.6,63.8,93.7,63.8,93.8"/>
					</g>
					<g class="st3">
						<path class="st0" d="M64.8,97.1c-0.1-0.1-0.1-0.2-0.1-0.3c0-0.1,0-0.1,0-0.2c0-0.1,0-0.2,0-0.3c0-0.1,0-0.2,0-0.3
							c0-0.1,0-0.2,0-0.3l0.3-1.9l0-0.5L64.6,93v-0.2c0.1-0.1,0.3-0.1,0.5-0.1c0.2,0,0.3,0,0.5,0c0.1,0,0.2,0,0.2,0
							c0.1,0,0.1,0,0.2,0l-0.4,2.7c0,0.1,0,0.1,0,0.2c0,0.1,0,0.2,0,0.3c0,0.1,0,0.2,0,0.3l0,0.2c0,0.2,0,0.3,0.1,0.3
							c0.1,0.1,0.2,0.1,0.3,0.2l0,0.2c-0.1,0-0.2,0.1-0.3,0.1c-0.1,0-0.2,0-0.4,0C65,97.3,64.9,97.2,64.8,97.1 M66.2,91.4
							c0,0.1-0.1,0.1-0.1,0.2c0,0-0.1,0.1-0.2,0.1c-0.1,0-0.1,0-0.2,0c-0.1,0-0.2,0-0.3-0.1c-0.1-0.1-0.1-0.2-0.1-0.3
							c0-0.1,0-0.1,0-0.2c0-0.1,0.1-0.1,0.1-0.2c0-0.1,0.1-0.1,0.2-0.1c0.1,0,0.1,0,0.2,0c0.1,0,0.2,0,0.3,0.1
							c0.1,0.1,0.1,0.2,0.1,0.3C66.2,91.3,66.2,91.4,66.2,91.4"/>
					</g>
					<g class="st3">
						<path class="st0" d="M69.1,93.4c0,0.1-0.1,0.2-0.1,0.2c-0.1-0.1-0.3-0.2-0.5-0.3c-0.2-0.1-0.4-0.1-0.5-0.1
							c-0.2,0-0.4,0-0.5,0.1c-0.1,0.1-0.2,0.2-0.2,0.4c0,0.1,0,0.1,0,0.2c0,0.1,0,0.1,0.1,0.2c0,0.1,0.1,0.1,0.2,0.2
							c0.1,0.1,0.2,0.2,0.3,0.3l0.4,0.3c0.1,0.1,0.2,0.2,0.3,0.3c0.1,0.1,0.1,0.2,0.2,0.3c0,0.1,0.1,0.2,0.1,0.2c0,0.1,0,0.2,0,0.3
							c0,0.2,0,0.3-0.1,0.5c-0.1,0.2-0.2,0.3-0.4,0.4c-0.2,0.1-0.3,0.2-0.5,0.3c-0.2,0.1-0.4,0.1-0.7,0.1c-0.3,0-0.5,0-0.6-0.1
							c-0.1-0.1-0.2-0.2-0.2-0.4c0-0.1,0-0.2,0-0.2c0-0.1,0.1-0.1,0.1-0.2c0.1,0.1,0.3,0.2,0.4,0.3c0.1,0.1,0.3,0.1,0.5,0.1
							c0.1,0,0.2,0,0.3,0c0.1,0,0.2-0.1,0.3-0.1c0.1-0.1,0.1-0.1,0.2-0.2c0-0.1,0.1-0.2,0.1-0.3c0-0.1,0-0.1,0-0.2
							c0-0.1,0-0.1-0.1-0.2c0-0.1-0.1-0.1-0.2-0.2c-0.1-0.1-0.2-0.2-0.3-0.3l-0.3-0.3c-0.1-0.1-0.2-0.2-0.3-0.3
							c-0.1-0.1-0.1-0.2-0.2-0.2c0-0.1-0.1-0.2-0.1-0.3c0-0.1,0-0.2,0-0.3c0-0.2,0-0.3,0.1-0.5c0.1-0.1,0.2-0.3,0.3-0.4
							c0.1-0.1,0.3-0.2,0.5-0.3c0.2-0.1,0.4-0.1,0.6-0.1c0.3,0,0.6,0,0.7,0.1c0.2,0.1,0.3,0.2,0.3,0.4
							C69.2,93.2,69.1,93.3,69.1,93.4"/>
					</g>
					<g class="st3">
						<path class="st0" d="M71.7,93.2c-0.1,0.1-0.3,0.1-0.6,0.1l-0.3,0l-0.2,1c0,0.1,0,0.2-0.1,0.4c0,0.1,0,0.3-0.1,0.4
							c0,0.1,0,0.3,0,0.4c0,0.1,0,0.2,0,0.3c0,0.2,0,0.3,0.1,0.4c0,0.1,0.1,0.2,0.1,0.3c0.1,0.1,0.1,0.1,0.2,0.2c0.1,0,0.2,0,0.3,0
							c0.1,0,0.1,0,0.2,0c0.1,0,0.1,0,0.2,0l0,0.2c0,0.1-0.1,0.1-0.1,0.2c-0.1,0.1-0.1,0.1-0.2,0.1c-0.1,0-0.2,0.1-0.2,0.1
							c-0.1,0-0.2,0-0.3,0c-0.3,0-0.5-0.1-0.7-0.3c-0.1-0.2-0.2-0.5-0.2-0.8c0-0.1,0-0.3,0-0.5c0-0.2,0-0.4,0.1-0.6
							c0-0.2,0.1-0.4,0.1-0.6c0-0.2,0.1-0.4,0.1-0.6l0.1-0.6c-0.1,0-0.2,0-0.3,0c-0.1,0-0.2,0-0.3,0l0-0.1c0.1-0.2,0.3-0.4,0.6-0.6
							c0.2-0.2,0.4-0.4,0.7-0.5l0.1,0l-0.2,0.8l0.3,0c0.1,0,0.2,0,0.4,0c0.1,0,0.2,0,0.4,0C71.9,92.9,71.8,93.1,71.7,93.2"/>
					</g>
					<g class="st3">
						<path class="st0" d="M74.6,96.4c0,0,0,0.1,0,0.1c0,0.1,0,0.2-0.1,0.3c-0.1,0.1-0.2,0.2-0.3,0.3c-0.1,0.1-0.3,0.1-0.4,0.2
							c-0.2,0-0.3,0.1-0.5,0.1c-0.2,0-0.4,0-0.5-0.1c-0.2-0.1-0.3-0.2-0.4-0.3c-0.1-0.1-0.2-0.3-0.3-0.5C72,96.2,72,96,72,95.7
							c0-0.5,0.1-1,0.2-1.4c0.1-0.4,0.3-0.7,0.4-1c0.2-0.3,0.4-0.4,0.6-0.6c0.2-0.1,0.5-0.2,0.7-0.2c0.3,0,0.6,0.1,0.7,0.2
							c0.2,0.2,0.3,0.4,0.3,0.7c0,0.3-0.1,0.5-0.2,0.7c-0.1,0.2-0.3,0.4-0.5,0.6c-0.2,0.2-0.4,0.3-0.7,0.4c-0.3,0.1-0.5,0.1-0.8,0.1
							c0,0.3,0,0.5,0.1,0.7c0,0.2,0.1,0.3,0.2,0.4c0.1,0.1,0.2,0.2,0.3,0.2c0.1,0,0.2,0.1,0.4,0.1c0.1,0,0.2,0,0.3,0
							c0.1,0,0.2,0,0.3-0.1c0.1,0,0.2-0.1,0.3-0.1C74.5,96.4,74.5,96.3,74.6,96.4C74.6,96.3,74.6,96.3,74.6,96.4 M74.1,93.3
							c-0.1-0.1-0.2-0.1-0.3-0.1c-0.1,0-0.2,0-0.3,0.1c-0.1,0.1-0.2,0.2-0.3,0.4c-0.1,0.2-0.2,0.3-0.2,0.6c-0.1,0.2-0.1,0.5-0.1,0.7
							c0.2,0,0.4,0,0.6-0.1c0.2-0.1,0.3-0.1,0.5-0.2c0.1-0.1,0.2-0.2,0.3-0.4c0.1-0.1,0.1-0.3,0.1-0.5
							C74.2,93.5,74.2,93.4,74.1,93.3"/>
					</g>
					<g class="st3">
						<path class="st0" d="M75.3,92.8c0.1-0.1,0.3-0.1,0.4-0.1c0.2,0,0.3,0,0.5,0c0.1,0,0.1,0,0.2,0c0.1,0,0.1,0,0.2,0l-0.3,1.3l0,0
							l0.5-0.8c0.1-0.2,0.2-0.3,0.4-0.4c0.1-0.1,0.3-0.1,0.4-0.1c0.1,0,0.2,0,0.2,0.1c0,0.1,0.1,0.1,0.1,0.2c0,0.1,0,0.2,0,0.2
							c0,0.1,0,0.2-0.1,0.2c0,0-0.1,0-0.1,0c0,0-0.1,0-0.2,0c-0.1,0-0.3,0-0.4,0.1c-0.1,0.1-0.3,0.2-0.4,0.4
							c-0.1,0.2-0.2,0.4-0.3,0.7c-0.1,0.3-0.1,0.7-0.2,1.1l-0.1,1.3l-0.8,0l0.5-4L75.3,93V92.8z"/>
					</g>
					<g class="st3">
						<path class="st0" d="M78.3,97.1c-0.1-0.1-0.1-0.2-0.1-0.3c0-0.1,0-0.1,0-0.2c0-0.1,0-0.2,0-0.3c0-0.1,0-0.2,0-0.3
							c0-0.1,0-0.2,0-0.3l0.3-1.9l0-0.5L78.1,93v-0.2c0.2-0.1,0.3-0.1,0.5-0.1c0.2,0,0.3,0,0.5,0c0.1,0,0.2,0,0.2,0
							c0.1,0,0.1,0,0.2,0l-0.4,2.7c0,0.1,0,0.1,0,0.2c0,0.1,0,0.2,0,0.3c0,0.1,0,0.2,0,0.3l0,0.2c0,0.2,0,0.3,0.1,0.3
							c0.1,0.1,0.2,0.1,0.3,0.2l0,0.2c-0.1,0-0.2,0.1-0.3,0.1c-0.1,0-0.2,0-0.4,0C78.5,97.3,78.4,97.2,78.3,97.1 M79.7,91.4
							c0,0.1-0.1,0.1-0.1,0.2c0,0-0.1,0.1-0.2,0.1c-0.1,0-0.1,0-0.2,0c-0.1,0-0.2,0-0.3-0.1c-0.1-0.1-0.1-0.2-0.1-0.3
							c0-0.1,0-0.1,0-0.2c0-0.1,0.1-0.1,0.1-0.2c0-0.1,0.1-0.1,0.2-0.1c0.1,0,0.1,0,0.2,0c0.1,0,0.2,0,0.3,0.1
							c0.1,0.1,0.1,0.2,0.1,0.3C79.7,91.3,79.7,91.4,79.7,91.4"/>
					</g>
					<g class="st3">
						<path class="st0" d="M82.7,96.4c0,0,0,0.1,0,0.1c0,0.1,0,0.2-0.1,0.3c-0.1,0.1-0.2,0.2-0.3,0.3c-0.1,0.1-0.3,0.1-0.4,0.2
							c-0.2,0-0.3,0.1-0.5,0.1c-0.2,0-0.4,0-0.5-0.1c-0.2-0.1-0.3-0.2-0.4-0.3c-0.1-0.1-0.2-0.3-0.3-0.5c-0.1-0.2-0.1-0.4-0.1-0.7
							c0-0.5,0.1-1,0.2-1.4c0.1-0.4,0.3-0.7,0.4-1c0.2-0.3,0.4-0.4,0.6-0.6c0.2-0.1,0.5-0.2,0.7-0.2c0.3,0,0.6,0.1,0.7,0.2
							C83,93,83,93.3,83,93.6c0,0.3-0.1,0.5-0.2,0.7c-0.1,0.2-0.3,0.4-0.5,0.6c-0.2,0.2-0.4,0.3-0.7,0.4c-0.3,0.1-0.5,0.1-0.8,0.1
							c0,0.3,0,0.5,0.1,0.7c0,0.2,0.1,0.3,0.2,0.4c0.1,0.1,0.2,0.2,0.3,0.2c0.1,0,0.2,0.1,0.4,0.1c0.1,0,0.2,0,0.3,0
							c0.1,0,0.2,0,0.3-0.1c0.1,0,0.2-0.1,0.3-0.1C82.6,96.4,82.6,96.3,82.7,96.4C82.7,96.3,82.7,96.3,82.7,96.4 M82.2,93.3
							c-0.1-0.1-0.2-0.1-0.3-0.1c-0.1,0-0.2,0-0.3,0.1c-0.1,0.1-0.2,0.2-0.3,0.4C81.1,93.8,81,94,81,94.2c-0.1,0.2-0.1,0.5-0.1,0.7
							c0.2,0,0.4,0,0.6-0.1c0.2-0.1,0.3-0.1,0.5-0.2c0.1-0.1,0.2-0.2,0.3-0.4c0.1-0.1,0.1-0.3,0.1-0.5
							C82.3,93.5,82.3,93.4,82.2,93.3"/>
					</g>
					<g class="st3">
						<path class="st0" d="M86.1,96.5c0.2-0.2,0.3-0.4,0.5-0.7c0.2-0.3,0.3-0.5,0.4-0.8c0.1-0.3,0.2-0.5,0.2-0.8
							c0.1-0.3,0.1-0.5,0.1-0.8c0-0.1,0-0.2-0.1-0.3C87.1,93.1,87,93,86.9,93l0-0.2c0.1,0,0.2-0.1,0.3-0.1c0.1,0,0.2,0,0.3,0
							c0.2,0,0.3,0,0.4,0.1C88,92.9,88,93,88,93.2c0,0.2,0,0.3-0.1,0.5c-0.1,0.2-0.1,0.4-0.2,0.7c-0.1,0.2-0.2,0.5-0.3,0.7
							c-0.1,0.2-0.2,0.5-0.4,0.7c-0.1,0.2-0.3,0.4-0.4,0.6c-0.2,0.2-0.3,0.4-0.4,0.5c-0.1,0.1-0.2,0.1-0.2,0.2
							c-0.1,0.1-0.2,0.1-0.2,0.1l-0.2,0l-0.4-4.2L84.8,93l0-0.2c0.1-0.1,0.3-0.1,0.4-0.1c0.1,0,0.2,0,0.4,0c0.1,0,0.3,0,0.4,0.1
							L86.1,96.5L86.1,96.5z"/>
					</g>
					<g class="st3">
						<path class="st0" d="M91.3,94.9c0,0.2,0,0.3-0.1,0.5c0,0.2,0,0.3,0,0.5c0,0.1,0,0.3,0,0.4c0,0.1,0,0.3,0,0.4
							c0,0.1,0,0.2,0.1,0.2c0,0,0.1,0.1,0.1,0.1c0.1,0,0.1,0,0.2,0.1l0,0.2c-0.1,0-0.3,0.1-0.4,0.1c-0.1,0-0.3,0-0.4,0
							c-0.1,0-0.1,0-0.2,0c-0.1,0-0.1,0-0.2,0l0.2-1.4l0,0c-0.1,0.2-0.2,0.4-0.3,0.6c-0.1,0.2-0.2,0.3-0.4,0.5
							c-0.1,0.1-0.2,0.2-0.4,0.3c-0.1,0.1-0.3,0.1-0.4,0.1c-0.1,0-0.2,0-0.3-0.1c-0.1-0.1-0.2-0.2-0.3-0.3c-0.1-0.1-0.1-0.3-0.2-0.5
							c0-0.2-0.1-0.4-0.1-0.7c0-0.5,0.1-0.9,0.2-1.3c0.1-0.4,0.3-0.7,0.5-0.9c0.2-0.3,0.5-0.5,0.7-0.6c0.3-0.1,0.6-0.2,0.9-0.2
							c0.1,0,0.1,0,0.2,0c0.1,0,0.2,0,0.3,0c0.1,0,0.2,0,0.3,0c0.1,0,0.2,0,0.2,0.1l-0.3,1.6C91.3,94.6,91.3,94.7,91.3,94.9
							 M90.7,93.2c-0.1,0-0.2,0-0.2,0c-0.2,0-0.4,0-0.5,0.1c-0.2,0.1-0.3,0.2-0.4,0.4c-0.1,0.2-0.2,0.4-0.3,0.7
							c-0.1,0.3-0.1,0.7-0.1,1c0,0.2,0,0.4,0,0.5c0,0.1,0.1,0.3,0.1,0.4c0,0.1,0.1,0.1,0.2,0.2c0.1,0,0.1,0.1,0.2,0.1
							c0.1,0,0.2,0,0.3-0.1c0.1-0.1,0.2-0.2,0.3-0.4c0.1-0.1,0.2-0.4,0.3-0.6c0.1-0.2,0.2-0.5,0.2-0.8l0.2-1.5
							C90.8,93.2,90.8,93.2,90.7,93.2"/>
					</g>
					<g class="st3">
						<path class="st0" d="M95.7,93.8c0,0.1,0,0.2,0,0.3c0,0.1,0,0.2,0,0.3c0,0.1,0,0.2,0,0.3l-0.2,1c0,0.1,0,0.1,0,0.2
							c0,0.1,0,0.1,0,0.2c0,0.1,0,0.1,0,0.2c0,0.1,0,0.1,0,0.2c0,0.2,0,0.3,0.1,0.3c0.1,0.1,0.2,0.1,0.3,0.2l0,0.2
							c-0.1,0.1-0.2,0.1-0.3,0.1c-0.1,0-0.2,0-0.4,0c-0.2,0-0.3,0-0.3-0.1c-0.1-0.1-0.1-0.2-0.1-0.3c0-0.1,0-0.1,0-0.2
							c0-0.1,0-0.2,0-0.3c0-0.1,0-0.2,0-0.3c0-0.1,0-0.2,0-0.3l0.2-1.1c0-0.1,0-0.1,0-0.2c0-0.1,0-0.2,0-0.2c0-0.1,0-0.2,0-0.2
							c0-0.1,0-0.1,0-0.2c0-0.1,0-0.2,0-0.3c0-0.1-0.1-0.1-0.1-0.2c0,0-0.1-0.1-0.1-0.1c0,0-0.1,0-0.2,0c-0.1,0-0.3,0.1-0.4,0.2
							c-0.1,0.1-0.3,0.3-0.4,0.5c-0.1,0.2-0.2,0.5-0.3,0.7c-0.1,0.3-0.1,0.6-0.1,0.9l-0.1,1.6l-0.8,0l0.5-4L92.3,93v-0.2
							c0.1-0.1,0.3-0.1,0.4-0.1c0.1,0,0.3,0,0.5,0c0.1,0,0.1,0,0.2,0c0.1,0,0.1,0,0.2,0l-0.3,1.4l0,0c0.1-0.2,0.2-0.4,0.3-0.6
							c0.1-0.2,0.3-0.3,0.4-0.5c0.1-0.1,0.3-0.2,0.4-0.3c0.1-0.1,0.3-0.1,0.5-0.1c0.1,0,0.2,0,0.3,0.1c0.1,0,0.2,0.1,0.2,0.2
							c0.1,0.1,0.1,0.2,0.2,0.3c0,0.1,0.1,0.2,0.1,0.4C95.7,93.6,95.7,93.7,95.7,93.8"/>
					</g>
					<g class="st3">
						<path class="st0" d="M99.1,97.3l-0.8-5.6l-0.4-0.2l0-0.2c0.1,0,0.3-0.1,0.4-0.1c0.1,0,0.2,0,0.4,0c0.1,0,0.3,0,0.4,0
							c0.1,0,0.2,0,0.3,0.1l0,0.2c-0.1,0-0.1,0.1-0.2,0.1c0,0-0.1,0.1-0.1,0.2l0.5,4.5l0,0l1.6-4.6l-0.5-0.1l0-0.2
							c0.3-0.1,0.6-0.1,0.9-0.1c0.1,0,0.2,0,0.3,0c0.1,0,0.2,0,0.3,0.1l0,0.2c-0.1,0-0.1,0.1-0.2,0.1c0,0-0.1,0.1-0.1,0.2l-2.2,5.5
							L99.1,97.3z"/>
					</g>
					<g class="st3">
						<path class="st0" d="M104.9,95.5c-0.1,0.4-0.3,0.7-0.5,1c-0.2,0.3-0.4,0.5-0.6,0.6c-0.2,0.2-0.5,0.2-0.7,0.2
							c-0.2,0-0.4,0-0.5-0.1c-0.2-0.1-0.3-0.2-0.4-0.3c-0.1-0.1-0.2-0.3-0.3-0.5c-0.1-0.2-0.1-0.4-0.1-0.7c0-0.5,0.1-0.9,0.2-1.3
							c0.1-0.4,0.3-0.7,0.4-0.9c0.2-0.3,0.4-0.5,0.7-0.6c0.2-0.1,0.5-0.2,0.7-0.2c0.2,0,0.4,0,0.5,0.1c0.2,0.1,0.3,0.2,0.4,0.3
							c0.1,0.1,0.2,0.3,0.3,0.5c0.1,0.2,0.1,0.4,0.1,0.7C105,94.7,105,95.1,104.9,95.5 M104.2,93.8c0-0.1-0.1-0.3-0.1-0.4
							c-0.1-0.1-0.1-0.2-0.2-0.2c-0.1,0-0.2-0.1-0.3-0.1c-0.1,0-0.2,0-0.4,0.2c-0.1,0.1-0.2,0.2-0.4,0.4c-0.1,0.2-0.2,0.4-0.3,0.7
							c-0.1,0.3-0.1,0.6-0.1,0.9c0,0.3,0,0.5,0.1,0.7c0,0.2,0.1,0.3,0.2,0.4c0.1,0.1,0.1,0.2,0.2,0.2c0.1,0.1,0.2,0.1,0.3,0.1
							c0.1,0,0.2,0,0.3-0.1c0.1-0.1,0.2-0.2,0.3-0.4c0.1-0.2,0.2-0.5,0.3-0.8c0.1-0.3,0.1-0.7,0.1-1.1
							C104.3,94.2,104.3,94,104.2,93.8"/>
					</g>
					<g class="st3">
						<path class="st0" d="M105.9,97.2c-0.1-0.1-0.1-0.2-0.1-0.3c0-0.1,0-0.1,0-0.2c0-0.1,0-0.2,0-0.3c0-0.1,0-0.2,0-0.3
							c0-0.1,0-0.2,0-0.3l0.6-4.6l-0.6-0.2l0-0.2c0.2-0.1,0.3-0.1,0.4-0.1c0.1,0,0.3,0,0.5,0c0.1,0,0.2,0,0.2,0c0.1,0,0.1,0,0.2,0
							l-0.7,4.8c0,0.1,0,0.2,0,0.2c0,0.1,0,0.2,0,0.3c0,0.1,0,0.2,0,0.3c0,0.1,0,0.2,0,0.2c0,0.2,0,0.3,0.1,0.3
							c0.1,0.1,0.2,0.1,0.3,0.2l0,0.2c-0.2,0.1-0.4,0.1-0.7,0.1C106.1,97.3,106,97.2,105.9,97.2"/>
					</g>
					<g class="st3">
						<path class="st0" d="M107.9,90.7c0.1-0.1,0.3-0.1,0.4-0.1c0.2,0,0.3,0,0.5,0c0.1,0,0.1,0,0.2,0c0.1,0,0.1,0,0.2,0l-0.5,4.1
							l0,0l0.5-0.4c0.1-0.1,0.2-0.2,0.3-0.3c0.1-0.1,0.2-0.3,0.3-0.4c0.1-0.1,0.2-0.3,0.3-0.5c0.1-0.2,0.1-0.3,0.2-0.5
							c0.2,0,0.4,0,0.5,0.1c0.1,0.1,0.1,0.1,0.1,0.2c0,0.1,0,0.2-0.1,0.3c-0.1,0.1-0.2,0.3-0.3,0.4c-0.1,0.1-0.2,0.3-0.4,0.4
							c-0.2,0.1-0.3,0.3-0.5,0.4l-0.4,0.3l1.2,1.8c0.1,0.1,0.2,0.2,0.3,0.3c0.1,0.1,0.2,0.1,0.3,0.2l0,0.2c-0.1,0.1-0.2,0.1-0.3,0.1
							c-0.1,0-0.2,0-0.3,0c-0.1,0-0.1,0-0.2,0c-0.1,0-0.1-0.1-0.2-0.1c-0.1,0-0.1-0.1-0.2-0.2c-0.1-0.1-0.1-0.2-0.2-0.3l-0.9-1.8
							l0,0l-0.2,2.2l-0.8,0l0.4-2.4l0.4-3.7l-0.6-0.2L107.9,90.7z"/>
					</g>
					<g class="st3">
						<path class="st0" d="M113.9,93.4c0,0.1-0.1,0.2-0.1,0.2c-0.1-0.1-0.3-0.2-0.5-0.3c-0.2-0.1-0.4-0.1-0.5-0.1
							c-0.2,0-0.4,0-0.5,0.1c-0.1,0.1-0.2,0.2-0.2,0.4c0,0.1,0,0.1,0,0.2c0,0.1,0,0.1,0.1,0.2c0,0.1,0.1,0.1,0.2,0.2
							c0.1,0.1,0.2,0.2,0.3,0.3l0.4,0.3c0.1,0.1,0.2,0.2,0.3,0.3c0.1,0.1,0.1,0.2,0.2,0.3c0,0.1,0.1,0.2,0.1,0.2c0,0.1,0,0.2,0,0.3
							c0,0.2,0,0.3-0.1,0.5c-0.1,0.2-0.2,0.3-0.4,0.4c-0.2,0.1-0.3,0.2-0.5,0.3c-0.2,0.1-0.4,0.1-0.7,0.1c-0.3,0-0.5,0-0.6-0.1
							c-0.1-0.1-0.2-0.2-0.2-0.4c0-0.1,0-0.2,0-0.2c0-0.1,0.1-0.1,0.1-0.2c0.1,0.1,0.3,0.2,0.4,0.3c0.1,0.1,0.3,0.1,0.5,0.1
							c0.1,0,0.2,0,0.3,0c0.1,0,0.2-0.1,0.3-0.1c0.1-0.1,0.1-0.1,0.2-0.2c0-0.1,0.1-0.2,0.1-0.3c0-0.1,0-0.1,0-0.2
							c0-0.1,0-0.1-0.1-0.2c0-0.1-0.1-0.1-0.2-0.2c-0.1-0.1-0.2-0.2-0.3-0.3l-0.3-0.3c-0.1-0.1-0.2-0.2-0.3-0.3
							c-0.1-0.1-0.1-0.2-0.2-0.2c0-0.1-0.1-0.2-0.1-0.3c0-0.1,0-0.2,0-0.3c0-0.2,0-0.3,0.1-0.5c0.1-0.1,0.2-0.3,0.3-0.4
							c0.1-0.1,0.3-0.2,0.5-0.3c0.2-0.1,0.4-0.1,0.6-0.1c0.3,0,0.6,0,0.7,0.1c0.2,0.1,0.3,0.2,0.3,0.4
							C113.9,93.2,113.9,93.3,113.9,93.4"/>
					</g>
					<g class="st3">
						<path class="st0" d="M117.3,95c0,0.2,0,0.3,0,0.5c0,0.2,0,0.3,0,0.5c0,0.2,0,0.3,0,0.4c0,0.5-0.1,1-0.2,1.4
							c-0.1,0.4-0.3,0.7-0.5,0.9c-0.2,0.2-0.5,0.4-0.7,0.5c-0.3,0.1-0.6,0.2-0.9,0.2c-0.2,0-0.4,0-0.6-0.1c-0.2,0-0.3-0.1-0.4-0.2
							c-0.1-0.1-0.2-0.2-0.3-0.3c-0.1-0.1-0.1-0.2-0.1-0.3c0-0.1,0-0.2,0.1-0.3c0.1-0.1,0.1-0.2,0.2-0.2c0.1-0.1,0.2-0.1,0.3-0.2
							c0.1,0,0.2-0.1,0.3-0.1c-0.1,0.1-0.2,0.2-0.2,0.3c0,0.1-0.1,0.2-0.1,0.3c0,0.2,0.1,0.3,0.2,0.4c0.1,0.1,0.3,0.2,0.6,0.2
							c0.2,0,0.3,0,0.5-0.1c0.2-0.1,0.3-0.2,0.4-0.3c0.1-0.1,0.2-0.3,0.3-0.5c0.1-0.2,0.1-0.4,0.2-0.7l0.2-1.6l0,0
							c-0.1,0.2-0.2,0.4-0.3,0.6c-0.1,0.2-0.2,0.3-0.4,0.5c-0.1,0.1-0.2,0.2-0.4,0.3c-0.1,0.1-0.3,0.1-0.4,0.1c-0.1,0-0.2,0-0.3-0.1
							c-0.1-0.1-0.2-0.2-0.3-0.3c-0.1-0.1-0.1-0.3-0.2-0.5c0-0.2-0.1-0.5-0.1-0.7c0-0.4,0.1-0.8,0.2-1.2c0.1-0.4,0.3-0.7,0.5-0.9
							c0.2-0.3,0.5-0.5,0.7-0.6c0.3-0.1,0.6-0.2,0.9-0.2c0.2,0,0.4,0,0.6,0c0.2,0,0.4,0.1,0.5,0.1l-0.4,1.8
							C117.3,94.7,117.3,94.8,117.3,95 M116.6,93.2c-0.1,0-0.2,0-0.2,0c-0.2,0-0.4,0-0.5,0.1c-0.2,0.1-0.3,0.3-0.4,0.4
							c-0.1,0.2-0.2,0.4-0.3,0.7c-0.1,0.3-0.1,0.6-0.1,1c0,0.2,0,0.4,0,0.5c0,0.1,0.1,0.3,0.1,0.4c0,0.1,0.1,0.1,0.2,0.2
							c0.1,0,0.1,0.1,0.2,0.1c0.1,0,0.2,0,0.3-0.1c0.1-0.1,0.2-0.2,0.3-0.4c0.1-0.2,0.2-0.4,0.3-0.6c0.1-0.3,0.2-0.5,0.2-0.9
							l0.2-1.5C116.8,93.2,116.7,93.2,116.6,93.2"/>
					</g>
					<g class="st3">
						<path class="st0" d="M120.8,96.4c0,0,0,0.1,0,0.1c0,0.1,0,0.2-0.1,0.3c-0.1,0.1-0.2,0.2-0.3,0.3c-0.1,0.1-0.3,0.1-0.4,0.2
							c-0.2,0-0.3,0.1-0.5,0.1c-0.2,0-0.4,0-0.5-0.1c-0.2-0.1-0.3-0.2-0.4-0.3c-0.1-0.1-0.2-0.3-0.3-0.5c-0.1-0.2-0.1-0.4-0.1-0.7
							c0-0.5,0.1-1,0.2-1.4c0.1-0.4,0.3-0.7,0.4-1c0.2-0.3,0.4-0.4,0.6-0.6c0.2-0.1,0.5-0.2,0.7-0.2c0.3,0,0.6,0.1,0.7,0.2
							c0.2,0.2,0.3,0.4,0.3,0.7c0,0.3-0.1,0.5-0.2,0.7c-0.1,0.2-0.3,0.4-0.5,0.6c-0.2,0.2-0.4,0.3-0.7,0.4c-0.3,0.1-0.5,0.1-0.8,0.1
							c0,0.3,0,0.5,0.1,0.7c0,0.2,0.1,0.3,0.2,0.4c0.1,0.1,0.2,0.2,0.3,0.2c0.1,0,0.2,0.1,0.4,0.1c0.1,0,0.2,0,0.3,0
							c0.1,0,0.2,0,0.3-0.1c0.1,0,0.2-0.1,0.3-0.1C120.6,96.4,120.7,96.4,120.8,96.4C120.8,96.3,120.8,96.3,120.8,96.4 M120.3,93.3
							c-0.1-0.1-0.2-0.1-0.3-0.1c-0.1,0-0.2,0-0.3,0.1c-0.1,0.1-0.2,0.2-0.3,0.4c-0.1,0.2-0.2,0.3-0.2,0.6c-0.1,0.2-0.1,0.5-0.1,0.7
							c0.2,0,0.4,0,0.6-0.1c0.2-0.1,0.3-0.1,0.5-0.2c0.1-0.1,0.2-0.2,0.3-0.4c0.1-0.1,0.1-0.3,0.1-0.5
							C120.4,93.5,120.3,93.4,120.3,93.3"/>
					</g>
					<g class="st3">
						<path class="st0" d="M123.9,93.7c-0.2,0.3-0.4,0.7-0.6,1c-0.2,0.3-0.4,0.6-0.6,0.9c-0.2,0.3-0.4,0.6-0.7,0.9l1.2,0
							c0.1,0,0.2,0,0.3,0c0.1,0,0.2,0,0.2,0c0.1,0,0.1-0.1,0.1-0.1c0,0,0.1-0.1,0.1-0.1l0.1-0.2l0.2,0c0,0.4-0.1,0.7-0.2,0.9
							c-0.2,0.2-0.4,0.3-0.8,0.3c-0.1,0-0.2,0-0.4,0c-0.1,0-0.3,0-0.4,0c-0.1,0-0.3,0-0.4,0c-0.1,0-0.3,0-0.3,0l-0.2,0
							c-0.1,0-0.1,0-0.2,0c-0.1,0-0.1,0-0.2,0c-0.1,0-0.1,0-0.1,0l2.5-3.9l-1,0c-0.2,0-0.4,0-0.5,0.1c-0.1,0-0.2,0.1-0.2,0.2
							l-0.1,0.2l-0.2,0c0-0.2,0-0.3,0.1-0.4c0-0.1,0.1-0.2,0.2-0.3c0.1-0.1,0.1-0.2,0.3-0.2c0.1,0,0.2-0.1,0.3-0.1
							c0.3,0,0.6,0,0.9,0c0.2,0,0.4,0,0.5,0c0.2,0,0.5,0,0.7-0.1C124.3,93.1,124.1,93.4,123.9,93.7"/>
					</g>
					<g class="st3">
						<path class="st0" d="M127.9,95.5c-0.1,0.4-0.3,0.7-0.5,1c-0.2,0.3-0.4,0.5-0.6,0.6c-0.2,0.2-0.5,0.2-0.7,0.2
							c-0.2,0-0.4,0-0.5-0.1c-0.2-0.1-0.3-0.2-0.4-0.3c-0.1-0.1-0.2-0.3-0.3-0.5c-0.1-0.2-0.1-0.4-0.1-0.7c0-0.5,0.1-0.9,0.2-1.3
							c0.1-0.4,0.3-0.7,0.5-0.9c0.2-0.3,0.4-0.5,0.6-0.6c0.3-0.1,0.5-0.2,0.7-0.2c0.2,0,0.4,0,0.5,0.1c0.2,0.1,0.3,0.2,0.4,0.3
							c0.1,0.1,0.2,0.3,0.3,0.5c0.1,0.2,0.1,0.4,0.1,0.7C128,94.7,128,95.1,127.9,95.5 M127.2,93.8c0-0.1-0.1-0.3-0.2-0.4
							c-0.1-0.1-0.1-0.2-0.2-0.2c-0.1,0-0.2-0.1-0.3-0.1c-0.1,0-0.2,0-0.4,0.2c-0.1,0.1-0.3,0.2-0.4,0.4c-0.1,0.2-0.2,0.4-0.3,0.7
							c-0.1,0.3-0.1,0.6-0.1,0.9c0,0.3,0,0.5,0.1,0.7c0,0.2,0.1,0.3,0.2,0.4c0.1,0.1,0.1,0.2,0.2,0.2c0.1,0.1,0.2,0.1,0.3,0.1
							c0.1,0,0.2,0,0.3-0.1c0.1-0.1,0.2-0.2,0.3-0.4c0.1-0.2,0.2-0.5,0.3-0.8c0.1-0.3,0.1-0.7,0.1-1.1
							C127.3,94.2,127.3,94,127.2,93.8"/>
					</g>
					<g class="st3">
						<path class="st0" d="M132,93.8c0,0.1,0,0.2,0,0.3c0,0.1,0,0.2,0,0.3c0,0.1,0,0.2,0,0.3l-0.2,1c0,0.1,0,0.1,0,0.2
							c0,0.1,0,0.1,0,0.2c0,0.1,0,0.1,0,0.2c0,0.1,0,0.1,0,0.2c0,0.2,0,0.3,0.1,0.3c0.1,0.1,0.2,0.1,0.3,0.2l0,0.2
							c-0.1,0.1-0.2,0.1-0.3,0.1c-0.1,0-0.2,0-0.4,0c-0.1,0-0.3,0-0.3-0.1c-0.1-0.1-0.1-0.2-0.1-0.3c0-0.1,0-0.1,0-0.2
							c0-0.1,0-0.2,0-0.3c0-0.1,0-0.2,0-0.3c0-0.1,0-0.2,0-0.3l0.2-1.1c0-0.1,0-0.1,0-0.2c0-0.1,0-0.2,0-0.2c0-0.1,0-0.2,0-0.2
							c0-0.1,0-0.1,0-0.2c0-0.1,0-0.2,0-0.3c0-0.1-0.1-0.1-0.1-0.2c0,0-0.1-0.1-0.1-0.1c0,0-0.1,0-0.2,0c-0.1,0-0.3,0.1-0.4,0.2
							c-0.2,0.1-0.3,0.3-0.4,0.5c-0.1,0.2-0.2,0.5-0.3,0.7c-0.1,0.3-0.1,0.6-0.1,0.9l-0.1,1.6l-0.8,0l0.5-4l-0.6-0.2v-0.2
							c0.1-0.1,0.3-0.1,0.4-0.1c0.1,0,0.3,0,0.5,0c0.1,0,0.1,0,0.2,0c0.1,0,0.1,0,0.2,0l-0.3,1.4l0,0c0.1-0.2,0.2-0.4,0.4-0.6
							c0.1-0.2,0.3-0.3,0.4-0.5c0.1-0.1,0.3-0.2,0.5-0.3c0.1-0.1,0.3-0.1,0.5-0.1c0.1,0,0.2,0,0.3,0.1c0.1,0,0.2,0.1,0.2,0.2
							c0.1,0.1,0.1,0.2,0.2,0.3c0,0.1,0.1,0.2,0.1,0.4C132,93.6,132,93.7,132,93.8"/>
					</g>
					<g class="st3">
						<path class="st0" d="M135.8,94.7c0,0.1,0,0.2,0,0.3c0,0.1,0,0.2,0,0.3c0,0.1,0,0.2,0,0.3c0,0.1,0,0.2,0,0.3c0,0.1,0,0.2,0,0.2
							c0,0.1,0,0.3,0,0.4c0,0.1,0,0.2,0.1,0.2c0,0.1,0.1,0.1,0.1,0.1c0.1,0,0.1,0,0.2,0.1l0,0.2c-0.1,0-0.3,0.1-0.4,0.1
							c-0.1,0-0.3,0-0.4,0c-0.1,0-0.2,0-0.2,0c-0.1,0-0.1,0-0.2,0l0.2-1.4l0,0c-0.1,0.2-0.2,0.4-0.3,0.6c-0.1,0.2-0.2,0.3-0.4,0.5
							c-0.1,0.1-0.3,0.2-0.4,0.3c-0.1,0.1-0.3,0.1-0.4,0.1c-0.1,0-0.2,0-0.3-0.1c-0.1-0.1-0.2-0.2-0.3-0.3c-0.1-0.1-0.2-0.3-0.2-0.5
							c0-0.2-0.1-0.4-0.1-0.7c0-0.5,0.1-0.9,0.2-1.2c0.1-0.4,0.3-0.7,0.5-1c0.2-0.3,0.5-0.5,0.7-0.6c0.3-0.1,0.6-0.2,0.9-0.2
							c0.1,0,0.1,0,0.2,0c0.1,0,0.1,0,0.2,0l0.3-1.7l-0.6-0.2l0-0.2c0.2-0.1,0.3-0.1,0.5-0.1c0.2,0,0.3,0,0.5,0c0.1,0,0.2,0,0.2,0
							c0.1,0,0.1,0,0.2,0l-0.7,3.8C135.8,94.5,135.8,94.6,135.8,94.7 M135.2,93.2c-0.1,0-0.2,0-0.2,0c-0.2,0-0.4,0-0.5,0.1
							c-0.2,0.1-0.3,0.2-0.4,0.4c-0.1,0.2-0.2,0.4-0.3,0.7c-0.1,0.3-0.1,0.7-0.1,1.1c0,0.2,0,0.4,0,0.5c0,0.1,0.1,0.3,0.1,0.3
							c0,0.1,0.1,0.2,0.1,0.2c0.1,0,0.1,0.1,0.2,0.1c0.1,0,0.2,0,0.3-0.1c0.1-0.1,0.2-0.2,0.3-0.4c0.1-0.2,0.2-0.3,0.3-0.6
							c0.1-0.2,0.1-0.5,0.2-0.8l0.3-1.5C135.3,93.2,135.3,93.2,135.2,93.2"/>
					</g>
					<g class="st3">
						<path class="st0" d="M139.1,97.2c-0.1-0.1-0.1-0.2-0.1-0.3c0-0.1,0-0.1,0-0.2c0-0.1,0-0.2,0-0.3c0-0.1,0-0.2,0-0.3
							c0-0.1,0-0.2,0-0.3l0.2-1c0-0.1,0-0.1,0-0.2c0-0.1,0-0.2,0-0.3c0-0.1,0-0.2,0-0.2c0-0.1,0-0.1,0-0.2c0-0.2,0-0.3-0.1-0.4
							c-0.1-0.1-0.2-0.1-0.3-0.1c-0.1,0-0.2,0-0.4,0.2c-0.1,0.1-0.3,0.2-0.4,0.4c-0.1,0.2-0.2,0.4-0.3,0.7c-0.1,0.3-0.2,0.6-0.2,0.9
							l-0.1,1.8l-0.8,0l0.4-3l0.3-3.1l-0.6-0.2l0-0.2c0.2-0.1,0.3-0.1,0.5-0.1c0.2,0,0.3,0,0.5,0c0.1,0,0.2,0,0.2,0
							c0.1,0,0.1,0,0.2,0l-0.5,3.4l0,0c0.1-0.2,0.2-0.4,0.3-0.5c0.1-0.2,0.2-0.3,0.4-0.4c0.1-0.1,0.3-0.2,0.4-0.3
							c0.1-0.1,0.3-0.1,0.4-0.1c0.2,0,0.4,0.1,0.5,0.2c0.1,0.2,0.2,0.4,0.2,0.6c0,0.1,0,0.2,0,0.3c0,0.1,0,0.2,0,0.3
							c0,0.1,0,0.2,0,0.3c0,0.1,0,0.2,0,0.3l-0.2,1c0,0.1,0,0.1,0,0.2c0,0.1,0,0.1,0,0.2c0,0.1,0,0.1,0,0.2c0,0.1,0,0.1,0,0.2
							c0,0.2,0,0.3,0.1,0.3c0.1,0.1,0.2,0.1,0.3,0.2l0,0.2c-0.1,0.1-0.2,0.1-0.3,0.1c-0.1,0-0.2,0-0.4,0
							C139.3,97.3,139.2,97.2,139.1,97.2"/>
					</g>
					<g class="st3">
						<path class="st0" d="M143.5,96.4c0,0,0,0.1,0,0.1c0,0.1,0,0.2-0.1,0.3c-0.1,0.1-0.2,0.2-0.3,0.3c-0.1,0.1-0.3,0.1-0.4,0.2
							c-0.2,0-0.3,0.1-0.5,0.1c-0.2,0-0.4,0-0.5-0.1c-0.2-0.1-0.3-0.2-0.4-0.3c-0.1-0.1-0.2-0.3-0.3-0.5c-0.1-0.2-0.1-0.4-0.1-0.7
							c0-0.5,0.1-1,0.2-1.4c0.1-0.4,0.3-0.7,0.5-1c0.2-0.3,0.4-0.4,0.6-0.6c0.2-0.1,0.4-0.2,0.7-0.2c0.3,0,0.6,0.1,0.7,0.2
							c0.2,0.2,0.3,0.4,0.3,0.7c0,0.3-0.1,0.5-0.2,0.7c-0.1,0.2-0.3,0.4-0.5,0.6c-0.2,0.2-0.4,0.3-0.7,0.4c-0.3,0.1-0.5,0.1-0.8,0.1
							c0,0.3,0,0.5,0.1,0.7c0,0.2,0.1,0.3,0.2,0.4c0.1,0.1,0.2,0.2,0.3,0.2c0.1,0,0.2,0.1,0.4,0.1c0.1,0,0.2,0,0.3,0
							c0.1,0,0.2,0,0.3-0.1c0.1,0,0.2-0.1,0.3-0.1C143.4,96.4,143.4,96.4,143.5,96.4C143.5,96.3,143.5,96.3,143.5,96.4 M143,93.3
							c-0.1-0.1-0.2-0.1-0.3-0.1c-0.1,0-0.2,0-0.3,0.1c-0.1,0.1-0.2,0.2-0.3,0.4c-0.1,0.2-0.2,0.3-0.2,0.6c-0.1,0.2-0.1,0.5-0.1,0.7
							c0.2,0,0.4,0,0.6-0.1c0.2-0.1,0.3-0.1,0.5-0.2c0.1-0.1,0.2-0.2,0.3-0.4c0.1-0.1,0.1-0.3,0.1-0.5
							C143.1,93.6,143.1,93.4,143,93.3"/>
					</g>
					<g class="st3">
						<path class="st0" d="M144.5,97.2c-0.1-0.1-0.1-0.2-0.1-0.3c0-0.1,0-0.1,0-0.2c0-0.1,0-0.2,0-0.3c0-0.1,0-0.2,0-0.3
							c0-0.1,0-0.2,0-0.3l0.3-1.9l0-0.5l-0.6-0.2v-0.2c0.1-0.1,0.3-0.1,0.5-0.1c0.2,0,0.3,0,0.5,0c0.1,0,0.2,0,0.2,0
							c0.1,0,0.1,0,0.2,0l-0.4,2.7c0,0.1,0,0.1,0,0.2c0,0.1,0,0.2,0,0.3c0,0.1,0,0.2,0,0.3l0,0.2c0,0.2,0,0.3,0.1,0.3
							c0.1,0.1,0.2,0.1,0.3,0.2l0,0.2c-0.1,0-0.2,0.1-0.3,0.1c-0.1,0-0.2,0-0.4,0C144.7,97.3,144.6,97.2,144.5,97.2 M145.8,91.4
							c0,0.1-0.1,0.1-0.1,0.2c0,0-0.1,0.1-0.2,0.1c-0.1,0-0.1,0-0.2,0c-0.1,0-0.2,0-0.3-0.1c-0.1-0.1-0.1-0.2-0.1-0.3
							c0-0.1,0-0.1,0-0.2c0-0.1,0.1-0.1,0.1-0.2c0-0.1,0.1-0.1,0.2-0.1c0.1,0,0.1,0,0.2,0c0.1,0,0.2,0,0.3,0.1
							c0.1,0.1,0.1,0.2,0.1,0.3C145.9,91.3,145.9,91.4,145.8,91.4"/>
					</g>
					<g class="st3">
						<path class="st0" d="M149.3,94.7c0,0.1,0,0.2,0,0.3c0,0.1,0,0.2,0,0.3c0,0.1,0,0.2,0,0.3c0,0.1,0,0.2,0,0.3c0,0.1,0,0.2,0,0.2
							c0,0.1,0,0.3,0,0.4c0,0.1,0,0.2,0.1,0.2c0,0.1,0.1,0.1,0.1,0.1c0.1,0,0.1,0,0.2,0.1l0,0.2c-0.1,0-0.3,0.1-0.4,0.1
							c-0.1,0-0.3,0-0.4,0c-0.1,0-0.1,0-0.2,0c-0.1,0-0.1,0-0.2,0l0.2-1.4l0,0c-0.1,0.2-0.2,0.4-0.3,0.6c-0.1,0.2-0.2,0.3-0.4,0.5
							c-0.1,0.1-0.3,0.2-0.4,0.3c-0.1,0.1-0.3,0.1-0.4,0.1c-0.1,0-0.2,0-0.3-0.1c-0.1-0.1-0.2-0.2-0.3-0.3c-0.1-0.1-0.1-0.3-0.2-0.5
							c0-0.2-0.1-0.4-0.1-0.7c0-0.5,0.1-0.9,0.2-1.2c0.1-0.4,0.3-0.7,0.5-1c0.2-0.3,0.5-0.5,0.7-0.6c0.3-0.1,0.6-0.2,0.9-0.2
							c0.1,0,0.1,0,0.2,0c0.1,0,0.1,0,0.2,0l0.3-1.7l-0.6-0.2l0-0.2c0.1-0.1,0.3-0.1,0.5-0.1c0.1,0,0.3,0,0.5,0c0.1,0,0.2,0,0.2,0
							c0.1,0,0.1,0,0.2,0l-0.7,3.8C149.3,94.5,149.3,94.6,149.3,94.7 M148.6,93.2c-0.1,0-0.2,0-0.2,0c-0.2,0-0.4,0-0.5,0.1
							c-0.2,0.1-0.3,0.2-0.5,0.4c-0.1,0.2-0.2,0.4-0.3,0.7c-0.1,0.3-0.1,0.7-0.1,1.1c0,0.2,0,0.4,0,0.5c0,0.1,0.1,0.3,0.1,0.3
							c0,0.1,0.1,0.2,0.2,0.2c0.1,0,0.1,0.1,0.2,0.1c0.1,0,0.2,0,0.3-0.1c0.1-0.1,0.2-0.2,0.3-0.4c0.1-0.2,0.2-0.3,0.3-0.6
							c0.1-0.2,0.1-0.5,0.2-0.8l0.3-1.5C148.8,93.2,148.7,93.2,148.6,93.2"/>
					</g>
					<g class="st3">
						<path class="st0" d="M151.4,97.3c-0.1,0.2-0.2,0.3-0.3,0.5c-0.1,0.2-0.2,0.3-0.4,0.4c-0.1,0.1-0.3,0.2-0.4,0.2l-0.3-0.1
							c0.1-0.1,0.2-0.2,0.3-0.3c0.1-0.1,0.2-0.2,0.2-0.4c0.1-0.1,0.1-0.2,0.1-0.4c0-0.1,0.1-0.2,0.1-0.3l-0.3-0.4
							c0.1-0.1,0.2-0.2,0.3-0.3c0.1-0.1,0.2-0.1,0.3-0.1c0.1,0,0.1,0,0.2,0c0.1,0,0.1,0.1,0.2,0.1c0,0,0.1,0.1,0.1,0.2
							c0,0.1,0,0.1,0,0.2C151.6,96.9,151.5,97.1,151.4,97.3"/>
					</g>
					<g class="st3">
						<path class="st0" d="M55.9,107.7l-0.4-5.2l0,0l-1.6,5.2l-0.6,0l-0.7-5.6L52,102l0-0.2c0.1,0,0.3-0.1,0.4-0.1
							c0.1,0,0.3,0,0.4,0c0.1,0,0.3,0,0.4,0c0.1,0,0.2,0,0.4,0.1l0,0.2c-0.1,0-0.1,0.1-0.2,0.1c-0.1,0.1-0.1,0.1-0.1,0.2l0.4,4.3
							l0,0l1.5-4.7l0.9,0l0.4,5l0,0l1.4-4.5l-0.5-0.2l0-0.2c0.3-0.1,0.6-0.1,0.9-0.1c0.1,0,0.2,0,0.3,0c0.1,0,0.2,0,0.3,0.1l0,0.2
							c-0.1,0-0.1,0.1-0.2,0.1c-0.1,0-0.1,0.1-0.1,0.2l-2,5.5L55.9,107.7z"/>
					</g>
					<g class="st3">
						<path class="st0" d="M61,106.8c0,0,0,0.1,0,0.1c0,0.1,0,0.2-0.1,0.3c-0.1,0.1-0.2,0.2-0.3,0.3c-0.1,0.1-0.3,0.1-0.4,0.2
							c-0.2,0-0.3,0.1-0.5,0.1c-0.2,0-0.4,0-0.5-0.1c-0.2-0.1-0.3-0.2-0.4-0.3c-0.1-0.1-0.2-0.3-0.3-0.5c-0.1-0.2-0.1-0.4-0.1-0.7
							c0-0.5,0.1-1,0.2-1.4c0.1-0.4,0.3-0.7,0.5-1c0.2-0.2,0.4-0.4,0.6-0.6c0.2-0.1,0.5-0.2,0.7-0.2c0.3,0,0.6,0.1,0.7,0.2
							c0.2,0.2,0.3,0.4,0.3,0.7c0,0.3-0.1,0.5-0.2,0.7c-0.1,0.2-0.3,0.4-0.5,0.6c-0.2,0.2-0.4,0.3-0.7,0.4c-0.3,0.1-0.5,0.1-0.8,0.1
							c0,0.3,0,0.5,0.1,0.7c0,0.2,0.1,0.3,0.2,0.4c0.1,0.1,0.2,0.2,0.3,0.2c0.1,0,0.2,0.1,0.4,0.1c0.1,0,0.2,0,0.3,0
							c0.1,0,0.2,0,0.3-0.1c0.1,0,0.2-0.1,0.3-0.1C60.8,106.9,60.9,106.8,61,106.8C60.9,106.7,60.9,106.8,61,106.8 M60.4,103.7
							c-0.1-0.1-0.2-0.1-0.3-0.1c-0.1,0-0.2,0-0.3,0.1c-0.1,0.1-0.2,0.2-0.3,0.4c-0.1,0.2-0.2,0.3-0.3,0.6c-0.1,0.2-0.1,0.5-0.1,0.7
							c0.2,0,0.4,0,0.6-0.1c0.2-0.1,0.3-0.1,0.4-0.2c0.1-0.1,0.2-0.2,0.3-0.4c0.1-0.1,0.1-0.3,0.1-0.5
							C60.5,104,60.5,103.8,60.4,103.7"/>
					</g>
					<g class="st3">
						<path class="st0" d="M61.9,107.6c-0.1-0.1-0.1-0.2-0.1-0.3c0-0.1,0-0.1,0-0.3c0-0.1,0-0.2,0-0.3c0-0.1,0-0.2,0-0.3
							c0-0.1,0-0.2,0-0.3l0.6-4.6l-0.6-0.2l0-0.2c0.1-0.1,0.3-0.1,0.4-0.1c0.1,0,0.3,0,0.5,0c0.1,0,0.2,0,0.2,0c0.1,0,0.1,0,0.2,0
							l-0.7,4.8c0,0.1,0,0.2,0,0.2c0,0.1,0,0.2,0,0.3c0,0.1,0,0.2,0,0.3c0,0.1,0,0.2,0,0.2c0,0.2,0,0.3,0.1,0.3
							c0.1,0.1,0.2,0.1,0.3,0.2l0,0.2c-0.2,0.1-0.4,0.1-0.7,0.1C62.1,107.7,62,107.7,61.9,107.6"/>
					</g>
					<g class="st3">
						<path class="st0" d="M66.1,104.2c-0.2,0.3-0.4,0.7-0.6,1c-0.2,0.3-0.4,0.6-0.6,0.9c-0.2,0.3-0.4,0.6-0.6,0.9l1.2,0
							c0.1,0,0.2,0,0.3,0c0.1,0,0.2,0,0.2,0c0.1,0,0.1-0.1,0.1-0.1c0,0,0.1-0.1,0.1-0.1l0.1-0.2l0.2,0c0,0.4-0.1,0.7-0.2,0.9
							c-0.2,0.2-0.4,0.3-0.7,0.3c-0.1,0-0.2,0-0.4,0c-0.1,0-0.3,0-0.4,0c-0.1,0-0.3,0-0.4,0c-0.1,0-0.3,0-0.3,0l-0.2,0
							c-0.1,0-0.1,0-0.2,0c-0.1,0-0.1,0-0.2,0c-0.1,0-0.1,0-0.1,0l2.5-3.9l-1,0c-0.2,0-0.4,0-0.5,0.1c-0.1,0-0.2,0.1-0.2,0.2
							l-0.1,0.2l-0.2,0c0-0.2,0-0.3,0.1-0.4c0-0.1,0.1-0.2,0.2-0.3c0.1-0.1,0.2-0.2,0.3-0.2c0.1,0,0.2-0.1,0.3-0.1
							c0.3,0,0.6,0,0.9,0c0.2,0,0.4,0,0.5,0c0.2,0,0.5,0,0.7-0.1C66.5,103.5,66.3,103.9,66.1,104.2"/>
					</g>
					<g class="st3">
						<path class="st0" d="M67.1,107.6c-0.1-0.1-0.1-0.2-0.1-0.3c0-0.1,0-0.2,0-0.3c0-0.1,0-0.2,0-0.3c0-0.1,0-0.2,0-0.3
							c0-0.1,0-0.2,0-0.3l0.3-1.9l0-0.5l-0.6-0.2l0-0.2c0.1-0.1,0.3-0.1,0.5-0.1c0.1,0,0.3,0,0.5,0c0.1,0,0.2,0,0.2,0
							c0.1,0,0.1,0,0.2,0l-0.4,2.7c0,0.1,0,0.1,0,0.2c0,0.1,0,0.2,0,0.3c0,0.1,0,0.2,0,0.3l0,0.2c0,0.2,0,0.3,0.1,0.3
							c0.1,0.1,0.2,0.1,0.3,0.2l0,0.2c-0.1,0-0.2,0.1-0.3,0.1c-0.1,0-0.2,0-0.4,0C67.3,107.7,67.2,107.7,67.1,107.6 M68.5,101.9
							c0,0.1-0.1,0.1-0.1,0.2c0,0-0.1,0.1-0.2,0.1c-0.1,0-0.1,0-0.2,0c-0.1,0-0.2,0-0.3-0.1c-0.1-0.1-0.1-0.2-0.1-0.3
							c0-0.1,0-0.1,0-0.2c0-0.1,0.1-0.1,0.1-0.2c0-0.1,0.1-0.1,0.2-0.1c0.1,0,0.1,0,0.2,0c0.1,0,0.2,0,0.3,0.1
							c0.1,0.1,0.1,0.2,0.1,0.3C68.6,101.7,68.5,101.8,68.5,101.9"/>
					</g>
					<g class="st3">
						<path class="st0" d="M69.5,109c-0.1,0.2-0.2,0.4-0.3,0.5c-0.1,0.1-0.2,0.2-0.4,0.3c-0.1,0.1-0.3,0.1-0.4,0.1
							c-0.1,0-0.2,0-0.4-0.1c-0.1-0.1-0.2-0.1-0.3-0.2l0-0.2c0.2,0,0.3,0,0.4-0.1c0.1,0,0.2-0.1,0.4-0.2c0.1-0.1,0.2-0.2,0.3-0.4
							c0.1-0.2,0.1-0.4,0.1-0.6l0.5-4l0-0.6l-0.6-0.2v-0.2c0.1-0.1,0.3-0.1,0.5-0.1c0.1,0,0.3,0,0.5,0c0.2,0,0.3,0,0.4,0.1l-0.6,5
							C69.7,108.5,69.6,108.8,69.5,109 M70.5,101.9c0,0.1-0.1,0.1-0.1,0.2c0,0-0.1,0.1-0.2,0.1c-0.1,0-0.1,0-0.2,0
							c-0.1,0-0.2,0-0.3-0.1c-0.1-0.1-0.1-0.2-0.1-0.3c0-0.1,0-0.1,0-0.2c0-0.1,0.1-0.1,0.1-0.2c0-0.1,0.1-0.1,0.2-0.1
							c0.1,0,0.1,0,0.2,0c0.1,0,0.1,0,0.2,0c0,0,0.1,0.1,0.1,0.1c0,0,0.1,0.1,0.1,0.1c0,0.1,0,0.1,0,0.2
							C70.5,101.7,70.5,101.8,70.5,101.9"/>
					</g>
					<g class="st3">
						<path class="st0" d="M74.4,104.2c0,0.1,0,0.2,0,0.3c0,0.1,0,0.2,0,0.3c0,0.1,0,0.2,0,0.3l-0.2,1c0,0.1,0,0.1,0,0.2
							c0,0.1,0,0.1,0,0.2c0,0.1,0,0.1,0,0.2c0,0.1,0,0.1,0,0.2c0,0.2,0,0.3,0.1,0.3c0.1,0.1,0.2,0.1,0.3,0.1l0,0.2
							c-0.1,0.1-0.2,0.1-0.3,0.1c-0.1,0-0.2,0-0.4,0c-0.1,0-0.3,0-0.3-0.1c-0.1-0.1-0.1-0.2-0.1-0.3c0-0.1,0-0.1,0-0.2
							c0-0.1,0-0.2,0-0.2c0-0.1,0-0.2,0-0.3c0-0.1,0-0.2,0-0.2l0.2-1.1c0-0.1,0-0.1,0-0.2c0-0.1,0-0.2,0-0.3c0-0.1,0-0.2,0-0.2
							c0-0.1,0-0.1,0-0.2c0-0.1,0-0.2,0-0.3c0-0.1-0.1-0.1-0.1-0.2c0,0-0.1-0.1-0.1-0.1c0,0-0.1,0-0.2,0c-0.1,0-0.3,0.1-0.4,0.2
							c-0.1,0.1-0.3,0.3-0.4,0.5c-0.1,0.2-0.2,0.5-0.3,0.7c-0.1,0.3-0.1,0.6-0.1,0.9l-0.1,1.6l-0.8,0l0.5-4l-0.6-0.2l0-0.2
							c0.1-0.1,0.3-0.1,0.4-0.1c0.1,0,0.3,0,0.5,0c0.1,0,0.1,0,0.2,0c0.1,0,0.1,0,0.2,0l-0.3,1.4l0,0c0.1-0.2,0.2-0.4,0.4-0.6
							c0.1-0.2,0.3-0.3,0.4-0.5c0.1-0.1,0.3-0.2,0.4-0.3c0.1-0.1,0.3-0.1,0.5-0.1c0.1,0,0.2,0,0.3,0.1c0.1,0,0.2,0.1,0.2,0.2
							c0.1,0.1,0.1,0.2,0.2,0.3c0,0.1,0.1,0.2,0.1,0.4C74.4,104,74.4,104.1,74.4,104.2"/>
					</g>
					<g class="st3">
						<path class="st0" d="M79.3,106.8c0,0,0,0.1,0,0.1c0,0.1,0,0.2-0.1,0.3c-0.1,0.1-0.2,0.2-0.3,0.3c-0.1,0.1-0.3,0.1-0.4,0.2
							c-0.2,0-0.3,0.1-0.5,0.1c-0.2,0-0.4,0-0.5-0.1c-0.2-0.1-0.3-0.2-0.4-0.3c-0.1-0.1-0.2-0.3-0.3-0.5c-0.1-0.2-0.1-0.4-0.1-0.7
							c0-0.5,0.1-1,0.2-1.4c0.1-0.4,0.3-0.7,0.5-1c0.2-0.2,0.4-0.4,0.6-0.6c0.2-0.1,0.5-0.2,0.7-0.2c0.3,0,0.6,0.1,0.7,0.2
							c0.2,0.2,0.3,0.4,0.3,0.7c0,0.3-0.1,0.5-0.2,0.7c-0.1,0.2-0.3,0.4-0.5,0.6c-0.2,0.2-0.4,0.3-0.7,0.4c-0.3,0.1-0.5,0.1-0.8,0.1
							c0,0.3,0,0.5,0,0.7c0,0.2,0.1,0.3,0.2,0.4c0.1,0.1,0.2,0.2,0.3,0.2c0.1,0,0.2,0.1,0.4,0.1c0.1,0,0.2,0,0.3,0
							c0.1,0,0.2,0,0.3-0.1c0.1,0,0.2-0.1,0.3-0.1C79.1,106.9,79.1,106.8,79.3,106.8C79.2,106.7,79.2,106.8,79.3,106.8 M78.7,103.8
							c-0.1-0.1-0.2-0.1-0.3-0.1c-0.1,0-0.2,0-0.3,0.1c-0.1,0.1-0.2,0.2-0.3,0.4c-0.1,0.2-0.2,0.3-0.2,0.6c-0.1,0.2-0.1,0.5-0.1,0.7
							c0.2,0,0.4,0,0.6-0.1c0.2-0.1,0.3-0.1,0.5-0.2c0.1-0.1,0.2-0.2,0.3-0.4c0.1-0.1,0.1-0.3,0.1-0.5
							C78.8,104,78.8,103.8,78.7,103.8"/>
					</g>
					<g class="st3">
						<path class="st0" d="M83.4,104.2c0,0.1,0,0.2,0,0.3c0,0.1,0,0.2,0,0.3c0,0.1,0,0.2,0,0.3l-0.2,1c0,0.1,0,0.1,0,0.2
							c0,0.1,0,0.1,0,0.2c0,0.1,0,0.1,0,0.2c0,0.1,0,0.1,0,0.2c0,0.2,0,0.3,0.1,0.3c0.1,0.1,0.2,0.1,0.3,0.1l0,0.2
							c-0.1,0.1-0.2,0.1-0.3,0.1c-0.1,0-0.3,0-0.4,0c-0.2,0-0.3,0-0.3-0.1c-0.1-0.1-0.1-0.2-0.1-0.3c0-0.1,0-0.1,0-0.2
							c0-0.1,0-0.2,0-0.2c0-0.1,0-0.2,0-0.3c0-0.1,0-0.2,0-0.2l0.2-1.1c0-0.1,0-0.1,0-0.2c0-0.1,0-0.2,0-0.2c0-0.1,0-0.2,0-0.2
							c0-0.1,0-0.1,0-0.2c0-0.1,0-0.2,0-0.3c0-0.1-0.1-0.1-0.1-0.2c0,0-0.1-0.1-0.1-0.1c0,0-0.1,0-0.2,0c-0.1,0-0.3,0.1-0.4,0.2
							c-0.1,0.1-0.3,0.3-0.4,0.5c-0.1,0.2-0.2,0.5-0.3,0.7c-0.1,0.3-0.1,0.6-0.1,0.9l-0.1,1.6l-0.8,0l0.5-4l-0.6-0.2v-0.2
							c0.1-0.1,0.3-0.1,0.4-0.1c0.1,0,0.3,0,0.5,0c0.1,0,0.1,0,0.2,0c0.1,0,0.1,0,0.2,0l-0.3,1.4l0,0c0.1-0.2,0.2-0.4,0.4-0.6
							c0.1-0.2,0.3-0.3,0.4-0.5c0.1-0.1,0.3-0.2,0.4-0.3c0.1-0.1,0.3-0.1,0.5-0.1c0.1,0,0.2,0,0.3,0.1c0.1,0,0.2,0.1,0.2,0.2
							c0.1,0.1,0.1,0.2,0.2,0.3c0,0.1,0.1,0.2,0.1,0.4C83.4,104,83.4,104.1,83.4,104.2"/>
					</g>
					<g class="st3">
						<path class="st0" d="M88.6,103l0-0.2c0-0.2-0.1-0.4-0.2-0.5c-0.1-0.1-0.3-0.2-0.6-0.2c-0.2,0-0.3,0-0.4,0.1
							c-0.1,0-0.2,0.1-0.3,0.2c-0.1,0.1-0.2,0.2-0.2,0.3c0,0.1-0.1,0.2-0.1,0.4c0,0.1,0,0.2,0,0.2c0,0.1,0,0.1,0.1,0.2
							c0,0.1,0.1,0.2,0.2,0.2c0.1,0.1,0.2,0.2,0.3,0.3l0.6,0.5c0.2,0.2,0.3,0.3,0.4,0.4c0.1,0.1,0.2,0.3,0.3,0.4
							c0.1,0.1,0.1,0.2,0.1,0.3c0,0.1,0,0.2,0,0.4c0,0.3-0.1,0.5-0.2,0.7c-0.1,0.2-0.3,0.4-0.4,0.6c-0.2,0.1-0.4,0.3-0.6,0.4
							c-0.2,0.1-0.5,0.1-0.8,0.1c-0.2,0-0.5,0-0.7-0.1c-0.2,0-0.4-0.1-0.6-0.2l0.1-1.2l0.3,0l0,0.2c0,0.1,0,0.2,0.1,0.3
							c0,0.1,0.1,0.2,0.2,0.2c0.1,0.1,0.2,0.1,0.3,0.1c0.1,0,0.2,0,0.4,0c0.2,0,0.3,0,0.4-0.1c0.1,0,0.2-0.1,0.4-0.2
							c0.1-0.1,0.2-0.2,0.2-0.3c0.1-0.1,0.1-0.2,0.1-0.4c0-0.1,0-0.2,0-0.3c0-0.1-0.1-0.2-0.1-0.3c-0.1-0.1-0.1-0.2-0.2-0.3
							c-0.1-0.1-0.2-0.2-0.4-0.4l-0.6-0.6c-0.1-0.1-0.2-0.2-0.3-0.3c-0.1-0.1-0.1-0.2-0.2-0.3c0-0.1-0.1-0.2-0.1-0.3
							c0-0.1,0-0.2,0-0.3c0-0.2,0-0.4,0.1-0.6c0.1-0.2,0.2-0.4,0.4-0.5c0.2-0.1,0.4-0.3,0.6-0.3c0.2-0.1,0.5-0.1,0.7-0.1
							c0.3,0,0.5,0,0.7,0.1c0.2,0,0.4,0.1,0.5,0.2l-0.1,1.2L88.6,103z"/>
					</g>
					<g class="st3">
						<path class="st0" d="M89.9,103.2c0.2,0,0.3,0,0.5,0c0.1,0,0.1,0,0.2,0c0.1,0,0.1,0,0.2,0l-0.2,1.4l0,0
							c0.1-0.2,0.2-0.4,0.3-0.6c0.1-0.2,0.2-0.4,0.4-0.5c0.1-0.1,0.3-0.2,0.4-0.3c0.1-0.1,0.2-0.1,0.4-0.1c0.1,0,0.2,0,0.3,0.1
							c0.1,0.1,0.2,0.2,0.3,0.3c0.1,0.1,0.1,0.3,0.2,0.5c0,0.2,0.1,0.4,0.1,0.7c0,0.5-0.1,1-0.2,1.3c-0.1,0.4-0.3,0.7-0.5,1
							c-0.2,0.2-0.4,0.4-0.6,0.6c-0.2,0.1-0.5,0.2-0.7,0.2c-0.1,0-0.2,0-0.3,0c-0.1,0-0.2-0.1-0.3-0.1l-0.1,1.3c0,0.1,0,0.2,0,0.3
							c0,0.1,0,0.2,0.1,0.2c0,0.1,0.1,0.1,0.1,0.1c0,0,0.1,0.1,0.2,0.1l0,0.2c-0.1,0-0.2,0.1-0.4,0.1c-0.1,0-0.2,0-0.4,0
							c-0.1,0-0.2,0-0.2,0c-0.1,0-0.2,0-0.2,0l0.2-0.8l0.7-5.4l-0.6-0.2l0-0.2C89.6,103.2,89.7,103.2,89.9,103.2 M92,104.4
							c0-0.1-0.1-0.3-0.1-0.4c0-0.1-0.1-0.2-0.1-0.2c-0.1,0-0.1-0.1-0.2-0.1c-0.1,0-0.2,0-0.3,0.1c-0.1,0.1-0.2,0.2-0.3,0.4
							c-0.1,0.2-0.2,0.4-0.3,0.6c-0.1,0.3-0.2,0.5-0.2,0.9l-0.2,1.4c0.1,0,0.2,0,0.3,0c0.1,0,0.2,0,0.3,0c0.2,0,0.3,0,0.5-0.1
							c0.2-0.1,0.3-0.2,0.4-0.4c0.1-0.2,0.2-0.4,0.3-0.7c0.1-0.3,0.1-0.6,0.1-1C92,104.7,92,104.5,92,104.4"/>
					</g>
					<g class="st3">
						<path class="st0" d="M96.5,105.9c-0.1,0.4-0.3,0.7-0.5,1c-0.2,0.3-0.4,0.5-0.6,0.6c-0.2,0.1-0.5,0.2-0.7,0.2
							c-0.2,0-0.4,0-0.5-0.1c-0.2-0.1-0.3-0.2-0.4-0.3c-0.1-0.1-0.2-0.3-0.3-0.5c-0.1-0.2-0.1-0.4-0.1-0.7c0-0.5,0.1-0.9,0.2-1.3
							c0.1-0.4,0.3-0.7,0.5-0.9c0.2-0.3,0.4-0.5,0.6-0.6c0.3-0.1,0.5-0.2,0.7-0.2c0.2,0,0.4,0,0.5,0.1c0.2,0.1,0.3,0.2,0.4,0.3
							c0.1,0.1,0.2,0.3,0.3,0.5c0.1,0.2,0.1,0.4,0.1,0.7C96.7,105.1,96.6,105.6,96.5,105.9 M95.8,104.3c0-0.1-0.1-0.3-0.1-0.4
							c-0.1-0.1-0.1-0.2-0.2-0.2c-0.1,0-0.2-0.1-0.3-0.1c-0.1,0-0.3,0-0.4,0.1c-0.1,0.1-0.2,0.3-0.4,0.4c-0.1,0.2-0.2,0.4-0.3,0.7
							c-0.1,0.3-0.1,0.6-0.1,0.9c0,0.3,0,0.5,0.1,0.7c0,0.2,0.1,0.3,0.2,0.4c0.1,0.1,0.1,0.2,0.2,0.3c0.1,0.1,0.2,0.1,0.3,0.1
							c0.1,0,0.2,0,0.4-0.1c0.1-0.1,0.2-0.2,0.3-0.4c0.1-0.2,0.2-0.5,0.3-0.7c0.1-0.3,0.1-0.7,0.1-1.1
							C95.9,104.6,95.9,104.4,95.8,104.3"/>
					</g>
					<g class="st3">
						<path class="st0" d="M97.3,103.3c0.1-0.1,0.3-0.1,0.4-0.1c0.1,0,0.3,0,0.5,0c0.1,0,0.1,0,0.2,0c0.1,0,0.1,0,0.2,0l-0.3,1.3
							l0,0l0.5-0.8c0.1-0.2,0.2-0.3,0.4-0.4c0.1-0.1,0.3-0.1,0.4-0.1c0.1,0,0.2,0,0.2,0.1c0,0.1,0.1,0.1,0.1,0.2c0,0.1,0,0.2,0,0.2
							c0,0.1,0,0.2-0.1,0.2c0,0-0.1,0-0.1,0c0,0-0.1,0-0.1,0c-0.2,0-0.3,0-0.4,0.1c-0.1,0.1-0.3,0.2-0.4,0.4
							c-0.1,0.2-0.2,0.4-0.3,0.7c-0.1,0.3-0.1,0.7-0.2,1.1l-0.1,1.3l-0.8,0l0.5-4l-0.6-0.2L97.3,103.3z"/>
					</g>
					<g class="st3">
						<path class="st0" d="M102.1,103.6c-0.1,0.1-0.3,0.1-0.6,0.1l-0.3,0l-0.2,1c0,0.1,0,0.2-0.1,0.4c0,0.1,0,0.3-0.1,0.4
							c0,0.2,0,0.3,0,0.4c0,0.1,0,0.2,0,0.3c0,0.2,0,0.3,0.1,0.4c0,0.1,0.1,0.2,0.1,0.3c0.1,0.1,0.1,0.1,0.2,0.2c0.1,0,0.2,0,0.3,0
							c0.1,0,0.1,0,0.2,0c0.1,0,0.1,0,0.2,0l0,0.2c0,0.1-0.1,0.1-0.1,0.2c-0.1,0.1-0.1,0.1-0.2,0.1c-0.1,0-0.2,0.1-0.2,0.1
							c-0.1,0-0.2,0-0.3,0c-0.3,0-0.5-0.1-0.7-0.3c-0.1-0.2-0.2-0.5-0.2-0.8c0-0.1,0-0.3,0-0.5c0-0.2,0-0.4,0.1-0.6
							c0-0.2,0.1-0.4,0.1-0.6c0-0.2,0.1-0.4,0.1-0.6l0.1-0.6c-0.1,0-0.2,0-0.3,0c-0.1,0-0.2,0-0.2,0l0-0.1c0.1-0.2,0.3-0.4,0.6-0.6
							c0.2-0.2,0.4-0.4,0.7-0.5l0.1,0l-0.2,0.8l0.3,0c0.1,0,0.3,0,0.4,0c0.1,0,0.2,0,0.4,0C102.3,103.4,102.2,103.5,102.1,103.6"/>
					</g>
				</g>
			</g>
		</g>
	</g>
</g>
</svg>
