<?xml version="1.0" encoding="utf-8"?>
<!-- Generator: Adobe Illustrator 19.2.1, SVG Export Plug-In . SVG Version: 6.00 Build 0)  -->
<svg version="1.1" id="Layer_1" xmlns="http://www.w3.org/2000/svg" xmlns:xlink="http://www.w3.org/1999/xlink" x="0px" y="0px"
	 viewBox="0 0 200 150" style="enable-background:new 0 0 200 150;" xml:space="preserve">
<style type="text/css">
	.st0{fill:#1D1D1B;}
	.st1{fill:#FFFFFF;}
	.st2{fill:#424143;}
	.st3{clip-path:url(#SVGID_2_);}
	.st4{clip-path:url(#SVGID_4_);}
	.st5{clip-path:url(#SVGID_6_);}
	.st6{clip-path:url(#SVGID_8_);}
	.st7{fill:#2D2E2D;}
	.st8{clip-path:url(#SVGID_10_);}
</style>
<g id="Link:_SEC_1_">
	<defs>
		<rect id="SVGID_7_" x="50" y="46.1" width="100" height="57.9"/>
	</defs>
	<clipPath id="SVGID_2_">
		<use xlink:href="#SVGID_7_"  style="overflow:visible;"/>
	</clipPath>
	<g class="st3">
		<rect x="50" y="46.1" class="st1" width="100" height="57.9"/>
	</g>
	<g class="st3">
		<path class="st7" d="M148,85l0.9-0.1l-0.2-1.9c-0.1-0.7,0.3-1,1-1.1l0.2,0l-0.1-0.9l-0.1,0c-0.5,0-1,0.4-1.1,0.9h0l-0.1-0.7
			l-0.9,0.1L148,85z M144.2,81.6l-0.9,0.1l0.2,2.5c0.1,0.9,0.5,1.2,1.3,1.1c0.6-0.1,0.9-0.4,1.1-0.8l0,0l0.1,0.6l0.9-0.1l-0.4-3.7
			l-0.9,0.1l0.2,2c0.1,0.7-0.2,1.1-0.7,1.1c-0.2,0-0.4,0-0.5-0.2c-0.1-0.1-0.2-0.4-0.2-0.6L144.2,81.6z M139.9,82l-0.9,0.1l0.2,2.5
			c0.1,0.9,0.5,1.2,1.3,1.1c0.6-0.1,0.9-0.4,1.1-0.8l0,0l0.1,0.6l0.9-0.1l-0.4-3.7l-0.9,0.1l0.2,2c0.1,0.7-0.2,1.1-0.7,1.1
			c-0.2,0-0.4,0-0.5-0.2c-0.1-0.1-0.2-0.4-0.2-0.6L139.9,82z M136.5,81.3l0,0.3c0.1,0.7,0,0.8-0.5,0.8l-0.1,0l0.1,0.6l0.6-0.1l0.2,2
			c0.1,0.8,0.5,1.1,1.2,1c0.3,0,0.6-0.1,0.7-0.1l-0.1-0.7c0,0-0.2,0-0.3,0.1c-0.4,0-0.5-0.1-0.6-0.5l-0.2-1.8l0.8-0.1l-0.1-0.7
			l-0.9,0.1l-0.1-1L136.5,81.3z M134.7,86.2l0.9-0.1l-0.5-5.4l-0.9,0.1L134.7,86.2z M130.9,82.9L130,83l0.2,2.5
			c0.1,0.9,0.5,1.2,1.4,1.1c0.6-0.1,0.9-0.4,1.1-0.8l0,0l0.1,0.6l0.9-0.1l-0.4-3.8l-0.9,0.2l0.2,2c0.1,0.7-0.2,1.1-0.7,1.1
			c-0.2,0-0.4,0-0.5-0.2c-0.1-0.1-0.2-0.4-0.2-0.6L130.9,82.9z M121.5,87.5l0.9-0.1l-0.2-2.5c-0.1-0.9-0.5-1.3-1.4-1.2
			c-0.6,0.1-1,0.4-1.1,0.8l0,0l-0.1-0.6l-0.9,0.1l0.4,3.7l0.9-0.1l-0.2-2.2c-0.1-0.6,0.2-0.9,0.7-1c0.2,0,0.4,0,0.5,0.2
			c0.1,0.1,0.2,0.4,0.2,0.6L121.5,87.5z M118.1,86.8l-0.9,0.1c0,0.2-0.2,0.5-0.7,0.5c-0.5,0.1-0.9-0.3-1-1l2.5-0.2l0-0.3
			c-0.1-1-0.7-1.8-1.9-1.7c-1.1,0.1-1.7,1-1.6,2.1c0.1,1.2,0.8,1.9,1.9,1.8C117.6,88,118.1,87.5,118.1,86.8 M117.1,85.7l-1.6,0.2
			c0-0.6,0.2-1,0.7-1C116.8,84.8,117,85.1,117.1,85.7L117.1,85.7z M112.4,87.3l-0.9,0.1c0,0.2-0.2,0.5-0.7,0.5c-0.5,0.1-0.9-0.3-1-1
			l2.5-0.2l0-0.3c-0.1-1-0.7-1.8-1.9-1.7c-1.1,0.1-1.7,1-1.6,2.1c0.1,1.2,0.8,1.9,1.9,1.8C111.8,88.5,112.4,88.1,112.4,87.3
			 M111.4,86.3l-1.6,0.2c0-0.6,0.2-1,0.7-1C111.1,85.3,111.3,85.7,111.4,86.3L111.4,86.3z M107.4,88.9l0.9-0.1l-0.4-3.7l-0.9,0.1
			L107.4,88.9z M106.9,84.5l0.9-0.1l-0.1-0.9l-0.9,0.1L106.9,84.5z M104.5,84.4l0,0.3c0.1,0.7,0,0.8-0.5,0.8l-0.1,0l0.1,0.6l0.6-0.1
			l0.2,2c0.1,0.8,0.5,1.1,1.2,1c0.3,0,0.6-0.1,0.7-0.1l-0.1-0.7c0,0-0.2,0-0.3,0.1c-0.4,0-0.5-0.1-0.6-0.5l-0.2-1.8l0.8-0.1
			l-0.1-0.7l-0.9,0.1l-0.1-1L104.5,84.4z M101.2,86.8c0-0.3,0.1-0.6,0.6-0.6c0.4,0,0.6,0.2,0.7,0.7l0,0.2c-0.8,0.1-1.3,0.2-1.7,0.4
			c-0.4,0.2-0.5,0.6-0.5,1c0.1,0.7,0.6,1,1.3,1c0.5,0,0.9-0.3,1.1-0.7l0,0c0.1,0.4,0.4,0.5,0.9,0.5l0.3,0l-0.1-0.7
			c-0.2,0-0.3-0.1-0.3-0.3l-0.1-1.4c-0.1-1-0.6-1.4-1.6-1.3c-0.9,0.1-1.5,0.6-1.4,1.3L101.2,86.8z M101.8,88.8
			c-0.3,0-0.6-0.1-0.6-0.4c0-0.2,0-0.3,0.1-0.4c0.2-0.2,0.5-0.2,1.2-0.3l0,0.1C102.6,88.4,102.2,88.8,101.8,88.8 M99.6,87.2
			c-0.1-0.9-0.8-1.3-1.7-1.2c-1.1,0.1-1.7,0.9-1.6,2.1c0.1,1.2,0.8,1.9,2,1.8c0.9-0.1,1.6-0.6,1.5-1.6l-0.9,0.1
			c0,0.3-0.1,0.8-0.7,0.8c-0.7,0.1-0.9-0.5-1-1.2c-0.1-0.7,0.1-1.3,0.7-1.4c0.5,0,0.7,0.2,0.8,0.6L99.6,87.2z M92.9,86.5L92,86.6
			l0.2,2.5c0.1,0.9,0.5,1.2,1.4,1.1c0.6-0.1,0.9-0.4,1.1-0.8l0,0l0.1,0.6l0.9-0.1l-0.4-3.7l-0.9,0.1l0.2,2c0.1,0.7-0.2,1.1-0.7,1.1
			c-0.2,0-0.4,0-0.5-0.2c-0.1-0.1-0.2-0.4-0.2-0.6L92.9,86.5z M90.8,85l-0.9,0.1l0.2,2.3l0,0c-0.2-0.3-0.6-0.5-1.1-0.5
			c-0.9,0.1-1.5,0.8-1.4,2.1c0.1,1.3,0.8,1.8,1.7,1.7c0.6-0.1,0.9-0.4,1.1-0.8l0,0l0.1,0.6l0.9-0.1L90.8,85z M90.2,88.9
			c0.1,0.6-0.2,1-0.8,1.1c-0.6,0.1-0.9-0.4-1-1.2c-0.1-0.8,0.2-1.3,0.7-1.4c0.5,0,0.9,0.3,0.9,1L90.2,88.9z M83.5,91.2l3.5-0.3
			L87,90.1l-2.5,0.2l-0.1-1.5l2.3-0.2l-0.1-0.7L84.2,88l-0.1-1.5l2.5-0.2l-0.1-0.8L83,85.9L83.5,91.2z M79.1,93
			c1.2-0.1,1.7-0.7,1.6-1.8l-0.3-3.5l-0.9,0.1l0,0.5l0,0c-0.2-0.3-0.6-0.6-1.1-0.5c-0.9,0.1-1.5,0.8-1.4,2c0.1,1.3,0.8,1.8,1.7,1.7
			c0.6-0.1,0.9-0.4,1-0.8l0,0l0.1,0.5c0.1,0.7-0.2,1-0.8,1c-0.5,0-0.7-0.1-0.8-0.4L77.3,92C77.4,92.7,78.1,93.1,79.1,93 M79.7,89.8
			c0.1,0.5-0.3,1-0.8,1c-0.6,0.1-0.9-0.4-1-1.1c-0.1-0.8,0.2-1.2,0.7-1.3c0.5,0,0.9,0.3,1,1L79.7,89.8z M75.5,91.9l0.9-0.1l-0.2-2.5
			c-0.1-0.9-0.5-1.3-1.4-1.2c-0.6,0.1-1,0.4-1.1,0.8l0,0l-0.1-0.6l-0.9,0.1l0.4,3.7l0.9-0.1l-0.2-2.2c-0.1-0.6,0.2-0.9,0.7-1
			c0.2,0,0.4,0,0.5,0.2c0.1,0.1,0.2,0.4,0.2,0.6L75.5,91.9z M71.1,92.4l0.9-0.1l-0.4-3.7l-0.9,0.1L71.1,92.4z M70.6,88l0.9-0.1
			L71.5,87l-0.9,0.1L70.6,88z M68.2,87.9l0,0.3c0.1,0.7,0,0.8-0.5,0.8l-0.1,0l0.1,0.6l0.6-0.1l0.2,2c0.1,0.8,0.5,1.1,1.2,1
			c0.3,0,0.6-0.1,0.7-0.1l-0.1-0.7c0,0-0.2,0-0.3,0.1c-0.4,0-0.5-0.1-0.6-0.5l-0.2-1.8l0.8-0.1l-0.1-0.7l-0.9,0.1l-0.1-1L68.2,87.9z
			 M66.4,92.8l0.9-0.1l-0.2-2.5c-0.1-0.9-0.5-1.3-1.3-1.2c-0.6,0.1-1,0.4-1.1,0.8l0,0l-0.2-2.4l-0.9,0.1L64,93l0.9-0.1l-0.2-2.2
			c-0.1-0.6,0.2-0.9,0.7-1c0.2,0,0.4,0,0.5,0.2c0.1,0.1,0.2,0.4,0.2,0.6L66.4,92.8z M63,90.7c-0.1-0.9-0.8-1.3-1.7-1.2
			c-1.1,0.1-1.7,0.9-1.6,2.1c0.1,1.2,0.8,1.9,2,1.8c0.9-0.1,1.5-0.6,1.5-1.6l-0.9,0.1c0,0.3-0.1,0.8-0.7,0.8c-0.7,0.1-0.9-0.5-1-1.2
			c-0.1-0.7,0.1-1.3,0.7-1.4c0.5,0,0.7,0.2,0.8,0.6L63,90.7z M58.1,93.6l0.9-0.1l-0.4-3.7l-0.9,0.1L58.1,93.6z M57.6,89.2l0.9-0.1
			l-0.1-0.9l-0.9,0.1L57.6,89.2z M55.2,89.1l0,0.3c0.1,0.7,0,0.8-0.5,0.8l-0.1,0l0.1,0.6l0.6-0.1l0.2,2c0.1,0.8,0.5,1.1,1.2,1
			c0.3,0,0.6-0.1,0.7-0.1L57.2,93c0,0-0.2,0-0.3,0.1c-0.4,0-0.5-0.1-0.6-0.5l-0.2-1.8l0.8-0.1L56.9,90l-0.9,0.1L56,89L55.2,89.1z
			 M53.9,90.1c-0.1-0.9-0.7-1.4-2-1.3c-1.2,0.1-1.8,0.8-1.8,1.7c0.1,0.8,0.6,1.3,1.5,1.3l0.8,0.1c0.6,0.1,0.8,0.3,0.9,0.7
			c0,0.4-0.2,0.8-1,0.9c-0.7,0.1-1.1-0.3-1.2-0.8l-1,0.1c0.2,1,0.9,1.5,2.2,1.4c1.3-0.1,2-0.8,1.9-1.9c-0.1-0.8-0.5-1.2-1.5-1.3
			L51.9,91c-0.6-0.1-0.8-0.3-0.8-0.7c0-0.4,0.3-0.8,0.8-0.8c0.6-0.1,0.9,0.3,1,0.7L53.9,90.1z"/>
	</g>
	<g class="st3">
		<path class="st7" d="M121.5,60c0-4.7,3-6.2,5.4-6.2c4,0,5.4,3.2,5.4,5.4l1,0c0-2.6-1.7-6.4-6.4-6.4c-2.9,0-6.4,1.7-6.4,7.2l0,10.8
			c0,5.4,3.5,7.2,6.4,7.2c4.7,0,6.4-3.8,6.4-6.4l-1,0c0,2.2-1.4,5.4-5.4,5.4c-2.4,0-5.4-1.5-5.4-6.2L121.5,60z M115.3,60
			c0-9.3,6.4-12.3,11.6-12.3c8.5,0,11.5,6.9,11.5,11.6l1,0c0-5.1-3.3-12.6-12.6-12.6c-5.6,0-12.6,3.2-12.6,13.3l0,10.8
			c0,10.1,7,13.3,12.6,13.4c9.3,0,12.6-7.5,12.6-12.6l-1,0c0,4.7-3,11.5-11.6,11.5c-5.1,0-11.6-3-11.6-12.3L115.3,60z M110.4,47.4
			l-15.6,0l0,35.9l15.6,0l0-1l-14.5,0l0-5.1l14.5,0l0-1l-14.5,0l0-7.2l13.5,0l0-1l-13.5,0l0-5.1l13.5,0l0-1l-13.5,0l0-7.2l14.5,0
			l0-1l-14.5,0l0-5.1l14.5,0L110.4,47.4z M87.3,73.2c0,6.7-5.6,9.9-10.8,9.9c-8.5,0-11.5-6.9-11.5-11.6l-1,0
			c0,5.1,3.3,12.6,12.6,12.6c5.6,0,11.8-3.5,11.8-10.9c0-7.3-5.3-9.2-10.7-11.2c-3-1.1-5.9-2.2-5.9-4.5c0-2.5,2.4-3.6,4.5-3.6
			c3.4,0,4.6,2.7,4.6,4.6l1,0c0-2.3-1.4-5.6-5.6-5.6c-2.7,0-5.5,1.4-5.5,4.6c0,3.1,3.3,4.3,6.6,5.5C82.2,64.7,87.3,66.6,87.3,73.2
			 M81.1,73.2c0,2.6-2.4,3.7-4.6,3.7c-4,0-5.4-3.2-5.4-5.4l-1,0c0,2.6,1.7,6.4,6.4,6.4c2.7,0,5.6-1.5,5.6-4.8c0-3-3.3-4.2-6.6-5.4
			c-5-1.8-10-3.7-10-10.3c0-6.8,5.5-9.8,10.7-9.8c8,0,10.7,6.4,10.7,10.7l1,0c0-4.8-3-11.8-11.8-11.8c-5.6,0-11.7,3.3-11.7,10.8
			c0,7.3,5.3,9.3,10.6,11.3C78.1,69.8,81.1,70.9,81.1,73.2"/>
	</g>
	<g class="st3">
		<path class="st7" d="M126.9,82.3c0.7-0.1,1.1,0.4,1.2,1l1-0.1c-0.2-1.2-1.2-1.7-2.3-1.6c-1.5,0.1-2.3,1.3-2.2,3
			c0.2,1.7,1.1,2.6,2.7,2.5c1.3-0.1,2-1,2-2l-1,0.1c0,0.6-0.3,1.2-1.1,1.2c-0.9,0.1-1.4-0.6-1.6-1.9
			C125.6,83.2,126.1,82.4,126.9,82.3"/>
	</g>
</g>
</svg>
