<?xml version="1.0" encoding="utf-8"?>
<!-- Generator: Adobe Illustrator 15.0.2, SVG Export Plug-In . SVG Version: 6.00 Build 0)  -->
<!DOCTYPE svg PUBLIC "-//W3C//DTD SVG 1.1//EN" "http://www.w3.org/Graphics/SVG/1.1/DTD/svg11.dtd">
<svg version="1.1" id="Layer_1" xmlns="http://www.w3.org/2000/svg" xmlns:xlink="http://www.w3.org/1999/xlink" x="0px" y="0px"
	 width="100px" height="100px" viewBox="0 0 100 100" enable-background="new 0 0 100 100" xml:space="preserve">
<g>
	<path fill="#1D1D1B" d="M38.9,33.614c-0.936,0.501-2.002,0.763-3.188,0.763c-2.372,0-4.069-1.61-4.069-4.016
		c0-2.47,1.697-4.08,4.069-4.08c1.175,0,2.23,0.251,3.036,0.968l-1.012,1.023c-0.49-0.479-1.24-0.751-2.013-0.751
		c-1.588,0-2.644,1.22-2.644,2.754c0,1.643,1.055,2.861,2.644,2.861c0.697,0,1.328-0.131,1.806-0.402v-1.817h-1.578v-1.241H38.9
		V33.614z"/>
	<path fill="#1D1D1B" d="M41.445,32.026c0.087,0.771,0.674,1.241,1.404,1.241c0.653,0,1.077-0.305,1.403-0.708l0.936,0.708
		c-0.609,0.75-1.382,1.044-2.209,1.044c-1.578,0-2.84-1.099-2.84-2.742s1.262-2.742,2.84-2.742c1.458,0,2.448,1.022,2.448,2.841
		v0.358H41.445z M44.122,31.047c-0.01-0.761-0.511-1.24-1.327-1.24c-0.772,0-1.251,0.49-1.349,1.24H44.122z"/>
	<path fill="#1D1D1B" d="M46.591,28.959h1.241v0.815h0.021c0.229-0.489,0.729-0.947,1.6-0.947c0.805,0,1.359,0.315,1.632,0.969
		c0.38-0.663,0.937-0.969,1.719-0.969c1.394,0,1.882,0.99,1.882,2.242v3.111h-1.305v-2.959c0-0.653-0.195-1.219-0.969-1.219
		c-0.816,0-1.121,0.675-1.121,1.35v2.828h-1.305v-3.111c0-0.643-0.261-1.066-0.892-1.066c-0.859,0-1.197,0.631-1.197,1.327v2.851
		h-1.306V28.959z"/>
	<path fill="#1D1D1B" d="M57.155,32.026c0.087,0.771,0.675,1.241,1.403,1.241c0.653,0,1.077-0.305,1.404-0.708l0.936,0.708
		c-0.609,0.75-1.383,1.044-2.209,1.044c-1.578,0-2.84-1.099-2.84-2.742s1.262-2.742,2.84-2.742c1.458,0,2.448,1.022,2.448,2.841
		v0.358H57.155z M59.832,31.047c-0.012-0.761-0.512-1.24-1.328-1.24c-0.771,0-1.25,0.49-1.349,1.24H59.832z"/>
	<path fill="#1D1D1B" d="M63.4,32.026c0.087,0.771,0.674,1.241,1.404,1.241c0.652,0,1.076-0.305,1.402-0.708l0.937,0.708
		c-0.609,0.75-1.382,1.044-2.209,1.044c-1.577,0-2.841-1.099-2.841-2.742s1.264-2.742,2.841-2.742c1.458,0,2.448,1.022,2.448,2.841
		v0.358H63.4z M66.076,31.047c-0.01-0.761-0.511-1.24-1.326-1.24c-0.773,0-1.252,0.49-1.35,1.24H66.076z"/>
	<path fill="#1D1D1B" d="M68.601,28.959h1.241v0.837h0.021c0.238-0.522,0.729-0.969,1.6-0.969c1.402,0,1.903,0.99,1.903,2.057v3.297
		h-1.306v-2.644c0-0.576-0.043-1.534-0.957-1.534c-0.86,0-1.197,0.631-1.197,1.327v2.851h-1.306V28.959z"/>
	<path fill="#1D1D1B" d="M74.236,30.067v-1.108h1.077v-1.513h1.306v1.513h1.436v1.108h-1.436v2.285c0,0.522,0.152,0.849,0.729,0.849
		c0.229,0,0.545-0.043,0.707-0.163v1.1c-0.271,0.13-0.729,0.174-1.033,0.174c-1.381,0-1.708-0.62-1.708-1.85v-2.395H74.236z"/>
	<path fill="#1D1D1B" d="M80.122,32.026c0.087,0.771,0.675,1.241,1.403,1.241c0.652,0,1.078-0.305,1.404-0.708l0.936,0.708
		c-0.609,0.75-1.382,1.044-2.209,1.044c-1.578,0-2.84-1.099-2.84-2.742s1.262-2.742,2.84-2.742c1.458,0,2.447,1.022,2.447,2.841
		v0.358H80.122z M82.799,31.047c-0.012-0.761-0.512-1.24-1.328-1.24c-0.771,0-1.25,0.49-1.349,1.24H82.799z"/>
</g>
<g>
	<path fill="#1D1D1B" d="M34.548,37.934h1.186l3.318,7.704h-1.567l-0.718-1.763h-3.34l-0.697,1.763h-1.534L34.548,37.934z
		 M36.289,42.699l-1.186-3.133l-1.208,3.133H36.289z"/>
	<path fill="#1D1D1B" d="M39.737,40.415h1.241v0.815H41c0.228-0.489,0.729-0.947,1.599-0.947c0.805,0,1.36,0.316,1.632,0.97
		c0.381-0.665,0.936-0.97,1.719-0.97c1.393,0,1.882,0.991,1.882,2.242v3.112h-1.306v-2.96c0-0.653-0.196-1.219-0.969-1.219
		c-0.816,0-1.12,0.675-1.12,1.35v2.829h-1.306v-3.112c0-0.643-0.261-1.066-0.893-1.066c-0.859,0-1.197,0.631-1.197,1.328v2.851
		h-1.306V40.415z"/>
	<path fill="#1D1D1B" d="M52.042,41.861c-0.25-0.349-0.577-0.533-1.022-0.533c-0.348,0-0.762,0.164-0.762,0.555
		c0,0.937,2.818,0.174,2.818,2.209c0,1.24-1.187,1.676-2.252,1.676c-0.806,0-1.502-0.207-2.035-0.805l0.87-0.815
		c0.337,0.368,0.686,0.641,1.241,0.641c0.381,0,0.869-0.185,0.869-0.599c0-1.077-2.817-0.229-2.817-2.218
		c0-1.166,1.044-1.688,2.1-1.688c0.696,0,1.437,0.219,1.86,0.795L52.042,41.861z"/>
	<path fill="#1D1D1B" d="M53.478,41.523v-1.108h1.077v-1.513h1.307v1.513h1.436v1.108h-1.436v2.285c0,0.522,0.152,0.85,0.729,0.85
		c0.229,0,0.544-0.045,0.707-0.164v1.099c-0.271,0.131-0.729,0.175-1.033,0.175c-1.383,0-1.709-0.62-1.709-1.85v-2.395H53.478z"/>
	<path fill="#1D1D1B" d="M59.363,43.483c0.088,0.771,0.676,1.24,1.404,1.24c0.652,0,1.076-0.305,1.403-0.708l0.936,0.708
		c-0.608,0.75-1.382,1.044-2.209,1.044c-1.577,0-2.84-1.099-2.84-2.741c0-1.645,1.263-2.743,2.84-2.743
		c1.458,0,2.448,1.023,2.448,2.841v0.359H59.363z M62.041,42.503c-0.012-0.761-0.512-1.24-1.328-1.24c-0.772,0-1.251,0.49-1.35,1.24
		H62.041z"/>
	<path fill="#1D1D1B" d="M64.564,40.415h1.305v0.826h0.022c0.282-0.598,0.859-0.958,1.545-0.958c0.163,0,0.315,0.034,0.468,0.077
		v1.262c-0.217-0.054-0.424-0.099-0.631-0.099c-1.229,0-1.404,1.034-1.404,1.316v2.798h-1.305V40.415z"/>
	<path fill="#1D1D1B" d="M72.746,44.854h-0.021c-0.381,0.631-1.067,0.914-1.796,0.914c-1.61,0-2.579-1.196-2.579-2.741
		c0-1.546,1.034-2.743,2.525-2.743c0.979,0,1.501,0.458,1.773,0.795h0.032v-3.666h1.306v8.226h-1.24V44.854z M71.189,44.592
		c0.958,0,1.535-0.75,1.535-1.565c0-0.816-0.577-1.567-1.535-1.567c-0.957,0-1.534,0.751-1.534,1.567
		C69.655,43.842,70.232,44.592,71.189,44.592z"/>
	<path fill="#1D1D1B" d="M78.729,44.92h-0.032c-0.37,0.587-0.979,0.848-1.676,0.848c-0.969,0-1.904-0.533-1.904-1.566
		c0-1.698,1.98-1.817,3.285-1.817h0.327v-0.141c0-0.643-0.501-0.98-1.196-0.98c-0.545,0-1.045,0.218-1.393,0.545l-0.686-0.686
		c0.576-0.588,1.392-0.839,2.219-0.839c2.23,0,2.23,1.611,2.23,2.351v3.004h-1.175V44.92z M78.653,43.298h-0.272
		c-0.718,0-1.958,0.055-1.958,0.806c0,0.479,0.489,0.685,0.913,0.685c0.893,0,1.317-0.467,1.317-1.196V43.298z"/>
	<path fill="#1D1D1B" d="M81.254,40.415h1.24v0.815h0.021c0.229-0.489,0.729-0.947,1.601-0.947c0.805,0,1.359,0.316,1.632,0.97
		c0.38-0.665,0.935-0.97,1.719-0.97c1.393,0,1.882,0.991,1.882,2.242v3.112h-1.305v-2.96c0-0.653-0.196-1.219-0.969-1.219
		c-0.816,0-1.121,0.675-1.121,1.35v2.829h-1.305v-3.112c0-0.643-0.262-1.066-0.893-1.066c-0.859,0-1.197,0.631-1.197,1.328v2.851
		h-1.305V40.415z"/>
</g>
<polygon fill="#1D1D1B" points="10.246,71.419 14.541,67.125 10.246,62.83 13.109,59.967 17.404,64.263 21.698,59.967 24.562,62.83 
	20.267,67.125 24.562,71.419 21.698,74.282 17.404,69.987 13.109,74.282 "/>
<polygon fill="#1D1D1B" points="10.247,37.035 14.541,32.74 10.247,28.445 13.109,25.583 17.404,29.877 21.699,25.583 
	24.562,28.445 20.267,32.74 24.562,37.035 21.699,39.897 17.404,35.604 13.11,39.897 "/>
<polygon fill="#1D1D1B" points="10.247,54.242 14.541,49.947 10.247,45.652 13.109,42.79 17.404,47.085 21.699,42.79 24.562,45.652 
	20.268,49.947 24.562,54.242 21.699,57.105 17.404,52.812 13.109,57.105 "/>
</svg>
