<?xml version="1.0" encoding="utf-8"?>
<!-- Generator: Adobe Illustrator 15.0.2, SVG Export Plug-In . SVG Version: 6.00 Build 0)  -->
<!DOCTYPE svg PUBLIC "-//W3C//DTD SVG 1.1//EN" "http://www.w3.org/Graphics/SVG/1.1/DTD/svg11.dtd">
<svg version="1.1" id="Layer_1" xmlns="http://www.w3.org/2000/svg" xmlns:xlink="http://www.w3.org/1999/xlink" x="0px" y="0px"
	 width="100px" height="100px" viewBox="0 0 100 100" enable-background="new 0 0 100 100" xml:space="preserve">
<g>
	<path d="M18.099,74.146h-1.164v-5.109h1.164l2.048,3.191l0,0v-3.191h1.164v5.109h-1.164l-2.048-3.19l0,0V74.146z"/>
	<path d="M30.277,70.027H28.51v0.992h1.681v1.035H28.51v1.035h1.768v1.034h-2.932v-5.109h2.932V70.027z"/>
	<path d="M35.881,69.015h3.6v1.035h-1.207v4.074H37.11V70.05h-1.207L35.881,69.015L35.881,69.015z"/>
	<path d="M48.319,71.278L47.5,74.146h-1.293l-1.444-5.109h1.271l0.862,3.535h0.022l0.927-3.535h0.862l0.927,3.535h0.086l0.863-3.535
		h1.293l-1.444,5.109h-1.293L48.319,71.278z"/>
	<path d="M59.591,68.929c1.424,0,2.587,1.164,2.587,2.63c0,1.51-1.099,2.651-2.587,2.651c-1.529,0-2.586-1.164-2.586-2.651
		C57.005,70.072,58.169,68.929,59.591,68.929z M59.591,73.09c0.929,0,1.315-0.755,1.315-1.531c0-0.732-0.431-1.531-1.315-1.531
		c-0.903,0-1.314,0.755-1.314,1.531S58.644,73.09,59.591,73.09z"/>
	<path d="M69.788,69.015c0.948,0,1.681,0.519,1.681,1.531c0,0.754-0.431,1.293-1.056,1.466l1.767,2.134h-1.466l-1.552-2.025v2.025
		h-1.164v-5.109L69.788,69.015L69.788,69.015z M69.249,71.3c0.452,0,0.948-0.021,0.948-0.689s-0.517-0.69-0.948-0.69h-0.13v1.337
		h0.13V71.3z"/>
	<path d="M80.716,74.146l-1.896-2.178v2.178h-1.164v-5.109h1.164v2.113l1.767-2.113h1.423l-2.091,2.415l2.371,2.694H80.716
		L80.716,74.146z"/>
</g>
<path d="M76.533,46.598c0.152,1.854-0.431,3.6-1.616,4.937c-1.271,1.422-3.168,2.197-5.303,2.197H23.423l0,0
	c-0.022,0-0.043,0-0.065,0h-0.021h-0.043l0,0c-1.875-0.021-3.643-0.754-4.958-2.068c-1.401-1.38-2.155-3.234-2.177-5.195l0,0
	c0-3.643,2.479-6.596,5.863-7.157c0.453-3.039,3.104-5.518,6.38-6.036c0.194-1.207,0.776-2.371,1.703-3.319
	c1.337-1.379,3.147-2.155,5.001-2.155c2.393,0,4.483,1.293,5.604,3.233c1.315-4.699,5.626-8.148,10.735-8.148
	c5.583,0,10.239,4.138,11.015,9.527c2.802-2.09,6.531-1.896,9.333,0.734L71.49,32.89c2.241,1.811,3.018,4.268,2.91,6.337
	c-0.064,1.228-0.476,2.306-1.208,3.19c0.712,0.237,1.294,0.647,1.854,1.207c0.776,0.776,1.315,1.747,1.465,2.824l0,0
	C76.512,46.49,76.512,46.533,76.533,46.598C76.533,46.533,76.533,46.555,76.533,46.598z M80.005,29.204
	c-1.639-2.22-4.074-3.858-6.748-4.548c-0.603-0.129-1.228,0.28-1.357,0.862c-0.237,0.604,0.152,1.38,0.799,1.509
	c2.694,0.711,5.021,2.608,6.25,5.109c1.013,2.048,1.271,4.461,0.712,6.682c-0.151,0.625,0.301,1.293,0.946,1.379
	c0.583,0.173,1.23-0.172,1.424-0.732C82.914,35.994,82.16,32.091,80.005,29.204z M72.309,28.858
	c-0.926-0.172-1.637,0.97-1.228,1.768c0.149,0.344,0.495,0.582,0.862,0.667c1.401,0.367,2.628,1.336,3.275,2.629
	c0.583,1.143,0.712,2.479,0.389,3.708c-0.173,0.625,0.279,1.314,0.926,1.422c0.583,0.173,1.272-0.172,1.445-0.775
	c0.603-2.199,0.15-4.656-1.186-6.488C75.716,30.324,74.099,29.204,72.309,28.858z"/>
<g>
	<path d="M16.18,57.57h5.971v1.702h-2.026v6.79h-1.94v-6.79h-2.026L16.18,57.57L16.18,57.57z"/>
	<path d="M25.211,66.085h-1.939V57.57h1.939v3.404h2.738V57.57h1.939v8.515h-1.939v-3.429h-2.738V66.085z"/>
	<path d="M36.398,59.294h-2.91v1.681h2.802v1.703h-2.802v1.703h2.932v1.704h-4.893V57.57h4.871V59.294L36.398,59.294z"/>
	<path d="M40.127,57.57h5.971v1.702h-2.026v6.79h-1.94v-6.79h-2.026L40.127,57.57L40.127,57.57z"/>
	<path d="M49.159,66.085h-1.94V57.57h1.94v3.404h2.738V57.57h1.939v8.515h-1.939v-3.429h-2.738V66.085z"/>
	<path d="M57.436,66.085h-1.939V57.57h1.939V66.085z"/>
	<path d="M61.015,66.085h-1.94V57.57h1.94l3.363,5.259h0.021V57.57h1.94v8.515h-1.94l-3.363-5.261h-0.021V66.085L61.015,66.085z"/>
	<path d="M75.672,63.152c-0.475,2.155-2.264,3.082-3.923,3.082c-2.284,0-4.139-1.982-4.139-4.397c0-2.457,1.768-4.396,4.139-4.396
		c1.508,0,2.521,0.561,3.276,1.444l-1.271,1.4c-0.497-0.797-1.144-1.077-1.897-1.077c-1.185,0-2.155,1.186-2.155,2.651
		c0,1.443,0.971,2.608,2.155,2.608c0.928,0,1.854-0.604,1.854-1.639h-1.94V61.32h3.925v1.832H75.672z"/>
	<path d="M82.526,58.237l-0.797,1.553c0,0-0.841-0.582-1.703-0.582c-0.668,0-0.991,0.28-0.991,0.754
		c0,0.475,0.817,0.819,1.767,1.229c0.949,0.388,2.005,1.208,2.005,2.328c0,2.026-1.553,2.737-3.212,2.737
		c-2.006,0-3.19-1.142-3.19-1.142l0.97-1.639c0,0,1.144,0.948,2.092,0.948c0.431,0,1.229-0.043,1.229-0.841
		c0-0.604-0.905-0.905-1.919-1.4c-1.034-0.496-1.617-1.294-1.617-2.178c0-1.572,1.401-2.607,2.76-2.607
		C81.428,57.419,82.526,58.237,82.526,58.237z"/>
</g>
</svg>
