<?xml version="1.0" encoding="UTF-8" standalone="no"?>
<!-- Created with Inkscape (http://www.inkscape.org/) -->

<svg
   xmlns:dc="http://purl.org/dc/elements/1.1/"
   xmlns:cc="http://creativecommons.org/ns#"
   xmlns:rdf="http://www.w3.org/1999/02/22-rdf-syntax-ns#"
   xmlns:svg="http://www.w3.org/2000/svg"
   xmlns="http://www.w3.org/2000/svg"
   version="1.1"
   width="100"
   height="100"
   viewBox="0 0 100 100"
   id="logo_x5F_3"
   xml:space="preserve"><metadata
     id="metadata51"><rdf:RDF><cc:Work
         rdf:about=""><dc:format>image/svg+xml</dc:format><dc:type
           rdf:resource="http://purl.org/dc/dcmitype/StillImage" /><dc:title></dc:title></cc:Work></rdf:RDF></metadata><defs
     id="defs49" /><g
     id="g3"><path
       d="m 38.4,31.083 c -0.936,0.501 -2.002,0.763 -3.188,0.763 -2.372,0 -4.069,-1.61 -4.069,-4.016 0,-2.47 1.697,-4.08 4.069,-4.08 1.175,0 2.23,0.251 3.036,0.968 l -1.012,1.023 c -0.49,-0.479 -1.24,-0.751 -2.013,-0.751 -1.588,0 -2.644,1.22 -2.644,2.754 0,1.643 1.055,2.861 2.644,2.861 0.697,0 1.328,-0.131 1.806,-0.402 V 28.386 H 35.451 V 27.145 H 38.4 v 3.938 z"
       id="path5" /><path
       d="m 40.945,29.495 c 0.087,0.771 0.674,1.241 1.404,1.241 0.653,0 1.077,-0.305 1.403,-0.708 l 0.936,0.708 c -0.609,0.75 -1.382,1.044 -2.209,1.044 -1.578,0 -2.84,-1.099 -2.84,-2.742 0,-1.643 1.262,-2.742 2.84,-2.742 1.458,0 2.448,1.022 2.448,2.841 v 0.358 h -3.982 z m 2.677,-0.979 c -0.01,-0.761 -0.511,-1.24 -1.327,-1.24 -0.772,0 -1.251,0.49 -1.349,1.24 h 2.676 z"
       id="path7" /><path
       d="m 46.091,26.428 h 1.241 v 0.815 h 0.021 c 0.229,-0.489 0.729,-0.947 1.6,-0.947 0.805,0 1.36,0.315 1.632,0.969 0.38,-0.663 0.936,-0.969 1.719,-0.969 1.393,0 1.882,0.99 1.882,2.242 v 3.111 H 52.88 V 28.69 c 0,-0.653 -0.195,-1.219 -0.968,-1.219 -0.816,0 -1.121,0.675 -1.121,1.35 v 2.828 h -1.306 v -3.111 c 0,-0.643 -0.261,-1.066 -0.892,-1.066 -0.859,0 -1.197,0.631 -1.197,1.327 V 31.65 H 46.09 v -5.222 z"
       id="path9" /><path
       d="m 56.655,29.495 c 0.087,0.771 0.674,1.241 1.403,1.241 0.653,0 1.077,-0.305 1.404,-0.708 l 0.935,0.708 c -0.609,0.75 -1.382,1.044 -2.208,1.044 -1.578,0 -2.84,-1.099 -2.84,-2.742 0,-1.643 1.262,-2.742 2.84,-2.742 1.458,0 2.448,1.022 2.448,2.841 v 0.358 h -3.982 z m 2.677,-0.979 c -0.011,-0.761 -0.511,-1.24 -1.328,-1.24 -0.772,0 -1.251,0.49 -1.349,1.24 h 2.677 z"
       id="path11" /><path
       d="m 62.9,29.495 c 0.087,0.771 0.675,1.241 1.404,1.241 0.653,0 1.077,-0.305 1.403,-0.708 l 0.936,0.708 c -0.609,0.75 -1.382,1.044 -2.209,1.044 -1.578,0 -2.84,-1.099 -2.84,-2.742 0,-1.643 1.263,-2.742 2.84,-2.742 1.458,0 2.448,1.022 2.448,2.841 v 0.358 H 62.9 z m 2.677,-0.979 c -0.011,-0.761 -0.511,-1.24 -1.327,-1.24 -0.773,0 -1.251,0.49 -1.35,1.24 h 2.677 z"
       id="path13" /><path
       d="m 68.101,26.428 h 1.241 v 0.837 h 0.021 c 0.239,-0.522 0.729,-0.969 1.6,-0.969 1.403,0 1.904,0.99 1.904,2.057 v 3.297 h -1.305 v -2.644 c 0,-0.576 -0.044,-1.534 -0.958,-1.534 -0.86,0 -1.197,0.631 -1.197,1.327 v 2.851 h -1.305 v -5.222 z"
       id="path15" /><path
       d="m 73.736,27.536 v -1.108 h 1.077 v -1.513 h 1.305 v 1.513 h 1.437 v 1.108 h -1.437 v 2.285 c 0,0.522 0.152,0.849 0.729,0.849 0.229,0 0.544,-0.043 0.708,-0.163 v 1.1 c -0.272,0.13 -0.729,0.174 -1.034,0.174 -1.381,0 -1.708,-0.62 -1.708,-1.85 v -2.395 h -1.077 z"
       id="path17" /><path
       d="m 79.622,29.495 c 0.087,0.771 0.675,1.241 1.404,1.241 0.652,0 1.077,-0.305 1.403,-0.708 l 0.936,0.708 c -0.609,0.75 -1.381,1.044 -2.208,1.044 -1.578,0 -2.84,-1.099 -2.84,-2.742 0,-1.643 1.262,-2.742 2.84,-2.742 1.458,0 2.447,1.022 2.447,2.841 v 0.358 h -3.982 z m 2.677,-0.979 c -0.011,-0.761 -0.512,-1.24 -1.328,-1.24 -0.772,0 -1.251,0.49 -1.349,1.24 h 2.677 z"
       id="path19" /></g><g
     id="g21"><path
       d="m 34.048,35.402 h 1.186 l 3.318,7.704 h -1.567 l -0.718,-1.763 h -3.34 l -0.697,1.763 h -1.534 l 3.352,-7.704 z m 1.741,4.766 -1.186,-3.133 -1.208,3.133 h 2.394 z"
       id="path23" /><path
       d="m 39.237,37.884 h 1.241 v 0.815 H 40.5 c 0.228,-0.489 0.729,-0.947 1.599,-0.947 0.805,0 1.36,0.316 1.632,0.97 0.381,-0.665 0.936,-0.97 1.719,-0.97 1.393,0 1.882,0.991 1.882,2.242 v 3.112 h -1.306 v -2.96 c 0,-0.653 -0.196,-1.219 -0.969,-1.219 -0.816,0 -1.12,0.675 -1.12,1.35 v 2.829 h -1.306 v -3.112 c 0,-0.643 -0.261,-1.066 -0.893,-1.066 -0.859,0 -1.197,0.631 -1.197,1.328 v 2.851 h -1.306 v -5.223 z"
       id="path25" /><path
       d="m 51.542,39.33 c -0.25,-0.349 -0.577,-0.533 -1.022,-0.533 -0.348,0 -0.762,0.164 -0.762,0.555 0,0.937 2.818,0.174 2.818,2.209 0,1.24 -1.186,1.676 -2.252,1.676 -0.805,0 -1.502,-0.207 -2.035,-0.805 l 0.87,-0.815 c 0.337,0.368 0.686,0.641 1.241,0.641 0.381,0 0.87,-0.185 0.87,-0.599 0,-1.077 -2.818,-0.229 -2.818,-2.218 0,-1.166 1.044,-1.688 2.1,-1.688 0.697,0 1.437,0.219 1.861,0.795 l -0.871,0.782 z"
       id="path27" /><path
       d="m 52.978,38.992 v -1.108 h 1.078 v -1.513 h 1.306 v 1.513 h 1.436 v 1.108 h -1.436 v 2.285 c 0,0.522 0.152,0.85 0.729,0.85 0.228,0 0.544,-0.045 0.707,-0.164 v 1.099 c -0.272,0.131 -0.729,0.175 -1.034,0.175 -1.382,0 -1.708,-0.62 -1.708,-1.85 v -2.395 h -1.078 z"
       id="path29" /><path
       d="m 58.864,40.952 c 0.087,0.771 0.675,1.24 1.403,1.24 0.653,0 1.077,-0.305 1.404,-0.708 l 0.936,0.708 c -0.609,0.75 -1.382,1.044 -2.209,1.044 -1.577,0 -2.84,-1.099 -2.84,-2.741 0,-1.645 1.263,-2.743 2.84,-2.743 1.458,0 2.448,1.023 2.448,2.841 v 0.359 h -3.982 z m 2.677,-0.98 c -0.011,-0.761 -0.511,-1.24 -1.327,-1.24 -0.773,0 -1.251,0.49 -1.35,1.24 h 2.677 z"
       id="path31" /><path
       d="m 64.064,37.884 h 1.306 v 0.826 h 0.022 c 0.283,-0.598 0.859,-0.958 1.545,-0.958 0.163,0 0.315,0.034 0.468,0.077 v 1.262 c -0.217,-0.054 -0.424,-0.099 -0.631,-0.099 -1.229,0 -1.404,1.034 -1.404,1.316 v 2.798 h -1.306 v -5.222 z"
       id="path33" /><path
       d="m 72.246,42.322 h -0.021 c -0.381,0.631 -1.067,0.914 -1.795,0.914 -1.61,0 -2.579,-1.196 -2.579,-2.741 0,-1.546 1.034,-2.743 2.524,-2.743 0.979,0 1.501,0.458 1.774,0.795 h 0.032 v -3.666 h 1.306 v 8.226 H 72.246 V 42.322 z M 70.69,42.061 c 0.958,0 1.534,-0.75 1.534,-1.565 0,-0.816 -0.577,-1.567 -1.534,-1.567 -0.957,0 -1.535,0.751 -1.535,1.567 0,0.815 0.577,1.565 1.535,1.565 z"
       id="path35" /><path
       d="m 78.229,42.389 h -0.033 c -0.37,0.587 -0.979,0.848 -1.675,0.848 -0.968,0 -1.904,-0.533 -1.904,-1.566 0,-1.698 1.98,-1.817 3.286,-1.817 h 0.327 v -0.141 c 0,-0.643 -0.5,-0.98 -1.197,-0.98 -0.544,0 -1.044,0.218 -1.393,0.545 l -0.686,-0.686 c 0.576,-0.588 1.392,-0.839 2.219,-0.839 2.231,0 2.231,1.611 2.231,2.351 v 3.004 h -1.175 v -0.719 z m -0.076,-1.622 h -0.272 c -0.718,0 -1.958,0.055 -1.958,0.806 0,0.479 0.49,0.685 0.914,0.685 0.893,0 1.317,-0.467 1.317,-1.196 v -0.295 z"
       id="path37" /><path
       d="m 80.753,37.884 h 1.24 v 0.815 h 0.021 c 0.229,-0.489 0.729,-0.947 1.6,-0.947 0.805,0 1.36,0.316 1.632,0.97 0.38,-0.665 0.935,-0.97 1.719,-0.97 1.393,0 1.882,0.991 1.882,2.242 v 3.112 h -1.305 v -2.96 c 0,-0.653 -0.196,-1.219 -0.968,-1.219 -0.816,0 -1.121,0.675 -1.121,1.35 v 2.829 h -1.305 v -3.112 c 0,-0.643 -0.261,-1.066 -0.892,-1.066 -0.86,0 -1.197,0.631 -1.197,1.328 v 2.851 h -1.306 v -5.223 z"
       id="path39" /></g><polygon
     points="14.041,64.594 9.746,60.299 12.609,57.436 16.904,61.731 21.198,57.436 24.062,60.299 19.767,64.594 24.062,68.888 21.198,71.751 16.904,67.456 12.609,71.751 9.746,68.888 "
     id="polygon41" /><polygon
     points="14.041,30.209 9.747,25.914 12.609,23.052 16.904,27.346 21.199,23.052 24.062,25.914 19.767,30.209 24.062,34.504 21.199,37.366 16.904,33.072 12.61,37.366 9.747,34.504 "
     id="polygon43" /><polygon
     points="14.041,47.416 9.747,43.121 12.609,40.259 16.904,44.554 21.199,40.259 24.062,43.121 19.768,47.416 24.062,51.711 21.199,54.574 16.904,50.28 12.609,54.574 9.747,51.711 "
     id="polygon45" /></svg>