<?xml version="1.0" encoding="utf-8"?>
<!-- Generator: Adobe Illustrator 19.2.1, SVG Export Plug-In . SVG Version: 6.00 Build 0)  -->
<svg version="1.1" id="Layer_1" xmlns="http://www.w3.org/2000/svg" xmlns:xlink="http://www.w3.org/1999/xlink" x="0px" y="0px"
	 viewBox="0 0 200 150" style="enable-background:new 0 0 200 150;" xml:space="preserve">
<style type="text/css">
	.st0{fill:#1D1D1B;}
	.st1{fill:#FFFFFF;}
	.st2{fill:#424143;}
	.st3{clip-path:url(#SVGID_2_);}
	.st4{clip-path:url(#SVGID_4_);}
	.st5{clip-path:url(#SVGID_6_);}
	.st6{clip-path:url(#SVGID_8_);}
	.st7{fill:#2D2E2D;}
	.st8{clip-path:url(#SVGID_10_);}
</style>
<g id="Link:_EU_5_">
	<g>
		<rect x="50" y="42.1" class="st0" width="100" height="65.8"/>
	</g>
	<g>
		<polygon class="st1" points="99.9,49.5 100.8,52.1 103.5,52.1 101.3,53.7 102.1,56.2 99.9,54.6 97.8,56.2 98.6,53.7 96.4,52.1 
			99.1,52.1 		"/>
	</g>
	<g>
		<polygon class="st1" points="99.9,94 100.8,96.6 103.5,96.6 101.3,98.1 102.1,100.7 99.9,99.1 97.8,100.7 98.6,98.1 96.4,96.5 
			99.1,96.6 		"/>
	</g>
	<g>
		<polygon class="st1" points="88.9,52.5 89.7,55.1 92.4,55 90.2,56.6 91.1,59.2 88.9,57.6 86.7,59.2 87.5,56.6 85.4,55 88.1,55.1 
					"/>
	</g>
	<g>
		<polygon class="st1" points="80.7,60.6 81.6,63.2 84.3,63.2 82.1,64.8 82.9,67.3 80.7,65.7 78.6,67.3 79.4,64.8 77.2,63.2 
			79.9,63.2 		"/>
	</g>
	<g>
		<polygon class="st1" points="77.7,71.7 78.6,74.3 81.3,74.3 79.1,75.9 79.9,78.4 77.7,76.8 75.6,78.4 76.4,75.9 74.2,74.3 
			76.9,74.3 		"/>
	</g>
	<g>
		<polygon class="st1" points="80.7,82.8 81.5,85.4 84.2,85.4 82,87 82.9,89.5 80.7,87.9 78.5,89.5 79.4,87 77.2,85.4 79.9,85.4 		
			"/>
	</g>
	<g>
		<polygon class="st1" points="88.9,91 89.7,93.5 92.4,93.5 90.2,95.1 91,97.7 88.9,96.1 86.7,97.7 87.5,95.1 85.4,93.5 88.1,93.5 
					"/>
	</g>
	<g>
		<polygon class="st1" points="111,52.5 110.2,55.1 107.5,55 109.7,56.6 108.8,59.2 111,57.6 113.2,59.2 112.3,56.6 114.5,55 
			111.8,55.1 		"/>
	</g>
	<g>
		<polygon class="st1" points="119.2,60.6 118.3,63.2 115.6,63.2 117.8,64.8 117,67.3 119.2,65.8 121.3,67.4 120.5,64.8 122.7,63.2 
			120,63.2 		"/>
	</g>
	<g>
		<polygon class="st1" points="122.1,71.7 121.3,74.3 118.6,74.3 120.8,75.9 120,78.4 122.1,76.8 124.3,78.4 123.5,75.9 125.7,74.3 
			123,74.3 		"/>
	</g>
	<g>
		<polygon class="st1" points="119.2,82.8 118.4,85.4 115.7,85.4 117.8,87 117,89.5 119.2,87.9 121.4,89.5 120.5,87 122.7,85.4 
			120,85.4 		"/>
	</g>
	<g>
		<polygon class="st1" points="111,91 110.2,93.6 107.5,93.5 109.7,95.1 108.8,97.7 111,96.1 113.2,97.7 112.3,95.1 114.5,93.5 
			111.8,93.6 		"/>
	</g>
</g>
</svg>
