<?xml version="1.0" encoding="utf-8"?>
<!-- Generator: Adobe Illustrator 19.2.1, SVG Export Plug-In . SVG Version: 6.00 Build 0)  -->
<svg version="1.1" id="Layer_1" xmlns="http://www.w3.org/2000/svg" xmlns:xlink="http://www.w3.org/1999/xlink" x="0px" y="0px"
	 viewBox="0 0 200 150" style="enable-background:new 0 0 200 150;" xml:space="preserve">
<style type="text/css">
	.st0{fill:#1D1D1B;}
	.st1{fill:#FFFFFF;}
	.st2{fill:#424143;}
	.st3{clip-path:url(#SVGID_2_);}
	.st4{clip-path:url(#SVGID_4_);}
	.st5{clip-path:url(#SVGID_6_);}
	.st6{clip-path:url(#SVGID_8_);}
	.st7{fill:#2D2E2D;}
	.st8{clip-path:url(#SVGID_10_);}
</style>
<g id="Link:_Cinekid_1_">
	<g>
		<defs>
			<rect id="SVGID_3_" x="55" y="37" width="90" height="74.1"/>
		</defs>
		<clipPath id="SVGID_2_">
			<use xlink:href="#SVGID_3_"  style="overflow:visible;"/>
		</clipPath>
		<g class="st3">
			<path class="st0" d="M124.5,69.3l-2-0.8c-0.7-0.3-1.4-0.7-2-1.1c-0.6-0.5-1.1-1-1.6-1.6c-0.4-0.5-0.7-1.1-1-1.7
				c0.5,0.1,1,0.3,1.4,0.5l2.2,1.1l1.5,0.7l-0.2-1.6l-0.3-2.4c-0.6-4.1-3.4-7.4-7.3-8.6c0.2-0.2,0.4-0.3,0.7-0.5
				c0.1-0.1,0.2-0.1,0.3-0.2c0.6-0.3,1.3-0.6,2-0.8l2.4-0.6l1.6-0.4l-1.2-1.1l-1.8-1.6c-1.4-1.3-3.1-2.2-4.8-2.7
				c0.2-0.1,0.4-0.3,0.6-0.4l2.1-1.2l1.4-0.8l-1.5-0.7l-2.2-1.1c-2.9-1.4-6.3-1.7-9.4-0.7c-2,0.6-3.9,1.8-5.4,3.3
				c-0.3,0.4-0.7,0.7-1,1.1c-0.3-0.6-0.6-1.2-0.8-1.8c-0.2-0.7-0.3-1.5-0.3-2.3l0-2.4l0-1.7l-1.4,0.9l-2,1.4c-2,1.4-3.6,3.3-4.5,5.4
				c-2.2-0.7-4.5-0.7-6.7-0.2c-1.9,0.5-3.6,1.4-5,2.7l-1.8,1.6L75.1,50l1.6,0.4l2.4,0.6c0.7,0.2,1.4,0.5,2,0.8
				c0.4,0.2,0.7,0.5,1,0.7c-3.2,1.4-5.8,4.3-6.8,7.8l-0.6,2.1l-0.4,1.4l1.4-0.4l2.1-0.7c0.6-0.2,1.2-0.3,1.8-0.4
				c-1.1,1.6-1.8,3.6-1.9,5.7l-0.1,2.5l-0.1,1.7l1.4-0.9l2.1-1.3c0.5-0.3,1-0.5,1.5-0.7c-2,2.2-3.2,5.2-3.1,8.3l0,2.2l0,1.5l1.2-0.8
				l1.8-1.2c0.6-0.4,1.2-0.7,1.9-0.9c0,0.3-0.1,0.6-0.2,0.9c-0.2,0.7-0.5,1.5-0.9,2.1l-1.1,1.9l-0.7,1.3l1.5-0.1l2.2-0.1
				c2.3-0.1,4.5-0.9,6.3-2.2c0.4,0.5,0.8,0.9,1.1,1.5c0.4,0.6,0.6,1.4,0.8,2.1c0.2,0.7,0.3,1.5,0.2,2.3l-0.1,2.2l-0.1,1.5l1.3-0.8
				l1.9-1.1c1.2-0.7,2.2-1.6,3-2.5c0.8,0.7,1.7,1.4,2.7,1.9l1.9,1l1.3,0.7l-0.1-1.5l-0.2-2.2c-0.1-0.8,0-1.6,0.1-2.3
				c0.1-0.7,0.4-1.5,0.7-2.1c0.3-0.7,0.8-1.4,1.3-1.9c0.3,0.3,0.5,0.7,0.7,1.1c0.4,0.7,0.7,1.4,0.8,2.2l0.5,2.1l0.3,1.4l1-1.1
				l1.5-1.6c1.1-1.2,1.9-2.5,2.5-3.9l0.7,0.5l1.1,0.9l0.1-1.5l0.2-2.2c0.1-1.7-0.1-3.3-0.5-4.8c2.4,0,4.8-0.8,6.9-2.3l1.8-1.3
				l1.2-0.8L124.5,69.3z"/>
		</g>
	</g>
	<g>
		<defs>
			<rect id="SVGID_5_" x="55" y="37" width="90" height="76"/>
		</defs>
		<clipPath id="SVGID_4_">
			<use xlink:href="#SVGID_5_"  style="overflow:visible;"/>
		</clipPath>
		<g class="st4">
			<path class="st1" d="M121.7,70.3c-0.9-0.3-1.7-0.8-2.5-1.4c-2.3-1.8-3.7-4.3-4-7c0.9-0.2,1.8-0.2,2.8,0c0.8,0.1,1.5,0.4,2.2,0.7
				c-0.5-3.5-3.2-6.5-6.9-7.1c-0.9-0.2-1.9-0.1-2.7,0c0.9-1.7,2.3-3.1,4-4.2c0.9-0.6,1.9-1,2.9-1.2c-2.1-1.9-4.9-2.9-7.7-2.8
				c0.4-0.7,0.9-1.4,1.5-2c0.7-0.7,1.5-1.3,2.3-1.8c-4-2-8.9-1.2-12.2,2.1c-1,1-1.7,2.2-2.2,3.4c-1.5-1.3-2.7-3-3.3-5
				c-0.3-1-0.4-1.9-0.4-2.9c-2.3,1.6-3.8,4-4.4,6.6c-3.8-2.2-8.5-1.6-11.6,1.2c0.9,0.2,1.7,0.6,2.5,1.1c1.5,0.9,2.7,2.2,3.6,3.6
				c-4.1,0.5-7.5,3.5-8.6,7.4c0.9-0.3,1.8-0.5,2.8-0.5c1.5,0,2.9,0.2,4.1,0.7c-2.6,1.5-4.3,4.2-4.3,7.2c0.6-0.4,1.3-0.7,2.1-1
				c1.8-0.5,3.8-0.6,5,0.2c-0.7,0.7-1.4,1.4-1.8,2.1c-2.4,2-3.8,4.9-3.8,8.1c0.8-0.5,1.6-1,2.6-1.3c0.8-0.3,1.6-0.4,2.4-0.5
				c0.2,1.2,0.1,2.5-0.2,3.8c-0.2,1-0.6,1.8-1.1,2.6c2.5-0.1,4.8-1.2,6.5-2.8c1.8,1.4,3.1,3.3,3.7,5.7c0.2,1,0.3,1.9,0.3,2.8
				c1.7-1,3-2.4,3.8-4.1c0.9,1.4,2.2,2.6,3.7,3.4c-0.1-0.9-0.1-1.9,0.1-2.9c0.5-2.7,2-4.9,4-6.4c0.9,0.8,1.7,1.7,2.3,2.8
				c0.5,0.9,0.8,1.8,1,2.7c1.5-1.6,2.5-3.7,2.7-5.8c0.5,0.3,0.9,0.6,1.4,0.9c0.2-2.6-0.6-5.2-2.1-7.2
				C115.6,72.7,119,72.2,121.7,70.3"/>
		</g>
		<g class="st4">
			<path class="st0" d="M93.4,86.8L93.4,86.8c-2.7-0.4-5.6-2.8-5.7-6.4c0-0.5,0-1,0.1-1.5c0.3-2.2,1.4-4.4,3-6.1
				c1.8-1.9,4.2-3.1,6.8-3.3c1.5-0.2,2.8-0.1,4,0c0.8,0.1,1.5,0.3,2.2,0.5c1.2,0.4,2.1,0.9,2.7,1.6c0.7,0.7,1.1,1.7,0.9,2.6
				c-0.1,0.8-0.6,1.6-1.4,2.1c-0.7,0.4-1.5,0.7-2.4,0.8c-0.9,0.1-2,0.4-3.1,0.9c-0.5,0.3-0.6-0.1-0.9,0.5c-0.3,0.5-0.4,0.6-0.6,1.4
				c0,0.1-0.4,1.2-0.4,1.3c0,0.2-0.2,0.8-0.2,1c-0.2,1.3-0.5,2.3-1,3c-0.7,1-1.7,1.6-2.9,1.7C94.1,86.8,93.7,86.8,93.4,86.8"/>
		</g>
		<g class="st4">
			<path class="st0" d="M88.5,80.4c0-0.5,0-0.9,0.1-1.4c0.3-2,1.2-4,2.8-5.6c1.5-1.6,3.7-2.8,6.2-3.1c1.5-0.1,2.7-0.1,3.8,0
				c0.7,0.1,1.4,0.3,2,0.5l0,0c1.1,0.4,1.8,0.8,2.4,1.4c0.5,0.5,0.8,1.2,0.7,1.8c-0.1,0.6-0.5,1.2-1,1.5c-0.5,0.4-1.2,0.6-2,0.6
				c-0.9,0.1-2.1,0.3-3.4,1c-0.7,0.4-1.3,0.9-1.7,1.6c-0.4,0.7-0.6,1.5-0.7,2.3c0,0.1,0,0.3-0.1,0.4c0,0.2,0,0.4-0.1,0.6
				c-0.1,1-0.4,1.9-0.9,2.7c-0.5,0.7-1.3,1.2-2.2,1.3c-0.3,0-0.6,0-1,0C91,85.5,88.6,83.3,88.5,80.4"/>
		</g>
		<g class="st4">
			<path class="st1" d="M97.7,71.6c-2.3,0.2-4.1,1.3-5.4,2.7c-1.3,1.4-2.2,3.2-2.4,4.9c-0.1,0.4-0.1,0.8-0.1,1.2
				c0,2.2,1.9,4,3.8,4.2c0.2,0,0.5,0,0.7,0c0.6,0,0.9-0.2,1.2-0.7c0.3-0.4,0.6-1.2,0.7-2.1c0-0.2,0-0.3,0.1-0.5c0-0.2,0-0.3,0.1-0.5
				c0.1-1,0.4-1.9,0.9-2.8c0.5-0.9,1.2-1.6,2.2-2.1c1.5-0.7,2.8-1.1,3.9-1.2c0.6,0,1.1-0.2,1.4-0.4c0.3-0.2,0.4-0.4,0.5-0.6
				c0-0.2,0-0.4-0.3-0.7c-0.3-0.3-0.9-0.7-1.9-1l0.2-0.6l-0.2,0.6c-0.5-0.2-1.1-0.3-1.7-0.4C100.3,71.5,99.1,71.5,97.7,71.6"/>
		</g>
		<g class="st4">
			<path class="st0" d="M100,72.9c0,0-3.2-0.6-5.5,2.3c-3.9,5.1-1.1,7.4-1.1,7.4s-0.9-2.8,1.6-6.2c1.3-1.6,2.8-2.7,4.6-2.7
				C100.2,73.7,100,72.9,100,72.9"/>
		</g>
		<g class="st4">
			<path class="st1" d="M97.1,70.9c0,3.5-2.5,6.4-5.6,6.4c-3.1,0-5.6-2.9-5.6-6.4c0-3.5,2.5-6.4,5.6-6.4
				C94.6,64.5,97.1,67.3,97.1,70.9"/>
		</g>
		<g class="st4">
			<path class="st1" d="M106.4,73c0,3.4-2.7,6.2-6.1,6.2c-3.4,0-6.1-2.8-6.1-6.2c0-3.4,2.7-6.2,6.1-6.2
				C103.7,66.8,106.4,69.6,106.4,73"/>
		</g>
		<g class="st4">
			<path class="st1" d="M111.8,65.2c0,3.4-2.7,6.2-6.1,6.2c-3.4,0-6.1-2.8-6.1-6.2c0-3.4,2.7-6.2,6.1-6.2
				C109,59,111.8,61.8,111.8,65.2"/>
		</g>
		<g class="st4">
			<path class="st0" d="M108.5,71.5c-0.8-0.5-1.5-0.7-2.3-0.7c-0.7,0-1.1,0.2-1.1,0.2l-0.3,0.2l0.4,1.2c0.3,0.8,0.4,1.7,0.2,2.6
				c-0.4,2.3-2.4,4-4.8,4c-0.3,0-0.6,0-0.8-0.1c-2.1-0.4-3.7-2-4-4.1l-0.3-2.2l-1.5,1.6c-0.8,0.9-2,1.4-3.1,1.4
				c-0.2,0-0.5,0-0.7-0.1c-2.3-0.4-3.9-2.6-3.5-5c0.1-0.7,0.4-1.4,0.9-2c0.1-0.1,0.1-0.3,0.1-0.5c-0.1-0.3-0.7-0.8-1.3-0.8
				c-0.3,0-0.5,0.1-0.7,0.4c-0.5,0.8-1,1.8-1.1,2.5c-0.6,3.5,1.7,6.8,5.2,7.4c0.4,0.1,0.7,0.1,1.1,0.1c1.2,0,2.3-0.3,3.4-1
				c0.9,2.2,2.9,3.8,5.3,4.2c0.4,0.1,0.8,0.1,1.2,0.1c3.4,0,6.3-2.4,6.9-5.8c0.1-0.7,0.1-1.3,0.1-2c0.4,0.2,0.9,0.5,1.8,1.4l0.5,0.5
				l0.2-0.7C110.1,74.5,110.6,72.8,108.5,71.5"/>
		</g>
		<g class="st4">
			<path class="st0" d="M94.6,74.7c-1.8-0.1-4.4-3.5-4.4-4.8c0.1-1.3,0.7-2.7,4.8-2.5c4.1,0.2,4.6,1.3,4.5,3
				C99.4,72.2,96.4,74.8,94.6,74.7"/>
		</g>
		<g class="st4">
			<path class="st0" d="M99,65.6c-0.5-0.7-0.9-1.5-1-2.3c-0.3-1.8,0.4-3.7,2-4.8c0.7-0.5,1.5-0.9,2.3-1c1.8-0.3,3.7,0.4,4.8,2
				c0.5,0.7,0.9,1.5,1,2.3c0.3,1.8-0.4,3.7-2,4.8l-0.4-0.6l0.4,0.6c-0.7,0.5-1.5,0.9-2.3,1C102.1,67.8,100.2,67.1,99,65.6"/>
		</g>
		<g class="st4">
			<path class="st1" d="M100.9,59.5c-1.1,0.8-1.6,2.2-1.4,3.5c0.1,0.6,0.3,1.2,0.7,1.7c0.8,1.1,2.2,1.6,3.5,1.4
				c0.6-0.1,1.2-0.3,1.7-0.7c1.1-0.8,1.6-2.2,1.4-3.5c-0.1-0.6-0.3-1.2-0.7-1.7c-0.8-1.1-2.2-1.6-3.5-1.4
				C102,58.9,101.4,59.2,100.9,59.5"/>
		</g>
		<g class="st4">
			<path class="st0" d="M103.8,64.8c1.3-0.3,2-1.6,1.7-2.8c-0.3-1.3-1.6-2-2.8-1.7c-1.3,0.3-2,1.6-1.7,2.8
				C101.2,64.4,102.5,65.1,103.8,64.8"/>
		</g>
		<g class="st4">
			<path class="st1" d="M105.5,61.4c0,0.6-0.5,1.1-1.1,1.1c-0.6,0-1.1-0.5-1.1-1.1c0-0.6,0.5-1.1,1.1-1.1
				C105,60.2,105.5,60.7,105.5,61.4"/>
		</g>
		<g class="st4">
			<polygon class="st0" points="89.3,60 89.3,56.5 91.6,59.4 95.2,58.2 93,61.2 95.2,64 91.6,63 89.3,65.8 89.3,62.3 85.7,61.2 			
				"/>
		</g>
		<g class="st4">
			<path class="st0" d="M74.9,104.2c1,0,1.2,1,1.2,1.5c0,0.5-0.2,1.5-1.2,1.5l-5.5,0c-0.9,0-1.2-1-1.2-1.5c0-0.5,0.3-1.5,1.2-1.5
				l0.6,0l0-8.3l-0.6,0c-0.9,0-1.2-1-1.2-1.5c0-0.5,0.3-1.5,1.2-1.5l5.5,0c1,0,1.2,1,1.2,1.5c0,0.5-0.2,1.5-1.2,1.5l-0.6,0l0,8.3
				L74.9,104.2z"/>
		</g>
		<g class="st4">
			<path class="st0" d="M82.5,104.2c1,0,1.2,1,1.2,1.5c0,0.5-0.2,1.5-1.2,1.5l-4.6,0c-0.9,0-1.2-1-1.2-1.5c0-0.5,0.3-1.5,1.2-1.5
				l0.5,0l0-8.3l-0.6,0c-1,0-1.2-1-1.2-1.5c0-0.5,0.3-1.5,1.2-1.5l5,0l4,7.7c0.1,0.3,0.3,0.9,0.4,1.4l0-6l-0.8,0c-1,0-1.2-1-1.2-1.5
				c0-0.5,0.2-1.5,1.2-1.5l4.5,0c1,0,1.2,1,1.2,1.5c0,0.5-0.3,1.5-1.2,1.5l-0.4,0l0,9.6c0,1.5-1.3,2-2.4,2c-1.4,0-2.2-0.5-2.9-1.8
				l-3.2-6.1c-0.1-0.3-0.3-0.8-0.4-1.3l0,6L82.5,104.2z"/>
		</g>
		<g class="st4">
			<path class="st0" d="M101.8,104.2l0.1-1.2c0.1-0.8,0.9-1.1,1.8-1.1c1,0,2,0.5,2,1.5l-0.5,3.9l-11.3,0c-1,0-1.2-1-1.2-1.5
				c0-0.5,0.3-1.5,1.2-1.5l0.6,0l0-8.3l-0.6,0c-1,0-1.2-1-1.2-1.5c0-0.5,0.3-1.5,1.2-1.5l10.8,0c0,0,0.2,3.7,0.2,3.7
				c0,0.8-0.9,1.2-1.8,1.2c-0.8,0-1.7-0.3-1.8-1.1l0-0.7l-2.4,0l0,2.6l2.5,0c0.9,0,1.2,1,1.2,1.5c0,0.5-0.2,1.5-1.2,1.5l-2.5,0
				l0,2.7L101.8,104.2z"/>
		</g>
		<g class="st4">
			<path class="st0" d="M128.4,104.3c1,0,1.2,1,1.2,1.5c0,0.5-0.2,1.5-1.2,1.5l-5.5,0c-0.9,0-1.2-1-1.2-1.5c0-0.5,0.3-1.5,1.2-1.5
				l0.6,0l0-8.3l-0.6,0c-0.9,0-1.2-1-1.2-1.5c0-0.5,0.3-1.5,1.2-1.5l5.5,0c1,0,1.2,1,1.2,1.5c0,0.5-0.2,1.5-1.2,1.5l-0.6,0l0,8.3
				L128.4,104.3z"/>
		</g>
		<g class="st4">
			<path class="st0" d="M136.5,96.1l-0.4,0l0,8.1l0.9,0c2.2,0,3.5-1.2,3.5-4.1C140.6,97.2,138.9,96.1,136.5,96.1 M136.7,107.3
				l-5.5,0c-0.9,0-1.2-1-1.2-1.5c0-0.5,0.3-1.5,1.2-1.5l0.6,0l0-8.3l-0.6,0c-0.9,0-1.2-1-1.2-1.5c0-0.5-0.1-1.5,1.2-1.5l5.4,0
				c4.5,0,8.4,1.4,8.4,6.8C145,105.6,141.3,107.3,136.7,107.3"/>
		</g>
		<g class="st4">
			<path class="st0" d="M122.3,107.6c-0.3,0-0.5,0-0.7,0c-0.3,0-0.5-0.1-0.8-0.6c-0.3-0.5-1.5-2.4-2-3.2c-0.3-0.5-1.1-1.9-1.6-2.7
				c-0.3-0.6-0.6-0.8-0.8-1l3.3-4.1l0.3,0c1,0,1.2-1,1.2-1.5c0-0.5-0.2-1.5-1.2-1.5l-5.1,0c-1,0-1.2,1-1.2,1.5
				c0,0.5,0.3,1.5,1.2,1.5l0.1,0l-2.2,3.1l-0.8,0l0-3.1l0.2,0c1,0,1.2-1,1.2-1.5c0-0.5-0.2-1.5-1.2-1.5l-5.1,0c-0.9,0-1.2,1-1.2,1.5
				c0,0.5,0.3,1.5,1.2,1.5l0.6,0l0,8.3l-0.6,0c-0.9,0-1.2,1-1.2,1.5c0,0.5,0.3,1.5,1.2,1.5l5.2,0c1,0,1.2-1,1.2-1.5
				c0-0.5-0.2-1.5-1.2-1.5l-0.3,0l0-2l0.3,0c0.5,0,0.9,0.2,1.3,0.9c0.6,1,1.1,2,1.7,3c0.6,1,1.3,2.2,1.9,3.2
				c0.6,1.1,1.8,1.7,3.3,1.7c2,0,3-1,3-2.2C123.4,108.1,122.8,107.6,122.3,107.6"/>
		</g>
		<g class="st4">
			<path class="st0" d="M66.2,91.9c0.8,0,1.6,0.4,1.6,1.5c0,0.7-0.4,1.4-0.7,2.3l0,1.9c0,1-0.6,1.5-1.9,1.5c-1.3,0-1.8-0.6-1.8-1.5
				c0-0.7-0.3-1.6-1.5-1.6c-1.4,0-2.4,1-2.5,3.9c0,3.1,1.2,4.1,2.9,4.1c1.2,0,2.1-0.6,2.7-0.9c0.7-0.3,1-0.4,1.4-0.4
				c0.7,0,1.5,0.6,1.5,1.5c0,0.9-0.5,1.5-1.1,1.9c-0.8,0.6-2.4,1.4-4.8,1.4c-3.7,0-6.9-1.9-6.9-7.3c0-5.3,3.1-7.7,6.9-7.7
				c1.3,0,1.9,0.4,2.4,0.8C64.6,92.5,65.1,91.9,66.2,91.9"/>
		</g>
	</g>
</g>
</svg>
