<?xml version="1.0" encoding="UTF-8" standalone="no"?>
<svg
   xmlns:dc="http://purl.org/dc/elements/1.1/"
   xmlns:cc="http://creativecommons.org/ns#"
   xmlns:rdf="http://www.w3.org/1999/02/22-rdf-syntax-ns#"
   xmlns:svg="http://www.w3.org/2000/svg"
   xmlns="http://www.w3.org/2000/svg"
   viewBox="0 0 206.588 64.794266"
   height="64.794266"
   width="206.588"
   xml:space="preserve"
   id="svg2"
   version="1.1"><metadata
     id="metadata8"><rdf:RDF><cc:Work
         rdf:about=""><dc:format>image/svg+xml</dc:format><dc:type
           rdf:resource="http://purl.org/dc/dcmitype/StillImage" /><dc:title></dc:title></cc:Work></rdf:RDF></metadata><defs
     id="defs6"><clipPath
       id="clipPath18"
       clipPathUnits="userSpaceOnUse"><path
         id="path16"
         d="M 0,48.596 H 154.941 V 0 H 0 Z" /></clipPath></defs><g
     transform="matrix(1.3333333,0,0,-1.3333333,0,64.794267)"
     id="g10"><g
       transform="translate(54.1001,8.0879)"
       id="g20"><path
         id="path22"
         style="fill:#000000;fill-opacity:1;fill-rule:nonzero;stroke:none"
         d="m 0,0 c 0,0.912 -0.721,1.729 -1.801,1.729 -1.08,0 -1.8,-0.817 -1.8,-1.729 0,-0.912 0.72,-1.704 1.8,-1.704 C -0.721,-1.704 0,-0.912 0,0 M -3.577,-3.84 V -5.4 h 5.881 v -2.424 h -8.569 v 7.488 c 0,2.881 2.04,4.561 4.464,4.561 2.521,0 4.465,-1.8 4.465,-4.225 0,-2.424 -2.04,-4.2 -4.465,-4.2 -0.696,0 -1.271,0.12 -1.776,0.36" /></g><g
       transform="translate(64.8511,9.8887)"
       id="g24"><path
         id="path26"
         style="fill:#000000;fill-opacity:1;fill-rule:nonzero;stroke:none"
         d="m 0,0 c -2.088,0 -3.145,-1.776 -3.145,-3.744 0,-1.969 1.057,-3.745 3.145,-3.745 2.112,0 3.145,1.776 3.145,3.745 C 3.145,-1.776 2.112,0 0,0 m -0.192,2.424 c 1.536,0 2.616,-0.576 3.288,-1.153 V 7.2 H 5.832 V -9.625 H 3.145 v 1.056 c -0.721,-0.744 -1.681,-1.32 -3.337,-1.32 -3.384,0 -5.737,2.617 -5.737,6.145 0,3.528 2.353,6.168 5.737,6.168" /></g><g
       transform="translate(78.6504,2.4482)"
       id="g28"><path
         id="path30"
         style="fill:#000000;fill-opacity:1;fill-rule:nonzero;stroke:none"
         d="M 0,0 C 1.584,0 2.449,1.224 2.449,2.952 V 9.576 H 5.186 V -2.185 h -2.69 v 0.96 c -0.744,-0.816 -1.775,-1.223 -3.047,-1.223 -2.616,0 -4.393,1.847 -4.393,5.184 v 6.84 h 2.736 V 2.544 C -2.208,1.008 -1.416,0 0,0" /></g><g
       transform="translate(89.666,6.1445)"
       id="g32"><path
         id="path34"
         style="fill:#000000;fill-opacity:1;fill-rule:nonzero;stroke:none"
         d="m 0,0 c 0,-2.137 1.369,-3.673 3.217,-3.673 1.465,0 2.232,0.721 3.023,1.824 L 8.113,-3.601 C 7.178,-4.969 5.545,-6.145 3.121,-6.145 c -3.24,0 -5.904,2.617 -5.904,6.145 0,3.528 2.664,6.168 5.904,6.168 2.137,0 3.649,-0.888 4.775,-2.352 L 6.002,1.992 C 5.258,2.976 4.441,3.672 3.193,3.672 1.344,3.672 0,2.136 0,0" /></g><g
       transform="translate(106.7305,5.4004)"
       id="g36"><path
         id="path38"
         style="fill:#000000;fill-opacity:1;fill-rule:nonzero;stroke:none"
         d="m 0,0 h -2.736 c -1.057,0 -1.752,-0.433 -1.752,-1.393 0,-0.96 0.695,-1.391 1.752,-1.391 H 0 Z M 2.688,6.624 V -5.137 h -5.376 c -2.617,0 -4.273,1.489 -4.273,3.744 0,2.257 1.777,3.745 4.273,3.745 H 0 v 1.872 h -5.928 v 2.4 z" /></g><g
       transform="translate(113.7617,9.5762)"
       id="g40"><path
         id="path42"
         style="fill:#000000;fill-opacity:1;fill-rule:nonzero;stroke:none"
         d="M 0,0 H -1.992 V 2.448 H 0 V 5.736 H 2.713 V 2.448 H 5.809 V 0 H 2.713 V -6.721 H 5.664 V -9.313 H 0 Z" /></g><path
       id="path44"
       style="fill:#000000;fill-opacity:1;fill-rule:nonzero;stroke:none"
       d="m 125.041,0.264 h -2.736 v 11.761 h 2.736 z m -1.344,17.041 c 0.961,0 1.729,-0.743 1.729,-1.704 0,-0.96 -0.768,-1.728 -1.729,-1.728 -0.961,0 -1.728,0.768 -1.728,1.728 0,0.961 0.767,1.704 1.728,1.704" /><g
       transform="translate(133.8965,2.4717)"
       id="g46"><path
         id="path48"
         style="fill:#000000;fill-opacity:1;fill-rule:nonzero;stroke:none"
         d="M 0,0 C 1.896,0 3.266,1.536 3.266,3.673 3.266,5.809 1.896,7.345 0,7.345 -1.92,7.345 -3.287,5.809 -3.287,3.673 -3.287,1.536 -1.92,0 0,0 m 0,9.841 c 3.385,0 6.074,-2.64 6.074,-6.168 0,-3.528 -2.689,-6.145 -6.074,-6.145 -3.408,0 -6.072,2.617 -6.072,6.145 0,3.528 2.664,6.168 6.072,6.168" /></g><g
       transform="translate(142.6094,0.2637)"
       id="g50"><path
         id="path52"
         style="fill:#000000;fill-opacity:1;fill-rule:nonzero;stroke:none"
         d="m 0,0 v 11.761 h 2.688 v -0.96 c 0.599,0.672 1.679,1.248 3.048,1.248 2.879,0 4.657,-1.872 4.657,-5.208 V 0 H 7.656 V 6.841 C 7.656,8.473 6.84,9.577 5.328,9.577 3.623,9.577 2.734,8.353 2.734,6.505 V 0 Z" /></g><g
       transform="translate(0.5649,39.314)"
       id="g54"><path
         id="path56"
         style="fill:#1d1d1b;fill-opacity:1;fill-rule:nonzero;stroke:none"
         d="m 0,0 c 1.298,-2.233 3.47,-3.835 4.912,-6.015 1.48,-2.238 2.713,-4.716 3.632,-7.235 0.231,-0.63 1.246,-0.358 1.013,0.28 C 8.69,-10.597 7.542,-8.347 6.251,-6.177 4.765,-3.676 2.335,-1.928 0.906,0.53 0.566,1.115 -0.341,0.587 0,0" /></g><g
       transform="translate(9.373,25.3848)"
       id="g58"><path
         id="path60"
         style="fill:#1d1d1b;fill-opacity:1;fill-rule:nonzero;stroke:none"
         d="m 0,0 c 5.306,3.587 10.978,5.253 16.979,7.354 6.237,2.184 12.428,4.496 18.664,6.682 0.634,0.222 0.361,1.237 -0.279,1.012 C 28.556,12.662 21.792,10.149 14.983,7.766 9.331,5.787 4.447,4.271 -0.53,0.906 -1.087,0.529 -0.563,-0.381 0,0" /></g><g
       transform="translate(12.0801,22.8379)"
       id="g62"><path
         id="path64"
         style="fill:#1d1d1b;fill-opacity:1;fill-rule:nonzero;stroke:none"
         d="m 0,0 c 4.389,2.94 10.024,4.625 14.797,6.959 6.119,2.992 12.159,6.139 18.283,9.118 0.608,0.296 0.076,1.201 -0.53,0.906 C 26.942,14.255 21.395,11.407 15.812,8.628 10.485,5.978 4.4,4.209 -0.53,0.906 -1.089,0.531 -0.564,-0.378 0,0" /></g><g
       transform="translate(44.811,39.8784)"
       id="g66"><path
         id="path68"
         style="fill:#1d1d1b;fill-opacity:1;fill-rule:nonzero;stroke:none"
         d="m 0,0 c -6.646,-13.124 -13.743,-26.013 -21.47,-38.534 -0.357,-0.577 0.552,-1.104 0.907,-0.529 7.726,12.52 14.824,25.409 21.469,38.533 C 1.211,0.072 0.306,0.604 0,0" /></g><g
       transform="translate(11.2314,22.9697)"
       id="g70"><path
         id="path72"
         style="fill:#1d1d1b;fill-opacity:1;fill-rule:nonzero;stroke:none"
         d="m 0,0 c 2.84,-8.02 7.44,-15.378 11.781,-22.669 0.345,-0.581 1.253,-0.054 0.906,0.529 C 8.403,-14.943 3.814,-7.632 1.013,0.279 0.788,0.913 -0.227,0.64 0,0" /></g><g
       transform="translate(11.7378,23.2656)"
       id="g74"><path
         id="path76"
         style="fill:#1d1d1b;fill-opacity:1;fill-rule:nonzero;stroke:none"
         d="m 0,0 c 1.794,-3.368 3.997,-6.457 5.848,-9.78 2.198,-3.945 3.454,-8.344 5.647,-12.308 0.328,-0.593 1.234,-0.063 0.906,0.529 -1.951,3.529 -3.317,7.302 -4.977,10.965 C 5.657,-6.697 2.922,-3.253 0.906,0.529 0.588,1.127 -0.318,0.597 0,0" /></g><g
       transform="translate(0.0757,38.9888)"
       id="g78"><path
         id="path80"
         style="fill:#1d1d1b;fill-opacity:1;fill-rule:nonzero;stroke:none"
         d="m 0,0 c 1.188,-2.041 2.11,-4.229 3.394,-6.213 1.545,-2.389 3.238,-4.698 4.813,-7.07 0.372,-0.561 1.282,-0.036 0.906,0.53 C 7.536,-10.375 5.945,-8.015 4.3,-5.684 2.947,-3.765 2.086,-1.496 0.906,0.53 0.566,1.115 -0.342,0.586 0,0" /></g><g
       transform="translate(8.9097,25.6763)"
       id="g82"><path
         id="path84"
         style="fill:#1d1d1b;fill-opacity:1;fill-rule:nonzero;stroke:none"
         d="M 0,0 C 0.003,-0.007 0.007,-0.014 0.011,-0.021 0.318,-0.626 1.218,-0.094 0.917,0.509 0.829,0.686 0.748,0.864 0.699,1.056 0.531,1.711 -0.482,1.433 -0.314,0.777 -0.243,0.5 -0.117,0.234 0.011,-0.021 0.313,0.155 0.615,0.332 0.917,0.509 0.914,0.516 0.91,0.523 0.906,0.53 0.6,1.134 -0.306,0.603 0,0" /></g><g
       transform="translate(4.4937,11.0547)"
       id="g86"><path
         id="path88"
         style="fill:#1d1d1b;fill-opacity:1;fill-rule:nonzero;stroke:none"
         d="M 0,0 C 0.677,0 0.677,1.051 0,1.051 -0.677,1.051 -0.677,0 0,0" /></g><g
       transform="translate(0.9116,38.9575)"
       id="g90"><path
         id="path92"
         style="fill:#1d1d1b;fill-opacity:1;fill-rule:nonzero;stroke:none"
         d="m 0,0 c 1.458,0.564 4.178,0.029 5.715,0.027 3.216,-0.003 6.431,-0.019 9.646,-0.035 9.615,-0.049 19.228,0.499 28.84,0.324 0.677,-0.012 0.676,1.038 0,1.05 C 34.589,1.541 24.976,0.992 15.361,1.042 12.146,1.059 8.931,1.072 5.715,1.077 4.065,1.08 1.297,1.623 -0.279,1.013 -0.904,0.771 -0.632,-0.245 0,0" /></g><g
       transform="translate(8.396,25.6079)"
       id="g94"><path
         id="path96"
         style="fill:#1d1d1b;fill-opacity:1;fill-rule:nonzero;stroke:none"
         d="m 0,0 c -2.018,-4.72 -4.322,-8.966 -4.831,-14.179 -0.065,-0.674 0.985,-0.668 1.05,0 0.488,4.993 2.753,9.123 4.687,13.649 C 1.169,0.085 0.265,0.621 0,0" /></g><g
       transform="translate(3.1895,11.332)"
       id="g98"><path
         id="path100"
         style="fill:#1d1d1b;fill-opacity:1;fill-rule:nonzero;stroke:none"
         d="m 0,0 c -0.002,-0.031 -0.003,-0.062 -0.005,-0.093 -0.014,-0.275 0.25,-0.54 0.525,-0.525 3.9,0.208 7.279,2.733 10.843,4.018 0.632,0.228 0.359,1.243 -0.28,1.012 C 7.62,3.164 4.295,0.633 0.52,0.433 0.695,0.257 0.87,0.082 1.045,-0.093 1.047,-0.062 1.048,-0.031 1.05,0 1.085,0.677 0.035,0.674 0,0" /></g><g
       transform="translate(12.3335,22.0127)"
       id="g102"><path
         id="path104"
         style="fill:#1d1d1b;fill-opacity:1;fill-rule:nonzero;stroke:none"
         d="m 0,0 c -2.225,-3.036 -4.236,-6.22 -6.304,-9.363 -0.373,-0.568 0.536,-1.093 0.907,-0.53 2.068,3.144 4.079,6.327 6.303,9.364 C 1.307,0.018 0.396,0.54 0,0" /></g><g
       transform="translate(13.061,20.3076)"
       id="g106"><path
         id="path108"
         style="fill:#1d1d1b;fill-opacity:1;fill-rule:nonzero;stroke:none"
         d="m 0,0 c -1.72,-2.243 -3.145,-4.686 -4.645,-7.077 -0.36,-0.575 0.548,-1.102 0.907,-0.529 1.499,2.39 2.925,4.834 4.644,7.077 C 1.318,0.008 0.406,0.53 0,0" /></g><g
       transform="translate(13.2485,17.6416)"
       id="g110"><path
         id="path112"
         style="fill:#1d1d1b;fill-opacity:1;fill-rule:nonzero;stroke:none"
         d="m 0,0 c -0.842,-1.183 -1.621,-2.388 -2.59,-3.475 -0.449,-0.503 0.291,-1.249 0.742,-0.742 1.029,1.154 1.86,2.432 2.754,3.688 C 1.3,0.023 0.389,0.547 0,0" /></g><g
       transform="translate(11.9448,23.8994)"
       id="g114"><path
         id="path116"
         style="fill:#1d1d1b;fill-opacity:1;fill-rule:nonzero;stroke:none"
         d="m 0,0 c -1.755,-1.549 -2.711,-3.727 -4.007,-5.635 -1.347,-1.984 -2.849,-3.822 -3.717,-6.083 -0.243,-0.633 0.772,-0.904 1.013,-0.279 0.826,2.153 2.295,3.965 3.61,5.832 1.281,1.818 2.148,3.927 3.843,5.423 C 1.251,-0.294 0.505,0.446 0,0" /></g><g
       transform="translate(48.895,37.9629)"
       id="g118"><path
         id="path120"
         style="fill:#f7a51f;fill-opacity:1;fill-rule:nonzero;stroke:none"
         d="m 0,0 c -0.072,-5.521 -0.102,-11.013 -0.084,-16.541 0.009,-2.901 4.509,-2.902 4.5,0 C 4.398,-11.013 4.428,-5.521 4.5,0 4.538,2.903 0.038,2.899 0,0" /></g><g
       transform="translate(60.52,38.0879)"
       id="g122"><path
         id="path124"
         style="fill:#f7a51f;fill-opacity:1;fill-rule:nonzero;stroke:none"
         d="m 0,0 c -0.015,-5.249 -0.254,-10.501 -0.125,-15.75 0.071,-2.896 4.571,-2.903 4.5,0 C 4.246,-10.501 4.485,-5.249 4.5,0 4.508,2.902 0.008,2.901 0,0" /></g><g
       transform="translate(70.479,37.4629)"
       id="g126"><path
         id="path128"
         style="fill:#f7a51f;fill-opacity:1;fill-rule:nonzero;stroke:none"
         d="m 0,0 c 0.52,-5.415 -0.075,-10.874 1.122,-16.223 0.633,-2.832 4.971,-1.631 4.338,1.196 C 4.358,-10.097 4.98,-4.999 4.5,0 4.225,2.862 -0.277,2.889 0,0" /></g><g
       transform="translate(51.145,35.3379)"
       id="g130"><path
         id="path132"
         style="fill:#f7a51f;fill-opacity:1;fill-rule:nonzero;stroke:none"
         d="m 0,0 c 7.153,-0.269 14.388,0.877 21.5,0.417 2.899,-0.188 2.881,4.313 0,4.5 C 14.388,5.377 7.153,4.231 0,4.5 -2.903,4.609 -2.893,0.109 0,0" /></g><g
       transform="translate(83.2969,35.7935)"
       id="g134"><path
         id="path136"
         style="fill:#f7a51f;fill-opacity:1;fill-rule:nonzero;stroke:none"
         d="m 0,0 c 4.214,-1.227 8.544,-0.397 12.848,-0.706 2.897,-0.207 2.877,4.294 0,4.5 C 8.974,4.072 4.977,3.239 1.195,4.339 -1.597,5.152 -2.781,0.809 0,0" /></g><g
       transform="translate(92.8945,37.4629)"
       id="g138"><path
         id="path140"
         style="fill:#f7a51f;fill-opacity:1;fill-rule:nonzero;stroke:none"
         d="m 0,0 c 0.095,-3.054 0.127,-6.109 0.187,-9.164 0.023,-1.086 0.057,-2.17 0.079,-3.256 0.016,-0.854 -0.511,-2.5 0.518,-1.239 -1.819,-2.228 1.346,-5.431 3.182,-3.182 1.124,1.376 0.822,3.284 0.789,4.959 C 4.676,-7.921 4.623,-3.959 4.5,0 4.41,2.895 -0.09,2.903 0,0" /></g><g
       transform="translate(95.0605,24.5049)"
       id="g142"><path
         id="path144"
         style="fill:#f7a51f;fill-opacity:1;fill-rule:nonzero;stroke:none"
         d="M 0,0 C -2.894,-0.05 -7.629,-1.371 -9.977,0.845 -12.094,2.844 -6.1,4.043 -5.151,4.076 -4.366,4.104 -3.583,4.06 -2.8,4.02 -2.521,4.005 -0.704,3.865 -1.329,3.957 l 0.598,4.419 c -0.027,-10e-4 -0.053,-0.003 -0.08,-0.005 -2.881,-0.179 -2.899,-4.68 0,-4.5 0.027,0.002 0.053,0.004 0.08,0.005 2.385,0.148 3.239,4.034 0.598,4.42 -5.654,0.826 -13.734,0.317 -14.678,-6.735 -0.438,-3.279 3.285,-5.505 5.944,-6.064 C -5.932,-5.119 -2.952,-4.551 0,-4.5 2.898,-4.45 2.903,0.05 0,0" /></g><g
       transform="translate(102.3945,46.4209)"
       id="g146"><path
         id="path148"
         style="fill:#f7a51f;fill-opacity:1;fill-rule:nonzero;stroke:none"
         d="m 0,0 c 0.231,-8.386 0.443,-16.777 0.334,-25.167 -0.038,-2.903 4.462,-2.899 4.5,0 C 4.943,-16.777 4.731,-8.386 4.5,0 4.42,2.896 -0.08,2.904 0,0" /></g><g
       transform="translate(114.4287,40.8037)"
       id="g150"><path
         id="path152"
         style="fill:#f7a51f;fill-opacity:1;fill-rule:nonzero;stroke:none"
         d="m 0,0 c -1.637,-1.986 -3.381,-3.856 -5.25,-5.625 -1.848,-1.748 -3.912,-3.089 -5.541,-5.083 -1.819,-2.227 1.345,-5.43 3.182,-3.182 1.469,1.799 3.241,3.187 5.029,4.649 2.143,1.754 4.006,3.928 5.762,6.059 C 5.012,-0.961 1.847,2.242 0,0" /></g><g
       transform="translate(107.5537,30.2471)"
       id="g154"><path
         id="path156"
         style="fill:#f7a51f;fill-opacity:1;fill-rule:nonzero;stroke:none"
         d="m 0,0 c 1.088,-1.332 2.499,-3.375 3.66,-5.018 0.71,-1.006 1.412,-2.018 2.102,-3.04 0.225,-0.333 0.446,-0.67 0.664,-1.007 0.452,-0.702 0.259,-1.039 0.165,0.281 0.205,-2.877 4.706,-2.898 4.5,0 -0.144,2.013 -2.192,4.107 -3.288,5.672 C 6.312,-0.986 4.826,1.17 3.182,3.182 1.344,5.43 -1.82,2.227 0,0" /></g><g
       transform="translate(123.6182,30.3691)"
       id="g158"><path
         id="path160"
         style="fill:#f7a51f;fill-opacity:1;fill-rule:nonzero;stroke:none"
         d="M 0,0 C 3.786,-8.299 18.624,-2.447 14.146,5.716 11.732,10.115 6.128,10.814 2.333,7.645 0.327,5.97 -0.348,3.978 -0.35,1.424 -0.353,-2.09 -0.713,-5.512 -0.144,-9.004 c 0.156,-0.951 1.254,-1.683 2.17,-1.652 3.042,0.099 6.082,0.012 9.125,0 2.903,-0.013 2.902,4.488 0,4.5 -3.043,0.012 -6.083,0.099 -9.125,0 C 2.75,-6.707 3.473,-7.258 4.196,-7.809 3.646,-4.436 4.148,-0.928 4.151,2.469 4.153,5.194 8.629,5.906 9.986,3.944 11.965,1.084 5.513,-1.297 3.885,2.271 2.682,4.909 -1.195,2.62 0,0" /></g><g
       transform="translate(142.0195,37.5879)"
       id="g162"><path
         id="path164"
         style="fill:#f7a51f;fill-opacity:1;fill-rule:nonzero;stroke:none"
         d="m 0,0 c 0.63,-5.412 -0.366,-10.836 0.25,-16.25 1.474,0.199 2.946,0.398 4.42,0.598 -0.042,0.292 -0.084,0.584 -0.125,0.875 -0.409,2.863 -4.745,1.641 -4.34,-1.196 0.042,-0.292 0.084,-0.584 0.125,-0.875 0.357,-2.502 4.706,-1.916 4.42,0.598 C 4.134,-10.836 5.13,-5.412 4.5,0 4.169,2.847 -0.335,2.879 0,0" /></g><g
       transform="translate(143.4219,35.1685)"
       id="g166"><path
         id="path168"
         style="fill:#f7a51f;fill-opacity:1;fill-rule:nonzero;stroke:none"
         d="m 0,0 c 1.37,-0.406 2.794,-0.417 4.21,-0.347 1.044,0.052 2.899,0.534 3.877,0.074 2.609,-1.23 4.894,2.648 2.271,3.885 C 7.381,5.016 4.212,3.447 1.195,4.339 -1.594,5.165 -2.776,0.821 0,0" /></g></g></svg>