<?xml version="1.0" encoding="utf-8"?>
<!-- Generator: Adobe Illustrator 19.2.0, SVG Export Plug-In . SVG Version: 6.00 Build 0)  -->
<svg version="1.1" id="Layer_1" xmlns="http://www.w3.org/2000/svg" xmlns:xlink="http://www.w3.org/1999/xlink" x="0px" y="0px"
	 viewBox="0 0 207 155.6" style="enable-background:new 0 0 207 155.6;" xml:space="preserve">
<style type="text/css">
	.st0{opacity:0.5;}
	.st1{fill:#FFFFFF;}
</style>
<g class="st0">
	<g>
		<path class="st1" d="M159.1,151.6c-6.1,0-12-3.3-15-9l0-0.1l-32.7-71.4l-7.1,3.6c-1.8,0.9-3.5,1.8-5.1,2.7
			c-7.1,3.8-13.1,7.1-18.5,5.5c-3-0.9-5.5-3.3-7.6-7.4L57.3,45.3c-2.1-4.1-2.6-7.5-1.6-10.5c1.8-5.3,8-8.3,15.3-11.8
			c1.7-0.8,3.5-1.7,5.3-2.6l35.4-18.1c9.4-4.8,28-0.9,35.5,1.1c11.5,3,25,8.2,27.3,12.7l0,0c1.3,2.6,2.5,4.7,3.6,6.7
			c2.1,3.8,3.5,6.4,3.9,8.4c0.6,3.1-1.4,4.7-3.2,5.6l-41.3,21.1l39.6,67.8c2.1,4,2.5,8.4,1.1,12.7c-1.4,4.3-4.3,7.7-8.3,9.8
			l-3.2,1.6C164.2,151.1,161.6,151.6,159.1,151.6z M146.8,141.3c3.5,6.6,11.8,9.2,18.4,5.8l3.2-1.6c3.2-1.7,5.6-4.5,6.8-8
			c1.1-3.5,0.8-7.1-0.9-10.3l-41.1-70.5l44.2-22.6c1.7-1,1.8-1.6,1.6-2.4c-0.3-1.5-1.7-4-3.6-7.5c-1.1-1.9-2.3-4.1-3.6-6.7
			C168.6,11.4,126.6-2,113,5L77.6,23.2c-1.8,0.9-3.6,1.8-5.3,2.6c-6.6,3.2-12.3,5.9-13.7,10C57.9,38,58.3,40.7,60,44l15.7,30.3
			c1.7,3.3,3.6,5.2,5.8,5.9c4.2,1.3,9.7-1.8,16.2-5.3c1.7-0.9,3.4-1.9,5.2-2.8l9.9-5L146.8,141.3z"/>
	</g>
	<g>
		<rect x="44.3" y="109.1" class="st1" width="3" height="46.4"/>
	</g>
	<g>
		<path class="st1" d="M46.4,111.4c-8,0-21.5-1.4-21.5-6.5s13.5-6.5,21.5-6.5s21.5,1.4,21.5,6.5S54.4,111.4,46.4,111.4z M28,104.9
			c0.7,1.2,7.5,3.4,18.4,3.4s17.7-2.2,18.4-3.4c-0.7-1.2-7.5-3.4-18.4-3.4S28.8,103.7,28,104.9z"/>
	</g>
</g>
</svg>
