<?xml version="1.0" encoding="utf-8"?>
<!-- Generator: Adobe Illustrator 19.2.1, SVG Export Plug-In . SVG Version: 6.00 Build 0)  -->
<svg version="1.1" id="Layer_1" xmlns="http://www.w3.org/2000/svg" xmlns:xlink="http://www.w3.org/1999/xlink" x="0px" y="0px"
	 viewBox="0 0 207 155.6" style="enable-background:new 0 0 207 155.6;" xml:space="preserve">
<style type="text/css">
	.st0{fill:#7358FF;}
	.st1{fill:none;stroke:#7358FF;stroke-width:4;stroke-linecap:round;stroke-miterlimit:10;}
	.st2{fill:none;stroke:#7358FF;stroke-width:4;stroke-miterlimit:10;}
	.st3{fill:none;stroke:#7358FF;stroke-width:3;stroke-linejoin:round;stroke-miterlimit:10;}
</style>
<g>
	<g>
		<path class="st0" d="M190.4,22.5c3.8,0,6.9,3,6.9,6.9v115.4c0,3.8-3,6.9-6.9,6.9H17.6c-3.8,0-6.9-3-6.9-6.9V29.3
			c0-3.8,3-6.9,6.9-6.9h172.8 M190.4,18.5H17.6c-6,0-10.9,4.8-10.9,10.9v115.4c0,6,4.8,10.9,10.9,10.9h172.9c6,0,10.9-4.8,10.9-10.9
			V29.3C201.3,23.3,196.5,18.5,190.4,18.5L190.4,18.5z"/>
	</g>
	<g>
		<line class="st1" x1="50.8" y1="3" x2="50.8" y2="45.1"/>
		<line class="st1" x1="157.2" y1="3" x2="157.2" y2="45.1"/>
	</g>
</g>
<circle class="st2" cx="50.8" cy="45.1" r="13.6"/>
<circle class="st2" cx="157.2" cy="45.1" r="13.6"/>
<g>
	<path class="st3" d="M61.9,75.4v23.7H38.1V75.4H61.9z"/>
</g>
<g>
	<path class="st3" d="M99.2,75.4v23.7H75.5V75.4H99.2z"/>
</g>
<g>
	<path class="st3" d="M136.6,75.4v23.7h-23.7V75.4H136.6z"/>
</g>
<g>
	<path class="st3" d="M61.9,112.5v23.7H38.1v-23.7H61.9z"/>
</g>
<g>
	<path class="st3" d="M99.2,112.5v23.7H75.5v-23.7H99.2z"/>
</g>
<g>
	<path class="st3" d="M136.6,112.5v23.7h-23.7v-23.7H136.6z"/>
</g>
<g>
	<path class="st3" d="M173.9,75.4v23.7h-23.7V75.4H173.9z"/>
</g>
</svg>
