<?xml version="1.0" encoding="utf-8"?>
<!-- Generator: Adobe Illustrator 19.2.0, SVG Export Plug-In . SVG Version: 6.00 Build 0)  -->
<svg version="1.1" id="Layer_1" xmlns="http://www.w3.org/2000/svg" xmlns:xlink="http://www.w3.org/1999/xlink" x="0px" y="0px"
	 viewBox="0 0 207 155.6" style="enable-background:new 0 0 207 155.6;" xml:space="preserve">
<style type="text/css">
	.st0{opacity:0.5;}
	.st1{fill:#FFFFFF;}
	.st2{clip-path:url(#SVGID_2_);}
	.st3{clip-path:url(#SVGID_4_);}
	.st4{clip-path:url(#SVGID_6_);}
	.st5{clip-path:url(#SVGID_8_);}
	.st6{clip-path:url(#SVGID_10_);}
	.st7{clip-path:url(#SVGID_12_);}
	.st8{clip-path:url(#SVGID_14_);}
	.st9{clip-path:url(#SVGID_16_);}
	.st10{clip-path:url(#SVGID_18_);}
	.st11{clip-path:url(#SVGID_20_);}
	.st12{clip-path:url(#SVGID_22_);}
	.st13{clip-path:url(#SVGID_24_);}
</style>
<g class="st0">
	<path class="st1" d="M176.8-0.1H19.4c-7.6,0-13.9,6.3-13.9,13.8v91.4c0,7.6,6.3,13.8,13.9,13.8h65.1v21H41.1c-4.4,0-8,3.6-8,8
		s3.6,8,8,8h114c4.4,0,8-3.6,8-8s-3.6-8-8-8h-42.6v-21h64.3c7.6,0,13.7-6.2,13.7-13.8V13.7C190.5,6.2,184.3-0.1,176.8-0.1z
		 M155.1,142.9c2.6,0,4.7,1.9,4.7,4.5s-2.1,4.5-4.7,4.5h-114c-2.6,0-4.7-1.9-4.7-4.5s2.1-4.5,4.7-4.5H84l0,0h28.1l0,0H155.1z
		 M87.5,139.9v-21h21v21H87.5z M187.5,105.1c0,5.7-5,10.8-10.7,10.8H19.4c-5.7,0-10.9-5.1-10.9-10.8V13.7C8.5,8,13.7,2.9,19.4,2.9
		h157.4c5.7,0,10.7,5.1,10.7,10.8V105.1z"/>
	<path class="st1" d="M167.5,19.6c0-0.9-0.7-1.7-1.7-1.7H30.2c-0.9,0-1.7,0.7-1.7,1.7v78.7c0,0.9,0.7,1.7,1.7,1.7h135.7
		c0.9,0,1.7-0.7,1.7-1.7V19.6z M164.5,96.9h-133v-75h133V96.9z"/>
</g>
<g class="st0">
	<path class="st1" d="M81.3,87.3c-0.4,0-0.8-0.2-1.1-0.5l-4-3.8h-4.8c-0.9,0-1.7-0.7-1.7-1.7c0-0.9,0.7-1.7,1.7-1.7h5.5
		c0.4,0,0.8,0.2,1.1,0.5l3.5,3.3l4.4-3.4c0.3-0.2,0.6-0.3,1-0.3H123c0.9,0,1.7,0.7,1.7,1.7c0,0.9-0.7,1.7-1.7,1.7H87.3l-5.1,3.9
		C82,87.1,81.6,87.3,81.3,87.3z"/>
</g>
<g class="st0">
	<g>
		<defs>
			<path id="SVGID_1_" d="M79.9,43.7v-4.5h2.5v3.4l5-2.2v-3.7c0-1.4-1.1-2.5-2.5-2.5h-7.5c-1.4,0-2.5,1.1-2.5,2.5v9.2L79.9,43.7z"/>
		</defs>
		<clipPath id="SVGID_2_">
			<use xlink:href="#SVGID_1_"  style="overflow:visible;"/>
		</clipPath>
		<g class="st2">
			<defs>
				<rect id="SVGID_3_" x="5.6" y="-0.1" width="185" height="155.8"/>
			</defs>
			<clipPath id="SVGID_4_">
				<use xlink:href="#SVGID_3_"  style="overflow:visible;"/>
			</clipPath>
			<g class="st3">
				<rect x="70.8" y="30" class="st1" width="20.8" height="20"/>
			</g>
		</g>
	</g>
	<g>
		<defs>
			<polygon id="SVGID_5_" points="79.9,52.3 79.9,46.4 74.9,48.6 74.9,54.5 			"/>
		</defs>
		<clipPath id="SVGID_6_">
			<use xlink:href="#SVGID_5_"  style="overflow:visible;"/>
		</clipPath>
		<g class="st4">
			<defs>
				<rect id="SVGID_7_" x="5.6" y="-0.1" width="185" height="155.8"/>
			</defs>
			<clipPath id="SVGID_8_">
				<use xlink:href="#SVGID_7_"  style="overflow:visible;"/>
			</clipPath>
			<g class="st5">
				<rect x="70.8" y="42.2" class="st1" width="13.3" height="16.4"/>
			</g>
		</g>
	</g>
	<g>
		<defs>
			<polygon id="SVGID_9_" points="87.4,48.9 87.4,43 82.4,45.3 82.4,51.1 			"/>
		</defs>
		<clipPath id="SVGID_10_">
			<use xlink:href="#SVGID_9_"  style="overflow:visible;"/>
		</clipPath>
		<g class="st6">
			<defs>
				<rect id="SVGID_11_" x="5.6" y="-0.1" width="185" height="155.8"/>
			</defs>
			<clipPath id="SVGID_12_">
				<use xlink:href="#SVGID_11_"  style="overflow:visible;"/>
			</clipPath>
			<g class="st7">
				<rect x="78.3" y="38.9" class="st1" width="13.3" height="16.4"/>
			</g>
		</g>
	</g>
	<g>
		<defs>
			<polygon id="SVGID_13_" points="87.4,57.5 87.4,51.6 82.4,53.8 82.4,59.7 			"/>
		</defs>
		<clipPath id="SVGID_14_">
			<use xlink:href="#SVGID_13_"  style="overflow:visible;"/>
		</clipPath>
		<g class="st8">
			<defs>
				<rect id="SVGID_15_" x="5.6" y="-0.1" width="185" height="155.8"/>
			</defs>
			<clipPath id="SVGID_16_">
				<use xlink:href="#SVGID_15_"  style="overflow:visible;"/>
			</clipPath>
			<g class="st9">
				<rect x="78.3" y="47.5" class="st1" width="13.3" height="16.4"/>
			</g>
		</g>
	</g>
	<g>
		<defs>
			<polygon id="SVGID_17_" points="79.9,60.8 79.9,55 74.9,57.2 74.9,63.1 			"/>
		</defs>
		<clipPath id="SVGID_18_">
			<use xlink:href="#SVGID_17_"  style="overflow:visible;"/>
		</clipPath>
		<g class="st10">
			<defs>
				<rect id="SVGID_19_" x="5.6" y="-0.1" width="185" height="155.8"/>
			</defs>
			<clipPath id="SVGID_20_">
				<use xlink:href="#SVGID_19_"  style="overflow:visible;"/>
			</clipPath>
			<g class="st11">
				<rect x="70.8" y="50.8" class="st1" width="13.3" height="16.4"/>
			</g>
		</g>
	</g>
	<g>
		<defs>
			<path id="SVGID_21_" d="M82.4,62.4v2.9l-1.3,2.1l-1.3-2.1v-1.8l-5,2.2v0.3c0,0.5,0.1,0.9,0.4,1.3l3.8,6.3
				c0.4,0.7,1.3,1.2,2.1,1.2c0.9,0,1.7-0.5,2.1-1.2l3.8-6.3c0.2-0.4,0.4-0.8,0.4-1.3v-5.8L82.4,62.4z"/>
		</defs>
		<clipPath id="SVGID_22_">
			<use xlink:href="#SVGID_21_"  style="overflow:visible;"/>
		</clipPath>
		<g class="st12">
			<defs>
				<rect id="SVGID_23_" x="5.6" y="-0.1" width="185" height="155.8"/>
			</defs>
			<clipPath id="SVGID_24_">
				<use xlink:href="#SVGID_23_"  style="overflow:visible;"/>
			</clipPath>
			<g class="st13">
				<rect x="70.8" y="56.1" class="st1" width="20.8" height="22.9"/>
			</g>
		</g>
	</g>
</g>
</svg>
