<?xml version="1.0" encoding="utf-8"?>
<!-- Generator: Adobe Illustrator 19.2.1, SVG Export Plug-In . SVG Version: 6.00 Build 0)  -->
<svg version="1.1" id="Layer_1" xmlns="http://www.w3.org/2000/svg" xmlns:xlink="http://www.w3.org/1999/xlink" x="0px" y="0px"
	 viewBox="0 0 207 155.6" style="enable-background:new 0 0 207 155.6;" xml:space="preserve">
<style type="text/css">
	.st0{fill:none;stroke:#7358FF;stroke-width:3;stroke-linejoin:round;stroke-miterlimit:10;}
	.st1{fill:#7358FF;}
	.st2{fill:none;stroke:#7358FF;stroke-width:3;stroke-linecap:round;stroke-linejoin:round;stroke-miterlimit:10;}
</style>
<g>
	<rect x="97.2" y="124.1" class="st0" width="9.7" height="10.5"/>
	<g>
		<path class="st1" d="M180.3,2.8c5.8,0,10.7,4.9,10.7,10.8V105c0,6-4.8,10.8-10.7,10.8H116h-3v3v21v3h3h42.6c2.8,0,5,2.2,5,5
			s-2.2,5-5,5h-114c-2.8,0-5-2.2-5-5s2.2-5,5-5H88h3v-3v-21v-3h-3H22.9c-6,0-10.9-4.8-10.9-10.8V13.6c0-5.9,5-10.8,10.9-10.8
			L180.3,2.8 M180.3-0.2H22.9C15.3-0.2,9,6.1,9,13.6V105c0,7.6,6.3,13.8,13.9,13.8H88v21H44.6c-4.4,0-8,3.6-8,8s3.6,8,8,8h114
			c4.4,0,8-3.6,8-8s-3.6-8-8-8H116v-21h64.3c7.6,0,13.7-6.2,13.7-13.8V13.6C194,6.1,187.8-0.2,180.3-0.2L180.3-0.2z"/>
	</g>
	<path class="st0" d="M168,96.8H35v-75h133V96.8z"/>
	<g>
		<g>
			<g>
				<path class="st1" d="M82.3,67.5c2.7,0,7.3,0.5,7.3,2.2s-4.6,2.2-7.3,2.2S75,71.5,75,69.7C75,68,79.6,67.5,82.3,67.5 M82.3,64.5
					c-8.5,0-10.3,2.8-10.3,5.2s1.8,5.2,10.3,5.2s10.3-2.8,10.3-5.2S90.7,64.5,82.3,64.5L82.3,64.5z"/>
			</g>
		</g>
		<g>
			<g>
				<path class="st1" d="M108.3,37.7c2.9,0,6.2,0.8,7.2,1.1c4.1,1.1,6.9,2.4,7.6,3c0.3,0.5,0.5,1,0.8,1.4c0.1,0.2,0.3,0.5,0.4,0.7
					l0,0l0,0c0.2,0.3,0.4,0.7,0.6,1.1l-13.3,6.8l-2.8,1.4l1.6,2.7L124,79.1c0.3,0.7,0.4,1.3,0.1,2c-0.2,0.7-0.7,1.2-1.4,1.6
					l-1.1,0.5c-0.4,0.2-0.8,0.3-1.3,0.3c-1,0-1.9-0.5-2.4-1.3l0,0l-11.2-24.6l-1.3-2.8l-2.8,1.4l-2.4,1.2h-0.1l0,0
					c-0.3,0.2-0.6,0.3-0.8,0.4c-0.3,0.2-0.6,0.3-0.9,0.5l-0.1,0.1c-1.4,0.8-3,1.6-3.8,1.6c-0.1,0-0.1,0-0.2,0s-0.4-0.2-0.8-1.1
					l-5.4-10.4c-0.3-0.6-0.4-1.1-0.4-1.3c0.3-0.7,2.4-1.7,3.7-2.3h0.1h0.1c0.4-0.2,0.7-0.4,1.1-0.6c0.2-0.1,0.4-0.2,0.6-0.3
					l12.2-6.2l0,0l0,0C105.7,38,106.4,37.7,108.3,37.7 M108.3,34.7c-1.6,0-3.2,0.2-4.3,0.8l-12.2,6.2c-0.6,0.3-1.2,0.6-1.8,0.9
					c-2.5,1.2-4.6,2.2-5.3,4.1c-0.3,1-0.2,2.2,0.5,3.6l5.4,10.4c0.7,1.4,1.6,2.2,2.6,2.5c0.3,0.1,0.7,0.1,1,0.1c1.6,0,3.4-1,5.4-2
					c0.5-0.3,1.1-0.6,1.7-0.9l2.4-1.2l11.2,24.6l0,0c1,1.9,3.1,3.1,5.2,3.1c0.9,0,1.7-0.2,2.6-0.6l1.1-0.5c1.4-0.7,2.4-1.9,2.9-3.4
					s0.3-3-0.4-4.4l-13.6-23.3l14.2-7.2c0.6-0.3,1.3-0.9,1.1-1.9c-0.1-0.7-0.6-1.6-1.3-2.9c-0.4-0.7-0.8-1.4-1.2-2.3
					c-0.8-1.5-5.4-3.3-9.4-4.4C114.5,35.4,111.2,34.7,108.3,34.7L108.3,34.7z"/>
			</g>
		</g>
		<line class="st2" x1="82.3" y1="74.3" x2="82.3" y2="86.8"/>
	</g>
</g>
</svg>
