<?xml version="1.0" encoding="utf-8"?>
<!-- Generator: Adobe Illustrator 16.0.0, SVG Export Plug-In . SVG Version: 6.00 Build 0)  -->
<!DOCTYPE svg PUBLIC "-//W3C//DTD SVG 1.1//EN" "http://www.w3.org/Graphics/SVG/1.1/DTD/svg11.dtd">
<svg version="1.1" id="Layer_1" xmlns="http://www.w3.org/2000/svg" xmlns:xlink="http://www.w3.org/1999/xlink" x="0px" y="0px"
	 width="125.369px" height="120.406px" viewBox="0 0 125.369 120.406" enable-background="new 0 0 125.369 120.406"
	 xml:space="preserve">
<g>
	<g>
		<path fill="#FFFFFF" d="M15.644,31.97c-4.386,6.358-8.972,12.89-9.41,20.847c-0.15,2.726,3.32,3.82,5.121,2.121
			c4.499-4.243,6.369-10.312,10.667-14.667c-1.707-0.707-3.414-1.414-5.121-2.121c-0.834,9.196-8.582,16.638-10.893,25.536
			c-0.906,3.488,3.537,4.938,5.483,2.312c4.489-6.057,7.163-13.33,12.531-18.728c-1.671-0.973-3.343-1.946-5.014-2.918
			C16.525,54.288,8.698,61.902,8.234,72.484c-0.114,2.597,3.367,4,5.121,2.121c5.285-5.657,7.762-13.096,12.667-19
			c-1.671-0.973-3.343-1.946-5.014-2.918c-2.493,10.01-10.346,18.047-10.107,28.797c0.048,2.179,2.544,3.864,4.514,2.591
			c9.246-5.979,10.812-17.905,18.607-25.137c-1.671-0.973-3.343-1.946-5.014-2.918c-1.446,10.489-9.607,18.423-12,28.667
			c-0.807,3.451,3.532,5.022,5.483,2.312c6.542-9.086,10.689-21.22,20.924-26.924c-1.505-0.863-3.009-1.727-4.514-2.59
			c-1.189,12.009-12.812,20.476-15.56,32.202c-0.666,2.839,2.856,5.159,5.014,2.919c4.752-4.934,8.273-10.921,12.015-16.615
			c3.966-6.036,8.697-13.675,15.994-15.947c-1.23-1.23-2.46-2.46-3.69-3.69c-4.446,14.062-15.977,24.479-21.666,38
			c-1.155,2.743,3.175,5.185,5.014,2.919c10.363-12.769,15.9-32.818,31.394-40.531c-1.369-1.368-2.737-2.736-4.105-4.104
			c-6.621,15.412-18.82,27.42-26.333,42.333c-1.483,2.945,2.269,6.215,4.711,3.636C53.147,86.508,60.645,66.77,77.032,60.377
			c-1.267-0.964-2.532-1.929-3.798-2.893c-0.114,7.018-7.062,13.615-11.069,18.85c-5.868,7.665-11.072,15.927-15.854,24.302
			c-1.664,2.913,2.367,6.199,4.711,3.636c6.216-6.797,11.552-14.429,17.419-21.53c3.183-3.853,9.748-14.01,15.46-13.591
			c-0.964-1.266-1.929-2.531-2.893-3.798c-2.215,7.107-8.104,12.616-12.493,18.451c-5.692,7.564-11.511,15.025-16.872,22.832
			c-1.931,2.813,2.464,6.18,4.711,3.636C68.108,96.97,77.868,79.506,94.748,72.075c-1.469-0.598-2.938-1.195-4.406-1.793
			c0.374,2.419-2.985,6.035-4.326,7.735c-2.076,2.632-4.389,5.072-6.619,7.571c-6.148,6.89-11.693,14.559-17.085,22.047
			c-1.997,2.773,2.477,6.178,4.711,3.636c5.908-6.722,11.981-13.266,17.975-19.905c4.376-4.848,10.819-13.43,17.904-13.882
			c-0.964-1.266-1.929-2.531-2.893-3.798c-1.721,6.252-6.809,10.856-10.722,15.81c-4.927,6.234-9.86,12.462-14.644,18.808
			c1.728,1.009,3.454,2.019,5.182,3.027c7.468-11.554,17.141-23.236,29.591-29.59c-1.369-1.368-2.737-2.736-4.105-4.105
			c-4.433,9.247-12.861,15.526-19.53,23.061c1.57,1.212,3.141,2.424,4.712,3.635c5.375-8.099,12.598-17.498,21.873-21.288
			c-1.23-1.229-2.461-2.46-3.69-3.69c-2.451,5.948-8.426,10.286-12.895,14.677c1.414,1.414,2.828,2.828,4.242,4.242
			c1.951-1.946,3.914-3.863,6-5.666c-1.57-0.202-3.141-0.404-4.712-0.606c0.223,0.443,0.444,0.889,0.666,1.332
			c0.787,1.575,2.693,1.708,4.105,1.077c5.422-2.427,7.634-8.351,8.931-13.749c1.38-5.748,2.297-12.539,1.979-18.454
			c-0.77-14.266-18.453,2.106-23.222,3.72c1.267,0.964,2.532,1.929,3.798,2.893c0.171-7.034,7.945-12.164,10.925-18.153
			c1.348-2.709-1.364-5.523-4.105-4.104c-9.352,4.842-15.479,13.801-24.334,19.333c1.47,1.13,2.938,2.259,4.407,3.389
			c3.871-9.737,13.952-15.933,20.562-23.677c2.17-2.542-0.542-6.431-3.636-4.711c-9.266,5.149-15.03,15.349-24.95,19.363
			c1.267,0.964,2.532,1.929,3.798,2.893c0.688-6.415,6.31-12.017,10.518-16.442c4.233-4.452,8.901-8.458,13.271-12.77
			c-1.414-1.414-2.828-2.828-4.242-4.242c-10.979,11.396-21.114,24.121-34.728,32.53c1.47,1.13,2.938,2.259,4.407,3.389
			c3.476-14.514,19.184-23.75,28.229-34.677c2.043-2.467-0.595-6.706-3.636-4.711C81.288,34.601,73.166,48.491,59.72,55.894
			c1.469,1.129,2.938,2.258,4.407,3.388c4.285-13.986,19.253-21.958,27.896-33.01c2.362-3.02-1.23-6.774-4.242-4.242
			c-6.609,5.556-13.438,11.199-19.419,17.433c-4.525,4.717-9.278,11.454-15.924,13.129c1.23,1.23,2.46,2.46,3.69,3.69
			c3.554-15.172,19.612-23.47,27.365-36.283c1.276-2.109-0.858-5.377-3.389-4.407c-3.771,1.446-6.857,3.736-9.967,6.273
			c-3.833,3.127-8.028,7.763-13.235,8.286c0.964,1.266,1.929,2.532,2.893,3.797c3.265-8.666,12.096-13.724,16.698-21.616
			c1.568-2.69-1.493-5.465-4.105-4.104C62.809,13.215,56.594,25.21,45.77,27.591c1.129,1.469,2.258,2.938,3.388,4.407
			c3.924-7.608,10.821-12.886,16.198-19.393c2.102-2.543-0.519-6.477-3.635-4.711c-6.053,3.428-10.769,9.105-17.283,11.697
			c1.129,1.469,2.258,2.938,3.388,4.407c1.857-3.884,4.849-6.736,7.864-9.727c2.376-2.356-0.764-6.661-3.635-4.711
			c-0.706,0.571-1.484,1.016-2.333,1.334c1.469,0.598,2.938,1.195,4.407,1.793C52.698,6.962,67.244,8.082,70.435,8.53
			c1.214,0.17,2.396,0.501,3.57,0.846c3.289,0.966,2.884,2.104,0.743,4.392c-2.885,3.084-6.451,5.354-7.739,9.584
			c-0.515,1.689,0.951,4.056,2.893,3.797c6.295-0.837,11.745-7.456,18-6.666c-0.964-1.266-1.929-2.532-2.893-3.797
			c-2.226,7.111-9.839,12.02-15.229,16.676c1.414,1.414,2.828,2.828,4.242,4.242c3.285-3.264,6.729-6.359,10.326-9.277
			c2.92-2.37,9.252-8.104,13.421-6.951c-0.698-1.23-1.396-2.46-2.095-3.69c-0.613,3.396-2.445,6.345-3.333,9.666
			c-0.621,2.32,1.482,4.14,3.69,3.69c4.707-0.959,8.743-3.969,13.535-4.559c-1-1-2-2-3-3c0.136,1.963,0.565,3.588-0.591,5.486
			c1.571-0.202,3.142-0.405,4.712-0.607c-4.146-5.001-11.438-4.47-13.014,2.324c-0.459,1.978,0.901,3.679,2.893,3.797
			c2.276,0.136,4.304-0.407,6.465-1.107c-1.23-0.699-2.461-1.397-3.69-2.096c0.808,5.612-5.468,11.777-7,17.071
			c-0.597,2.06,1.509,4.501,3.69,3.69c4.062-1.51,6.415-4.828,10.05-6.969c-1.47-1.129-2.938-2.258-4.407-3.388
			c-1.998,5.037-6.209,8.669-7.666,14c-0.624,2.283,1.488,4.189,3.69,3.69c5.03-1.14,8.434-5.323,13.333-6.667
			c-1.267-0.964-2.532-1.929-3.798-2.893c-0.72,5.705-6.308,9.954-7.893,15.535c-0.609,2.147,1.497,4.378,3.69,3.69
			c3.162-0.991,5.637-3.09,8.667-4.333c-1.23-1.229-2.461-2.46-3.69-3.69c-1.681,5.245-6.813,8.7-9.698,13.284
			c-1.737,2.762,1.565,5.272,4.105,4.104c2.807-1.292,5.115-3.286,7.666-5c-1.47-1.13-2.938-2.259-4.407-3.389
			c-1.039,3.213-3.358,5.877-4.666,9c-1.285,3.069,2.998,4.603,5.014,2.919c3.102-2.589,5.675-5.641,8.333-8.667
			c-1.57-1.212-3.141-2.424-4.712-3.636c-1.163,2.205-2.3,4.311-2.969,6.717c-0.713,2.563,2.132,4.685,4.407,3.389
			c3.019-1.721,4.849-4.078,5.712-7.459c0.844-3.302-3.728-5.259-5.483-2.312c-1.773,2.978-2.343,6.378-4.02,9.388
			c-2.199,3.95-7.719,6.839-11.57,8.869c1.469,0.598,2.938,1.195,4.406,1.793c-1.406-7.671,5.051-16.337,7.333-23.404
			c0.766-2.369-2.26-4.963-4.407-3.389c-8.051,5.905-13.384,14.369-20.606,21.137c1.671,0.973,3.343,1.945,5.014,2.919
			c3.539-11.508,14.47-18.864,18.334-30.334c0.882-2.618-2.221-4.567-4.407-3.388c-8.209,4.428-14.042,12.049-20.228,18.821
			c-2.441,2.674-4.679,5.534-7.089,8.237c-1.967,2.204-5.572,7.077-8.836,7.199c0.964,1.266,1.929,2.531,2.893,3.798
			c4.645-18.859,20.226-33.048,31.698-47.951c2.16-2.806-2.324-5.842-4.712-3.635c-8.896,8.22-15.628,18.317-23.02,27.832
			c-4.919,6.331-12.434,14.967-11.526,23.623c0.19,1.82,1.789,3.567,3.798,2.893c4.686-1.573,8.229-4.761,11.711-8.158
			c3.776-3.684,7.775-8.464,13.491-8.401c-0.863-0.495-1.727-0.99-2.591-1.486c0.982,1.981-1.593,5.828-2.483,7.428
			c-2.149,3.859-4.868,7.417-7.641,10.841c-4.416,5.456-9.363,11.525-15.132,15.627c1.368,1.368,2.736,2.736,4.104,4.104
			c3.161-5.821,7.956-10.624,12.863-14.995c5.134-4.57,11.44-9.32,18.344-10.626c-1.23-1.229-2.461-2.46-3.69-3.69
			c-2.506,8.203-11.723,12.707-16.031,19.95c-1.259,2.118,0.845,5.371,3.389,4.407c8.666-3.282,14.059-10.976,22.049-15.302
			c-1.368-1.368-2.736-2.736-4.104-4.105c-3.064,4.213-6.898,7.714-10.863,11.06c1.414,1.414,2.828,2.828,4.242,4.242
			c2.477-2.422,5.062-4.717,7.666-7c-1.57-1.212-3.141-2.424-4.712-3.636c-14.548,19.15-42.068,25.034-63.417,13.852
			c-5.247-2.749-9.247-7.431-12.802-12.049c-3.771-4.896-8.098-9.771-11.359-15.005C8.235,76.358,9.112,68.916,9.282,63.21
			c0.178-5.964,4.417-10.82,7.542-15.546c1.878-2.839-2.451-6.183-4.711-3.635C4.396,52.724,0.789,66.673,3.544,77.995
			c3.012,12.376,15.024-0.328,20.487-2.285c-1.23-1.229-2.46-2.46-3.69-3.69c-0.796,5.238-5.346,8.855-7.365,13.616
			c-0.867,2.046,0.612,5.563,3.388,4.407c4.431-1.845,7.395-5.653,11.717-7.635c-1.505-0.864-3.009-1.728-4.514-2.591
			c-0.161,5.195-5.576,9.645-7.226,14.535c-0.854,2.531,2.231,4.7,4.407,3.389c5.647-3.404,9.772-9.214,15.95-11.698
			c-1.23-0.698-2.46-1.396-3.69-2.095c1.378,4.012-4.722,10.174-6.365,13.688c-1.22,2.611,1.332,5.714,4.104,4.105
			c4.102-2.38,6.831-6.421,11-8.666c-1.469-1.13-2.938-2.259-4.407-3.389c-1.35,5.409-5.319,9.653-7.698,14.617
			c-1.508,3.146,2.062,5.82,4.711,3.635c5.41-4.463,10.935-15.258,18.546-15.788c-1-1-2-2-3-3
			c-0.75,7.641-7.438,13.797-11.59,19.819c-1.964,2.849,2.375,6.04,4.711,3.636c5.362-5.518,10.188-13.439,17.676-16.229
			c-1.23-1.229-2.46-2.46-3.69-3.69c-2.065,6.5-7.501,11.354-11.896,16.343c1.414,1.414,2.828,2.828,4.242,4.242
			c4.627-5.388,10.191-13.963,17.677-15.229c-1.23-1.229-2.461-2.46-3.69-3.69c-2.303,6.32-7.546,11.072-11.896,16.011
			c-2.543,2.888,1.412,6.924,4.242,4.242c4.052-3.839,7.664-8.152,12.394-11.197c-1.47-1.13-2.938-2.259-4.407-3.389
			c-1.067,5.92-6.215,9.854-9.031,14.95c-1.368,2.478,1.514,5.907,4.104,4.105c6.869-4.778,12.176-14.48,20.951-15.698
			c-1.267-0.964-2.532-1.929-3.798-2.893c0.151,4.08-3.474,7.386-5.258,10.819c-1.38,2.655,1.405,5.595,4.104,4.104
			c9.163-5.059,10.357-16.568,14.868-25.2c4.432-8.479,10.814-18.53,8.844-28.521c-0.479-2.431-4.437-3.068-5.483-0.717
			c-3.01,6.761-10.746,9.406-15.196,15.059c-2.365,3.004,1.851,7.281,4.242,4.242c4.811-6.11,12.844-8.88,16.136-16.272
			c-1.828-0.239-3.656-0.479-5.483-0.717c1.646,8.352-5.154,17.994-8.83,25.028c-1.83,3.503-3.426,7.079-4.733,10.811
			c-1.651,4.713-2.751,8.544-7.391,11.105c1.368,1.368,2.736,2.736,4.104,4.104c2.389-4.598,6.28-8.333,6.076-13.847
			c-0.079-2.134-1.844-3.164-3.798-2.893c-9.78,1.356-14.879,11.082-22.383,16.302c1.368,1.368,2.736,2.736,4.104,4.105
			c3.107-5.626,8.449-9.8,9.635-16.384c0.434-2.403-2.001-4.938-4.407-3.389c-5.183,3.338-9.166,7.929-13.606,12.137
			c1.414,1.414,2.828,2.828,4.242,4.242c5.11-5.801,10.739-11.249,13.438-18.657c0.86-2.361-1.655-4.035-3.69-3.69
			c-8.711,1.473-14.966,10.533-20.323,16.771c-2.5,2.911,1.672,7.159,4.242,4.242c5.137-5.829,11.026-11.398,13.438-18.989
			c0.656-2.063-1.549-4.488-3.69-3.69c-8.788,3.272-14.031,11.295-20.324,17.771c1.57,1.212,3.141,2.424,4.711,3.636
			c4.989-7.236,11.511-13.694,12.41-22.849c0.152-1.551-1.481-3.105-3-3c-10.318,0.719-15.585,11.604-22.788,17.546
			c1.57,1.212,3.141,2.424,4.711,3.635c2.622-5.469,6.81-10.068,8.302-16.049c0.649-2.6-2.077-4.643-4.407-3.389
			c-4.203,2.264-6.916,6.297-11,8.666c1.368,1.368,2.736,2.736,4.104,4.105c2.543-5.442,9.217-11.77,6.969-18.312
			c-0.483-1.407-2.104-2.732-3.69-2.095c-6.871,2.763-11.172,8.558-17.384,12.302c1.469,1.13,2.938,2.259,4.407,3.389
			c1.951-5.782,7.24-9.679,7.44-16.131c0.076-2.462-2.56-3.486-4.514-2.591c-3.831,1.757-6.438,5.43-10.283,7.031
			c1.129,1.469,2.258,2.938,3.388,4.407c2.239-5.281,7.079-9.188,7.969-15.05c0.31-2.038-1.301-4.547-3.69-3.69
			c-2.798,1.002-5.13,2.642-7.517,4.378c-1.339,0.975-2.685,1.912-4.133,2.718c-1.958,1.09-1.848-2.252-2.031-3.652
			c-1.084-8.296,2.058-18.851,7.6-25.097c-1.57-1.211-3.141-2.423-4.711-3.635C8.202,49.84,4.556,54.611,3.53,60.917
			c-1.105,6.795-0.761,14.998,1.683,21.452c2.375,6.272,8.36,11.799,12.364,17.098c4.231,5.6,8.856,10.619,14.955,14.201
			c11.395,6.692,26.577,7.642,39.256,5.104c13.128-2.627,24.368-10.574,32.371-21.107c2.172-2.86-2.303-5.747-4.712-3.636
			c-2.605,2.282-5.189,4.577-7.666,7c-2.807,2.744,1.329,6.701,4.242,4.242c4.388-3.702,8.417-7.621,11.803-12.272
			c1.878-2.582-1.66-5.429-4.104-4.105c-7.446,4.032-12.623,11.671-20.617,14.698c1.13,1.469,2.259,2.938,3.389,4.407
			c4.699-7.902,13.832-12.208,16.635-21.384c0.716-2.342-1.551-4.095-3.69-3.69c-7.135,1.349-13.36,5.936-18.894,10.392
			c-6.135,4.94-12.112,11.015-15.899,17.987c-1.336,2.461,1.513,5.947,4.104,4.104c7.339-5.218,13.519-12.753,18.941-19.847
			c4.128-5.399,12.115-14.904,8.469-22.258c-0.464-0.936-1.588-1.476-2.591-1.486c-12.24-0.134-16.408,13.284-26.798,16.774
			c1.267,0.964,2.532,1.929,3.798,2.893c-0.825-7.878,7.434-16.414,11.918-22.134c6.739-8.593,12.8-17.623,20.87-25.079
			c-1.57-1.211-3.141-2.423-4.712-3.635C86.789,56.035,71.146,70.512,66.342,90.019c-0.451,1.832,0.893,3.873,2.893,3.798
			c7.143-0.268,12.85-8.581,16.997-13.485c6.473-7.653,13.263-16.779,22.185-21.591c-1.47-1.129-2.938-2.258-4.407-3.388
			c-3.845,11.412-14.755,18.694-18.334,30.333c-0.915,2.976,2.896,4.902,5.014,2.919c6.809-6.379,11.816-14.642,19.394-20.197
			c-1.47-1.13-2.938-2.259-4.407-3.389c-2.762,8.551-9.051,17.229-7.333,26.596c0.365,1.992,2.821,2.628,4.406,1.793
			c4.111-2.167,7.839-4.837,11.216-8.027c3.716-3.51,4.037-8.203,6.528-12.382c-1.828-0.771-3.656-1.542-5.483-2.312
			c-0.243,1.807-1.228,3.098-2.956,3.873c1.47,1.13,2.938,2.259,4.407,3.389c0.539-1.939,1.438-3.526,2.365-5.283
			c1.533-2.906-2.376-6.295-4.712-3.636c-2.659,3.026-5.232,6.077-8.333,8.667c1.671,0.973,3.343,1.945,5.014,2.919
			c1.324-3.163,3.599-5.697,4.666-9c0.789-2.439-2.232-4.851-4.407-3.389c-2.55,1.715-4.858,3.709-7.666,5
			c1.369,1.368,2.737,2.736,4.105,4.104c3.261-5.183,8.372-8.691,10.302-14.716c0.645-2.011-1.558-4.565-3.69-3.691
			c-2.994,1.229-5.585,3.368-8.667,4.333c1.23,1.229,2.461,2.46,3.69,3.69c1.792-6.311,7.253-10.362,8.107-17.131
			c0.25-1.978-2.097-3.359-3.798-2.893c-4.92,1.351-8.424,5.555-13.333,6.667c1.23,1.23,2.461,2.46,3.69,3.69
			c1.409-5.156,5.692-9.022,7.666-14c1.011-2.549-2.313-4.621-4.407-3.388c-3.042,1.792-5.303,5.132-8.616,6.363
			c1.23,1.23,2.461,2.46,3.69,3.69c2.048-7.074,8.131-12.408,7-20.261c-0.227-1.572-2.278-2.553-3.69-2.096
			c-1.699,0.551-3.045,1.002-4.869,0.893c0.964,1.266,1.929,2.532,2.893,3.797c0.628-2.708,2.203-0.621,2.986,0.324
			c1.269,1.531,3.779,0.924,4.712-0.607c1.75-2.875,1.636-5.238,1.409-8.514c-0.102-1.472-1.296-3.21-3-3
			c-5.43,0.669-9.85,3.697-15.131,4.773c1.23,1.23,2.461,2.46,3.69,3.69c0.891-3.327,2.718-6.257,3.333-9.666
			c0.291-1.609-0.414-3.226-2.095-3.69c-5.276-1.458-10.72,2.263-14.823,5.122c-5.307,3.697-10.181,8.097-14.762,12.65
			c-2.776,2.758,1.347,6.744,4.242,4.242c6.364-5.498,14.146-10.935,16.771-19.324c0.641-2.047-1.051-3.565-2.893-3.797
			c-7.175-0.907-11.412,5.79-18,6.666c0.964,1.266,1.929,2.532,2.893,3.797c1.811-5.942,10.745-7.731,9.773-15.13
			C81.876,4.552,75.04,3.08,70.626,2.552C62.742,1.61,45.263,1.955,48.342,14.281c0.504,2.018,2.708,2.583,4.407,1.793
			c0.849-0.318,1.627-0.763,2.333-1.334c-1.212-1.57-2.424-3.141-3.635-4.711c-3.363,3.336-6.734,6.616-8.802,10.941
			c-0.999,2.088,0.687,5.482,3.388,4.407c7.125-2.836,12.133-8.574,18.716-12.303c-1.211-1.57-2.423-3.141-3.635-4.711
			C55.407,15.267,48.144,20.89,43.977,28.97c-1.23,2.386,0.766,4.984,3.388,4.407c11.72-2.578,17.867-14.665,28.051-19.97
			c-1.369-1.368-2.737-2.736-4.105-4.104c-4.943,8.477-13.742,13.599-17.302,23.05c-0.649,1.723,1.045,3.983,2.893,3.797
			c10.471-1.052,15.562-11.232,24.798-14.773c-1.13-1.469-2.259-2.938-3.389-4.407c-8.138,13.45-24.193,21.599-27.969,37.717
			c-0.524,2.238,1.42,4.262,3.69,3.69c6.96-1.754,12.093-7.727,16.792-12.772c6.494-6.971,13.912-13.207,21.198-19.333
			c-1.414-1.414-2.828-2.828-4.242-4.242c-9.428,12.054-24.742,20.325-29.438,35.658c-0.796,2.598,2.173,4.618,4.407,3.388
			c13.523-7.445,21.564-21.29,34.333-29.667c-1.212-1.57-2.424-3.141-3.636-4.711C83.632,38.552,67.463,48.2,63.675,64.019
			c-0.594,2.479,2.084,4.823,4.407,3.389c14.082-8.7,24.585-21.682,35.94-33.47c2.685-2.786-1.484-6.964-4.242-4.242
			C90.433,38.92,75.751,49.017,74.234,63.15c-0.195,1.816,2.09,3.584,3.798,2.893c10.647-4.31,16.57-14.515,26.384-19.968
			c-1.212-1.57-2.424-3.141-3.636-4.711c-7.451,8.728-17.732,15.321-22.105,26.323c-0.996,2.505,2.32,4.692,4.407,3.389
			c8.85-5.53,15.032-14.519,24.334-19.334c-1.369-1.368-2.737-2.736-4.105-4.104c-3.637,7.312-11.529,12.374-11.743,21.181
			c-0.046,1.874,1.964,3.513,3.798,2.893c3.453-1.168,6.4-3.236,9.359-5.315c1.649-1.16,3.296-2.312,5.036-3.334
			c2.307-1.355,1.313-1.016,1.257,1.369c-0.169,7.12-0.393,21.409-7.965,24.797c1.369,0.359,2.737,0.718,4.105,1.077
			c-0.223-0.445-0.444-0.889-0.666-1.334c-0.919-1.838-3.341-1.792-4.712-0.606c-2.087,1.803-4.049,3.719-6,5.666
			c-2.742,2.736,1.481,6.955,4.242,4.242c5.387-5.291,11.492-10.176,14.438-17.323c0.831-2.016-1.679-4.513-3.69-3.69
			c-10.933,4.468-19.079,14.435-25.459,24.046c-1.883,2.836,2.455,6.185,4.712,3.635c7.008-7.916,15.809-14.553,20.47-24.273
			c1.304-2.721-1.334-5.52-4.105-4.105c-13.357,6.818-23.73,19.348-31.743,31.744c-2.148,3.324,2.918,6.031,5.182,3.027
			c5.126-6.802,10.39-13.512,15.736-20.143c4.039-5.009,8.479-9.535,10.232-15.906c0.493-1.79-0.925-3.924-2.893-3.798
			c-7.699,0.491-13.803,6.815-18.841,12.056c-7.322,7.618-14.307,15.554-21.28,23.489c1.57,1.212,3.141,2.424,4.712,3.636
			c6.136-8.523,12.596-16.825,19.586-24.662c4.076-4.57,10.078-10.655,9.049-17.316c-0.324-2.102-2.832-2.486-4.406-1.793
			c-17.42,7.67-27.489,25.42-39.607,39.136c1.57,1.212,3.141,2.424,4.711,3.636c5.359-7.807,11.162-15.284,16.872-22.833
			c4.787-6.329,10.686-12.14,13.098-19.884c0.616-1.976-1.022-3.661-2.893-3.798c-6.946-0.51-13.055,7.524-17.032,12.152
			C59.951,83.35,53.93,92.209,46.78,100.029c1.57,1.212,3.141,2.424,4.711,3.636c5.25-9.195,11.033-18.176,17.573-26.512
			c4.452-5.675,10.047-12.068,10.17-19.669c0.029-1.804-1.968-3.606-3.798-2.893c-17.956,7.006-25.499,26.583-37.99,39.772
			c1.57,1.212,3.141,2.424,4.711,3.636c7.513-14.914,19.713-26.922,26.334-42.334c1.175-2.735-1.247-5.527-4.105-4.104
			C48.013,59.71,42.639,79.647,31.78,93.029c1.671,0.973,3.343,1.945,5.014,2.919c5.709-13.566,17.175-23.793,21.666-38
			c0.681-2.152-1.545-4.358-3.69-3.69c-15.324,4.771-20.429,23.488-30.657,34.106c1.671,0.973,3.343,1.945,5.014,2.919
			C32.034,78.879,43.61,70.52,44.901,57.484c0.234-2.364-2.691-3.606-4.514-2.59c-11.313,6.305-15.86,19.055-23.076,29.076
			c1.828,0.771,3.655,1.542,5.483,2.312c2.392-10.238,10.544-18.102,12-28.667c0.395-2.862-2.634-5.127-5.014-2.918
			c-7.282,6.755-8.997,18.77-17.393,24.197c1.505,0.864,3.009,1.728,4.514,2.591c-0.219-9.881,7.569-17.872,9.893-27.203
			c0.678-2.72-2.994-5.35-5.014-2.918c-4.899,5.896-7.432,13.396-12.667,19c1.707,0.707,3.414,1.414,5.121,2.121
			c0.424-9.688,8.249-17.29,10.56-26.537c0.72-2.881-2.856-5.088-5.014-2.918c-5.76,5.791-8.663,13.455-13.469,19.94
			c1.828,0.771,3.655,1.542,5.483,2.312C14.285,55.69,21.986,48.25,22.901,38.15c0.244-2.687-3.399-3.866-5.121-2.121
			C13.466,40.4,11.576,46.486,7.113,50.696c1.707,0.707,3.414,1.414,5.121,2.121c0.369-6.707,4.915-12.491,8.59-17.819
			C23.028,31.804,17.825,28.808,15.644,31.97L15.644,31.97z"/>
	</g>
</g>
<g>
	<g>
		<path fill="#FFFFFF" d="M58.78,38.696c-7.044,6.719-13.913,13.671-19.136,21.94c-1.938,3.068,2.227,5.687,4.711,3.635
			c8.895-7.343,16.25-16.223,23.667-25c2.462-2.913-1.479-7.03-4.242-4.242C52.158,46.754,41.883,59.784,29.446,70.696
			c1.57,1.212,3.141,2.424,4.711,3.635c8.514-13.484,20.737-24.305,33.198-34.06c-1.414-1.414-2.828-2.828-4.242-4.242
			c-5.365,5.675-11.287,10.69-16.863,16.135c-4.046,3.95-8.3,9.362-14.146,10.428c1.266,0.964,2.532,1.929,3.797,2.893
			c-0.867-14.413,14.61-25.461,20.923-37.153c1.401-2.595-1.446-5.687-4.104-4.104c-10.736,6.388-16.981,19.175-28.616,24.03
			c1.129,1.469,2.258,2.938,3.388,4.407c5.036-11.748,15.86-19.339,23-29.666c1.747-2.526-1.629-5.611-4.104-4.104
			c-10.496,6.386-17.756,16.758-28.334,23c1.368,1.368,2.736,2.736,4.104,4.104c6.186-10.973,17.854-17.282,26.198-26.393
			c2.314-2.526-0.594-6.338-3.635-4.711c-7.879,4.212-13.649,11.365-21.667,15.333c1.368,1.368,2.736,2.736,4.104,4.104
			c4.615-7.303,12.061-12.128,17.865-18.393c2.224-2.4-0.745-6.758-3.635-4.711c-5.641,3.994-10.709,8.605-15.607,13.469
			c1.414,1.414,2.828,2.828,4.242,4.242c5.489-6.696,11.842-12.621,18.726-17.864c-1.212-1.57-2.424-3.141-3.635-4.711
			C33.451,16.387,18.105,25.291,13.009,40.687c-1.085,3.278,3.808,5.218,5.483,2.312c6.084-10.557,13.925-20.797,24.236-27.518
			c4.951-3.227,10.095-4.096,15.84-4.747c2.701-0.306,5.535-0.719,8.073,0.451c2.432,1.121,4.433,1.296,7.059,0.858
			c-1.13-1.469-2.259-2.938-3.389-4.407c-3.212,5.61-9.563,9.124-14.142,13.555c-5.859,5.67-11.102,11.937-16.025,18.423
			c-5.809,7.653-10.902,15.97-15.044,24.645c-2.523,5.284-7.529,15.591-1.731,20.474c8.582,7.227,15.096-7.641,22.331-8.689
			c-1.266-0.964-2.532-1.929-3.797-2.893c-0.788,8.174-9.273,14.062-12.227,21.536c-0.943,2.387,2.349,4.888,4.407,3.389
			c4.247-3.095,7.527-7.187,11.607-10.47c-1.57-1.212-3.141-2.424-4.711-3.636c-3.104,7.255-9.529,12.166-14.864,17.727
			c-2.748,2.863,1.28,6.586,4.242,4.242c5.256-4.157,9.356-9.664,15.284-12.978c4.067-2.273,0.55,2.561-0.567,4.332
			c-1.573,2.494-3.47,4.76-5.292,7.07c1.57,1.212,3.141,2.424,4.711,3.636c2.629-5.732,7.127-10.009,11.531-14.394
			c-1.414-1.414-2.828-2.828-4.242-4.242c-1.592,1.817-3.226,3.591-4.926,5.308c-1.243,1.256-2.556,2.435-3.914,3.564
			c-0.812,0.676-3.317,1.628-2.782,2.4c-1.176-1.698-3.143-1.888-4.711-0.606c-2.355,1.922-4.081,4.332-6,6.667
			c1.707,0.707,3.414,1.414,5.121,2.121c-0.119-5.535,6.234-15.082,0.867-19.618c-5.821-4.92-13.003,4.782-16.654,8.164
			c1.57,1.212,3.141,2.424,4.711,3.636c3.246-6.063,8.046-10.903,12.864-15.728c-1.57-1.212-3.141-2.424-4.711-3.636
			c-3.609,6.708-9.36,11.863-13.333,18.334c-1.48,2.412,1.639,5.996,4.104,4.105c7.345-5.633,14.226-12.083,22.112-16.974
			c1.694-1.05,3.451-1.888,5.384-2.378c2.712-0.687,1.596,1.77,0.962,3.142c-1.561,3.379-3.855,6.33-5.199,9.821
			c-0.992,2.575,2.295,4.593,4.407,3.389c6.806-3.883,11.383-11.962,19.284-13.698c-1.267-0.964-2.532-1.929-3.798-2.893
			c-0.483,7.252-8.173,13.025-11.923,18.819c-1.676,2.589,1.577,5.56,4.104,4.104c8.752-5.042,14.278-13.977,23-19
			c-1.469-1.13-2.938-2.259-4.406-3.389c-2.089,5.588-7.805,10.314-12.621,13.54c1.469,1.13,2.938,2.259,4.406,3.389
			c4.257-11.172,12.727-20.855,19.239-30.783c2.625-4.002,4.976-8.347,5.951-13.067c0.411-1.992,0.128-3.647-0.725-5.462
			c-0.982-2.091,4.297-5.976,5.43-7.365c1.736-2.129,0.198-6.044-2.919-5.014c-4.941,1.633-9.321,5.053-13.344,8.248
			c-3.294,2.616-8.357,6.667-7.418,11.443c0.746,3.794,6.528,2.184,5.785-1.595c0.109,0.557,1.414-1.494,1.986-2.105
			c1.523-1.628,3.293-3.063,5.058-4.417c2.831-2.17,6.103-4.655,9.528-5.787c-0.974-1.671-1.946-3.343-2.919-5.014
			c-2.96,3.629-7.577,6.295-7.535,11.441c0.021,2.555,1.511,3.536,0.708,6.406c-0.928,3.315-2.943,6.38-4.768,9.26
			c-6.709,10.589-15.339,20.392-19.844,32.216c-0.934,2.451,2.31,4.792,4.406,3.389c6.275-4.202,12.677-9.9,15.379-17.126
			c0.961-2.568-2.28-4.613-4.406-3.389c-8.753,5.042-14.278,13.977-23,19c1.368,1.368,2.736,2.736,4.104,4.104
			c4.575-7.066,12.146-12.885,12.743-21.847c0.136-2.041-2.008-3.286-3.798-2.893C59,83.518,54.469,91.664,47.053,95.893
			c1.469,1.13,2.938,2.259,4.407,3.389c1.703-4.421,5.194-7.962,6.148-12.717c0.848-4.226-2.494-7.912-6.792-7.87
			c-5.447,0.054-10.367,3.707-14.565,6.804c-5.776,4.261-11.169,9.028-16.864,13.395c1.368,1.368,2.736,2.736,4.104,4.105
			c3.974-6.473,9.718-11.614,13.333-18.334c1.6-2.975-2.254-6.096-4.711-3.636c-5.166,5.172-10.325,10.445-13.802,16.94
			c-1.624,3.033,2.193,5.969,4.711,3.636c1.594-1.476,3.05-3.096,4.606-4.61c0.848-0.824,1.738-1.573,2.704-2.256
			c0.495-0.365,1.04-0.629,1.633-0.789c-0.592-0.676-0.785-0.55-0.579,0.379c-0.056,4.921-2.926,9.523-2.819,14.488
			c0.052,2.405,3.37,4.252,5.121,2.121c1.919-2.334,3.645-4.744,6-6.667c-1.57-0.202-3.141-0.404-4.711-0.606
			c5.841,8.438,17.277-5.758,21.045-10.06c2.528-2.885-1.474-6.999-4.242-4.242c-4.743,4.722-9.64,9.438-12.469,15.606
			c-1.309,2.854,2.447,6.507,4.711,3.636c3.634-4.606,14.74-16.227,6.739-21.462c-8.017-5.245-19.519,10.494-24.648,14.553
			c1.414,1.414,2.828,2.828,4.242,4.242c5.676-5.916,12.499-11.219,15.802-18.939c1.355-3.168-1.975-5.838-4.711-3.636
			c-3.672,2.954-6.58,6.752-10.393,9.53c1.469,1.13,2.938,2.259,4.407,3.389c3.335-8.438,11.52-13.567,12.441-23.132
			c0.207-2.143-2.058-3.145-3.797-2.893c-3.636,0.526-6.452,3.203-9.064,5.582c-1.113,1.014-7.115,7.073-8.155,3.606
			c-0.811-2.701,1.074-6.602,2.023-9.043c1.507-3.878,3.556-7.573,5.593-11.191c4.613-8.192,10.007-15.865,16.021-23.092
			c4.127-4.959,8.601-9.772,13.461-14.021c4.146-3.625,8.706-6.541,11.508-11.434c1.409-2.461-0.888-4.824-3.389-4.407
			c-2.568,0.428-5.606-1.681-8.277-1.835c-3.078-0.178-6.27,0.417-9.314,0.798c-5.936,0.741-10.962,2.57-15.994,5.85
			c-10.659,6.947-18.929,18.008-25.207,28.9c1.828,0.771,3.655,1.541,5.483,2.312c4.643-14.023,19.941-22.547,30.562-31.676
			c2.567-2.206-0.922-6.778-3.635-4.711c-7.305,5.563-14.109,11.688-19.94,18.802c-2.406,2.936,1.443,7.022,4.242,4.242
			c4.53-4.498,9.173-8.835,14.393-12.531c-1.212-1.57-2.424-3.141-3.635-4.711c-6.185,6.675-13.877,11.812-18.803,19.607
			c-1.711,2.708,1.56,5.364,4.104,4.104c8.03-3.974,13.792-11.123,21.667-15.333c-1.212-1.57-2.424-3.141-3.635-4.711
			c-8.731,9.533-20.649,16.101-27.136,27.607c-1.465,2.599,1.477,5.655,4.104,4.104c10.603-6.256,17.856-16.625,28.334-23
			c-1.368-1.368-2.736-2.736-4.104-4.104c-7.161,10.357-17.931,17.843-23,29.666c-0.877,2.045,0.619,5.562,3.388,4.407
			c12.466-5.202,18.726-17.897,30.05-24.636c-1.368-1.368-2.736-2.736-4.104-4.104c-6.963,12.896-22.708,24.12-21.743,40.181
			c0.124,2.063,1.811,3.255,3.797,2.893c6.085-1.109,10.844-6.055,15.054-10.235c6.108-6.065,12.679-11.604,18.603-17.87
			c2.73-2.888-1.271-6.568-4.242-4.242C50.224,46.118,37.779,57.36,28.977,71.303c-1.904,3.016,2.248,5.797,4.711,3.635
			c12.437-10.912,22.712-23.941,34.334-35.667c-1.414-1.414-2.828-2.828-4.242-4.242c-7.418,8.776-14.772,17.657-23.667,25
			c1.57,1.211,3.141,2.424,4.711,3.636c4.949-7.834,11.527-14.364,18.198-20.727C65.827,40.263,61.578,36.027,58.78,38.696
			L58.78,38.696z"/>
	</g>
</g>
<g>
	<g>
		<path fill="#FFFFFF" d="M96.567,39.484c-0.055,2.902-0.901,5.458-2.591,7.819c-0.953,1.333-0.236,3.335,1.076,4.104
			c1.51,0.884,3.155,0.251,4.105-1.076c2.275-3.18,3.336-6.961,3.409-10.847C102.64,35.612,96.64,35.62,96.567,39.484L96.567,39.484
			z"/>
	</g>
</g>
<g>
	<g>
		<path fill="#F7A51F" d="M34.507,11.089c-7.222,6.559-14.24,13.318-20.666,20.667c-1.263,1.444,0.801,3.554,2.121,2.121
			c8.488-9.208,16.633-18.872,26.696-26.432c-0.684-0.684-1.368-1.368-2.052-2.052c-5.601,12.201-17.864,19.738-22.818,32.358
			c-0.599,1.524,1.487,2.34,2.507,1.459c8.966-7.738,13.087-19.729,22.696-26.765c-0.684-0.684-1.368-1.368-2.052-2.052
			c-5.702,13.187-16.95,22.75-23.667,35.334c-0.767,1.437,1.275,3.216,2.356,1.817c8.875-11.484,15.148-25.584,27.03-34.432
			c-0.684-0.684-1.368-1.368-2.052-2.052c-6.497,13.464-18.651,23.505-23.151,38.025c-0.399,1.288,1.091,2.325,2.203,1.694
			c10.493-5.95,14.548-18.708,21.97-27.569c-0.785-0.606-1.57-1.212-2.356-1.817c-6.594,10.25-14.458,19.668-19.151,31.025
			c-0.592,1.434,1.529,2.478,2.507,1.459c6.268-6.531,10.434-14.589,16-21.667c-0.785-0.606-1.57-1.212-2.356-1.817
			c-5.292,9.897-12.813,18.438-16.817,29.025c-0.559,1.479,1.494,2.426,2.507,1.459c7.984-7.62,12.617-17.713,19.333-26.333
			c-0.785-0.606-1.57-1.212-2.356-1.817c-5.801,9.547-13.447,18.048-16.484,29.024c-0.333,1.203,1.085,2.461,2.203,1.694
			c5.73-3.931,7.907-10.78,12.304-15.9c-0.835-0.486-1.671-0.973-2.507-1.459c-2.257,7.657-7.43,13.942-10.334,21.333
			c-0.573,1.456,1.51,2.452,2.507,1.459c4.34-4.322,6.836-9.944,10.667-14.667c-0.835-0.486-1.671-0.973-2.507-1.459
			c-2.446,5.94-5.886,11.391-8.333,17.334c-0.603,1.464,1.514,2.425,2.507,1.459c2.514-2.442,4.31-5.421,6.666-8
			c-0.854-0.354-1.707-0.707-2.561-1.061c-0.055,4.146-2.302,7.662-3.279,11.602c-0.346,1.396,1.46,2.615,2.507,1.459
			c1.7-1.878,3.157-3.919,5-5.667c-0.854-0.354-1.707-0.707-2.561-1.061c0.119,2.361-0.2,4.646-0.333,7
			c-0.087,1.545,2.051,1.973,2.795,0.757c1.114-1.82,1.603-3.312,1.871-5.424c0.243-1.916-2.76-1.893-3,0
			c-0.487,1.304-0.974,2.606-1.461,3.91c0.932,0.252,1.864,0.505,2.795,0.757c0.133-2.354,0.452-4.639,0.333-7
			c-0.066-1.306-1.584-1.986-2.561-1.061c-1.843,1.747-3.3,3.789-5,5.667c0.835,0.486,1.671,0.973,2.507,1.459
			c1.05-4.231,3.328-7.948,3.387-12.398c0.017-1.272-1.67-2.035-2.561-1.061c-2.351,2.573-4.16,5.564-6.666,8
			c0.835,0.486,1.671,0.973,2.507,1.459c2.446-5.94,5.886-11.391,8.333-17.333c0.565-1.374-1.585-2.596-2.507-1.459
			c-3.819,4.708-6.352,10.369-10.667,14.667c0.835,0.486,1.671,0.973,2.507,1.459c2.91-7.404,8.066-13.641,10.334-21.333
			c0.409-1.388-1.509-2.622-2.507-1.459c-4.147,4.83-6.335,11.753-11.696,15.431c0.734,0.565,1.469,1.129,2.203,1.694
			c2.96-10.699,10.527-19,16.182-28.308c0.867-1.427-1.294-3.181-2.356-1.817c-6.704,8.604-11.372,18.735-19.333,26.333
			c0.835,0.486,1.671,0.973,2.507,1.459c3.9-10.314,11.356-18.661,16.515-28.309c0.769-1.438-1.263-3.208-2.356-1.817
			c-5.559,7.068-9.747,15.151-16,21.667c0.835,0.486,1.671,0.973,2.507,1.459c4.579-11.08,12.416-20.309,18.849-30.309
			c0.913-1.42-1.255-3.132-2.356-1.817c-7.19,8.584-11.262,21.372-21.362,27.099c0.734,0.565,1.469,1.129,2.203,1.694
			c4.407-14.221,16.477-24.103,22.849-37.309c0.582-1.206-0.729-3.038-2.052-2.052c-12.197,9.083-18.539,23.126-27.638,34.902
			c0.785,0.606,1.57,1.212,2.356,1.817c6.716-12.583,17.963-22.143,23.667-35.334c0.519-1.2-0.687-3.052-2.052-2.052
			c-9.884,7.238-14.124,19.312-23.304,27.235c0.835,0.486,1.671,0.973,2.507,1.459c4.829-12.301,17.027-19.686,22.516-31.642
			c0.55-1.198-0.715-3.057-2.052-2.052c-10.288,7.729-18.625,17.487-27.304,26.902c0.707,0.707,1.414,1.414,2.121,2.121
			c6.426-7.349,13.444-14.108,20.666-20.667C38.063,11.907,35.935,9.792,34.507,11.089L34.507,11.089z"/>
	</g>
</g>
<g>
	<g>
		<path fill="#F7A51F" d="M44.939,28.727c-3.578,8.253-8.561,15.815-11.484,24.358c-0.584,1.708,1.821,2.47,2.742,1.156
			c5.554-7.929,10.504-16.284,16.765-23.696c-0.785-0.606-1.57-1.212-2.356-1.817c-4.96,8.58-11.703,16.143-14.818,25.691
			c-0.489,1.499,1.457,2.425,2.507,1.459c8.318-7.645,12.879-18.243,20.667-26.333c-0.785-0.606-1.57-1.212-2.356-1.817
			C52.092,38.237,43.23,45.991,37.939,56.06c-0.766,1.458,1.174,3.132,2.356,1.817c8.488-9.439,13.96-21.302,23.667-29.667
			c-0.785-0.606-1.57-1.212-2.356-1.817c-5.088,8.631-13.246,15.064-17.334,24.334c-0.707,1.604,0.991,2.877,2.356,1.817
			c5.909-4.585,9.425-11.415,15.334-16c-0.835-0.486-1.671-0.973-2.507-1.459c-1.532,7.604-8.173,12.862-11.516,19.642
			c-0.724,1.468,1.135,3.121,2.356,1.817c4.001-4.27,6.551-9.97,11.363-13.432c-0.734-0.565-1.469-1.129-2.203-1.694
			c-1.879,4.889-5.391,8.87-7.516,13.642c-0.536,1.204,0.696,3.045,2.052,2.052c0.854-0.625,1.742-1.154,2.667-1.667
			c-0.752-0.432-1.504-0.864-2.257-1.295c-0.159,2.091-0.705,3.944-1.28,5.935c-0.397,1.374,1.521,2.648,2.507,1.459
			c0.969-1.168,1.762-2.348,2.569-3.638c1.029-1.646-1.568-3.15-2.591-1.514c-0.626,1.06-1.326,2.07-2.099,3.03
			c0.835,0.486,1.671,0.973,2.507,1.459c0.652-2.252,1.21-4.397,1.388-6.733c0.09-1.179-1.328-1.811-2.257-1.295
			c-0.925,0.513-1.813,1.042-2.667,1.667c0.684,0.684,1.368,1.368,2.052,2.052c2.233-5.014,5.841-9.213,7.818-14.358
			c0.46-1.198-1.166-2.44-2.203-1.694c-5.098,3.668-7.749,9.396-11.971,13.902c0.785,0.606,1.57,1.212,2.356,1.817
			c3.476-7.051,10.22-12.425,11.818-20.358c0.315-1.562-1.332-2.372-2.507-1.459c-5.909,4.585-9.426,11.414-15.334,16
			c0.785,0.606,1.57,1.212,2.356,1.817c4.081-9.255,12.247-15.706,17.333-24.334c0.903-1.532-1.103-2.897-2.355-1.817
			c-9.722,8.377-15.175,20.223-23.667,29.667c0.785,0.606,1.57,1.212,2.356,1.817c5.291-10.068,14.152-17.822,18.667-28.333
			c0.63-1.467-1.082-3.142-2.356-1.817c-7.788,8.09-12.36,18.699-20.667,26.333c0.835,0.486,1.671,0.973,2.507,1.459
			c3.024-9.268,9.7-16.645,14.516-24.975c0.833-1.44-1.232-3.148-2.356-1.817c-6.428,7.611-11.532,16.162-17.235,24.304
			c0.914,0.385,1.828,0.771,2.742,1.156c2.837-8.291,7.708-15.63,11.182-23.642C48.291,28.485,45.707,26.956,44.939,28.727
			L44.939,28.727z"/>
	</g>
</g>
<g>
	<g>
		<path fill="#F7A51F" d="M58.272,3.06c-0.695,1.094-1.304,2.239-2,3.333c-0.79,1.242,0.799,2.896,2.052,2.052
			c2.109-1.42,4.198-3.055,6.642-3.849c-0.614-0.615-1.229-1.23-1.845-1.845c-0.652,1.756-1.791,3.222-2.947,4.672
			c-1.177,1.475,0.719,3.522,2.121,2.121c1.876-1.874,3.745-3.724,6.029-5.099c-0.684-0.684-1.368-1.368-2.052-2.052
			c-0.76,1.165-1.314,3.119-1.101,4.479c0.082,0.523,0.589,0.89,1.048,1.048c0.812,0.28,1.264-0.161,1.915-0.521
			c-0.386,0.05-0.771,0.101-1.156,0.151c0.063,0.015,0.127,0.031,0.19,0.046c1.879,0.458,2.677-2.435,0.797-2.893
			c-0.846-0.206-1.289,0.09-1.971,0.521c0.386-0.05,0.771-0.101,1.156-0.151c-0.045-0.015-0.09-0.031-0.134-0.046
			c0.349,0.35,0.698,0.699,1.047,1.048c-0.041-0.264,0.561-1.803,0.798-2.168c0.833-1.277-0.794-2.81-2.052-2.052
			c-2.502,1.506-4.581,3.516-6.637,5.569c0.707,0.707,1.414,1.414,2.121,2.121c1.498-1.878,2.876-3.725,3.719-5.996
			c0.396-1.066-0.812-2.181-1.845-1.845c-2.719,0.883-5.012,2.57-7.358,4.151c0.684,0.684,1.368,1.368,2.052,2.052
			c0.695-1.094,1.305-2.238,2-3.333C61.903,2.936,59.306,1.432,58.272,3.06L58.272,3.06z"/>
	</g>
</g>
<g>
	<g>
		<path fill="#F7A51F" d="M83.841,6.423c-1.592,1.531-3.204,3.009-4.667,4.666c-1.141,1.292,0.277,3.13,1.817,2.356
			c3.184-1.6,5.949-3.843,9-5.666c-0.734-0.565-1.469-1.129-2.203-1.694c-1.277,3.325-3.679,5.969-5.516,8.975
			c-0.749,1.224,0.8,2.954,2.052,2.052c3.022-2.176,5.646-4.825,8.667-7c-0.734-0.565-1.469-1.129-2.203-1.694
			c-0.746,3.21-3.157,5.575-4.849,8.309c-0.926,1.495,1.131,2.944,2.355,1.817c2.531-2.328,4.768-4.911,7.696-6.765
			c-0.734-0.565-1.469-1.129-2.203-1.694c-0.942,3.635-3.293,6.473-5.182,9.642c-0.896,1.501,1.124,2.956,2.355,1.817
			c3.009-2.781,5.695-5.822,9.362-7.765c-0.752-0.432-1.505-0.864-2.257-1.295c-0.467,4.262-4.226,7.586-6.128,11.243
			c-0.769,1.475,1.137,3.089,2.355,1.817c3.019-3.149,5.616-6.76,9.363-9.099c-0.684-0.684-1.368-1.368-2.052-2.052
			c-2.146,4.847-5.614,8.823-8.334,13.334c-0.741,1.229,0.792,2.948,2.052,2.052c4.417-3.143,7.225-7.932,11.667-11
			c-0.734-0.565-1.469-1.129-2.203-1.694c-1.195,2.937-3.101,5.484-4.516,8.308c-0.877,1.749,1.473,3.077,2.59,1.514
			c0.557-0.777,1.112-1.555,1.667-2.333c1.127-1.578-1.477-3.073-2.59-1.514c-0.556,0.777-1.111,1.555-1.667,2.333
			c0.863,0.504,1.727,1.009,2.59,1.514c1.538-3.068,3.521-5.835,4.818-9.024c0.494-1.213-1.175-2.405-2.203-1.694
			c-4.466,3.084-7.255,7.861-11.667,11c0.684,0.684,1.368,1.368,2.052,2.052c2.72-4.511,6.188-8.487,8.334-13.334
			c0.562-1.27-0.656-2.923-2.052-2.052c-3.99,2.491-6.755,6.213-9.971,9.569c0.785,0.606,1.57,1.212,2.355,1.817
			c2.246-4.314,5.988-7.736,6.538-12.757c0.132-1.201-1.351-1.775-2.257-1.295c-3.891,2.062-6.771,5.278-9.97,8.235
			c0.785,0.606,1.57,1.212,2.355,1.817c2.036-3.414,4.472-6.451,5.484-10.358C97,9.649,95.62,8.465,94.478,9.188
			c-3.146,1.992-5.58,4.729-8.304,7.235c0.785,0.606,1.57,1.212,2.355,1.817c1.851-2.988,4.339-5.526,5.151-9.025
			c0.271-1.169-1.062-2.516-2.203-1.694c-3.022,2.176-5.646,4.825-8.667,7c0.684,0.684,1.368,1.368,2.052,2.052
			c1.991-3.257,4.438-6.096,5.818-9.691c0.488-1.27-1.148-2.325-2.203-1.694c-3.051,1.824-5.816,4.066-9,5.666
			c0.605,0.786,1.212,1.571,1.817,2.356c1.463-1.657,3.075-3.135,4.667-4.666C87.358,7.201,85.234,5.083,83.841,6.423L83.841,6.423z
			"/>
	</g>
</g>
<g>
	<g>
		<path fill="#F7A51F" d="M113.811,24.854c-3.946,2.995-7.391,6.351-9.538,10.873c-0.67,1.41,0.663,2.68,2.052,2.052
			c3.786-1.71,6.359-5.054,10-7c-0.734-0.565-1.469-1.129-2.203-1.694c-1.649,4.666-5.372,8.104-7.849,12.308
			c-0.905,1.537,1.101,2.888,2.355,1.817c2.837-2.421,5.082-5.921,8.672-7.28c-0.564-0.734-1.129-1.469-1.693-2.203
			c-1.907,4.336-5.072,7.865-7.334,12c-0.838,1.531,1.09,2.941,2.355,1.817c3.771-3.346,6.703-7.921,11.363-10.099
			c-0.734-0.565-1.469-1.129-2.203-1.694c-1.794,6.607-7.838,10.859-11.182,16.642c-0.909,1.571,1.085,2.832,2.355,1.817
			c3.612-2.882,6.145-6.873,10.029-9.431c-0.734-0.565-1.469-1.129-2.203-1.694c-1.222,6.602-7.26,11.017-10.516,16.642
			c-0.719,1.241,0.771,2.935,2.052,2.052c5.521-3.806,8.712-10.01,14.334-13.667c-0.734-0.565-1.469-1.129-2.203-1.694
			c-1.241,7.588-9.411,11.657-10.667,19.333c-0.198,1.21,0.981,2.455,2.203,1.693c4.249-2.647,6.708-7.031,10.667-10
			c-0.684-0.684-1.368-1.368-2.052-2.052c-2.009,4.616-5.177,8.565-6.818,13.358c-0.532,1.554,1.451,2.327,2.507,1.459
			c1.977-1.626,3.589-3.624,5.696-5.099c-0.734-0.564-1.469-1.129-2.203-1.693c-0.601,2.978-1.96,5.368-4.281,7.338
			c-1.478,1.253,0.655,3.365,2.121,2.121c2.663-2.259,4.364-5.244,5.053-8.662c0.236-1.171-1.032-2.513-2.203-1.693
			c-2.328,1.628-4.117,3.768-6.304,5.567c0.836,0.486,1.671,0.973,2.507,1.459c1.555-4.538,4.612-8.267,6.516-12.642
			c0.519-1.191-0.696-3.069-2.052-2.052c-3.943,2.957-6.464,7.381-10.667,10c0.734,0.564,1.469,1.129,2.203,1.693
			c1.241-7.588,9.411-11.657,10.667-19.333c0.195-1.19-0.988-2.484-2.203-1.694c-5.652,3.676-8.825,9.87-14.334,13.667
			c0.684,0.684,1.368,1.368,2.052,2.052c3.394-5.861,9.536-10.426,10.818-17.358c0.221-1.193-1.008-2.481-2.203-1.694
			c-4.115,2.71-6.816,6.853-10.637,9.901c0.785,0.606,1.57,1.212,2.355,1.817c3.505-6.061,9.592-10.387,11.484-17.358
			c0.369-1.359-1.054-2.231-2.203-1.694c-4.93,2.304-7.992,7.038-11.971,10.569c0.785,0.606,1.57,1.212,2.355,1.817
			c2.263-4.135,5.428-7.663,7.334-12c0.465-1.056-0.312-2.726-1.693-2.203c-4.222,1.598-6.659,5.204-9.996,8.052
			c0.785,0.606,1.57,1.212,2.355,1.817c2.63-4.463,6.398-8.066,8.151-13.024c0.464-1.313-1.123-2.271-2.203-1.694
			c-3.634,1.943-6.235,5.3-10,7c0.684,0.684,1.368,1.368,2.052,2.052c1.926-4.054,4.92-7.108,8.462-9.795
			C116.845,26.292,115.353,23.685,113.811,24.854L113.811,24.854z"/>
	</g>
</g>
<g>
	<g>
		<path fill="#F7A51F" d="M46.606,76.393c-2.055,2.979-4.273,5.807-6,9c-0.781,1.444,1.221,3.168,2.356,1.817
			c3.702-4.404,7.31-8.88,11.333-13c-0.785-0.605-1.57-1.212-2.356-1.817c-3.442,5.322-7.716,10.156-9.484,16.358
			c-0.441,1.545,1.411,2.37,2.507,1.459c4.426-3.68,7.389-8.585,11-13c-0.785-0.605-1.57-1.212-2.356-1.817
			c-3.178,6.327-7.819,11.761-10.485,18.358c-0.606,1.499,1.499,2.37,2.507,1.459c7.189-6.495,11.329-15.642,19-21.666
			c-0.836-0.486-1.671-0.973-2.507-1.459c-1.605,9.561-10.929,15.445-14.849,23.975c-0.692,1.506,1.063,3.052,2.356,1.817
			c7.755-7.399,12.245-17.577,20.667-24.333c-0.785-0.605-1.57-1.212-2.355-1.817c-4.637,9.478-12.404,16.976-16.667,26.666
			c-0.685,1.557,1.01,2.961,2.356,1.817c6.292-5.348,9.229-13.46,15.667-18.666c-0.785-0.605-1.57-1.212-2.355-1.817
			c-3.76,8.756-10.708,15.885-12.818,25.358c-0.342,1.532,1.361,2.409,2.507,1.459c3.864-3.203,6.284-7.657,10-11
			c-0.836-0.486-1.671-0.973-2.507-1.459c-1.609,5.01-5.055,9.052-7.515,13.642c-0.93,1.735,1.475,3.059,2.591,1.514
			c0.864-1.196,1.627-2.371,2.333-3.667c0.925-1.699-1.665-3.213-2.591-1.514c-0.706,1.295-1.469,2.471-2.333,3.667
			c0.864,0.505,1.727,1.009,2.591,1.514c2.594-4.84,6.12-9.072,7.817-14.358c0.484-1.509-1.449-2.41-2.507-1.459
			c-3.716,3.343-6.138,7.798-10,11c0.835,0.486,1.671,0.973,2.507,1.459c2.048-9.19,8.864-16.137,12.516-24.642
			c0.68-1.581-0.989-2.922-2.355-1.817c-6.45,5.215-9.379,13.322-15.667,18.666c0.785,0.605,1.57,1.212,2.356,1.817
			c4.263-9.689,12.031-17.188,16.667-26.666c0.776-1.587-1.032-2.879-2.355-1.817c-8.432,6.764-12.912,16.933-20.667,24.333
			c0.785,0.605,1.57,1.212,2.356,1.817c4.035-8.779,13.487-14.78,15.151-24.691c0.259-1.542-1.303-2.404-2.507-1.459
			c-7.678,6.029-11.81,15.17-19,21.666c0.835,0.486,1.671,0.973,2.507,1.459c2.561-6.335,7.128-11.56,10.183-17.642
			c0.723-1.439-1.221-3.205-2.356-1.817c-3.604,4.406-6.585,9.329-11,13c0.835,0.486,1.671,0.973,2.507,1.459
			c1.687-5.916,5.9-10.566,9.182-15.642c0.936-1.447-1.177-3.025-2.356-1.817c-4.023,4.12-7.631,8.595-11.333,13
			c0.785,0.605,1.57,1.212,2.356,1.817c1.726-3.192,3.944-6.02,6-9C50.298,76.31,47.697,74.812,46.606,76.393L46.606,76.393z"/>
	</g>
</g>
<g>
	<path fill="none" d="M62.359,119.208c1.082-0.597,2.025-0.536,2.974-0.434c1.589,0.171,3.19,0.277,4.766,0.535
		c2.729,0.446,5.235-0.152,7.612-1.447c1.543-0.84,3.023-1.799,4.594-2.58c7.05-3.508,13.613-7.706,19.242-13.272
		c0.509-0.504,1.106-0.918,1.662-1.374c2.469-2.029,5.123-3.895,7.16-6.359c4.158-5.029,7.397-10.622,9.189-16.94
		c1.944-6.859,3.264-13.822,3.198-21.007c-0.042-4.637,0.261-9.303-0.703-13.866c-1.76-8.334-5.013-15.912-11.178-22.095
		c-4.412-4.424-9.34-8.078-15.046-10.488c-8.615-3.642-17.506-6.481-26.775-8.036c-1.499-0.251-3.236-0.135-4.361-1.593
		c-0.276-0.357-0.77-0.313-1.061,0.012c-1.188,1.321-2.906,1.434-4.394,1.516c-3.751,0.208-7.22,1.271-10.603,2.749
		c-1.382,0.604-2.67,1.122-3.898-0.293c-0.362-0.418-0.867-0.327-1.251,0.097c-0.282,0.312-0.558,0.863-0.26,1.06
		C44.94,6.526,43.437,6.633,42.756,7c-1.054,0.569-2.146,1.071-3.165,1.697C29.399,14.96,20.847,23.032,13.483,32.411
		c-0.497,0.633-0.877,1.319-1.22,2.049c-1.256,2.677-2.65,5.274-4.248,7.771c-3.69,5.771-6.494,11.908-7.451,18.771
		c-0.711,5.104-0.989,10.195,0.621,15.193c2.292,7.116,5.47,13.753,10.078,19.729c5.051,6.55,10.35,12.808,17.224,17.529
		c4.591,3.154,9.548,5.558,15.133,6.274c6.837,0.877,13.713,0.764,20.584,0.431c0.28-0.013,0.644,0.044,0.853-0.331
		C64.291,119.311,63.307,119.956,62.359,119.208z"/>
	<path fill-rule="evenodd" clip-rule="evenodd" d="M62.359,119.208c0.947,0.748,1.932,0.104,2.697,0.621
		c-0.209,0.375-0.572,0.318-0.853,0.331c-6.871,0.333-13.747,0.446-20.584-0.431c-5.585-0.717-10.542-3.12-15.133-6.274
		c-6.874-4.722-12.173-10.979-17.224-17.529C6.655,89.949,3.478,83.312,1.186,76.196c-1.61-4.998-1.332-10.09-0.621-15.193
		c0.957-6.863,3.761-13.001,7.451-18.771c1.598-2.497,2.992-5.095,4.248-7.771c0.343-0.729,0.723-1.416,1.22-2.049
		c7.363-9.379,15.916-17.45,26.107-23.713C40.609,8.072,41.702,7.57,42.756,7c0.681-0.367,2.185-0.475,0.472-1.61
		c-0.298-0.196-0.022-0.748,0.26-1.06c0.384-0.424,0.889-0.515,1.251-0.097c1.229,1.415,2.517,0.896,3.898,0.293
		c3.383-1.478,6.852-2.541,10.603-2.749c1.487-0.082,3.205-0.194,4.394-1.516c0.291-0.325,0.784-0.369,1.061-0.012
		c1.125,1.458,2.862,1.342,4.361,1.593c9.27,1.555,18.16,4.395,26.775,8.036c5.706,2.41,10.634,6.064,15.046,10.488
		c6.165,6.183,9.418,13.761,11.178,22.095c0.964,4.563,0.661,9.229,0.703,13.866c0.065,7.185-1.254,14.147-3.198,21.007
		c-1.792,6.318-5.031,11.911-9.189,16.94c-2.037,2.465-4.691,4.33-7.16,6.359c-0.556,0.456-1.153,0.87-1.662,1.374
		c-5.629,5.566-12.192,9.765-19.242,13.272c-1.57,0.781-3.051,1.74-4.594,2.58c-2.377,1.295-4.883,1.894-7.612,1.447
		c-1.575-0.258-3.177-0.364-4.766-0.535C64.385,118.671,63.441,118.611,62.359,119.208z M40.399,71.181
		c0.389,1.294,1.104,2.305,1.245,3.519c0.156,1.344-0.226,2.018-1.529,2.166c-1.59,0.182-3.143,0.154-4.609-0.789
		c-1.686-1.084-3.204-2.383-4.842-3.52c-1.312-0.911-2.218-2.153-2.695-3.585c-0.73-2.188-1.329-4.431-1.377-6.78
		c-0.047-2.325-0.547-4.582-1.263-6.79c-0.159-0.491-0.463-0.874-0.996-0.898c-0.501-0.022-0.554,0.505-0.744,0.816
		c-0.667,1.089-1.269,2.218-1.948,3.297c-0.44,0.7-1.074,1.305-1.962,1.053c-0.927-0.264-1.395-1.062-1.47-1.999
		c-0.11-1.356-0.041-2.707,0.164-4.062c0.346-2.291,1.119-4.491,1.33-6.811c0.217-2.385-0.119-4.675-1.41-6.673
		c-1.365-2.112-2.684-4.219-3.264-6.938c-0.932,0.976-1.293,1.961-1.74,2.865c-0.818,1.652-1.734,3.236-2.766,4.763
		c-1.969,2.917-3.701,5.953-5.109,9.199C0.531,61.263,0.307,72.372,5.648,83.6c3.199,6.723,7.493,12.631,12.268,18.232
		c3.9,4.575,8.234,8.721,13.39,11.908c3.416,2.111,6.982,3.996,10.954,4.706c5.6,1.001,11.288,1.109,16.969,1.136
		c0.463,0.002,1.098,0.122,1.24-0.443c0.265-1.052,1.148-0.908,1.854-1.184c1.733-0.676,3.471-0.384,5.205-0.104
		c3.816,0.614,7.437,0.337,10.852-1.758c2.446-1.501,5.136-2.607,7.578-4.113c4.143-2.556,8.339-5.066,11.927-8.409
		c1.58-1.473,3.186-2.901,4.917-4.197c4.937-3.694,8.891-8.261,11.769-13.712c3.172-6.002,4.76-12.529,5.85-19.159
		c0.869-5.289,0.709-10.669,0.664-16.014c-0.025-3.107-0.357-6.21-0.948-9.287c-0.778-4.057-2.472-7.726-4.276-11.387
		c-1.31-2.655-1.216-2.701-3.838-1.538c-3.088,1.369-4.623,4.42-4.096,7.783c0.395,2.523,0.659,5.072,0.849,7.62
		c0.185,2.483-0.007,4.952-0.917,7.317c-0.385,0.998-0.328,2.012-0.182,3.065c0.439,3.128,2.407,5.345,4.409,7.523
		c2.054,2.235,4.2,4.386,6.304,6.576c0.486,0.506,0.785,1.112,0.209,1.676c-0.621,0.608-1.142,0.161-1.601-0.36
		c-2.95-3.354-6.03-6.603-8.823-10.083c-2.082-2.593-2.905-5.662-1.798-8.993c0.383-1.149,0.55-2.318,0.632-3.524
		c0.237-3.454-0.102-6.854-0.795-10.23c-0.89-4.324,1.092-8.076,5.173-9.908c0.634-0.285,1.423-0.322,1.897-0.994
		c-0.19-0.913-1.023-1.364-1.506-2.064c-2.107-3.059-6.66-2.606-8.641-0.858c-2.457,2.167-5.347,4.039-6.519,7.479
		c-0.613,1.799-2.691,1.949-4.12,0.594c-1.066-1.012-1.734-2.293-2.323-3.605c-0.429-0.953-0.886-1.49-2.125-1.428
		c-1.756,0.088-1.864-0.281-1.852-2.2c0.012-1.745,0.567-3.397,0.839-4.978c-0.443-0.37-0.764-0.264-1.075-0.262
		c-2.702,0.012-2.794-0.028-2.976-2.661c-0.084-1.236-0.814-1.298-1.771-1.412c-2.732-0.326-3.938-2.863-2.56-5.288
		c0.354-0.623,0.743-1.237,1.189-1.798c0.771-0.969,0.357-1.28-0.645-1.626c-3.95-1.363-8.017-2.159-12.144-2.7
		c-1.528-0.2-1.572-0.142-1.49,1.487c0.025,0.479,0.051,0.96,0.113,1.436c0.204,1.549-0.367,2.832-1.385,3.935
		c-1.448,1.567-2.658,1.459-3.875-0.278c-0.871-1.241-1.672-2.553-2.688-3.665c-0.818-0.895-1.651-2.459-3.265-0.917
		c-0.284,0.271-0.621,0.016-0.809-0.239c-0.335-0.456-0.749-0.598-1.246-0.371c-1.26,0.577-2.735,0.725-3.765,1.702
		c0.174,0.805,0.707,1.213,1.047,1.745c2.054,3.215,1.921,7.422-1.621,9.712c-1.205,0.779-2.316,1.702-3.472,2.559
		c-1.142,0.846-1.84,2.002-2.182,3.348c-0.587,2.306,0.851,3.888,3.179,3.552c0.951-0.138,1.867-0.359,2.744-0.804
		c2.705-1.369,5.427-2.709,8.162-4.018c1.787-0.854,3.128-0.48,3.95,0.903c0.396,0.666,0.204,1.41,0.508,2.212
		c1.063-1.008,2.008-0.664,2.851,0.259c0.927,1.014,1.027,2.063,0.293,3.276c-0.582,0.961-1.299,1.816-2.127,2.584
		c-0.623,0.578-1.363,1.094-1.461,2.043c0.366,0.193,0.658,0.085,0.971-0.004c0.984-0.28,2.115-0.822,2.837,0.275
		c0.679,1.031-0.394,1.714-0.888,2.481c-1.616,2.515-3.906,4.429-5.893,6.613c-1.912,2.104-2.54,4.521-2.068,7.308
		c0.299,1.764,0.933,3.389,1.76,4.943c0.854,1.604,0.843,3.223,0.223,4.863c-0.861,2.272-3.269,3.097-5.233,1.723
		c-1.443-1.009-2.731-2.211-3.568-3.82c-0.88-1.692-2.277-2.841-3.94-3.729c-0.706-0.377-1.383-0.479-2.04-0.077
		c-2.366,1.444-5.126,6.793-2.796,9.897c0.743,0.991,1.688,1.673,2.539,2.5c2.062,2.001,1.662,3.628-1.09,4.524
		C41.109,70.967,40.885,71.033,40.399,71.181z M62.663,34.79c-0.896-0.368-1.521,0.259-2.229,0.225
		c-0.772-0.038-1.692,0.343-2.224-0.454c-0.602-0.901,0.354-1.432,0.736-2.065c0.243-0.402,0.625-0.723,0.957-1.068
		c0.883-0.92,1.808-1.803,2.645-2.762c0.506-0.58,0.691-1.399,0.151-1.987c-0.697-0.759-1.045,0.244-1.515,0.523
		c-0.75,0.445-1.525,1.183-2.383,0.566c-0.906-0.651-0.02-1.444,0.187-2.134c0.232-0.772,0.647-1.507-0.085-2.205
		c-0.736-0.701-1.511-0.302-2.22,0.042c-1.578,0.766-3.123,1.6-4.693,2.382c-2.287,1.139-4.601,2.219-7.117,2.767
		c-1.784,0.388-2.432,0.085-3.333-1.502c-1.65-2.906-0.824-6.008,2.274-8.384c1.013-0.776,2.095-1.462,3.132-2.208
		c2.823-2.034,3.387-5.319,1.406-8.14c-0.872-1.24-1.918-1.61-3.315-1.072c-0.892,0.344-1.765,0.756-2.604,1.214
		c-9.901,5.399-17.941,12.984-25.184,21.501c-0.422,0.496-0.701,0.996-0.557,1.731c0.369,1.887,0.67,3.804,1.862,5.378
		c2.995,3.95,3.487,8.256,2.102,12.928c-0.475,1.6-0.747,3.271-0.962,4.93c-0.124,0.961-0.426,2.051,0.546,2.983
		c1.239-1.066,1.698-2.553,2.39-3.862c1.142-2.163,2.208-1.747,3.531-0.016c0.281,0.367,0.432,0.857,0.561,1.313
		c0.672,2.374,1.436,4.717,1.42,7.242c-0.035,5.993,3.387,9.707,8.339,12.356c0.718,0.383,1.526,0.469,2.325,0.5
		c0.775,0.031,1.148-0.26,1.027-1.153c-0.126-0.934-0.665-1.595-1.129-2.337c-0.871-1.395-0.494-2.228,1.082-2.527
		c0.762-0.145,1.6-0.021,2.315-0.726c-0.356-1.187-1.339-1.903-2.164-2.739c-1.872-1.896-2.729-4.193-2.067-6.779
		c0.596-2.33,1.707-4.436,3.63-6.072c1.133-0.963,2.186-1.133,3.499-0.552c2.104,0.93,3.844,2.282,5.045,4.254
		c0.764,1.253,1.713,2.312,2.947,3.095c1.477,0.937,2.608,0.478,3.014-1.221c0.308-1.29,0.105-2.522-0.484-3.722
		c-0.74-1.505-1.248-3.069-1.538-4.754c-0.694-4.036,0.684-7.171,3.684-9.791C59.562,38.833,61.475,37.163,62.663,34.79z
		 M107.811,19.537c-6.829-6.873-15.326-9.903-23.887-12.806c-0.543-0.185-1.053-0.08-1.564,0.304
		c-1.049,0.787-1.876,1.755-2.445,2.907c-0.633,1.282,0.043,2.604,1.442,2.956c0.538,0.136,1.108,0.144,1.648,0.273
		c1.155,0.275,1.729,0.945,1.689,2.223c-0.05,1.655,0.071,1.702,1.711,1.506c0.316-0.038,0.627-0.146,0.942-0.158
		c1.201-0.048,1.666,0.392,1.499,1.546c-0.102,0.702-0.388,1.38-0.607,2.063c-0.292,0.916-0.546,1.832-0.529,2.812
		c0.012,0.727,0.128,1.271,1.04,1.207c1.354-0.097,1.98,0.741,2.454,1.861c0.465,1.102,0.95,2.208,1.739,3.132
		c1.184,1.385,2.273,1.388,2.85-0.304c1.232-3.622,4.605-5.186,6.941-7.732c0.37-0.403,0.909-0.689,1.496-0.686
		C105.486,20.649,106.487,19.944,107.811,19.537z M57.77,3.402c1.303,1.707,2.41,3.229,3.594,4.689
		c1.155,1.427,1.771,1.307,2.499-0.338c0.407-0.92,0.403-1.857,0.263-2.813c-0.045-0.295-0.101-0.557-0.479-0.718
		C61.857,3.458,60.059,2.902,57.77,3.402z"/>
	<path fill-rule="evenodd" clip-rule="evenodd" fill="none" d="M40.399,71.181c0.485-0.148,0.71-0.214,0.933-0.286
		c2.752-0.896,3.151-2.523,1.09-4.524c-0.851-0.827-1.796-1.509-2.539-2.5c-2.33-3.104,0.43-8.453,2.796-9.897
		c0.657-0.401,1.334-0.3,2.04,0.077c1.663,0.889,3.061,2.037,3.94,3.729c0.837,1.609,2.125,2.812,3.568,3.82
		c1.965,1.374,4.372,0.55,5.233-1.723c0.62-1.641,0.631-3.26-0.223-4.863c-0.827-1.555-1.461-3.18-1.76-4.943
		c-0.472-2.786,0.156-5.204,2.068-7.308c1.986-2.185,4.276-4.099,5.893-6.613c0.494-0.768,1.566-1.45,0.888-2.481
		c-0.722-1.098-1.853-0.556-2.837-0.275c-0.312,0.089-0.604,0.197-0.971,0.004c0.098-0.949,0.838-1.465,1.461-2.043
		c0.828-0.768,1.545-1.623,2.127-2.584c0.734-1.213,0.634-2.263-0.293-3.276c-0.843-0.923-1.787-1.267-2.851-0.259
		c-0.304-0.802-0.112-1.546-0.508-2.212c-0.822-1.384-2.163-1.758-3.95-0.903c-2.735,1.309-5.457,2.648-8.162,4.018
		c-0.877,0.444-1.793,0.666-2.744,0.804c-2.328,0.336-3.766-1.246-3.179-3.552c0.342-1.346,1.04-2.502,2.182-3.348
		c1.155-0.856,2.267-1.779,3.472-2.559c3.542-2.29,3.675-6.497,1.621-9.712c-0.34-0.532-0.873-0.94-1.047-1.745
		c1.029-0.978,2.505-1.125,3.765-1.702c0.497-0.227,0.911-0.085,1.246,0.371c0.188,0.255,0.524,0.511,0.809,0.239
		c1.613-1.542,2.446,0.022,3.265,0.917c1.016,1.112,1.816,2.424,2.688,3.665c1.217,1.737,2.427,1.846,3.875,0.278
		c1.018-1.103,1.589-2.386,1.385-3.935c-0.062-0.476-0.088-0.956-0.113-1.436c-0.082-1.629-0.038-1.688,1.49-1.487
		c4.127,0.541,8.193,1.337,12.144,2.7c1.002,0.346,1.415,0.657,0.645,1.626c-0.446,0.561-0.835,1.175-1.189,1.798
		c-1.379,2.425-0.173,4.962,2.56,5.288c0.957,0.114,1.688,0.176,1.771,1.412c0.182,2.633,0.273,2.673,2.976,2.661
		c0.312-0.002,0.632-0.108,1.075,0.262c-0.271,1.58-0.827,3.232-0.839,4.978c-0.013,1.919,0.096,2.288,1.852,2.2
		c1.239-0.062,1.696,0.475,2.125,1.428c0.589,1.312,1.257,2.594,2.323,3.605c1.429,1.355,3.507,1.205,4.12-0.594
		c1.172-3.439,4.062-5.312,6.519-7.479c1.98-1.748,6.533-2.2,8.641,0.858c0.482,0.7,1.315,1.151,1.506,2.064
		c-0.475,0.672-1.264,0.709-1.897,0.994c-4.081,1.832-6.062,5.584-5.173,9.908c0.693,3.376,1.032,6.776,0.795,10.23
		c-0.082,1.206-0.249,2.375-0.632,3.524c-1.107,3.331-0.284,6.4,1.798,8.993c2.793,3.48,5.873,6.729,8.823,10.083
		c0.459,0.521,0.979,0.969,1.601,0.36c0.576-0.563,0.277-1.17-0.209-1.676c-2.104-2.19-4.25-4.341-6.304-6.576
		c-2.002-2.179-3.97-4.396-4.409-7.523c-0.146-1.054-0.203-2.067,0.182-3.065c0.91-2.365,1.102-4.834,0.917-7.317
		c-0.189-2.548-0.454-5.097-0.849-7.62c-0.527-3.363,1.008-6.414,4.096-7.783c2.622-1.163,2.528-1.117,3.838,1.538
		c1.805,3.661,3.498,7.33,4.276,11.387c0.591,3.077,0.923,6.18,0.948,9.287c0.045,5.345,0.205,10.725-0.664,16.014
		c-1.09,6.63-2.678,13.157-5.85,19.159c-2.878,5.451-6.832,10.018-11.769,13.712c-1.731,1.296-3.337,2.725-4.917,4.197
		c-3.588,3.343-7.784,5.854-11.927,8.409c-2.442,1.506-5.132,2.612-7.578,4.113c-3.415,2.095-7.035,2.372-10.852,1.758
		c-1.734-0.28-3.472-0.572-5.205,0.104c-0.706,0.275-1.59,0.132-1.854,1.184c-0.143,0.565-0.777,0.445-1.24,0.443
		c-5.681-0.026-11.369-0.135-16.969-1.136c-3.972-0.71-7.538-2.595-10.954-4.706c-5.155-3.188-9.489-7.333-13.39-11.908
		C13.142,96.231,8.848,90.323,5.648,83.6C0.307,72.372,0.531,61.263,5.414,50.013c1.408-3.246,3.141-6.282,5.109-9.199
		c1.031-1.526,1.947-3.11,2.766-4.763c0.447-0.904,0.809-1.89,1.74-2.865c0.58,2.72,1.898,4.826,3.264,6.938
		c1.291,1.998,1.627,4.288,1.41,6.673c-0.211,2.319-0.984,4.52-1.33,6.811c-0.205,1.355-0.274,2.706-0.164,4.062
		c0.075,0.937,0.543,1.735,1.47,1.999c0.888,0.252,1.521-0.353,1.962-1.053c0.68-1.079,1.281-2.208,1.948-3.297
		c0.19-0.312,0.243-0.839,0.744-0.816c0.533,0.024,0.837,0.407,0.996,0.898c0.716,2.208,1.216,4.465,1.263,6.79
		c0.048,2.35,0.646,4.592,1.377,6.78c0.478,1.432,1.383,2.674,2.695,3.585c1.638,1.137,3.156,2.436,4.842,3.52
		c1.467,0.943,3.02,0.971,4.609,0.789c1.304-0.148,1.686-0.822,1.529-2.166C41.504,73.486,40.788,72.475,40.399,71.181z
		 M70.079,74.248c0.23-2.328-0.827-3.895-2.644-5.066c-1.828-1.179-3.511-0.578-5.16,0.4c-2.126,1.261-4.279,2.443-6.158,4.114
		c-2.598,2.311-3.387,1.975-4.654-0.721c-0.72-1.53-1.92-1.696-3.402-0.803c-0.466,0.281-0.9,0.683-1.223,1.122
		c-2.076,2.82-4.213,5.578-7.058,7.694c-0.247,0.185-0.442,0.463-0.608,0.73c-2.097,3.394-1.635,7.186,1.268,10.056
		c1.534,1.516,3.139,2.96,4.7,4.446c1.956,1.862,3.306,4.02,3.819,6.755c0.338,1.808,0.49,3.632,0.789,5.439
		c0.221,1.336,0.754,2.405,1.78,3.28c1.651,1.41,2.259,1.389,3.209-0.648c1.317-2.823,2.699-5.61,4.116-8.383
		c0.332-0.65,0.429-1.356,0.543-2.073c0.375-2.361,0.483-4.837,1.307-7.04c1.25-3.344,2.439-6.766,4.482-9.763
		c1.17-1.717,2.415-3.383,3.553-5.12C69.623,77.318,70.305,75.866,70.079,74.248z"/>
	<path fill-rule="evenodd" clip-rule="evenodd" fill="none" d="M62.663,34.79c-1.188,2.373-3.101,4.043-4.996,5.698
		c-3,2.62-4.378,5.755-3.684,9.791c0.29,1.685,0.798,3.249,1.538,4.754c0.59,1.199,0.792,2.432,0.484,3.722
		c-0.405,1.698-1.537,2.157-3.014,1.221c-1.234-0.782-2.184-1.842-2.947-3.095c-1.201-1.972-2.94-3.324-5.045-4.254
		c-1.313-0.581-2.366-0.411-3.499,0.552c-1.923,1.637-3.034,3.742-3.63,6.072c-0.662,2.586,0.195,4.883,2.067,6.779
		c0.825,0.836,1.808,1.553,2.164,2.739c-0.716,0.704-1.554,0.581-2.315,0.726c-1.576,0.3-1.953,1.133-1.082,2.527
		c0.464,0.742,1.003,1.403,1.129,2.337c0.121,0.894-0.252,1.185-1.027,1.153c-0.799-0.031-1.607-0.117-2.325-0.5
		c-4.952-2.649-8.374-6.363-8.339-12.356c0.016-2.525-0.748-4.868-1.42-7.242c-0.129-0.456-0.279-0.946-0.561-1.313
		c-1.323-1.731-2.39-2.147-3.531,0.016c-0.691,1.31-1.15,2.796-2.39,3.862c-0.972-0.933-0.67-2.022-0.546-2.983
		c0.215-1.658,0.487-3.33,0.962-4.93c1.386-4.672,0.894-8.978-2.102-12.928c-1.192-1.574-1.493-3.491-1.862-5.378
		c-0.145-0.735,0.135-1.235,0.557-1.731c7.242-8.517,15.282-16.102,25.184-21.501c0.84-0.458,1.713-0.87,2.604-1.214
		c1.397-0.538,2.443-0.168,3.315,1.072c1.98,2.82,1.417,6.105-1.406,8.14c-1.037,0.746-2.119,1.432-3.132,2.208
		c-3.099,2.376-3.925,5.478-2.274,8.384c0.901,1.587,1.549,1.89,3.333,1.502c2.517-0.548,4.83-1.628,7.117-2.767
		c1.57-0.782,3.115-1.616,4.693-2.382c0.709-0.344,1.483-0.743,2.22-0.042c0.732,0.698,0.317,1.433,0.085,2.205
		c-0.206,0.689-1.093,1.482-0.187,2.134c0.857,0.616,1.633-0.121,2.383-0.566c0.47-0.279,0.817-1.282,1.515-0.523
		c0.54,0.588,0.354,1.407-0.151,1.987c-0.837,0.959-1.762,1.842-2.645,2.762c-0.332,0.346-0.714,0.666-0.957,1.068
		c-0.383,0.634-1.338,1.164-0.736,2.065c0.531,0.797,1.451,0.416,2.224,0.454C61.143,35.048,61.768,34.421,62.663,34.79z"/>
	<path fill-rule="evenodd" clip-rule="evenodd" fill="none" d="M107.811,19.537c-1.323,0.407-2.324,1.112-3.58,1.104
		c-0.587-0.004-1.126,0.282-1.496,0.686c-2.336,2.547-5.709,4.11-6.941,7.732c-0.576,1.691-1.666,1.688-2.85,0.304
		c-0.789-0.924-1.274-2.03-1.739-3.132c-0.474-1.12-1.101-1.958-2.454-1.861c-0.912,0.064-1.028-0.48-1.04-1.207
		c-0.017-0.979,0.237-1.896,0.529-2.812c0.22-0.684,0.506-1.361,0.607-2.063c0.167-1.154-0.298-1.594-1.499-1.546
		c-0.315,0.013-0.626,0.12-0.942,0.158c-1.64,0.196-1.761,0.149-1.711-1.506c0.039-1.277-0.534-1.947-1.689-2.223
		c-0.54-0.13-1.11-0.138-1.648-0.273c-1.399-0.353-2.075-1.674-1.442-2.956c0.569-1.152,1.396-2.12,2.445-2.907
		c0.512-0.384,1.021-0.488,1.564-0.304C92.484,9.633,100.981,12.664,107.811,19.537z"/>
	<path fill-rule="evenodd" clip-rule="evenodd" fill="none" d="M57.77,3.402c2.289-0.5,4.088,0.057,5.877,0.82
		c0.378,0.161,0.434,0.423,0.479,0.718c0.141,0.956,0.145,1.894-0.263,2.813c-0.728,1.645-1.344,1.765-2.499,0.338
		C60.18,6.63,59.072,5.109,57.77,3.402z"/>
	<path fill-rule="evenodd" clip-rule="evenodd" d="M70.079,74.248c0.226,1.618-0.456,3.07-1.341,4.421
		c-1.138,1.737-2.383,3.403-3.553,5.12c-2.043,2.997-3.232,6.419-4.482,9.763c-0.823,2.203-0.932,4.679-1.307,7.04
		c-0.114,0.717-0.211,1.423-0.543,2.073c-1.417,2.772-2.799,5.56-4.116,8.383c-0.95,2.037-1.558,2.059-3.209,0.648
		c-1.026-0.875-1.56-1.944-1.78-3.28c-0.299-1.808-0.451-3.632-0.789-5.439c-0.514-2.735-1.863-4.893-3.819-6.755
		c-1.562-1.486-3.166-2.931-4.7-4.446c-2.902-2.87-3.364-6.662-1.268-10.056c0.166-0.268,0.361-0.546,0.608-0.73
		c2.845-2.116,4.981-4.874,7.058-7.694c0.322-0.439,0.757-0.841,1.223-1.122c1.482-0.894,2.683-0.728,3.402,0.803
		c1.268,2.695,2.057,3.031,4.654,0.721c1.879-1.671,4.032-2.854,6.158-4.114c1.649-0.979,3.332-1.579,5.16-0.4
		C69.252,70.353,70.31,71.919,70.079,74.248z M52.893,110.399c0.89-1.68,1.662-3.418,2.68-4.998c1.871-2.902,2.807-6.052,2.94-9.469
		c0.052-1.301,0.377-2.515,0.983-3.666c0.484-0.918,1.021-1.824,1.361-2.796c1.23-3.513,3.209-6.569,5.521-9.444
		c1.264-1.572,2.144-3.307,2.451-5.36c0.262-1.734-0.381-2.929-1.653-3.952c-1.292-1.039-2.696-1.043-4.024-0.249
		c-2.037,1.218-4.32,2.056-5.985,3.876c-0.64,0.7-1.423,1.288-2.206,1.834c-1.361,0.95-2.466,0.8-3.598-0.441
		c-0.316-0.348-0.578-0.768-0.779-1.195c-0.871-1.854-1.867-1.438-2.656,0.088c-0.631,1.22-1.258,2.59-2.336,3.26
		c-1.474,0.917-2.465,2.239-3.686,3.354c-3.14,2.869-3.211,6.776-0.199,9.851c1.227,1.252,2.575,2.387,3.877,3.563
		c2.352,2.125,4.196,4.498,4.793,7.77c0.328,1.802,0.528,3.625,0.913,5.415C51.504,108.833,51.57,109.925,52.893,110.399z"/>
	<path fill-rule="evenodd" clip-rule="evenodd" fill="none" d="M52.893,110.399c-1.322-0.474-1.389-1.565-1.603-2.561
		c-0.385-1.79-0.585-3.613-0.913-5.415c-0.597-3.271-2.441-5.645-4.793-7.77c-1.302-1.177-2.65-2.312-3.877-3.563
		c-3.012-3.074-2.94-6.981,0.199-9.851c1.221-1.115,2.212-2.438,3.686-3.354c1.078-0.67,1.705-2.04,2.336-3.26
		c0.789-1.525,1.785-1.941,2.656-0.088c0.201,0.428,0.463,0.848,0.779,1.195c1.132,1.241,2.236,1.392,3.598,0.441
		c0.783-0.546,1.566-1.134,2.206-1.834c1.665-1.82,3.948-2.658,5.985-3.876c1.328-0.794,2.732-0.79,4.024,0.249
		c1.272,1.023,1.915,2.218,1.653,3.952c-0.308,2.054-1.188,3.788-2.451,5.36c-2.312,2.875-4.291,5.932-5.521,9.444
		c-0.341,0.972-0.877,1.878-1.361,2.796c-0.606,1.151-0.932,2.365-0.983,3.666c-0.134,3.417-1.069,6.566-2.94,9.469
		C54.555,106.981,53.782,108.719,52.893,110.399z"/>
</g>
</svg>
