<?xml version="1.0" encoding="utf-8"?>
<!-- Generator: Adobe Illustrator 19.2.0, SVG Export Plug-In . SVG Version: 6.00 Build 0)  -->
<svg version="1.1" id="Layer_1" xmlns="http://www.w3.org/2000/svg" xmlns:xlink="http://www.w3.org/1999/xlink" x="0px" y="0px"
	 viewBox="0 0 207 155.6" style="enable-background:new 0 0 207 155.6;" xml:space="preserve">
<style type="text/css">
	.st0{opacity:0.5;}
	.st1{fill:#FFFFFF;}
</style>
<g class="st0">
	<path class="st1" d="M163.3,32H43.7c-1.2,0-2.3-0.5-2.9-1.4c-0.6-0.9-0.7-2.1-0.3-3.2l8.8-23.7c0.8-2,3.1-3.7,5.2-3.7h97
		c2.2,0,4.5,1.6,5.3,3.6l9.6,23.8l0,0c0.5,1.1,0.4,2.3-0.2,3.2C165.6,31.5,164.5,32,163.3,32z M54.6,2.8c-1,0-2.3,0.9-2.6,1.8
		l-8.8,23.7c-0.1,0.3-0.1,0.5,0,0.7c0.1,0.1,0.3,0.2,0.6,0.2h119.5c0.3,0,0.5-0.1,0.6-0.2c0.1-0.1,0.1-0.3,0-0.6l-9.6-23.8
		c-0.4-1-1.7-1.8-2.7-1.8H54.6z"/>
</g>
<g class="st0">
	<path class="st1" d="M155.6,57.5c-4.4,0-8.3-2.4-10.4-6.1c-2.1,3.8-6,6.1-10.4,6.1c-4.4,0-8.3-2.4-10.4-6.1
		c-2.1,3.8-6,6.1-10.4,6.1c-4.4,0-8.3-2.4-10.4-6.1c-2.1,3.8-6,6.1-10.4,6.1c-4.4,0-8.3-2.4-10.4-6.1c-2.1,3.8-6.1,6.1-10.4,6.1
		c-4.4,0-8.3-2.4-10.4-6.1c-2.1,3.8-6.1,6.1-10.4,6.1c-6.6,0-12-5.4-12-12v-4.4c0-1.4,1.1-3.6,4.3-3.6H164c2.6,0,3.6,2.1,3.6,3.5
		v4.5C167.6,52.1,162.2,57.5,155.6,57.5z M145.2,47.6L145.2,47.6c0.8,0,1.6,0.5,1.9,1.4c1.4,3.5,4.7,5.8,8.5,5.8
		c5.1,0,9.2-4.1,9.2-9.2v-4.5c0-0.7-0.5-0.7-0.8-0.7H43.7c-1.5,0-1.5,0.7-1.5,0.8v4.4c0,5.1,4.1,9.2,9.2,9.2c3.7,0,7-2.2,8.5-5.7
		c0.4-0.9,1.1-1.4,2-1.4c0.9,0,1.6,0.6,2,1.4c1.4,3.4,4.7,5.6,8.4,5.6c3.7,0,7-2.2,8.5-5.7c0.4-0.9,1.1-1.5,2-1.5c0,0,0,0,0,0
		c0.8,0,1.5,0.5,1.9,1.4c1.4,3.5,4.7,5.8,8.5,5.8s7.1-2.3,8.5-5.8c0.4-0.9,1.1-1.4,1.9-1.4c0,0,0,0,0,0c0.8,0,1.6,0.5,1.9,1.4
		c1.4,3.5,4.7,5.8,8.5,5.8c3.8,0,7.1-2.3,8.5-5.8c0.4-0.9,1.1-1.4,1.9-1.4c0,0,0,0,0,0c0.8,0,1.6,0.5,1.9,1.4
		c1.4,3.5,4.7,5.8,8.5,5.8c3.8,0,7.1-2.3,8.5-5.8C143.6,48.1,144.4,47.6,145.2,47.6z M82,50C82,50,82,50,82,50C82,50,82,50,82,50z"
		/>
</g>
<g class="st0">
	<path class="st1" d="M155.2,155.5c-3.5,0-6.7-1.9-8.4-5c-0.1-0.2-0.2-0.4-1.2-0.4H61.5c-0.7,0-1,0.1-1,0.1c0,0,0,0,0,0.1
		c0,0.1-0.1,0.1-0.1,0.2c-1.7,3.1-4.9,5-8.4,5c-5.3,0-9.6-4.3-9.6-9.6V88.3c0-3.3,2.7-6,6-6h110c3.3,0,6,2.7,6,6v57.6
		C164.5,151.3,160.4,155.5,155.2,155.5z M61.5,147.3h84.1c2.4,0,3.2,1,3.6,1.8c1.2,2.2,3.5,3.6,5.9,3.6c3.7,0,6.5-3,6.5-6.8V88.3
		c0-1.8-1.4-3.2-3.2-3.2h-110c-1.8,0-3.2,1.5-3.2,3.2v57.6c0,3.7,3,6.8,6.8,6.8c2.5,0,4.7-1.4,5.9-3.5
		C58.4,148.2,59.1,147.3,61.5,147.3z"/>
</g>
<g class="st0">
	<path class="st1" d="M63.8,76.8h-4.2c-1.6,0-2.9-1.3-2.9-2.9V63.4c0-1.6,1.3-2.9,2.9-2.9h4.2c1.4,0,2.7,1.1,2.8,2.5
		c0,0.1,0,0.2,0,0.3V74c0,0.1,0,0.2,0,0.3C66.5,75.7,65.3,76.8,63.8,76.8z M59.6,63.4C59.6,63.4,59.5,63.4,59.6,63.4l-0.1,10.5
		c0,0,0,0.1,0.1,0.1h4.2c0,0,0.1,0,0.1-0.1c0,0,0,0,0-0.1V63.5c0,0,0,0,0-0.1c0,0,0-0.1-0.1-0.1H59.6z"/>
</g>
<g class="st0">
	<path class="st1" d="M147.8,76.8h-4.2c-1.6,0-2.9-1.3-2.9-2.9V63.4c0-1.6,1.3-2.9,2.9-2.9h4.2c1.4,0,2.7,1.1,2.8,2.5
		c0,0.1,0,0.2,0,0.3h0V74c0,0.1,0,0.2,0,0.3C150.5,75.7,149.2,76.8,147.8,76.8z M143.6,63.4C143.6,63.4,143.5,63.4,143.6,63.4
		l-0.1,10.5c0,0,0,0.1,0.1,0.1h4.2c0,0,0,0,0.1-0.1c0,0,0,0,0-0.1V63.5c0,0,0,0,0-0.1c0,0,0-0.1-0.1-0.1H143.6z"/>
</g>
<g class="st0">
	<path class="st1" d="M112,140.7c-0.6,0-1.1-0.1-1.7-0.3c-1.4-0.5-2.6-1.4-3.3-2.8l-8.6-18.9l-1,0.5c-0.5,0.3-1,0.5-1.4,0.8
		c-2.1,1.2-4,2.2-5.8,1.6c-1.1-0.3-2-1.2-2.7-2.5l-4.3-8.4c-0.7-1.4-0.9-2.6-0.5-3.7c0.6-1.9,2.5-2.8,4.7-3.8
		c0.5-0.2,0.9-0.5,1.4-0.7l9.8-5c3.6-1.9,11,0.3,12.4,0.8c2.4,0.8,5.4,2,6.2,3.5l0,0c0.4,0.7,0.7,1.3,1,1.9c0.9,1.7,1.4,2.6,1.1,3.7
		c-0.3,0.9-1.1,1.3-1.3,1.4l-10.5,5.4l10.4,18c1.4,2.8,0.4,6.2-2.4,7.6l-0.9,0.5C113.8,140.5,112.9,140.7,112,140.7z M99.8,114.9
		l9.8,21.6c0.3,0.6,0.9,1.1,1.6,1.3c0.7,0.2,1.5,0.2,2.1-0.2l0.9-0.5c1.4-0.7,1.9-2.4,1.2-3.8l-11.8-20.4l12.9-6.6
		c-0.2-0.4-0.5-0.9-0.7-1.4c-0.3-0.5-0.6-1.1-1-1.9c-1.1-1.4-11.6-4.8-14.9-3.1l-9.8,5c-0.5,0.3-1,0.5-1.5,0.7
		c-1.6,0.8-3,1.5-3.3,2.2c-0.1,0.3,0,0.8,0.3,1.5l4.3,8.4c0.3,0.7,0.7,1,1,1.1c0.7,0.2,2.2-0.6,3.7-1.4c0.5-0.3,1-0.5,1.5-0.8
		L99.8,114.9z"/>
</g>
</svg>
