<?xml version="1.0" encoding="utf-8"?>
<!-- Generator: Adobe Illustrator 19.2.0, SVG Export Plug-In . SVG Version: 6.00 Build 0)  -->
<svg version="1.1" id="Layer_1" xmlns="http://www.w3.org/2000/svg" xmlns:xlink="http://www.w3.org/1999/xlink" x="0px" y="0px"
	 viewBox="0 0 207 155.6" style="enable-background:new 0 0 207 155.6;" xml:space="preserve">
<style type="text/css">
	.st0{opacity:0.5;}
	.st1{fill:none;stroke:#FFFFFF;stroke-width:4;stroke-miterlimit:10;}
	.st2{fill:none;stroke:#FFFFFF;stroke-width:4;stroke-linecap:round;stroke-miterlimit:10;}
	.st3{opacity:0.5;fill:none;stroke:#FFFFFF;stroke-width:4;stroke-miterlimit:10;}
	.st4{fill:#FFFFFF;}
</style>
<g class="st0">
	<path class="st1" d="M175.6,154.6H32.4c-5,0-9-4-9-9V50c0-5,4-9,9-9h143.2c5,0,9,4,9,9v95.6C184.6,150.6,180.6,154.6,175.6,154.6z"
		/>
	<g>
		<line class="st2" x1="59.9" y1="25.7" x2="59.9" y2="63.1"/>
		<line class="st2" x1="148.1" y1="25.7" x2="148.1" y2="63.1"/>
	</g>
</g>
<circle class="st3" cx="59.9" cy="63.1" r="11.3"/>
<circle class="st3" cx="148.1" cy="63.1" r="11.3"/>
<g class="st0">
	<path class="st4" d="M69.1,88.2v19.6H49.4V88.2H69.1 M69.1,84.2H49.4c-2.2,0-4,1.8-4,4v19.6c0,2.2,1.8,4,4,4h19.6c2.2,0,4-1.8,4-4
		V88.2C73.1,86,71.3,84.2,69.1,84.2L69.1,84.2z"/>
</g>
<g class="st0">
	<path class="st4" d="M100,88.2v19.6H80.4V88.2H100 M100,84.2H80.4c-2.2,0-4,1.8-4,4v19.6c0,2.2,1.8,4,4,4H100c2.2,0,4-1.8,4-4V88.2
		C104,86,102.2,84.2,100,84.2L100,84.2z"/>
</g>
<g class="st0">
	<path class="st4" d="M131,88.2v19.6h-19.6V88.2H131 M131,84.2h-19.6c-2.2,0-4,1.8-4,4v19.6c0,2.2,1.8,4,4,4H131c2.2,0,4-1.8,4-4
		V88.2C135,86,133.2,84.2,131,84.2L131,84.2z"/>
</g>
<g class="st0">
	<path class="st4" d="M69.1,118.9v19.6H49.4v-19.6H69.1 M69.1,114.9H49.4c-2.2,0-4,1.8-4,4v19.6c0,2.2,1.8,4,4,4h19.6
		c2.2,0,4-1.8,4-4v-19.6C73.1,116.7,71.3,114.9,69.1,114.9L69.1,114.9z"/>
</g>
<g class="st0">
	<path class="st4" d="M100,118.9v19.6H80.4v-19.6H100 M100,114.9H80.4c-2.2,0-4,1.8-4,4v19.6c0,2.2,1.8,4,4,4H100c2.2,0,4-1.8,4-4
		v-19.6C104,116.7,102.2,114.9,100,114.9L100,114.9z"/>
</g>
<g class="st0">
	<path class="st4" d="M131,118.9v19.6h-19.6v-19.6H131 M131,114.9h-19.6c-2.2,0-4,1.8-4,4v19.6c0,2.2,1.8,4,4,4H131c2.2,0,4-1.8,4-4
		v-19.6C135,116.7,133.2,114.9,131,114.9L131,114.9z"/>
</g>
<g class="st0">
	<path class="st4" d="M161.9,88.2v19.6h-19.6V88.2H161.9 M161.9,84.2h-19.6c-2.2,0-4,1.8-4,4v19.6c0,2.2,1.8,4,4,4h19.6
		c2.2,0,4-1.8,4-4V88.2C165.9,86,164.1,84.2,161.9,84.2L161.9,84.2z"/>
</g>
</svg>
