<?xml version="1.0" encoding="utf-8"?>
<!-- Generator: Adobe Illustrator 19.2.1, SVG Export Plug-In . SVG Version: 6.00 Build 0)  -->
<svg version="1.1" id="Layer_1" xmlns="http://www.w3.org/2000/svg" xmlns:xlink="http://www.w3.org/1999/xlink" x="0px" y="0px"
	 viewBox="0 0 207 155.6" style="enable-background:new 0 0 207 155.6;" xml:space="preserve">
<style type="text/css">
	.st0{fill:#7358FF;}
	.st1{fill:none;stroke:#7358FF;stroke-width:3;stroke-miterlimit:10;}
</style>
<g>
	<g>
		<g>
			<path class="st0" d="M46.8,101.4c10.3,0,17.6,2,18.5,3.5c-0.9,1.5-8.2,3.5-18.5,3.5s-17.6-2-18.5-3.5
				C29.2,103.4,36.5,101.4,46.8,101.4 M46.8,98.4c-8,0-21.5,1.4-21.5,6.5s13.5,6.5,21.5,6.5s21.5-1.4,21.5-6.5S54.8,98.4,46.8,98.4
				L46.8,98.4z"/>
		</g>
	</g>
	<g>
		<g>
			<path class="st0" d="M124.3,3c9.4,0,19.9,2.7,22.9,3.5c14.5,3.8,24.6,8.8,26.1,11.5c0.8,1.8,1.7,3.3,2.5,4.6
				c0.4,0.8,0.9,1.6,1.3,2.3l0,0l0,0c1.9,3.5,3.3,6,3.7,7.7c0.1,0.5,0.3,1.5-1.7,2.5l-42.4,21.6l-2.8,1.4l1.6,2.7l40.6,69.4
				c1.7,3.4,2,7.1,0.9,10.7c-1.1,3.6-3.5,6.4-7,8.3l-3.3,1.6c-2,1-4.1,1.5-6.5,1.5c-5.2,0-9.9-2.7-12.5-7.1l-0.2-0.4L114,71.6
				l-1.3-2.8l-2.8,1.4l-7.3,3.7h-0.1l0,0c-0.9,0.5-1.7,0.9-2.5,1.4c-0.9,0.5-1.8,0.9-2.6,1.4L96.8,77c-5.5,2.9-10.3,5.5-14.1,5.5
				c-0.8,0-1.5-0.1-2.2-0.3c-2.2-0.6-4.1-2.6-6-6.1l-16.2-31c-1.7-3.4-2.2-6.2-1.4-8.5c1.5-4.3,7.7-7.2,14.2-10.4h0.1h0.1
				c1.1-0.6,2.3-1.2,3.5-1.8c0.6-0.3,1.2-0.6,1.9-0.9L113,5.1l0,0l0,0C115.5,3.7,119.3,3,124.3,3 M124.3,0c-4.8,0-9.4,0.6-12.7,2.4
				L75.2,20.9c-1.8,0.9-3.7,1.8-5.4,2.7c-7.5,3.6-13.8,6.7-15.7,12.1c-1,3.1-0.5,6.6,1.6,10.8l16.2,31c2.2,4.2,4.7,6.7,7.8,7.6
				c1,0.3,2,0.4,3,0.4c4.7,0,10-2.9,16-6.1c1.6-0.9,3.4-1.8,5.2-2.8l7.3-3.7l33.5,73.2v0.1c3.1,5.8,9.1,9.2,15.4,9.2
				c2.6,0,5.2-0.5,7.8-1.8l3.3-1.6c4.1-2.2,7.1-5.6,8.5-10.1c1.4-4.4,1-8.9-1.1-13L138,59.4l42.4-21.6c1.8-0.9,3.9-2.6,3.3-5.7
				c-0.4-2.1-1.8-4.7-4-8.6c-1.1-2.1-2.4-4.2-3.7-6.9c-2.4-4.6-16.2-9.9-28-13C142.9,2.2,133.1,0,124.3,0L124.3,0z"/>
		</g>
	</g>
	<line class="st1" x1="46.8" y1="111.4" x2="46.8" y2="155.5"/>
</g>
</svg>
