<?xml version="1.0" encoding="utf-8"?>
<!-- Generator: Adobe Illustrator 16.0.0, SVG Export Plug-In . SVG Version: 6.00 Build 0)  -->
<!DOCTYPE svg PUBLIC "-//W3C//DTD SVG 1.1//EN" "http://www.w3.org/Graphics/SVG/1.1/DTD/svg11.dtd">
<svg version="1.1" id="Layer_1" xmlns="http://www.w3.org/2000/svg" xmlns:xlink="http://www.w3.org/1999/xlink" x="0px" y="0px"
	 width="102.903px" height="104.803px" viewBox="0 0 102.903 104.803" enable-background="new 0 0 102.903 104.803"
	 xml:space="preserve">
<g>
	<g>
		<path fill="#FFFFFF" d="M2.466,30.927c2.479,3.735,2.097,8.706,2.319,13.028c0.213,4.129,0.032,8.285,0.02,12.418
			c-0.025,8.175,0.263,17.058,4.661,24.22c1.312,2.137,4.863,1.887,5.483-0.716c4.082-17.139-2.045-35.239,4-52
			c-1.964-0.266-3.928-0.532-5.893-0.797c0.255,2.094,0.204,3.872-0.56,5.87c1.469-0.598,2.938-1.195,4.407-1.793
			c-0.762-0.736-1.525-1.472-2.288-2.207c-0.544-1.556-2.026-2.532-3.69-2.096c-2.766,0.727-4.641,1.91-6.127,4.379
			c-1.271,2.112,0.854,5.375,3.388,4.407C23.834,29.661,34.34,9.593,52.057,9.413c-0.707-1.707-1.414-3.414-2.121-5.121
			c-1.94,2.488-4.647,3.415-7.676,3.894c1.129,1.469,2.258,2.938,3.388,4.407c4.834-8.477,22.721,6.427,27.101,9.729
			c4.622,3.484,9.026,7.247,13.52,10.893c4.081,3.312,6.216,5.006,10.91,1.318c0.793-0.623,1.059-2,0.771-2.918
			c-1.528-4.894-6.706-7.451-11.054-9.416c-6.06-2.739-12.281-4.009-18.871-4.699c-17.172-1.795-34.162,3.319-48.482,12.655
			c-3.235,2.109-0.401,7.007,3.028,5.181c8.114-4.321,14.185-11.638,22.667-15.333c-1.212-1.57-2.424-3.141-3.635-4.711
			c-5.91,7.413-13.871,12.723-21.727,17.864c1.212,1.57,2.424,3.141,3.635,4.711c6.438-7.549,14.967-12.786,22.334-19.333
			c2.53-2.248-0.846-6.69-3.635-4.711C30.636,22.032,19.495,30.81,8.936,40.292c-2.915,2.617,1.309,6.667,4.242,4.242
			C24.947,34.807,38.468,21.24,54.39,19.413c-1-1-2-2-3-3c-0.459,3.455-4.472,6.472-6.888,8.621
			c-2.797,2.487-5.86,4.668-8.566,7.258c-8.746,8.37-17.955,16.292-27,24.333c-2.921,2.597,1.312,6.685,4.242,4.242
			c6.771-5.641,13.841-10.911,20.608-16.545c6.526-5.433,13.08-11.559,21.402-14.016c-1.13-1.469-2.259-2.938-3.389-4.407
			c-4.033,7.639-12.549,12.712-18.792,18.45c-8.347,7.672-16.77,15.287-23.738,24.276c-1.907,2.459,0.568,6.812,3.635,4.712
			c18.75-12.84,33.076-31.911,54.334-41c-1.369-1.368-2.737-2.736-4.105-4.104c-4.307,8.219-12.874,13.263-19.53,19.393
			c-8.714,8.025-17.575,16.007-25.667,24.667c-2.654,2.84,1.371,6.822,4.242,4.242c8.041-7.223,16.289-14.196,24.343-21.396
			c7.42-6.633,15.511-14.643,25.667-16.5c-1.13-1.469-2.259-2.938-3.389-4.407c-4.261,9.481-12.978,16.051-20.272,23.117
			c-9.048,8.764-17.534,18.189-26.258,27.276c1.414,1.414,2.828,2.828,4.242,4.242c7.461-8.484,15.661-16.2,24.219-23.562
			c7.937-6.827,15.866-14.569,26.125-17.667c-1.23-1.23-2.461-2.46-3.69-3.69c-1.69,4.477-5.639,7.803-9.085,10.941
			C60.18,58.44,56.351,62.05,52.6,65.758c-8.424,8.327-16.556,16.935-25.664,24.534c1.57,1.212,3.141,2.424,4.711,3.635
			c6.888-9.416,16.314-16.348,24.685-24.33c7.954-7.583,16.544-16.761,27.522-19.625c-1.13-1.469-2.259-2.938-3.389-4.407
			c-3.401,7.16-10.659,12.006-16.246,17.393c-7.741,7.463-15.21,15.203-22.951,22.667c1.414,1.414,2.828,2.828,4.242,4.242
			c8.709-9.401,18.195-20.612,30.677-24.896c-1.23-1.229-2.461-2.46-3.69-3.69c-0.188,1.092-0.235,2.661-0.698,3.618
			c-1.326,2.744,1.34,5.476,4.105,4.104c5.312-2.635,8.094-7.275,9.816-12.782c1.844-5.896,1.75-13.251,6.124-18.021
			c-1.671-0.441-3.343-0.882-5.014-1.324c4.249,10.738-3.062,22.149-2.441,33.203c0.141,2.495,3.227,4.125,5.121,2.121
			c4.252-4.495,5.12-11.244,5.98-17.11c0.537-3.665,0.919-7.352,1.522-11.007c0.617-3.736,2.086-7.2,2.376-11.003
			c0.271-3.553-4.842-3.831-5.893-0.797c-1.905,5.497-2.353,11.21-2.565,16.988c-0.243,6.59-0.722,13.152-1.079,19.737
			c-0.358,6.597,0.056,13.058,0.338,19.638c0.207,4.823,0.367,9.455,2.275,13.948c0.864-1.504,1.728-3.009,2.591-4.514
			c-16.139,1.503-32.27,0.404-48.387-0.818c-7.743-0.588-15.548-0.741-23.064-2.863c-3.27-0.923-6.35-2.373-9.368-3.909
			c-3.268-1.662-6.949-2.11-10.384-3.302c0.699,1.229,1.397,2.46,2.095,3.69c1.657-4.143,4.761-7.441,6.333-11.666
			c1.938-5.208,1.296-10.749,4.365-15.618c-1.828-0.771-3.655-1.541-5.483-2.312c-2.18,10.262-3.078,20.911-1,31.263
			c0.556,2.771,4.124,2.653,5.483,0.717c6.497-9.258,11.619-19.462,20.198-27.061c-1.671-0.973-3.343-1.945-5.014-2.919
			c-2.881,9.522-11.956,15.74-16.698,24.284c-1.574,2.835,1.463,5.252,4.104,4.104c10.521-4.573,16.501-15.225,24.94-22.47
			c-1.414-1.414-2.828-2.828-4.242-4.242c-5.985,6.864-16.031,12.56-17.438,22.323c-0.325,2.254,1.271,4.251,3.69,3.69
			c8.193-1.897,11.881-10.088,19.334-13c-1.23-1.229-2.46-2.46-3.69-3.69c-1.973,8.239-10.794,14.024-16.229,20.011
			c-2.588,2.851,1.533,7.035,4.242,4.242c6.98-7.194,14.729-13.507,22.726-19.53c5.625-4.237,12.044-11.137,19.486-11.591
			c-0.964-1.266-1.929-2.531-2.893-3.798c-0.968,7.113-10.627,11.729-15.486,16.191c-6.302,5.786-13.642,10.888-16.847,19.142
			c-0.905,2.33,1.686,4.063,3.69,3.69c6.491-1.207,11.299-6.903,15.641-11.435c6.426-6.704,13.589-13.377,21.076-18.867
			c-1.212-1.571-2.424-3.142-3.636-4.712c-8.856,10.655-21.016,18.054-28.469,29.94c-1.899,3.027,2.24,5.782,4.711,3.635
			c7.248-6.295,13.921-13.201,20.864-19.823c5.384-5.136,10.731-12.239,18.146-14.405c-1.13-1.469-2.259-2.938-3.389-4.406
			c-7.138,11.852-20.556,18.21-27,30.666c-1.413,2.732,1.396,5.467,4.104,4.105c10.319-5.186,16.293-15.951,26.668-21
			c-1.369-1.368-2.737-2.736-4.105-4.105c-5.426,10.14-15.922,16.172-22.667,25.334c-1.886,2.562,1.667,5.448,4.104,4.104
			c10.177-5.612,17.055-17.806,28.951-20.031c-1.23-1.229-2.461-2.46-3.69-3.69c-1.644,8.468-11.927,13.908-17.562,19.677
			c-2.714,2.776,1.414,6.872,4.242,4.242c3.63-3.374,7.192-7.778,12.344-8.562c-1.23-1.229-2.461-2.46-3.69-3.69
			c-1.258,3.468-4.136,6.015-6.562,8.677c-2.598,2.851,1.449,6.947,4.242,4.242c1.946-1.885,3.904-3.428,6.394-4.53
			c-1.369-1.368-2.737-2.736-4.105-4.104c-0.347,0.589-0.71,2.271-1.41,1.673c-0.92-0.784-1.534-1.944-2.156-2.959
			c-1.205-1.97-2.167-4.082-3.537-5.948c-3.624-4.936-10.452-6.97-16.233-7.578c-14.121-1.485-27.1,7.287-41.072,7.326
			c0.964,1.266,1.929,2.531,2.893,3.798c1.371-6.266,10.531-10.535,14.895-14.677c7.729-7.334,16.211-14.77,25.394-20.197
			c-1.212-1.571-2.424-3.142-3.636-4.712c-5.185,5.972-11.325,10.9-17.392,15.933c-6.438,5.341-11.871,11.773-19.001,16.265
			c1.368,1.368,2.736,2.736,4.104,4.104c7.885-13.517,24.118-19.912,30.302-34.716c1.156-2.767-2.361-4.268-4.407-3.388
			c-12.519,5.385-21.122,16.305-32.333,23.666c1.368,1.368,2.736,2.736,4.104,4.104c8.131-12.551,22.313-20.013,29-33.666
			c1.193-2.438-0.736-4.922-3.389-4.407c-13.764,2.671-20.852,16.643-33.667,21c1.129,1.469,2.258,2.938,3.388,4.406
			c5.365-10.341,16.25-16.211,22-26.333c1.231-2.167-0.81-5.303-3.388-4.407c-10.539,3.663-17.324,13.136-27.383,17.637
			c1.368,1.368,2.736,2.736,4.104,4.104c6.172-12.214,19.93-18.779,30.197-27.06c-1.414-1.414-2.828-2.828-4.242-4.242
			c-7.3,6.273-14.923,13.708-24.342,16.561c1.129,1.469,2.258,2.938,3.388,4.407c2.355-5.287,7.617-8.568,11.897-12.196
			c6.049-5.126,12.326-9.978,18.299-15.197c2.63-2.297-0.739-6.351-3.635-4.711c-9.436,5.342-17.843,12.578-27.949,16.697
			c1.129,1.469,2.258,2.938,3.388,4.407c4.486-6.58,11.747-10.925,18.257-15.257c-1.212-1.57-2.424-3.141-3.635-4.711
			c-6.05,5.908-12.992,11.051-20.726,14.531c1.368,1.368,2.736,2.736,4.104,4.104c3.81-5.73,10.063-9.089,15.59-12.924
			c3.145-2.182,0.212-7.346-3.028-5.181c-8.365,5.588-18.12,16.465-28.819,16.59c0.964,1.266,1.929,2.532,2.893,3.797
			c1.535-7.072,13-10.482,18.488-14.24C33.58,16.097,43.535,7.265,51.592,9.306c-0.441-1.671-0.883-3.343-1.324-5.014
			c-2.545,3.082-5.026,6.006-5.625,10.081c-0.468,3.187,0.345,8.019,3.438,9.817c6.468,3.76,13.476-3.045,19.44-4.883
			c-1.13-1.469-2.259-2.938-3.389-4.407c-3.53,4.856-8.9,7.989-13.59,11.59c-2.977,2.285-0.252,7.393,3.028,5.181
			c4.274-2.882,8.459-6.021,13.617-7.03c-1.13-1.469-2.259-2.938-3.389-4.407c-2.983,4.979-8.263,7.969-12.53,11.726
			c-2.678,2.356,0.729,6.189,3.636,4.711c6.572-3.342,13.29-11.135,21.152-10.59c-0.964-1.266-1.929-2.532-2.893-3.797
			c-2.394,6.606-9.917,10.524-14.896,15.01c-2.918,2.628,1.302,6.642,4.242,4.242c5.311-4.333,10.618-10.102,17.677-11.228
			c-1.13-1.469-2.259-2.938-3.389-4.407c-2.667,6.222-9.035,9.675-13,15c-1.52,2.042,1.018,5.362,3.389,4.407
			c6.043-2.436,11.579-7.245,18.202-7.893c-1-1-2-2-3-3c0.42,5.091-9.89,10.656-13.515,13.076c1.212,1.57,2.424,3.141,3.636,4.711
			c4.044-4.007,8.308-8.204,14.011-9.561c-1.23-1.23-2.461-2.46-3.69-3.69c-0.529,3.826-4.432,6.814-7.146,9.218
			c-3.407,3.017-7.139,5.644-10.811,8.322c1.369,1.368,2.737,2.736,4.105,4.104c0.901-1.173,1.594-2.388,2.334-3.666
			c1.139-1.965-0.31-4.517-2.591-4.514c-9.324,0.012-17.897,5.668-26.206,9.266c-8.031,3.478-18.188,10.4-27.331,8.175
			c0.699,1.229,1.397,2.46,2.095,3.69c0.312-1.907,2.112-1.979,3.572-2.238c-1.23-1.229-2.46-2.46-3.69-3.69
			c-0.369,2.298-1.724,3.786-3.031,5.616c-1.858,2.604,1.647,5.414,4.104,4.105c6.835-3.641,12.419-9.149,19.333-12.667
			c-1.368-1.368-2.736-2.736-4.104-4.104c-4.859,10.693-16.378,16.552-22.667,26.334c-1.563,2.431,0.995,4.802,3.388,4.406
			c11.413-1.886,19.07-17.98,31.072-16c-0.734-0.964-1.468-1.929-2.203-2.893c0.128,7.102-9.909,13.704-15.181,17.075
			c1.212,1.571,2.424,3.142,3.635,4.712c2.439-2.89,5.272-4.996,8.727-6.53c-1.469-1.13-2.938-2.259-4.407-3.389
			c-1.308,3.581-4.759,6.283-7.032,9.284c-1.848,2.438,1.694,5.666,4.104,4.104c4.542-2.943,11.155-9.835,17.022-9.031
			c-0.699-1.229-1.397-2.46-2.095-3.69c-0.759,4.589-5.158,7.992-8.956,10.207c1.368,1.368,2.736,2.736,4.104,4.105
			c2.99-4.851,13.045-13.779,19.279-11.622c-0.698-1.229-1.396-2.46-2.095-3.69c-1.087,4.873-6.168,8.057-9.031,11.951
			c-1.492,2.028,1.008,5.401,3.388,4.406c2.423-1.014,4.852-2.535,7.535-2.56c-0.863-1.505-1.727-3.01-2.591-4.515
			c-0.391,0.676-0.689,1.324-0.969,2.05c-1.254,3.254,3.798,5.153,5.483,2.312c0.367-0.718,0.812-1.385,1.334-2
			c2.346-3.078-2.869-6.062-5.182-3.027c-0.521,0.614-0.966,1.281-1.334,2c1.828,0.771,3.656,1.541,5.483,2.312
			c0.122-0.206,0.243-0.411,0.365-0.616c1.131-1.954-0.304-4.536-2.591-4.515c-3.4,0.031-6.057,1.488-9.131,2.774
			c1.13,1.469,2.259,2.938,3.389,4.406c3.345-4.548,8.335-7.557,9.635-13.383c0.374-1.677-0.492-3.136-2.095-3.69
			c-9.063-3.138-21.65,7.233-26.055,14.378c-1.599,2.594,1.542,5.6,4.104,4.105c5.06-2.952,10.707-7.705,11.712-13.793
			c0.237-1.438-0.358-3.452-2.095-3.69c-8.473-1.162-15.035,5.353-21.646,9.635c1.368,1.368,2.736,2.736,4.104,4.104
			c2.736-3.611,6.046-6.362,7.636-10.716c1.008-2.758-2.272-4.336-4.407-3.389c-3.877,1.723-7.205,4.228-9.941,7.47
			c-2.087,2.473,0.595,6.656,3.635,4.712c7.284-4.658,18.329-12.555,18.153-22.257c-0.022-1.229-0.888-2.676-2.203-2.893
			c-6.422-1.06-11.738,1.238-16.886,4.958c-5.458,3.942-10.441,9.896-17.376,11.042c1.129,1.469,2.258,2.938,3.388,4.406
			c6.31-9.813,17.744-15.5,22.667-26.334c1.236-2.721-1.292-5.535-4.104-4.104c-6.914,3.519-12.498,9.026-19.333,12.667
			c1.368,1.368,2.736,2.736,4.104,4.105c1.611-2.257,3.188-4.262,3.635-7.05c0.378-2.354-1.302-4.115-3.69-3.69
			c-3.651,0.648-7.117,2.484-7.762,6.428c-0.258,1.573,0.384,3.274,2.095,3.69c8.998,2.19,18.194-2.42,26.164-6.108
			c4.227-1.956,8.514-3.777,12.713-5.79c5.096-2.442,10.471-5.32,16.254-5.327c-0.863-1.505-1.727-3.01-2.591-4.514
			c-0.74,1.277-1.432,2.492-2.334,3.666c-1.816,2.363,1.739,5.83,4.105,4.104c4.091-2.985,8.174-5.966,12.023-9.261
			c3.479-2.979,8.022-7.048,8.688-11.866c0.31-2.24-1.261-4.269-3.69-3.69c-6.709,1.597-11.887,6.376-16.657,11.105
			c-2.382,2.36,0.752,6.636,3.636,4.712c5.632-3.759,17.148-10.222,16.485-18.257c-0.124-1.501-1.275-3.169-3-3
			c-7.542,0.739-12.983,5.361-19.798,8.107c1.13,1.469,2.259,2.938,3.389,4.407c4.026-5.409,10.249-8.583,13-15
			c1.077-2.513-0.648-4.844-3.389-4.407c-8.086,1.291-14.247,7.814-20.323,12.772c1.414,1.414,2.828,2.828,4.242,4.242
			c6.033-5.435,13.539-9.653,16.438-17.658c0.707-1.951-1.091-3.672-2.893-3.797c-9.355-0.648-16.451,7.479-24.182,11.41
			c1.212,1.57,2.424,3.141,3.636,4.711c4.721-4.155,10.165-7.425,13.47-12.94c1.438-2.401-0.909-4.893-3.389-4.407
			c-5.673,1.111-10.342,4.461-15.049,7.636c1.009,1.727,2.019,3.454,3.028,5.181c5.576-4.281,11.552-7.975,15.744-13.742
			c1.577-2.17-1.018-5.138-3.389-4.407c-3.926,1.211-7.343,3.535-11.125,5.083c-2.475,1.013-3.868,1.125-4.271-2.047
			c-0.408-3.214,2.119-5.767,3.98-8.021c1.374-1.663,1.032-4.417-1.323-5.014C43.293,1.014,32.996,9.215,25.4,14.441
			c-7.335,5.046-20.126,8.786-22.236,18.508c-0.407,1.873,0.858,3.821,2.893,3.797c12.279-0.144,22.291-11.026,31.847-17.41
			c-1.009-1.727-2.019-3.454-3.028-5.181c-6.446,4.472-13.305,8.402-17.742,15.076c-1.833,2.756,1.616,5.225,4.104,4.104
			c8.163-3.673,15.556-9.234,21.94-15.469c2.406-2.35-0.758-6.625-3.635-4.711c-7.422,4.938-15.303,9.921-20.409,17.409
			c-1.405,2.06,0.952,5.4,3.388,4.407c10.648-4.34,19.447-11.678,29.383-17.303c-1.212-1.57-2.424-3.141-3.636-4.711
			c-5.971,5.216-12.389,9.921-18.3,15.196c-4.636,4.137-10.215,7.528-12.835,13.411c-0.999,2.243,0.631,5.242,3.388,4.407
			c10.465-3.17,18.874-11.13,26.99-18.105c2.967-2.55-1.284-6.628-4.242-4.242c-10.741,8.662-24.66,15.459-31.135,28.274
			c-1.428,2.825,1.379,5.323,4.104,4.104c9.541-4.269,16.038-13.587,25.949-17.032c-1.129-1.469-2.258-2.938-3.388-4.407
			c-5.736,10.096-16.603,15.932-22,26.334c-1.132,2.182,0.74,5.307,3.388,4.406c12.784-4.346,20.271-18.4,33.667-21
			c-1.13-1.469-2.259-2.938-3.388-4.407c-6.631,13.538-20.882,21.135-29,33.667c-1.618,2.497,1.602,5.747,4.104,4.104
			c11.198-7.354,19.851-18.298,32.333-23.666c-1.47-1.13-2.938-2.259-4.407-3.388c-5.802,13.886-22.161,20.364-29.698,33.284
			c-1.485,2.546,1.517,5.734,4.104,4.104c6.641-4.184,12.065-9.826,17.803-15.115c6.599-6.083,13.883-11.2,19.804-18.021
			c2.171-2.5-0.578-6.519-3.636-4.711c-9.867,5.833-18.919,13.84-27.212,21.71c-5.239,4.972-14.151,9.065-15.832,16.749
			c-0.413,1.887,0.863,3.804,2.893,3.798c15.519-0.044,31.132-11.304,46.572-6.072c6.433,2.18,7.763,8.13,11.635,12.896
			c3.857,4.749,8.826,2.035,11.384-2.311c1.652-2.809-1.513-5.253-4.105-4.104c-2.943,1.306-5.307,3.242-7.606,5.47
			c1.414,1.414,2.828,2.828,4.242,4.242c3.215-3.527,6.451-6.765,8.104-11.323c0.866-2.388-1.659-3.999-3.69-3.69
			c-6.191,0.941-10.631,6.051-14.99,10.104c1.414,1.414,2.828,2.828,4.242,4.242c6.512-6.664,17.189-12.452,19.105-22.323
			c0.455-2.344-1.36-4.127-3.69-3.69c-12.73,2.381-19.627,14.703-30.383,20.635c1.368,1.368,2.736,2.736,4.104,4.104
			c6.779-9.209,17.171-15.063,22.667-25.332c1.474-2.756-1.424-5.41-4.105-4.105c-10.415,5.069-16.384,15.833-26.666,21
			c1.368,1.368,2.736,2.736,4.104,4.105c6.394-12.36,19.853-18.8,27-30.668c1.352-2.244-0.867-5.144-3.389-4.406
			c-7.674,2.241-13.465,8.649-18.945,14.126c-7.38,7.376-14.832,14.802-22.711,21.646c1.57,1.212,3.141,2.424,4.711,3.635
			c7.145-11.395,19.025-18.491,27.531-28.726c2.019-2.429-0.694-6.868-3.636-4.712c-6.698,4.913-12.579,10.716-18.678,16.328
			c-4.869,4.479-9.756,12.096-16.605,13.37c1.23,1.229,2.46,2.46,3.69,3.69c2.956-7.612,11.687-13.598,17.788-18.682
			c5.355-4.462,13.51-9.045,14.545-16.651c0.244-1.795-0.739-3.929-2.893-3.798c-8.322,0.508-14.979,6.469-21.227,11.414
			c-8.701,6.887-17.473,13.472-25.227,21.465c1.414,1.414,2.828,2.828,4.242,4.242c6.225-6.855,15.5-13.172,17.771-22.657
			c0.484-2.021-1.439-4.57-3.69-3.69c-7.38,2.883-11.609,11.211-19.334,13c1.23,1.229,2.46,2.46,3.69,3.69
			c1.22-8.462,10.663-13.676,15.896-19.677c2.554-2.929-1.307-6.764-4.242-4.242c-8.032,6.896-13.735,17.188-23.726,21.53
			c1.368,1.368,2.736,2.736,4.104,4.104c5.052-9.103,14.205-15.479,17.302-25.716c0.917-3.03-2.868-4.819-5.014-2.919
			c-8.962,7.938-14.35,18.604-21.136,28.273c1.828,0.239,3.655,0.479,5.483,0.717c-1.856-9.247-0.945-18.916,1-28.071
			c0.705-3.318-3.631-5.25-5.483-2.312c-2.703,4.287-3.324,9.039-4.225,13.936C6.208,80.12,2.237,84.1,0.164,89.281
			c-0.636,1.591,0.688,3.202,2.095,3.69c3.514,1.22,7.115,1.765,10.462,3.467c2.978,1.516,6.107,2.737,9.289,3.745
			c6.688,2.118,13.854,2.268,20.789,2.784c17.408,1.297,34.819,2.735,52.258,1.111c2.432-0.227,3.516-2.337,2.591-4.514
			c-1.764-4.152-1.317-9.073-1.591-13.486c-0.394-6.36-0.446-12.609-0.101-18.978c0.583-10.745-0.226-22.977,3.326-33.225
			c-1.964-0.266-3.929-0.532-5.893-0.797c-0.245,3.215-1.58,6.244-2.161,9.408c-0.481,2.617-0.771,5.275-1.109,7.913
			c-0.689,5.361-0.91,13.391-4.851,17.558c1.707,0.707,3.414,1.414,5.121,2.121c-0.66-11.746,6.822-23.187,2.227-34.797
			c-0.775-1.959-3.346-3.143-5.014-1.324c-7.651,8.343-3.896,24.494-14.728,29.864c1.369,1.368,2.737,2.736,4.105,4.104
			c0.832-1.722,0.983-3.192,1.302-5.05c0.354-2.071-1.327-4.502-3.69-3.69c-13.599,4.666-23.82,16.178-33.323,26.438
			c-2.625,2.834,1.448,6.937,4.242,4.242c7.742-7.463,15.239-15.173,22.951-22.666c5.968-5.8,13.527-10.908,17.186-18.608
			c1.101-2.319-0.687-5.112-3.389-4.407C71.151,47.084,62.271,55.69,54.17,63.37c-9.461,8.969-19.95,16.929-27.704,27.529
			c-2.15,2.939,2.283,5.661,4.711,3.635c9.558-7.975,18.083-17.04,26.923-25.778c7.129-7.046,17.195-13.535,20.849-23.212
			c0.816-2.163-1.637-4.31-3.69-3.69C64.969,44.96,56.748,52.13,48.791,59.06c-9.293,8.093-18.371,16.295-26.522,25.565
			c-2.533,2.88,1.54,7.058,4.242,4.242c8.734-9.097,17.312-18.387,26.258-27.276c7.595-7.546,16.709-14.313,21.212-24.331
			c1.107-2.466-0.673-4.903-3.389-4.407c-9.741,1.782-17.76,8.761-24.992,15.087c-9.25,8.091-18.52,16.138-27.664,24.352
			c1.414,1.414,2.828,2.828,4.242,4.242c8.38-8.967,17.575-17.214,26.598-25.524c6.812-6.274,15.119-11.314,19.539-19.75
			c1.496-2.856-1.415-5.254-4.105-4.104c-21.31,9.111-35.565,28.148-54.333,41c1.212,1.571,2.424,3.142,3.635,4.712
			c6.967-8.986,15.385-16.615,23.739-24.276c6.69-6.135,15.399-11.459,19.731-19.664c1.189-2.254-0.76-5.184-3.389-4.407
			c-8.339,2.463-15.098,8.056-21.655,13.547c-7.551,6.324-15.43,12.249-23.001,18.558c1.414,1.414,2.828,2.828,4.242,4.242
			c9.727-8.646,19.158-17.694,29.033-26.161C48.05,29.7,56.289,24.691,57.39,16.413c0.199-1.499-1.521-3.17-3-3
			C36.534,15.462,22.186,29.339,8.936,40.292c1.414,1.414,2.828,2.828,4.242,4.242c10.182-9.143,20.9-17.615,32.06-25.531
			c-1.212-1.57-2.424-3.141-3.635-4.711c-7.367,6.546-15.896,11.784-22.334,19.333c-2.098,2.459,0.619,6.686,3.635,4.711
			c8.244-5.394,16.739-11.023,22.941-18.802c2.175-2.728-0.456-6.096-3.635-4.711c-8.491,3.698-14.553,11.012-22.667,15.333
			c1.009,1.727,2.019,3.454,3.028,5.181c11.775-7.677,24.751-12.035,38.858-12.155c5.903-0.05,11.95,0.657,17.597,2.405
			c3.588,1.111,11.854,3.512,13.139,7.624c0.257-0.973,0.514-1.946,0.771-2.918c-1.28,1.005,1.555,1.678-0.301,0.343
			c-0.73-0.525-1.425-1.099-2.124-1.662c-2.121-1.708-4.21-3.458-6.317-5.182c-5.181-4.238-10.461-8.371-16.041-12.073
			C60.806,6.843,46.616-1.218,40.466,9.565c-1.413,2.477,0.889,4.803,3.388,4.407c3.92-0.621,7.833-2.242,10.324-5.438
			c1.512-1.939,0.748-5.15-2.121-5.121C32.605,3.61,23.262,23.485,6.592,29.853c1.129,1.469,2.258,2.938,3.388,4.407
			c0.847-0.541,1.694-1.081,2.541-1.621c-1.23-0.699-2.46-1.397-3.69-2.096c0.964,2.755,2.407,4.499,5.044,5.793
			c1.856,0.911,3.685,0.097,4.407-1.793c0.942-2.463,1.092-4.854,0.774-7.464c-0.406-3.335-4.695-4.119-5.893-0.797
			c-6.094,16.895,0.084,34.848-4,52c1.828-0.238,3.655-0.478,5.483-0.716c-4.575-7.452-3.894-17.141-3.812-25.551
			c0.072-7.494,1.14-17.596-3.188-24.116C5.519,24.692,0.319,27.693,2.466,30.927L2.466,30.927z"/>
	</g>
</g>
<g>
	<g>
		<path fill="#FFFFFF" d="M57.949,15.543c0.246-0.664,0.421-1.336,0.667-2c-1.469,0.598-2.938,1.195-4.407,1.793
			c1.731,0.876,3.6,1.064,5.498,1.312c0.74,0.097,1.475,0.198,2.209,0.334c0.371,0.069,0.734,0.167,1.097,0.271
			c0.375,0.124,0.427,0.144,0.154,0.059c-0.596-0.445-0.819-1.122-0.67-2.03c-0.248,1.615,0.383,3.219,2.095,3.69
			c1.437,0.395,3.442-0.477,3.69-2.096c0.48-3.132-1.523-4.897-4.385-5.598c-1.367-0.334-2.797-0.453-4.19-0.631
			c-0.435-0.055-0.867-0.129-1.298-0.207c-0.246-0.046-0.49-0.1-0.732-0.161c-0.056-0.013-0.988-0.403-0.438-0.125
			c-1.834-0.928-3.71-0.088-4.407,1.793c-0.246,0.664-0.422,1.336-0.667,2C50.818,17.585,56.619,19.14,57.949,15.543L57.949,15.543z
			"/>
	</g>
</g>
<g>
	<g>
		<path fill="#FFFFFF" d="M8.831,82.211c2.095,13.416,23.303,11.404,32.761,14.428c3.696,1.182,5.265-4.612,1.595-5.785
			c-4.905-1.568-10.273-1.786-15.321-2.725c-4.477-0.832-12.393-2.03-13.25-7.514C14.021,76.802,8.24,78.427,8.831,82.211
			L8.831,82.211z"/>
	</g>
</g>
<g>
	<g>
		<path fill="#F7A51F" d="M16.412,26.603c0.072-0.048,0.145-0.097,0.217-0.145c-1.638,0.478-1.299,2.911,0.399,2.946
			c0.148,0.003,0.296,0.006,0.444,0.009c-0.5-0.5-1-1-1.5-1.5c0.287,3.429-0.287,6.821,0,10.25c0.145,1.731,2.332,1.988,2.946,0.399
			c1.389-3.588,0.958-7.341,2-11c-0.982-0.133-1.964-0.266-2.946-0.399c0.217,1.639,0.068,3.256-0.446,4.851
			c0.964,0,1.928,0,2.893,0c-0.276-1.354-0.425-2.722-0.446-4.101c-0.367,0.482-0.734,0.964-1.101,1.446
			c7.139-1.452,14.87,0.446,22.173-0.076c6.869-0.491,13.736-1.028,20.602-1.544c4.281-0.322,8.611-0.277,12.891,0.03
			c2.096,0.15,4.396,0.38,6.328,1.285c1.861,0.872,1.438,5.79,1.459,7.458c0.063,5.158-6.672,8.154-10.551,10.449
			c-2.48,1.467-5.032,2.831-7.558,4.22c-4.996,2.749-9.485,2.23-14.476,0.003c-5.201-2.32-10.134-4.351-15.539-6.173
			C29.635,43.47,13.652,34.5,23.479,28.958c-0.752-0.432-1.504-0.864-2.257-1.295c0.521,4.073-2.33,7.462-2.5,11.5
			c-0.041,0.96,0.991,1.725,1.899,1.446c5.286-1.623,8.696-6.08,12.912-9.386c-0.785-0.606-1.57-1.212-2.356-1.817
			c-2.471,4.444-7.126,7.322-7.455,12.757c-0.063,1.04,0.999,1.618,1.899,1.446c7.853-1.494,12.392-9.34,18.358-13.901
			c-0.684-0.684-1.368-1.368-2.052-2.052c-3.775,5.68-9.889,9.233-13.25,15.25c-0.677,1.212,0.424,2.447,1.694,2.203
			c9.064-1.737,13.765-11.065,21.358-15.401c-0.684-0.684-1.368-1.368-2.052-2.052c-4.43,6.201-12.469,9.324-14.651,17.108
			c-0.312,1.113,0.747,2.134,1.845,1.845c8.435-2.219,14.047-9.702,20.412-15.136c-0.707-0.707-1.414-1.414-2.121-2.121
			c-5.529,4.778-12.537,8.975-15.136,16.162c-0.395,1.091,0.808,2.146,1.845,1.845c9.458-2.742,15.868-11.041,22.912-17.386
			c1.259-1.134-0.408-3.323-1.817-2.356C56.76,31.877,44.776,38.8,44.723,47.413c-0.006,1.019,0.958,1.647,1.899,1.446
			c9.67-2.068,17.159-11.71,23.162-18.886c1.258-1.503-0.614-3.317-2.121-2.121c-6.428,5.102-19.989,13.455-18.386,23.209
			c0.113,0.691,0.83,1.044,1.446,1.101c5.083,0.471,9.51-4.227,12.693-7.553c4.402-4.599,8.028-9.871,11.852-14.94
			c1.094-1.449-1.146-2.838-2.355-1.817c-7.631,6.434-18.445,14.242-19.886,24.912c-0.089,0.654,0.04,1.352,0.689,1.693
			c4.701,2.476,10.028-3.782,12.801-6.74c4.468-4.769,8.629-10.192,12.001-15.798c0.81-1.345-0.759-2.72-2.052-2.052
			c-7.213,3.728-19.378,14.8-17.439,23.944c0.171,0.805,1.092,1.249,1.845,1.048c3.983-1.061,6.396-4.814,8.596-8.037
			c3.647-5.342,7.853-10.28,11.801-15.402c1.054-1.367-1.201-3.026-2.355-1.817c-5.887,6.163-15.32,14.407-14.689,23.811
			c0.051,0.754,0.646,1.581,1.5,1.5c4.242-0.404,7.381-4.276,9.771-7.454c3.44-4.575,6.54-9.57,8.676-14.897
			c0.478-1.192-1.179-2.444-2.203-1.694c-4.906,3.591-7.419,9.886-7.993,15.795c-0.132,1.356,1.699,1.914,2.561,1.061
			c2.954-2.925,4.657-5.939,5.125-10.089c0.411-3.647-4.201-10.124-0.679-12.176c1.279-0.746,0.744-2.816-0.757-2.795
			c-19.079,0.27-36.8,8.079-55.399,11.304c-1.903,0.33-1.094,3.221,0.798,2.893c18.326-3.178,35.806-10.931,54.601-11.196
			c-0.252-0.932-0.505-1.863-0.757-2.795c-1.78,1.037-3.75,2.405-3.231,4.78c0.46,2.102,1.428,4.056,2.034,6.121
			c1.346,4.589-0.63,8.638-3.856,11.833c0.854,0.354,1.707,0.707,2.561,1.061c0.461-4.747,2.548-10.307,6.507-13.205
			c-0.734-0.565-1.469-1.129-2.203-1.694c-1.44,3.593-3.484,6.962-5.569,10.209c-1.989,3.099-5.793,9.54-9.984,9.939
			c0.5,0.5,1,1,1.5,1.5c-0.569-8.48,8.47-16.098,13.811-21.689c-0.785-0.606-1.57-1.212-2.355-1.817
			c-3.298,4.278-6.703,8.472-10,12.75c-2.443,3.17-4.402,8.192-8.604,9.311c0.615,0.349,1.229,0.698,1.845,1.048
			c-0.964-4.548,3.73-9.565,6.47-12.608c2.73-3.032,5.942-6.063,9.591-7.948c-0.684-0.684-1.368-1.368-2.052-2.052
			c-2.537,4.215-5.583,8.167-8.707,11.957c-1.719,2.084-8.603,11.29-11.991,9.505c0.23,0.564,0.46,1.129,0.689,1.693
			c1.362-10.089,11.861-17.473,19.114-23.588c-0.785-0.606-1.57-1.212-2.355-1.817c-2.955,3.917-5.813,7.892-8.981,11.645
			c-2.939,3.483-7.843,9.836-12.974,9.362c0.482,0.367,0.964,0.734,1.446,1.101c-0.776-4.722,4.844-9.412,7.88-12.255
			c3.073-2.878,6.44-5.421,9.734-8.036c-0.707-0.707-1.414-1.414-2.121-2.121c-5.658,6.763-12.766,16.174-21.838,18.114
			c0.633,0.482,1.266,0.964,1.899,1.446c0.024-3.924,4.143-7.231,6.806-9.635c3.094-2.792,6.521-5.215,9.951-7.569
			c-0.605-0.786-1.212-1.571-1.817-2.356c-6.618,5.961-12.712,14.041-21.588,16.614c0.615,0.615,1.23,1.23,1.845,1.845
			c2.35-6.497,9.367-10.521,14.364-14.838c1.469-1.269-0.66-3.368-2.121-2.121c-5.931,5.062-11.245,12.301-19.088,14.364
			c0.615,0.615,1.23,1.23,1.845,1.845c2.013-7.181,10.194-10.576,14.349-16.392c0.913-1.277-0.823-2.754-2.052-2.052
			c-7.299,4.168-12.043,13.451-20.642,15.099c0.565,0.734,1.129,1.469,1.694,2.203c3.339-5.979,9.477-9.573,13.25-15.25
			c0.797-1.2-0.843-2.976-2.052-2.052c-5.656,4.323-10.292,12.201-17.642,13.599c0.633,0.482,1.266,0.964,1.899,1.446
			c0.274-4.54,4.956-7.485,7.045-11.243c0.882-1.586-1.071-2.825-2.356-1.817c-3.75,2.94-6.891,7.172-11.588,8.614
			c0.633,0.482,1.266,0.964,1.899,1.446c0.173-4.101,3.041-7.275,2.5-11.5c-0.141-1.099-1.172-1.907-2.257-1.295
			c-4.919,2.774-5.412,8.528-2.025,12.902c4.97,6.418,12.995,8.514,20.383,10.84c7.481,2.355,14.115,8.617,22.406,5.06
			c7.051-3.024,15.516-7.426,20.797-13.145c2.994-3.243,2.168-9.851,0.668-13.603c-1.545-3.862-8.657-3.618-11.95-3.796
			c-7.276-0.393-14.589,0.4-21.835,0.947c-5.513,0.417-11.063,1.06-16.594,1.104c-5.378,0.043-10.358-1.304-15.742-0.209
			c-0.625,0.127-1.132,0.818-1.101,1.446c0.082,1.66,0.291,3.261,0.554,4.899c0.239,1.49,2.571,1.381,2.893,0
			c0.454-1.951,0.661-3.627,0.554-5.649c-0.088-1.668-2.47-2.071-2.946-0.399c-1.035,3.636-0.624,7.444-2,11
			c0.982,0.133,1.964,0.266,2.946,0.399c-0.287-3.429,0.287-6.821,0-10.25c-0.069-0.828-0.63-1.482-1.5-1.5
			c-0.148-0.003-0.296-0.006-0.444-0.009c0.133,0.982,0.266,1.964,0.398,2.946c0.447-0.13,0.747-0.341,1.106-0.626
			C20.05,27.523,17.912,25.416,16.412,26.603L16.412,26.603z"/>
	</g>
</g>
<g>
	<g>
		<path d="M0.723,29.163c0.673,10.27-0.076,20.568,0.321,30.851C1.426,69.89,4.09,79.524,4.473,89.413c0.075,1.928,3.075,1.936,3,0
			c-0.382-9.89-2.777-19.536-3.429-29.399C3.366,49.739,4.396,39.441,3.723,29.163C3.597,27.243,0.596,27.23,0.723,29.163
			L0.723,29.163z"/>
	</g>
</g>
<g>
	<g>
		<path d="M4.033,28.974c7.146-5.736,15.835-8.958,23.701-13.526c3.923-2.278,7.761-4.369,11.891-6.27
			c2.001-0.921,3.886-1.991,5.729-3.193c2.7-1.761,3.231-3.438,6.788-1.917c4.03,1.724,7.546,4.754,11.232,7.083
			c4.428,2.797,9.497,4.764,14.183,7.096c4.275,2.128,8.48,4.384,12.609,6.785c3.371,1.96,7.738,3.917,10.246,6.941
			c1.236,1.491,3.347-0.644,2.121-2.121c-2.197-2.649-5.488-4.139-8.386-5.883c-4.93-2.967-9.937-5.722-15.077-8.312
			c-5.205-2.623-10.655-4.868-15.591-7.985c-4.264-2.694-8.119-5.645-12.884-7.435c-2.823-1.061-4.788,1.688-6.756,3.157
			c-4.453,3.322-10.081,4.954-14.874,7.723C19.999,16.3,10.023,20.34,1.912,26.853C0.403,28.063,2.541,30.172,4.033,28.974
			L4.033,28.974z"/>
	</g>
</g>
<g>
	<g>
		<path d="M98.276,33.562c1.195,5.477-0.408,10.905-1.054,16.351c-0.694,5.855-1.264,11.67-1.45,17.567
			c-0.297,9.362-0.15,18.823,0.2,28.183c0.072,1.929,3.072,1.936,3,0c-0.375-10.018-0.456-20.117-0.139-30.136
			c0.196-6.175,0.851-12.364,1.775-18.47c0.733-4.843,1.623-9.424,0.56-14.293C100.757,30.875,97.864,31.676,98.276,33.562
			L98.276,33.562z"/>
	</g>
</g>
<g>
	<g>
		<path d="M4.216,91.708c14.156,6.656,29.248,10.982,44.835,12.45c8.848,0.833,17.755,0.032,26.604-0.401
			c4.436-0.217,8.871-0.437,13.306-0.656c3.752-0.187,7.837,0.053,11.41-1.241c1.805-0.653,1.026-3.553-0.797-2.893
			c-3.275,1.186-7.156,0.962-10.613,1.134c-4.435,0.221-8.87,0.438-13.306,0.656c-7.748,0.38-15.505,0.99-23.263,0.636
			c-16.087-0.733-32.151-5.451-46.663-12.274C3.99,88.3,2.466,90.886,4.216,91.708L4.216,91.708z"/>
	</g>
</g>
<g>
	<g>
		<path d="M100.268,99.92c1.132-2.101,0.105-4.339-1.788-5.552c-1.634-1.047-3.137,1.551-1.514,2.59
			c0.554,0.355,0.98,0.949,0.712,1.448C96.76,100.109,99.351,101.624,100.268,99.92L100.268,99.92z"/>
	</g>
</g>
<g>
	<g>
		<path d="M97.094,34.016C80.889,44.318,64.36,54.103,48.125,64.358c-8.019,5.065-15.99,10.245-23.734,15.724
			c-3.797,2.687-7.578,5.148-11.711,7.285c-1.658,0.856-4.437,3.102-6.382,3.305c0.216,0.376,0.432,0.752,0.647,1.129
			c0.058-0.087,0.117-0.173,0.175-0.259c0.543-0.805-0.757-1.554-1.295-0.758c-0.059,0.087-0.117,0.173-0.175,0.259
			c-0.3,0.445,0.091,1.187,0.648,1.129c1.269-0.132,2.45-1.023,3.553-1.611c3.672-1.957,7.372-3.791,10.858-6.076
			c8.377-5.49,16.497-11.358,24.935-16.771C62.886,56.655,80.565,46.3,97.852,35.311C98.665,34.793,97.913,33.495,97.094,34.016
			L97.094,34.016z"/>
	</g>
</g>
<g>
	<g>
		<path d="M6.523,35.386c9.072,2.819,15.872,10.12,24.83,13.457c7.451,2.775,18.559,5.124,24.089,11.35
			c0.644,0.725,1.7-0.34,1.061-1.061c-4.586-5.164-13.408-7.812-19.781-10.03c-6.102-2.125-11.676-4.373-17-8.091
			c-4.091-2.857-7.995-5.579-12.8-7.072C5.996,33.652,5.603,35.1,6.523,35.386L6.523,35.386z"/>
	</g>
</g>
<g>
	<g>
		<path d="M15.446,38.112c0.436-2.433,0.386-4.849,0.348-7.315c-0.023-1.47-0.601-3.769,1.448-4.303
			c2.332-0.609,4.767-0.919,7.151-1.201c7.419-0.878,14.974-0.43,22.426-0.597c11.605-0.26,25.222-5.641,36.177-0.019
			c3.395,1.742-3.144,3.822-4.679,4.224c-2.587,0.676-5.342,0.75-8.002,0.812c-5.479,0.125-10.978-0.089-16.459-0.041
			c-7.813,0.069-15.175,0.467-22.937-0.763c-5.556-0.88-10.978-1.473-16.396,0.378c-0.91,0.311-0.52,1.76,0.398,1.446
			c7.398-2.526,14.951-0.278,22.447,0.592c7.908,0.917,16.332-0.18,24.298-0.188c7.639-0.008,19.255,1.838,24.453-5.266
			c0.264-0.359,0.027-0.798-0.269-1.026c-7.829-6.025-18.668-4.052-27.715-2.664c-14.318,2.199-28.982-0.348-43.111,3.341
			c-0.345,0.09-0.52,0.39-0.551,0.723c-0.353,3.812,0.202,7.688-0.475,11.469C13.83,38.659,15.275,39.063,15.446,38.112
			L15.446,38.112z"/>
	</g>
</g>
<g>
	<g>
		<path d="M85.946,27.373c0.031-0.117,0.063-0.234,0.095-0.351c-0.418-0.11-0.836-0.221-1.254-0.331
			c0.45,1.233-0.32,3.349-0.309,4.697c0.029,3.25,0.665,6.958-0.479,10.076c-0.334,0.91,1.116,1.299,1.447,0.398
			c1.11-3.025,0.64-6.601,0.548-9.751c-0.049-1.697,0.812-4.25,0.239-5.819c-0.204-0.561-0.8-0.7-1.253-0.331
			c-0.284,0.231-0.377,0.684-0.481,1.013C84.206,27.899,85.654,28.292,85.946,27.373L85.946,27.373z"/>
	</g>
</g>
<g>
	<g>
		<path d="M16.672,28.744c4.857-1.179,10.143-0.613,15.089-0.429c6.382,0.237,12.776-0.109,19.154-0.338
			c5.639-0.202,11.281-0.211,16.921-0.387c4.993-0.156,10.622-0.678,15.438,0.904c0.922,0.303,1.313-1.146,0.398-1.446
			c-4.146-1.363-8.79-1.099-13.091-1.029c-5.899,0.096-11.808,0.223-17.704,0.393c-7.038,0.203-14.075,0.637-21.116,0.403
			c-5.106-0.17-10.469-0.735-15.487,0.483C15.333,27.525,15.732,28.972,16.672,28.744L16.672,28.744z"/>
	</g>
</g>
<g>
	<g>
		<path d="M4.473,31.663c3.173,0.419,6.384,0.022,9.551,0.473c0.945,0.135,1.353-1.311,0.398-1.446
			c-3.303-0.47-6.644-0.09-9.949-0.527C3.516,30.037,3.528,31.538,4.473,31.663L4.473,31.663z"/>
	</g>
</g>
<g>
	<g>
		<path d="M86.023,31.636c4.381,1.368,9.131,1.756,13.699,1.527c0.963-0.048,0.967-1.549,0-1.5
			c-4.451,0.224-9.033-0.141-13.301-1.473C85.496,29.901,85.104,31.349,86.023,31.636L86.023,31.636z"/>
	</g>
</g>
</svg>
